<svg width="300" height="211" viewBox="0 0 300 211" fill="none" xmlns="http://www.w3.org/2000/svg">
<path d="M94.5625 208H47.0312V56.6875L0.34375 70.3281V34.3281L90.2031 3.25H94.5625V208ZM199.609 85.7969H221.969C239.688 85.7969 248.547 77.125 248.547 59.7812C248.547 53.0312 246.438 47.5469 242.219 43.3281C238 39.0156 232.047 36.8594 224.359 36.8594C218.078 36.8594 212.594 38.6875 207.906 42.3438C203.312 46 201.016 50.5469 201.016 55.9844H153.625C153.625 45.2031 156.625 35.5938 162.625 27.1562C168.625 18.7188 176.922 12.1562 187.516 7.46875C198.203 2.6875 209.922 0.296875 222.672 0.296875C245.453 0.296875 263.359 5.5 276.391 15.9062C289.422 26.3125 295.938 40.6094 295.938 58.7969C295.938 67.6094 293.219 75.9531 287.781 83.8281C282.438 91.6094 274.609 97.9375 264.297 102.812C275.172 106.75 283.703 112.75 289.891 120.812C296.078 128.781 299.172 138.672 299.172 150.484C299.172 168.766 292.141 183.391 278.078 194.359C264.016 205.328 245.547 210.812 222.672 210.812C209.266 210.812 196.797 208.281 185.266 203.219C173.828 198.062 165.156 190.984 159.25 181.984C153.344 172.891 150.391 162.578 150.391 151.047H198.062C198.062 157.328 200.594 162.766 205.656 167.359C210.719 171.953 216.953 174.25 224.359 174.25C232.703 174.25 239.359 171.953 244.328 167.359C249.297 162.672 251.781 156.719 251.781 149.5C251.781 139.188 249.203 131.875 244.047 127.562C238.891 123.25 231.766 121.094 222.672 121.094H199.609V85.7969Z" fill="#80C565"/>
</svg>
