<svg width="1456" height="338" viewBox="0 0 1456 338" fill="none" xmlns="http://www.w3.org/2000/svg">
<path d="M766.784 279.857H871.203V326H706.799V77.1719H766.784V279.857Z" fill="#002B55"/>
<path d="M58.0781 114.844L59.625 132.703C70.4062 118.922 84.8906 112.031 103.078 112.031C122.297 112.031 135.281 119.672 142.031 134.953C152.344 119.672 167.25 112.031 186.75 112.031C217.594 112.031 233.438 130.688 234.281 168V267H186.75V170.953C186.75 163.172 185.438 157.5 182.812 153.938C180.188 150.375 175.406 148.594 168.469 148.594C159.094 148.594 152.109 152.766 147.516 161.109L147.656 163.078V267H100.125V171.234C100.125 163.266 98.8594 157.5 96.3281 153.938C93.7969 150.375 88.9688 148.594 81.8438 148.594C72.75 148.594 65.8125 152.766 61.0312 161.109V267H13.6406V114.844H58.0781ZM334.969 269.812C311.625 269.812 292.734 262.875 278.297 249C263.859 235.031 256.641 216.891 256.641 194.578V190.641C256.641 175.078 259.5 161.344 265.219 149.438C271.031 137.531 279.469 128.344 290.531 121.875C301.594 115.312 314.719 112.031 329.906 112.031C351.281 112.031 368.156 118.687 380.531 132C392.906 145.219 399.094 163.688 399.094 187.406V205.828H304.875C306.562 214.359 310.266 221.062 315.984 225.938C321.703 230.812 329.109 233.25 338.203 233.25C353.203 233.25 364.922 228 373.359 217.5L395.016 243.094C389.109 251.25 380.719 257.766 369.844 262.641C359.062 267.422 347.438 269.812 334.969 269.812ZM329.625 148.594C315.75 148.594 307.5 157.781 304.875 176.156H352.688V172.5C352.875 164.906 350.953 159.047 346.922 154.922C342.891 150.703 337.125 148.594 329.625 148.594ZM461.812 114.844L463.359 132.703C473.859 118.922 488.344 112.031 506.812 112.031C522.656 112.031 534.469 116.766 542.25 126.234C550.125 135.703 554.203 149.953 554.484 168.984V267H506.953V170.953C506.953 163.266 505.406 157.641 502.312 154.078C499.219 150.422 493.594 148.594 485.438 148.594C476.156 148.594 469.266 152.25 464.766 159.562V267H417.375V114.844H461.812ZM881.719 267C880.031 263.906 878.531 259.359 877.219 253.359C868.5 264.328 856.312 269.812 840.656 269.812C826.312 269.812 814.125 265.5 804.094 256.875C794.062 248.156 789.047 237.234 789.047 224.109C789.047 207.609 795.141 195.141 807.328 186.703C819.516 178.266 837.234 174.047 860.484 174.047H875.109V166.031C875.109 152.062 869.062 145.078 856.969 145.078C845.719 145.078 840.094 150.609 840.094 161.672H792.703C792.703 146.953 798.938 135 811.406 125.812C823.969 116.625 839.953 112.031 859.359 112.031C878.766 112.031 894.094 116.766 905.344 126.234C916.594 135.703 922.359 148.688 922.641 165.188V232.547C922.828 246.516 924.984 257.203 929.109 264.609V267H881.719ZM852.047 236.062C857.953 236.062 862.828 234.797 866.672 232.266C870.609 229.734 873.422 226.875 875.109 223.688V199.359H861.328C844.828 199.359 836.578 206.766 836.578 221.578C836.578 225.891 838.031 229.406 840.938 232.125C843.844 234.75 847.547 236.062 852.047 236.062ZM993.797 114.844L995.344 132.703C1006.12 118.922 1020.61 112.031 1038.8 112.031C1058.02 112.031 1071 119.672 1077.75 134.953C1088.06 119.672 1102.97 112.031 1122.47 112.031C1153.31 112.031 1169.16 130.688 1170 168V267H1122.47V170.953C1122.47 163.172 1121.16 157.5 1118.53 153.938C1115.91 150.375 1111.12 148.594 1104.19 148.594C1094.81 148.594 1087.83 152.766 1083.23 161.109L1083.38 163.078V267H1035.84V171.234C1035.84 163.266 1034.58 157.5 1032.05 153.938C1029.52 150.375 1024.69 148.594 1017.56 148.594C1008.47 148.594 1001.53 152.766 996.75 161.109V267H949.359V114.844H993.797ZM1338.33 192.047C1338.33 215.672 1332.98 234.562 1322.3 248.719C1311.7 262.781 1297.36 269.812 1279.27 269.812C1265.3 269.812 1253.81 264.703 1244.81 254.484V325.5H1197.42V114.844H1241.72L1243.12 128.906C1252.22 117.656 1264.17 112.031 1278.98 112.031C1297.73 112.031 1312.31 118.969 1322.72 132.844C1333.12 146.625 1338.33 165.609 1338.33 189.797V192.047ZM1290.94 189.094C1290.94 162.094 1283.06 148.594 1267.31 148.594C1256.06 148.594 1248.56 152.625 1244.81 160.688V220.594C1248.94 229.031 1256.53 233.25 1267.59 233.25C1282.69 233.25 1290.47 220.219 1290.94 194.156V189.094ZM1451.39 157.734L1435.78 156.609C1420.88 156.609 1411.31 161.297 1407.09 170.672V267H1359.7V114.844H1404.14L1405.69 134.391C1413.66 119.484 1424.77 112.031 1439.02 112.031C1444.08 112.031 1448.48 112.594 1452.23 113.719L1451.39 157.734Z" fill="#002B55"/>
</svg>
