<svg width="316" height="211" viewBox="0 0 316 211" fill="none" xmlns="http://www.w3.org/2000/svg">
<path d="M49.8281 85.7969H72.1875C89.9062 85.7969 98.7656 77.125 98.7656 59.7812C98.7656 53.0312 96.6562 47.5469 92.4375 43.3281C88.2188 39.0156 82.2656 36.8594 74.5781 36.8594C68.2969 36.8594 62.8125 38.6875 58.125 42.3438C53.5312 46 51.2344 50.5469 51.2344 55.9844H3.84375C3.84375 45.2031 6.84375 35.5938 12.8438 27.1562C18.8438 18.7188 27.1406 12.1562 37.7344 7.46875C48.4219 2.6875 60.1406 0.296875 72.8906 0.296875C95.6719 0.296875 113.578 5.5 126.609 15.9062C139.641 26.3125 146.156 40.6094 146.156 58.7969C146.156 67.6094 143.438 75.9531 138 83.8281C132.656 91.6094 124.828 97.9375 114.516 102.812C125.391 106.75 133.922 112.75 140.109 120.812C146.297 128.781 149.391 138.672 149.391 150.484C149.391 168.766 142.359 183.391 128.297 194.359C114.234 205.328 95.7656 210.812 72.8906 210.812C59.4844 210.812 47.0156 208.281 35.4844 203.219C24.0469 198.062 15.375 190.984 9.46875 181.984C3.5625 172.891 0.609375 162.578 0.609375 151.047H48.2812C48.2812 157.328 50.8125 162.766 55.875 167.359C60.9375 171.953 67.1719 174.25 74.5781 174.25C82.9219 174.25 89.5781 171.953 94.5469 167.359C99.5156 162.672 102 156.719 102 149.5C102 139.188 99.4219 131.875 94.2656 127.562C89.1094 123.25 81.9844 121.094 72.8906 121.094H49.8281V85.7969ZM315.609 28.5625L239.109 208H189.047L265.688 39.8125H168.094V3.25H315.609V28.5625Z" fill="#80C565"/>
</svg>
