<svg width="249" height="156" viewBox="0 0 249 156" fill="none" xmlns="http://www.w3.org/2000/svg">
<path d="M21 50C21 40.0589 29.0589 32 39 32H163.024C172.139 32 179.815 38.8129 180.897 47.863L183.434 69.0811C184.105 74.6968 187.377 79.6704 192.268 82.5104L200 87H39C29.0589 87 21 78.9411 21 69V50Z" fill="#80C565"/>
<path d="M12.2 24.048C11.704 24.048 11.28 23.88 10.928 23.544C10.576 23.208 10.4 22.792 10.4 22.296C10.4 21.816 10.576 21.408 10.928 21.072C11.28 20.736 11.704 20.568 12.2 20.568C12.696 20.568 13.12 20.736 13.472 21.072C13.824 21.408 14 21.816 14 22.296C14 22.792 13.824 23.208 13.472 23.544C13.12 23.88 12.696 24.048 12.2 24.048ZM26.5906 24.048C26.0946 24.048 25.6706 23.88 25.3186 23.544C24.9666 23.208 24.7906 22.792 24.7906 22.296C24.7906 21.816 24.9666 21.408 25.3186 21.072C25.6706 20.736 26.0946 20.568 26.5906 20.568C27.0866 20.568 27.5106 20.736 27.8626 21.072C28.2146 21.408 28.3906 21.816 28.3906 22.296C28.3906 22.792 28.2146 23.208 27.8626 23.544C27.5106 23.88 27.0866 24.048 26.5906 24.048ZM40.9813 24.048C40.4853 24.048 40.0613 23.88 39.7093 23.544C39.3573 23.208 39.1813 22.792 39.1813 22.296C39.1813 21.816 39.3573 21.408 39.7093 21.072C40.0613 20.736 40.4853 20.568 40.9813 20.568C41.4773 20.568 41.9013 20.736 42.2533 21.072C42.6053 21.408 42.7813 21.816 42.7813 22.296C42.7813 22.792 42.6053 23.208 42.2533 23.544C41.9013 23.88 41.4773 24.048 40.9813 24.048ZM64.2185 24V22.344L72.9065 9.024H64.3385V7.2H75.2345V8.856L66.5225 22.176H75.3305V24H64.2185ZM78.3391 24V22.978H80.5651V15.222H78.3391V14.2H83.9671V15.222H81.7411V22.978H83.9671V24H78.3391ZM86.5357 24V23.124H88.4437V16.476H86.5357V15.6H91.3597V16.476H89.4517V23.124H91.3597V24H86.5357ZM93.929 24V22.978H96.155V15.222H93.929V14.2H99.557V15.222H97.331V22.978H99.557V24H93.929ZM102.27 24V11.4H106.464C107.424 11.4 108.21 11.574 108.822 11.922C109.434 12.27 109.884 12.732 110.172 13.308C110.46 13.884 110.604 14.52 110.604 15.216C110.604 15.912 110.46 16.548 110.172 17.124C109.884 17.7 109.434 18.162 108.822 18.51C108.21 18.858 107.424 19.032 106.464 19.032H103.782V24H102.27ZM103.782 17.646H106.428C107.316 17.646 107.976 17.424 108.408 16.98C108.84 16.524 109.056 15.936 109.056 15.216C109.056 14.496 108.84 13.908 108.408 13.452C107.976 12.996 107.316 12.768 106.428 12.768H103.782V17.646Z" fill="#002B55"/>
<path d="M0.83 116.9L4.29 108.4H5.17L1.7 116.9H0.83ZM8.55609 114.99L8.76609 112.89L7.03609 114.06L6.63609 113.34L8.51609 112.5L6.63609 111.65L7.03609 110.94L8.76609 112.11L8.55609 110.01H9.43609L9.23609 112.11L10.9561 110.94L11.3561 111.65L9.47609 112.5L11.3561 113.34L10.9561 114.06L9.23609 112.89L9.43609 114.99H8.55609ZM12.5622 129V122H13.4222L16.6022 127.53V122H17.4322V129H16.5622L13.3822 123.47V129H12.5622ZM20.5683 129.12C20.1749 129.12 19.8483 129.05 19.5883 128.91C19.3283 128.77 19.1349 128.587 19.0083 128.36C18.8816 128.127 18.8183 127.873 18.8183 127.6C18.8183 127.093 19.0016 126.71 19.3683 126.45C19.7416 126.183 20.2383 126.05 20.8583 126.05H22.2183V125.95C22.2183 125.083 21.8216 124.65 21.0283 124.65C20.7083 124.65 20.4383 124.72 20.2183 124.86C20.0049 125 19.8683 125.22 19.8083 125.52H18.9483C18.9816 125.187 19.0916 124.9 19.2783 124.66C19.4716 124.42 19.7183 124.237 20.0183 124.11C20.3183 123.983 20.6549 123.92 21.0283 123.92C21.7349 123.92 22.2483 124.107 22.5683 124.48C22.8949 124.847 23.0583 125.337 23.0583 125.95V129H22.3383L22.2683 128.23H22.1983C22.0516 128.47 21.8549 128.68 21.6083 128.86C21.3683 129.033 21.0216 129.12 20.5683 129.12ZM20.7183 128.38C21.0383 128.38 21.3083 128.303 21.5283 128.15C21.7549 127.997 21.9249 127.793 22.0383 127.54C22.1583 127.287 22.2183 127.01 22.2183 126.71H20.9283C20.4749 126.71 20.1549 126.787 19.9683 126.94C19.7883 127.093 19.6983 127.297 19.6983 127.55C19.6983 127.81 19.7849 128.013 19.9583 128.16C20.1316 128.307 20.3849 128.38 20.7183 128.38ZM26.8144 129.12C26.3944 129.12 26.0177 129.02 25.6844 128.82C25.3577 128.62 25.101 128.327 24.9144 127.94C24.7277 127.547 24.6344 127.07 24.6344 126.51C24.6344 125.957 24.7277 125.487 24.9144 125.1C25.101 124.713 25.3577 124.42 25.6844 124.22C26.0177 124.02 26.3944 123.92 26.8144 123.92C27.2077 123.92 27.531 123.997 27.7844 124.15C28.0444 124.303 28.2377 124.503 28.3644 124.75V121.8H29.2044V129H28.5144L28.4244 128.23H28.3644C28.231 128.503 28.0344 128.72 27.7744 128.88C27.5144 129.04 27.1944 129.12 26.8144 129.12ZM26.9244 128.32C27.3444 128.32 27.691 128.173 27.9644 127.88C28.2377 127.58 28.3744 127.127 28.3744 126.52C28.3744 125.913 28.2377 125.463 27.9644 125.17C27.691 124.87 27.3444 124.72 26.9244 124.72C26.5044 124.72 26.1577 124.87 25.8844 125.17C25.6177 125.463 25.4844 125.913 25.4844 126.52C25.4844 127.127 25.6177 127.58 25.8844 127.88C26.1577 128.173 26.5044 128.32 26.9244 128.32ZM30.7305 129V128.28H32.4205V122.77C32.4205 122.603 32.3371 122.52 32.1705 122.52H30.9105V121.8H32.3705C32.6571 121.8 32.8771 121.877 33.0305 122.03C33.1838 122.183 33.2605 122.403 33.2605 122.69V128.28H34.9505V129H30.7305ZM39.0266 129.12C38.5599 129.12 38.1466 129.013 37.7866 128.8C37.4332 128.58 37.1532 128.277 36.9466 127.89C36.7399 127.497 36.6366 127.04 36.6366 126.52C36.6366 126 36.7366 125.547 36.9366 125.16C37.1432 124.767 37.4266 124.463 37.7866 124.25C38.1466 124.03 38.5666 123.92 39.0466 123.92C39.5266 123.92 39.9366 124.03 40.2766 124.25C40.6166 124.463 40.8766 124.747 41.0566 125.1C41.2366 125.453 41.3266 125.833 41.3266 126.24C41.3266 126.313 41.3232 126.387 41.3166 126.46C41.3166 126.533 41.3166 126.617 41.3166 126.71H37.4666C37.4866 127.077 37.5699 127.383 37.7166 127.63C37.8699 127.87 38.0599 128.05 38.2866 128.17C38.5199 128.29 38.7666 128.35 39.0266 128.35C39.3932 128.35 39.6799 128.273 39.8866 128.12C40.0932 127.967 40.2499 127.753 40.3566 127.48H41.1866C41.0732 127.94 40.8366 128.33 40.4766 128.65C40.1166 128.963 39.6332 129.12 39.0266 129.12ZM39.0266 124.67C38.6399 124.67 38.2999 124.787 38.0066 125.02C37.7199 125.253 37.5432 125.58 37.4766 126H40.4966C40.4699 125.587 40.3199 125.263 40.0466 125.03C39.7799 124.79 39.4399 124.67 39.0266 124.67ZM42.9927 129V128.23L45.9127 124.82H43.0427V124.04H46.9027V124.81L43.9727 128.22H46.9527V129H42.9927ZM44.9727 123.49L43.6027 122.69V121.95L44.9527 122.75H44.9927L46.3427 121.95V122.69L44.9727 123.49ZM48.8488 129V124.04H49.5488L49.6388 124.79H49.6888C49.8221 124.55 50.0321 124.347 50.3188 124.18C50.6054 124.007 50.9354 123.92 51.3088 123.92C51.9154 123.92 52.3688 124.1 52.6688 124.46C52.9754 124.82 53.1288 125.34 53.1288 126.02V129H52.2888V126.12C52.2888 125.68 52.1921 125.337 51.9988 125.09C51.8054 124.837 51.5054 124.71 51.0988 124.71C50.7054 124.71 50.3721 124.847 50.0988 125.12C49.8254 125.387 49.6888 125.773 49.6888 126.28V129H48.8488ZM56.9648 129.12C56.4982 129.12 56.0848 129.013 55.7248 128.8C55.3648 128.587 55.0815 128.287 54.8748 127.9C54.6682 127.507 54.5648 127.047 54.5648 126.52C54.5648 125.993 54.6682 125.537 54.8748 125.15C55.0815 124.757 55.3648 124.453 55.7248 124.24C56.0848 124.027 56.4982 123.92 56.9648 123.92C57.4315 123.92 57.8448 124.027 58.2048 124.24C58.5648 124.453 58.8482 124.757 59.0548 125.15C59.2615 125.537 59.3648 125.993 59.3648 126.52C59.3648 127.047 59.2615 127.507 59.0548 127.9C58.8482 128.287 58.5648 128.587 58.2048 128.8C57.8448 129.013 57.4315 129.12 56.9648 129.12ZM56.9648 128.32C57.2515 128.32 57.5115 128.257 57.7448 128.13C57.9782 128.003 58.1615 127.807 58.2948 127.54C58.4348 127.273 58.5048 126.933 58.5048 126.52C58.5048 126.107 58.4348 125.767 58.2948 125.5C58.1615 125.233 57.9782 125.037 57.7448 124.91C57.5115 124.783 57.2515 124.72 56.9648 124.72C56.6848 124.72 56.4282 124.783 56.1948 124.91C55.9615 125.037 55.7748 125.233 55.6348 125.5C55.4948 125.767 55.4248 126.107 55.4248 126.52C55.4248 127.14 55.5748 127.597 55.8748 127.89C56.1748 128.177 56.5382 128.32 56.9648 128.32ZM66.737 131.2V124.04H67.417L67.517 124.86H67.577C67.7037 124.593 67.907 124.37 68.187 124.19C68.467 124.01 68.797 123.92 69.177 123.92C69.577 123.92 69.937 124.02 70.257 124.22C70.5837 124.42 70.8404 124.717 71.027 125.11C71.2137 125.497 71.307 125.97 71.307 126.53C71.307 127.083 71.2104 127.553 71.017 127.94C70.8304 128.327 70.5704 128.62 70.237 128.82C69.9104 129.02 69.5337 129.12 69.107 129.12C68.727 129.12 68.4037 129.04 68.137 128.88C67.877 128.713 67.6904 128.52 67.577 128.3V131.2H66.737ZM69.007 128.32C69.427 128.32 69.7737 128.173 70.047 127.88C70.3204 127.58 70.457 127.127 70.457 126.52C70.457 125.913 70.3204 125.463 70.047 125.17C69.7737 124.87 69.427 124.72 69.007 124.72C68.587 124.72 68.2404 124.87 67.967 125.17C67.6937 125.463 67.557 125.913 67.557 126.52C67.557 127.127 67.6937 127.58 67.967 127.88C68.2404 128.173 68.587 128.32 69.007 128.32ZM74.9531 129.12C74.4865 129.12 74.0731 129.013 73.7131 128.8C73.3531 128.587 73.0698 128.287 72.8631 127.9C72.6565 127.507 72.5531 127.047 72.5531 126.52C72.5531 125.993 72.6565 125.537 72.8631 125.15C73.0698 124.757 73.3531 124.453 73.7131 124.24C74.0731 124.027 74.4865 123.92 74.9531 123.92C75.4198 123.92 75.8331 124.027 76.1931 124.24C76.5531 124.453 76.8365 124.757 77.0431 125.15C77.2498 125.537 77.3531 125.993 77.3531 126.52C77.3531 127.047 77.2498 127.507 77.0431 127.9C76.8365 128.287 76.5531 128.587 76.1931 128.8C75.8331 129.013 75.4198 129.12 74.9531 129.12ZM74.9531 128.32C75.2398 128.32 75.4998 128.257 75.7331 128.13C75.9665 128.003 76.1498 127.807 76.2831 127.54C76.4231 127.273 76.4931 126.933 76.4931 126.52C76.4931 126.107 76.4231 125.767 76.2831 125.5C76.1498 125.233 75.9665 125.037 75.7331 124.91C75.4998 124.783 75.2398 124.72 74.9531 124.72C74.6731 124.72 74.4165 124.783 74.1831 124.91C73.9498 125.037 73.7631 125.233 73.6231 125.5C73.4831 125.767 73.4131 126.107 73.4131 126.52C73.4131 127.14 73.5631 127.597 73.8631 127.89C74.1631 128.177 74.5265 128.32 74.9531 128.32ZM78.9692 129V128.23L81.8892 124.82H79.0192V124.04H82.8792V124.81L79.9492 128.22H82.9292V129H78.9692ZM86.8853 123.16C86.6853 123.16 86.5186 123.093 86.3853 122.96C86.252 122.827 86.1853 122.667 86.1853 122.48C86.1853 122.287 86.252 122.127 86.3853 122C86.5186 121.867 86.6853 121.8 86.8853 121.8C87.0786 121.8 87.242 121.867 87.3753 122C87.5153 122.127 87.5853 122.287 87.5853 122.48C87.5853 122.667 87.5153 122.827 87.3753 122.96C87.242 123.093 87.0786 123.16 86.8853 123.16ZM84.9453 129V128.28H86.5253V125.01C86.5253 124.843 86.442 124.76 86.2753 124.76H85.1153V124.04H86.4753C87.0686 124.04 87.3653 124.337 87.3653 124.93V128.28H88.9453V129H84.9453ZM93.4614 129C93.0081 129 92.6514 128.89 92.3914 128.67C92.1314 128.45 92.0014 128.053 92.0014 127.48V124.76H90.7414V124.04H91.4914C91.8314 124.04 92.0281 123.873 92.0814 123.54L92.2214 122.77H92.8414V124.04H94.8214V124.76H92.8414V127.48C92.8414 127.76 92.9047 127.957 93.0314 128.07C93.1647 128.183 93.3914 128.24 93.7114 128.24H94.8214V129H93.4614ZM98.8775 123.16C98.6775 123.16 98.5108 123.093 98.3775 122.96C98.2442 122.827 98.1775 122.667 98.1775 122.48C98.1775 122.287 98.2442 122.127 98.3775 122C98.5108 121.867 98.6775 121.8 98.8775 121.8C99.0708 121.8 99.2342 121.867 99.3675 122C99.5075 122.127 99.5775 122.287 99.5775 122.48C99.5775 122.667 99.5075 122.827 99.3675 122.96C99.2342 123.093 99.0708 123.16 98.8775 123.16ZM96.9375 129V128.28H98.5175V125.01C98.5175 124.843 98.4342 124.76 98.2675 124.76H97.1075V124.04H98.4675C99.0608 124.04 99.3575 124.337 99.3575 124.93V128.28H100.938V129H96.9375ZM104.444 129L102.264 124.04H103.224L104.934 128.08L106.654 124.04H107.604L105.414 129H104.444ZM108.81 129V124.04H109.51L109.6 124.79H109.65C109.783 124.55 109.993 124.347 110.28 124.18C110.566 124.007 110.896 123.92 111.27 123.92C111.876 123.92 112.33 124.1 112.63 124.46C112.936 124.82 113.09 125.34 113.09 126.02V129H112.25V126.12C112.25 125.68 112.153 125.337 111.96 125.09C111.766 124.837 111.466 124.71 111.06 124.71C110.666 124.71 110.333 124.847 110.06 125.12C109.786 125.387 109.65 125.773 109.65 126.28V129H108.81ZM116.506 129.12C116.112 129.12 115.786 129.05 115.526 128.91C115.266 128.77 115.072 128.587 114.946 128.36C114.819 128.127 114.756 127.873 114.756 127.6C114.756 127.093 114.939 126.71 115.306 126.45C115.679 126.183 116.176 126.05 116.796 126.05H118.156V125.95C118.156 125.083 117.759 124.65 116.966 124.65C116.646 124.65 116.376 124.72 116.156 124.86C115.942 125 115.806 125.22 115.746 125.52H114.886C114.919 125.187 115.029 124.9 115.216 124.66C115.409 124.42 115.656 124.237 115.956 124.11C116.256 123.983 116.592 123.92 116.966 123.92C117.672 123.92 118.186 124.107 118.506 124.48C118.832 124.847 118.996 125.337 118.996 125.95V129H118.276L118.206 128.23H118.136C117.989 128.47 117.792 128.68 117.546 128.86C117.306 129.033 116.959 129.12 116.506 129.12ZM116.656 128.38C116.976 128.38 117.246 128.303 117.466 128.15C117.692 127.997 117.862 127.793 117.976 127.54C118.096 127.287 118.156 127.01 118.156 126.71H116.866C116.412 126.71 116.092 126.787 115.906 126.94C115.726 127.093 115.636 127.297 115.636 127.55C115.636 127.81 115.722 128.013 115.896 128.16C116.069 128.307 116.322 128.38 116.656 128.38ZM126.938 129V128.23L129.858 124.82H126.988V124.04H130.848V124.81L127.918 128.22H130.898V129H126.938ZM134.494 129.12C134.101 129.12 133.774 129.05 133.514 128.91C133.254 128.77 133.061 128.587 132.934 128.36C132.807 128.127 132.744 127.873 132.744 127.6C132.744 127.093 132.927 126.71 133.294 126.45C133.667 126.183 134.164 126.05 134.784 126.05H136.144V125.95C136.144 125.083 135.747 124.65 134.954 124.65C134.634 124.65 134.364 124.72 134.144 124.86C133.931 125 133.794 125.22 133.734 125.52H132.874C132.907 125.187 133.017 124.9 133.204 124.66C133.397 124.42 133.644 124.237 133.944 124.11C134.244 123.983 134.581 123.92 134.954 123.92C135.661 123.92 136.174 124.107 136.494 124.48C136.821 124.847 136.984 125.337 136.984 125.95V129H136.264L136.194 128.23H136.124C135.977 128.47 135.781 128.68 135.534 128.86C135.294 129.033 134.947 129.12 134.494 129.12ZM134.644 128.38C134.964 128.38 135.234 128.303 135.454 128.15C135.681 127.997 135.851 127.793 135.964 127.54C136.084 127.287 136.144 127.01 136.144 126.71H134.854C134.401 126.71 134.081 126.787 133.894 126.94C133.714 127.093 133.624 127.297 133.624 127.55C133.624 127.81 133.711 128.013 133.884 128.16C134.057 128.307 134.311 128.38 134.644 128.38ZM140.96 129.12C140.327 129.12 139.813 128.973 139.42 128.68C139.033 128.38 138.817 127.97 138.77 127.45H139.64C139.68 127.723 139.813 127.947 140.04 128.12C140.273 128.293 140.587 128.38 140.98 128.38C141.353 128.38 141.63 128.3 141.81 128.14C141.997 127.98 142.09 127.797 142.09 127.59C142.09 127.31 141.98 127.12 141.76 127.02C141.54 126.913 141.21 126.833 140.77 126.78C140.243 126.72 139.807 126.577 139.46 126.35C139.113 126.123 138.94 125.783 138.94 125.33C138.94 124.923 139.11 124.587 139.45 124.32C139.79 124.053 140.253 123.92 140.84 123.92C141.42 123.92 141.877 124.053 142.21 124.32C142.543 124.58 142.733 124.953 142.78 125.44H141.95C141.93 125.2 141.813 125.01 141.6 124.87C141.393 124.723 141.133 124.65 140.82 124.65C140.493 124.65 140.24 124.713 140.06 124.84C139.88 124.96 139.79 125.12 139.79 125.32C139.79 125.52 139.89 125.687 140.09 125.82C140.297 125.947 140.62 126.03 141.06 126.07C141.407 126.11 141.723 126.177 142.01 126.27C142.297 126.363 142.523 126.51 142.69 126.71C142.863 126.91 142.95 127.19 142.95 127.55C142.957 127.85 142.873 128.12 142.7 128.36C142.533 128.593 142.3 128.78 142 128.92C141.7 129.053 141.353 129.12 140.96 129.12ZM147.426 129C146.973 129 146.616 128.89 146.356 128.67C146.096 128.45 145.966 128.053 145.966 127.48V124.76H144.706V124.04H145.456C145.796 124.04 145.993 123.873 146.046 123.54L146.186 122.77H146.806V124.04H148.786V124.76H146.806V127.48C146.806 127.76 146.87 127.957 146.996 128.07C147.13 128.183 147.356 128.24 147.676 128.24H148.786V129H147.426ZM152.902 129.12C152.436 129.12 152.022 129.013 151.662 128.8C151.302 128.587 151.019 128.287 150.812 127.9C150.606 127.507 150.502 127.047 150.502 126.52C150.502 125.993 150.606 125.537 150.812 125.15C151.019 124.757 151.302 124.453 151.662 124.24C152.022 124.027 152.436 123.92 152.902 123.92C153.369 123.92 153.782 124.027 154.142 124.24C154.502 124.453 154.786 124.757 154.992 125.15C155.199 125.537 155.302 125.993 155.302 126.52C155.302 127.047 155.199 127.507 154.992 127.9C154.786 128.287 154.502 128.587 154.142 128.8C153.782 129.013 153.369 129.12 152.902 129.12ZM152.902 128.32C153.189 128.32 153.449 128.257 153.682 128.13C153.916 128.003 154.099 127.807 154.232 127.54C154.372 127.273 154.442 126.933 154.442 126.52C154.442 126.107 154.372 125.767 154.232 125.5C154.099 125.233 153.916 125.037 153.682 124.91C153.449 124.783 153.189 124.72 152.902 124.72C152.622 124.72 152.366 124.783 152.132 124.91C151.899 125.037 151.712 125.233 151.572 125.5C151.432 125.767 151.362 126.107 151.362 126.52C151.362 127.14 151.512 127.597 151.812 127.89C152.112 128.177 152.476 128.32 152.902 128.32ZM156.778 129V124.04H157.478L157.568 124.79H157.618C157.752 124.55 157.962 124.347 158.248 124.18C158.535 124.007 158.865 123.92 159.238 123.92C159.845 123.92 160.298 124.1 160.598 124.46C160.905 124.82 161.058 125.34 161.058 126.02V129H160.218V126.12C160.218 125.68 160.122 125.337 159.928 125.09C159.735 124.837 159.435 124.71 159.028 124.71C158.635 124.71 158.302 124.847 158.028 125.12C157.755 125.387 157.618 125.773 157.618 126.28V129H156.778ZM165.095 123.16C164.901 123.16 164.735 123.093 164.595 122.96C164.461 122.827 164.395 122.667 164.395 122.48C164.395 122.287 164.461 122.127 164.595 122C164.735 121.867 164.901 121.8 165.095 121.8C165.295 121.8 165.461 121.867 165.595 122C165.728 122.127 165.795 122.287 165.795 122.48C165.795 122.667 165.728 122.827 165.595 122.96C165.461 123.093 165.295 123.16 165.095 123.16ZM162.505 131.2V130.48H164.485C164.651 130.48 164.735 130.393 164.735 130.22V125.01C164.735 124.843 164.651 124.76 164.485 124.76H163.285V124.04H164.685C165.278 124.04 165.575 124.337 165.575 124.93V130.31C165.575 130.903 165.278 131.2 164.685 131.2H162.505ZM14.9322 136.16C14.7322 136.16 14.5655 136.093 14.4322 135.96C14.2989 135.827 14.2322 135.667 14.2322 135.48C14.2322 135.287 14.2989 135.127 14.4322 135C14.5655 134.867 14.7322 134.8 14.9322 134.8C15.1255 134.8 15.2889 134.867 15.4222 135C15.5622 135.127 15.6322 135.287 15.6322 135.48C15.6322 135.667 15.5622 135.827 15.4222 135.96C15.2889 136.093 15.1255 136.16 14.9322 136.16ZM12.9922 142V141.28H14.5722V138.01C14.5722 137.843 14.4889 137.76 14.3222 137.76H13.1622V137.04H14.5222C15.1155 137.04 15.4122 137.337 15.4122 137.93V141.28H16.9922V142H12.9922ZM18.8683 142V137.04H19.5683L19.6583 137.79H19.7083C19.8416 137.55 20.0516 137.347 20.3383 137.18C20.6249 137.007 20.9549 136.92 21.3283 136.92C21.9349 136.92 22.3883 137.1 22.6883 137.46C22.9949 137.82 23.1483 138.34 23.1483 139.02V142H22.3083V139.12C22.3083 138.68 22.2116 138.337 22.0183 138.09C21.8249 137.837 21.5249 137.71 21.1183 137.71C20.7249 137.71 20.3916 137.847 20.1183 138.12C19.8449 138.387 19.7083 138.773 19.7083 139.28V142H18.8683ZM26.8144 142.12C26.3944 142.12 26.0177 142.02 25.6844 141.82C25.3577 141.62 25.101 141.327 24.9144 140.94C24.7277 140.547 24.6344 140.07 24.6344 139.51C24.6344 138.957 24.7277 138.487 24.9144 138.1C25.101 137.713 25.3577 137.42 25.6844 137.22C26.0177 137.02 26.3944 136.92 26.8144 136.92C27.2077 136.92 27.531 136.997 27.7844 137.15C28.0444 137.303 28.2377 137.503 28.3644 137.75V134.8H29.2044V142H28.5144L28.4244 141.23H28.3644C28.231 141.503 28.0344 141.72 27.7744 141.88C27.5144 142.04 27.1944 142.12 26.8144 142.12ZM26.9244 141.32C27.3444 141.32 27.691 141.173 27.9644 140.88C28.2377 140.58 28.3744 140.127 28.3744 139.52C28.3744 138.913 28.2377 138.463 27.9644 138.17C27.691 137.87 27.3444 137.72 26.9244 137.72C26.5044 137.72 26.1577 137.87 25.8844 138.17C25.6177 138.463 25.4844 138.913 25.4844 139.52C25.4844 140.127 25.6177 140.58 25.8844 140.88C26.1577 141.173 26.5044 141.32 26.9244 141.32ZM32.9205 136.16C32.7205 136.16 32.5538 136.093 32.4205 135.96C32.2871 135.827 32.2205 135.667 32.2205 135.48C32.2205 135.287 32.2871 135.127 32.4205 135C32.5538 134.867 32.7205 134.8 32.9205 134.8C33.1138 134.8 33.2771 134.867 33.4105 135C33.5505 135.127 33.6205 135.287 33.6205 135.48C33.6205 135.667 33.5505 135.827 33.4105 135.96C33.2771 136.093 33.1138 136.16 32.9205 136.16ZM30.9805 142V141.28H32.5605V138.01C32.5605 137.843 32.4771 137.76 32.3105 137.76H31.1505V137.04H32.5105C33.1038 137.04 33.4005 137.337 33.4005 137.93V141.28H34.9805V142H30.9805ZM39.0266 142.12C38.5599 142.12 38.1466 142.013 37.7866 141.8C37.4332 141.58 37.1532 141.277 36.9466 140.89C36.7399 140.497 36.6366 140.04 36.6366 139.52C36.6366 139 36.7366 138.547 36.9366 138.16C37.1432 137.767 37.4266 137.463 37.7866 137.25C38.1466 137.03 38.5666 136.92 39.0466 136.92C39.5266 136.92 39.9366 137.03 40.2766 137.25C40.6166 137.463 40.8766 137.747 41.0566 138.1C41.2366 138.453 41.3266 138.833 41.3266 139.24C41.3266 139.313 41.3232 139.387 41.3166 139.46C41.3166 139.533 41.3166 139.617 41.3166 139.71H37.4666C37.4866 140.077 37.5699 140.383 37.7166 140.63C37.8699 140.87 38.0599 141.05 38.2866 141.17C38.5199 141.29 38.7666 141.35 39.0266 141.35C39.3932 141.35 39.6799 141.273 39.8866 141.12C40.0932 140.967 40.2499 140.753 40.3566 140.48H41.1866C41.0732 140.94 40.8366 141.33 40.4766 141.65C40.1166 141.963 39.6332 142.12 39.0266 142.12ZM39.0266 137.67C38.6399 137.67 38.2999 137.787 38.0066 138.02C37.7199 138.253 37.5432 138.58 37.4766 139H40.4966C40.4699 138.587 40.3199 138.263 40.0466 138.03C39.7799 137.79 39.4399 137.67 39.0266 137.67ZM50.8788 140.54C50.5321 140.54 50.2221 140.477 49.9488 140.35L49.6088 140.76C49.5354 140.86 49.5154 140.96 49.5488 141.06C49.5888 141.153 49.6854 141.2 49.8388 141.2H51.1488C51.7421 141.2 52.2221 141.317 52.5888 141.55C52.9554 141.777 53.1388 142.14 53.1388 142.64C53.1388 142.94 53.0621 143.217 52.9088 143.47C52.7554 143.723 52.5121 143.927 52.1788 144.08C51.8521 144.24 51.4221 144.32 50.8888 144.32C50.1954 144.32 49.6388 144.19 49.2188 143.93C48.7988 143.67 48.5888 143.273 48.5888 142.74C48.5888 142.547 48.6354 142.367 48.7288 142.2C48.8288 142.04 48.9521 141.897 49.0988 141.77C48.9054 141.65 48.7854 141.47 48.7388 141.23C48.6988 140.99 48.7721 140.753 48.9588 140.52L49.4088 139.96C49.0888 139.627 48.9288 139.217 48.9288 138.73C48.9288 138.41 49.0054 138.113 49.1588 137.84C49.3121 137.56 49.5321 137.337 49.8188 137.17C50.1121 137.003 50.4654 136.92 50.8788 136.92C51.1454 136.92 51.3921 136.96 51.6188 137.04H53.4787V137.67L52.5488 137.7V137.77C52.7221 138.057 52.8088 138.377 52.8088 138.73C52.8088 139.05 52.7321 139.35 52.5788 139.63C52.4321 139.903 52.2121 140.123 51.9188 140.29C51.6321 140.457 51.2854 140.54 50.8788 140.54ZM50.8788 139.82C51.2054 139.82 51.4721 139.723 51.6788 139.53C51.8921 139.337 51.9988 139.07 51.9988 138.73C51.9988 138.39 51.8921 138.127 51.6788 137.94C51.4721 137.747 51.2054 137.65 50.8788 137.65C50.5454 137.65 50.2721 137.747 50.0588 137.94C49.8454 138.127 49.7388 138.39 49.7388 138.73C49.7388 139.07 49.8454 139.337 50.0588 139.53C50.2721 139.723 50.5454 139.82 50.8788 139.82ZM49.4188 142.71C49.4188 143.003 49.5554 143.223 49.8288 143.37C50.1021 143.517 50.4554 143.59 50.8888 143.59C51.3088 143.59 51.6488 143.507 51.9088 143.34C52.1754 143.173 52.3088 142.95 52.3088 142.67C52.3088 142.45 52.2154 142.263 52.0288 142.11C51.8421 141.963 51.4988 141.89 50.9988 141.89H49.8688C49.5688 142.11 49.4188 142.383 49.4188 142.71ZM54.7148 142V141.28H56.4048V135.77C56.4048 135.603 56.3215 135.52 56.1548 135.52H54.8948V134.8H56.3548C56.6415 134.8 56.8615 134.877 57.0148 135.03C57.1682 135.183 57.2448 135.403 57.2448 135.69V141.28H58.9348V142H54.7148ZM62.5409 142.12C62.1476 142.12 61.8209 142.05 61.5609 141.91C61.3009 141.77 61.1076 141.587 60.9809 141.36C60.8543 141.127 60.7909 140.873 60.7909 140.6C60.7909 140.093 60.9743 139.71 61.3409 139.45C61.7143 139.183 62.2109 139.05 62.8309 139.05H64.1909V138.95C64.1909 138.083 63.7943 137.65 63.0009 137.65C62.6809 137.65 62.4109 137.72 62.1909 137.86C61.9776 138 61.8409 138.22 61.7809 138.52H60.9209C60.9543 138.187 61.0643 137.9 61.2509 137.66C61.4443 137.42 61.6909 137.237 61.9909 137.11C62.2909 136.983 62.6276 136.92 63.0009 136.92C63.7076 136.92 64.2209 137.107 64.5409 137.48C64.8676 137.847 65.0309 138.337 65.0309 138.95V142H64.3109L64.2409 141.23H64.1709C64.0243 141.47 63.8276 141.68 63.5809 141.86C63.3409 142.033 62.9943 142.12 62.5409 142.12ZM62.6909 141.38C63.0109 141.38 63.2809 141.303 63.5009 141.15C63.7276 140.997 63.8976 140.793 64.0109 140.54C64.1309 140.287 64.1909 140.01 64.1909 139.71H62.9009C62.4476 139.71 62.1276 139.787 61.9409 139.94C61.7609 140.093 61.6709 140.297 61.6709 140.55C61.6709 140.81 61.7576 141.013 61.9309 141.16C62.1043 141.307 62.3576 141.38 62.6909 141.38ZM69.007 142.12C68.3737 142.12 67.8604 141.973 67.467 141.68C67.0804 141.38 66.8637 140.97 66.817 140.45H67.687C67.727 140.723 67.8604 140.947 68.087 141.12C68.3204 141.293 68.6337 141.38 69.027 141.38C69.4004 141.38 69.677 141.3 69.857 141.14C70.0437 140.98 70.137 140.797 70.137 140.59C70.137 140.31 70.027 140.12 69.807 140.02C69.587 139.913 69.257 139.833 68.817 139.78C68.2904 139.72 67.8537 139.577 67.507 139.35C67.1604 139.123 66.987 138.783 66.987 138.33C66.987 137.923 67.157 137.587 67.497 137.32C67.837 137.053 68.3004 136.92 68.887 136.92C69.467 136.92 69.9237 137.053 70.257 137.32C70.5904 137.58 70.7804 137.953 70.827 138.44H69.997C69.977 138.2 69.8604 138.01 69.647 137.87C69.4404 137.723 69.1804 137.65 68.867 137.65C68.5404 137.65 68.287 137.713 68.107 137.84C67.927 137.96 67.837 138.12 67.837 138.32C67.837 138.52 67.937 138.687 68.137 138.82C68.3437 138.947 68.667 139.03 69.107 139.07C69.4537 139.11 69.7704 139.177 70.057 139.27C70.3437 139.363 70.5704 139.51 70.737 139.71C70.9104 139.91 70.997 140.19 70.997 140.55C71.0037 140.85 70.9204 141.12 70.747 141.36C70.5804 141.593 70.347 141.78 70.047 141.92C69.747 142.053 69.4004 142.12 69.007 142.12ZM75.1231 142.12C74.7431 142.12 74.4198 142.043 74.1531 141.89C73.8931 141.73 73.6998 141.513 73.5731 141.24H73.5131L73.4231 142H72.7331V134.8H73.5731V137.75C73.6998 137.53 73.8965 137.337 74.1631 137.17C74.4365 137.003 74.7565 136.92 75.1231 136.92C75.5498 136.92 75.9265 137.02 76.2531 137.22C76.5798 137.42 76.8365 137.713 77.0231 138.1C77.2098 138.487 77.3031 138.957 77.3031 139.51C77.3031 140.07 77.2098 140.547 77.0231 140.94C76.8365 141.327 76.5765 141.62 76.2431 141.82C75.9165 142.02 75.5431 142.12 75.1231 142.12ZM75.0131 141.32C75.4331 141.32 75.7765 141.173 76.0431 140.88C76.3165 140.58 76.4531 140.127 76.4531 139.52C76.4531 138.913 76.3165 138.463 76.0431 138.17C75.7765 137.87 75.4331 137.72 75.0131 137.72C74.5931 137.72 74.2465 137.87 73.9731 138.17C73.6998 138.463 73.5631 138.913 73.5631 139.52C73.5631 140.127 73.6998 140.58 73.9731 140.88C74.2465 141.173 74.5931 141.32 75.0131 141.32ZM80.5292 142.12C80.1359 142.12 79.8092 142.05 79.5492 141.91C79.2892 141.77 79.0959 141.587 78.9692 141.36C78.8426 141.127 78.7792 140.873 78.7792 140.6C78.7792 140.093 78.9626 139.71 79.3292 139.45C79.7026 139.183 80.1992 139.05 80.8192 139.05H82.1792V138.95C82.1792 138.083 81.7826 137.65 80.9892 137.65C80.6692 137.65 80.3992 137.72 80.1792 137.86C79.9659 138 79.8292 138.22 79.7692 138.52H78.9092C78.9426 138.187 79.0526 137.9 79.2392 137.66C79.4326 137.42 79.6792 137.237 79.9792 137.11C80.2792 136.983 80.6159 136.92 80.9892 136.92C81.6959 136.92 82.2092 137.107 82.5292 137.48C82.8559 137.847 83.0192 138.337 83.0192 138.95V142H82.2992L82.2292 141.23H82.1592C82.0126 141.47 81.8159 141.68 81.5692 141.86C81.3292 142.033 80.9826 142.12 80.5292 142.12ZM80.6792 141.38C80.9992 141.38 81.2692 141.303 81.4892 141.15C81.7159 140.997 81.8859 140.793 81.9992 140.54C82.1192 140.287 82.1792 140.01 82.1792 139.71H80.8892C80.4359 139.71 80.1159 139.787 79.9292 139.94C79.7492 140.093 79.6592 140.297 79.6592 140.55C79.6592 140.81 79.7459 141.013 79.9192 141.16C80.0926 141.307 80.3459 141.38 80.6792 141.38ZM92.9914 142.12C92.3581 142.12 91.8447 141.973 91.4514 141.68C91.0647 141.38 90.8481 140.97 90.8014 140.45H91.6714C91.7114 140.723 91.8447 140.947 92.0714 141.12C92.3047 141.293 92.6181 141.38 93.0114 141.38C93.3847 141.38 93.6614 141.3 93.8414 141.14C94.0281 140.98 94.1214 140.797 94.1214 140.59C94.1214 140.31 94.0114 140.12 93.7914 140.02C93.5714 139.913 93.2414 139.833 92.8014 139.78C92.2747 139.72 91.8381 139.577 91.4914 139.35C91.1447 139.123 90.9714 138.783 90.9714 138.33C90.9714 137.923 91.1414 137.587 91.4814 137.32C91.8214 137.053 92.2847 136.92 92.8714 136.92C93.4514 136.92 93.9081 137.053 94.2414 137.32C94.5747 137.58 94.7647 137.953 94.8114 138.44H93.9814C93.9614 138.2 93.8447 138.01 93.6314 137.87C93.4247 137.723 93.1647 137.65 92.8514 137.65C92.5247 137.65 92.2714 137.713 92.0914 137.84C91.9114 137.96 91.8214 138.12 91.8214 138.32C91.8214 138.52 91.9214 138.687 92.1214 138.82C92.3281 138.947 92.6514 139.03 93.0914 139.07C93.4381 139.11 93.7547 139.177 94.0414 139.27C94.3281 139.363 94.5547 139.51 94.7214 139.71C94.8947 139.91 94.9814 140.19 94.9814 140.55C94.9881 140.85 94.9047 141.12 94.7314 141.36C94.5647 141.593 94.3314 141.78 94.0314 141.92C93.7314 142.053 93.3847 142.12 92.9914 142.12ZM105.004 142.12C104.51 142.12 104.08 142.027 103.714 141.84C103.354 141.653 103.074 141.393 102.874 141.06C102.68 140.727 102.58 140.337 102.574 139.89H103.454C103.46 140.29 103.594 140.637 103.854 140.93C104.12 141.217 104.504 141.36 105.004 141.36C105.464 141.36 105.817 141.25 106.064 141.03C106.317 140.803 106.444 140.533 106.444 140.22C106.444 139.96 106.384 139.743 106.264 139.57C106.144 139.39 105.947 139.233 105.674 139.1C105.407 138.96 105.047 138.817 104.594 138.67C103.954 138.477 103.487 138.213 103.194 137.88C102.9 137.547 102.754 137.133 102.754 136.64C102.754 136.307 102.84 136.007 103.014 135.74C103.187 135.473 103.437 135.263 103.764 135.11C104.09 134.957 104.487 134.88 104.954 134.88C105.394 134.88 105.777 134.963 106.104 135.13C106.437 135.29 106.694 135.517 106.874 135.81C107.06 136.103 107.154 136.44 107.154 136.82H106.274C106.274 136.633 106.224 136.45 106.124 136.27C106.024 136.09 105.874 135.94 105.674 135.82C105.474 135.7 105.22 135.64 104.914 135.64C104.547 135.64 104.24 135.73 103.994 135.91C103.747 136.083 103.624 136.323 103.624 136.63C103.624 136.863 103.677 137.06 103.784 137.22C103.897 137.38 104.08 137.527 104.334 137.66C104.587 137.787 104.93 137.923 105.364 138.07C105.77 138.203 106.117 138.36 106.404 138.54C106.697 138.713 106.92 138.93 107.074 139.19C107.234 139.45 107.314 139.773 107.314 140.16C107.314 140.54 107.217 140.877 107.024 141.17C106.83 141.463 106.56 141.697 106.214 141.87C105.867 142.037 105.464 142.12 105.004 142.12ZM110.93 142.12C110.463 142.12 110.05 142.013 109.69 141.8C109.33 141.587 109.046 141.287 108.84 140.9C108.633 140.507 108.53 140.047 108.53 139.52C108.53 138.993 108.633 138.537 108.84 138.15C109.046 137.757 109.33 137.453 109.69 137.24C110.05 137.027 110.463 136.92 110.93 136.92C111.396 136.92 111.81 137.027 112.17 137.24C112.53 137.453 112.813 137.757 113.02 138.15C113.226 138.537 113.33 138.993 113.33 139.52C113.33 140.047 113.226 140.507 113.02 140.9C112.813 141.287 112.53 141.587 112.17 141.8C111.81 142.013 111.396 142.12 110.93 142.12ZM110.93 141.32C111.216 141.32 111.476 141.257 111.71 141.13C111.943 141.003 112.126 140.807 112.26 140.54C112.4 140.273 112.47 139.933 112.47 139.52C112.47 139.107 112.4 138.767 112.26 138.5C112.126 138.233 111.943 138.037 111.71 137.91C111.476 137.783 111.216 137.72 110.93 137.72C110.65 137.72 110.393 137.783 110.16 137.91C109.926 138.037 109.74 138.233 109.6 138.5C109.46 138.767 109.39 139.107 109.39 139.52C109.39 140.14 109.54 140.597 109.84 140.89C110.14 141.177 110.503 141.32 110.93 141.32ZM116.576 142.12C115.976 142.12 115.522 141.94 115.216 141.58C114.909 141.22 114.756 140.7 114.756 140.02V137.04H115.596V139.92C115.596 140.36 115.692 140.707 115.886 140.96C116.086 141.207 116.386 141.33 116.786 141.33C117.186 141.33 117.522 141.197 117.796 140.93C118.069 140.657 118.206 140.267 118.206 139.76V137.04H119.046V142H118.346L118.256 141.25H118.206C118.072 141.49 117.862 141.697 117.576 141.87C117.289 142.037 116.956 142.12 116.576 142.12ZM120.802 142V137.04H121.502L121.592 137.79H121.642C121.775 137.55 121.985 137.347 122.272 137.18C122.559 137.007 122.889 136.92 123.262 136.92C123.869 136.92 124.322 137.1 124.622 137.46C124.929 137.82 125.082 138.34 125.082 139.02V142H124.242V139.12C124.242 138.68 124.145 138.337 123.952 138.09C123.759 137.837 123.459 137.71 123.052 137.71C122.659 137.71 122.325 137.847 122.052 138.12C121.779 138.387 121.642 138.773 121.642 139.28V142H120.802ZM128.748 142.12C128.328 142.12 127.951 142.02 127.618 141.82C127.291 141.62 127.035 141.327 126.848 140.94C126.661 140.547 126.568 140.07 126.568 139.51C126.568 138.957 126.661 138.487 126.848 138.1C127.035 137.713 127.291 137.42 127.618 137.22C127.951 137.02 128.328 136.92 128.748 136.92C129.141 136.92 129.465 136.997 129.718 137.15C129.978 137.303 130.171 137.503 130.298 137.75V134.8H131.138V142H130.448L130.358 141.23H130.298C130.165 141.503 129.968 141.72 129.708 141.88C129.448 142.04 129.128 142.12 128.748 142.12ZM128.858 141.32C129.278 141.32 129.625 141.173 129.898 140.88C130.171 140.58 130.308 140.127 130.308 139.52C130.308 138.913 130.171 138.463 129.898 138.17C129.625 137.87 129.278 137.72 128.858 137.72C128.438 137.72 128.091 137.87 127.818 138.17C127.551 138.463 127.418 138.913 127.418 139.52C127.418 140.127 127.551 140.58 127.818 140.88C128.091 141.173 128.438 141.32 128.858 141.32ZM134.964 142.12C134.397 142.12 133.907 141.97 133.494 141.67C133.087 141.37 132.774 140.95 132.554 140.41C132.341 139.87 132.234 139.233 132.234 138.5C132.234 137.773 132.341 137.14 132.554 136.6C132.774 136.053 133.087 135.63 133.494 135.33C133.907 135.03 134.397 134.88 134.964 134.88C135.684 134.88 136.264 135.08 136.704 135.48C137.144 135.873 137.401 136.4 137.474 137.06H136.544C136.477 136.667 136.311 136.337 136.044 136.07C135.777 135.803 135.417 135.67 134.964 135.67C134.384 135.67 133.927 135.923 133.594 136.43C133.261 136.93 133.094 137.62 133.094 138.5C133.094 139.387 133.261 140.08 133.594 140.58C133.927 141.08 134.384 141.33 134.964 141.33C135.437 141.33 135.801 141.203 136.054 140.95C136.314 140.697 136.477 140.37 136.544 139.97H137.474C137.367 140.637 137.101 141.163 136.674 141.55C136.254 141.93 135.684 142.12 134.964 142.12ZM138.66 142V141.28H140.35V135.77C140.35 135.603 140.267 135.52 140.1 135.52H138.84V134.8H140.3C140.587 134.8 140.807 134.877 140.96 135.03C141.113 135.183 141.19 135.403 141.19 135.69V141.28H142.88V142H138.66ZM146.906 142.12C146.44 142.12 146.026 142.013 145.666 141.8C145.306 141.587 145.023 141.287 144.816 140.9C144.61 140.507 144.506 140.047 144.506 139.52C144.506 138.993 144.61 138.537 144.816 138.15C145.023 137.757 145.306 137.453 145.666 137.24C146.026 137.027 146.44 136.92 146.906 136.92C147.373 136.92 147.786 137.027 148.146 137.24C148.506 137.453 148.79 137.757 148.996 138.15C149.203 138.537 149.306 138.993 149.306 139.52C149.306 140.047 149.203 140.507 148.996 140.9C148.79 141.287 148.506 141.587 148.146 141.8C147.786 142.013 147.373 142.12 146.906 142.12ZM146.906 141.32C147.193 141.32 147.453 141.257 147.686 141.13C147.92 141.003 148.103 140.807 148.236 140.54C148.376 140.273 148.446 139.933 148.446 139.52C148.446 139.107 148.376 138.767 148.236 138.5C148.103 138.233 147.92 138.037 147.686 137.91C147.453 137.783 147.193 137.72 146.906 137.72C146.626 137.72 146.37 137.783 146.136 137.91C145.903 138.037 145.716 138.233 145.576 138.5C145.436 138.767 145.366 139.107 145.366 139.52C145.366 140.14 145.516 140.597 145.816 140.89C146.116 141.177 146.48 141.32 146.906 141.32ZM152.552 142.12C151.952 142.12 151.499 141.94 151.192 141.58C150.886 141.22 150.732 140.7 150.732 140.02V137.04H151.572V139.92C151.572 140.36 151.669 140.707 151.862 140.96C152.062 141.207 152.362 141.33 152.762 141.33C153.162 141.33 153.499 141.197 153.772 140.93C154.046 140.657 154.182 140.267 154.182 139.76V137.04H155.022V142H154.322L154.232 141.25H154.182C154.049 141.49 153.839 141.697 153.552 141.87C153.266 142.037 152.932 142.12 152.552 142.12ZM158.728 142.12C158.308 142.12 157.932 142.02 157.598 141.82C157.272 141.62 157.015 141.327 156.828 140.94C156.642 140.547 156.548 140.07 156.548 139.51C156.548 138.957 156.642 138.487 156.828 138.1C157.015 137.713 157.272 137.42 157.598 137.22C157.932 137.02 158.308 136.92 158.728 136.92C159.122 136.92 159.445 136.997 159.698 137.15C159.958 137.303 160.152 137.503 160.278 137.75V134.8H161.118V142H160.428L160.338 141.23H160.278C160.145 141.503 159.948 141.72 159.688 141.88C159.428 142.04 159.108 142.12 158.728 142.12ZM158.838 141.32C159.258 141.32 159.605 141.173 159.878 140.88C160.152 140.58 160.288 140.127 160.288 139.52C160.288 138.913 160.152 138.463 159.878 138.17C159.605 137.87 159.258 137.72 158.838 137.72C158.418 137.72 158.072 137.87 157.798 138.17C157.532 138.463 157.398 138.913 157.398 139.52C157.398 140.127 157.532 140.58 157.798 140.88C158.072 141.173 158.418 141.32 158.838 141.32ZM164.475 142.12C164.081 142.12 163.755 142.05 163.495 141.91C163.235 141.77 163.041 141.587 162.915 141.36C162.788 141.127 162.725 140.873 162.725 140.6C162.725 140.093 162.908 139.71 163.275 139.45C163.648 139.183 164.145 139.05 164.765 139.05H166.125V138.95C166.125 138.083 165.728 137.65 164.935 137.65C164.615 137.65 164.345 137.72 164.125 137.86C163.911 138 163.775 138.22 163.715 138.52H162.855C162.888 138.187 162.998 137.9 163.185 137.66C163.378 137.42 163.625 137.237 163.925 137.11C164.225 136.983 164.561 136.92 164.935 136.92C165.641 136.92 166.155 137.107 166.475 137.48C166.801 137.847 166.965 138.337 166.965 138.95V142H166.245L166.175 141.23H166.105C165.958 141.47 165.761 141.68 165.515 141.86C165.275 142.033 164.928 142.12 164.475 142.12ZM164.625 141.38C164.945 141.38 165.215 141.303 165.435 141.15C165.661 140.997 165.831 140.793 165.945 140.54C166.065 140.287 166.125 140.01 166.125 139.71H164.835C164.381 139.71 164.061 139.787 163.875 139.94C163.695 140.093 163.605 140.297 163.605 140.55C163.605 140.81 163.691 141.013 163.865 141.16C164.038 141.307 164.291 141.38 164.625 141.38ZM2.56 153.99L2.77 151.89L1.04 153.06L0.64 152.34L2.52 151.5L0.64 150.65L1.04 149.94L2.77 151.11L2.56 149.01H3.44L3.24 151.11L4.96 149.94L5.36 150.65L3.48 151.5L5.36 152.34L4.96 153.06L3.24 151.89L3.44 153.99H2.56ZM6.82609 155.9L10.2861 147.4H11.1661L7.69609 155.9H6.82609Z" fill="#002B55"/>
<path d="M51.54 43.384C51.668 43.384 51.796 43.432 51.924 43.528C52.052 43.616 52.116 43.728 52.116 43.864C52.116 43.992 52.04 44.2 51.888 44.488C51.744 44.776 51.492 45.24 51.132 45.88C50.772 46.512 50.464 47.084 50.208 47.596C49.952 48.108 49.708 48.612 49.476 49.108C49.252 49.596 49.072 49.988 48.936 50.284C48.808 50.572 48.68 50.848 48.552 51.112C48.296 51.6 48.084 51.844 47.916 51.844C47.82 51.844 47.704 51.768 47.568 51.616C47.432 51.456 47.324 51.276 47.244 51.076C47.028 50.54 46.736 49.3 46.368 47.356C46.008 45.412 45.828 44.212 45.828 43.756C45.828 43.508 45.896 43.384 46.032 43.384C46.2 43.384 46.372 43.472 46.548 43.648C46.724 43.816 46.864 44.032 46.968 44.296C47.016 44.44 47.132 45.24 47.316 46.696C47.508 48.144 47.724 49.324 47.964 50.236C48.476 48.788 49.136 47.284 49.944 45.724C50.752 44.164 51.284 43.384 51.54 43.384ZM56.5467 47.86C56.5467 48.284 56.3147 48.632 55.8507 48.904C55.3947 49.168 54.8747 49.3 54.2907 49.3C53.7147 49.3 53.1907 49.236 52.7187 49.108C52.6067 49.46 52.5507 49.776 52.5507 50.056C52.5507 50.328 52.6347 50.54 52.8027 50.692C52.9787 50.844 53.2627 50.92 53.6547 50.92C54.0547 50.92 54.4627 50.852 54.8787 50.716C55.3027 50.572 55.5347 50.5 55.5747 50.5C55.7827 50.5 55.8867 50.58 55.8867 50.74C55.8867 50.956 55.6427 51.192 55.1547 51.448C54.6667 51.696 54.1907 51.82 53.7267 51.82C53.1027 51.82 52.5947 51.636 52.2027 51.268C51.8107 50.892 51.6147 50.42 51.6147 49.852C51.6147 49.284 51.7667 48.692 52.0707 48.076C52.3747 47.452 52.7667 46.928 53.2467 46.504C53.7267 46.08 54.2027 45.868 54.6747 45.868C55.1467 45.868 55.5747 46.092 55.9587 46.54C56.3507 46.988 56.5467 47.428 56.5467 47.86ZM54.7347 46.816C54.4387 46.816 54.1307 46.972 53.8107 47.284C53.4907 47.588 53.2187 47.968 52.9947 48.424C53.3147 48.496 53.6787 48.532 54.0867 48.532C54.4947 48.532 54.8507 48.468 55.1547 48.34C55.4587 48.204 55.6107 48.028 55.6107 47.812C55.6107 47.596 55.5107 47.376 55.3107 47.152C55.1187 46.928 54.9267 46.816 54.7347 46.816ZM57.8811 47.332L57.8451 46.432C57.8451 46.056 57.9331 45.868 58.1091 45.868C58.2611 45.868 58.4051 45.968 58.5411 46.168C58.6851 46.36 58.7571 46.592 58.7571 46.864C58.7571 47.128 58.7491 47.328 58.7331 47.464C59.4291 46.408 60.0891 45.88 60.7131 45.88C61.1051 45.88 61.3011 45.976 61.3011 46.168C61.3011 46.264 61.2571 46.352 61.1691 46.432C61.0811 46.512 60.9411 46.604 60.7491 46.708C60.3251 46.892 59.9651 47.176 59.6691 47.56C59.3811 47.936 59.1451 48.364 58.9611 48.844C58.7771 49.324 58.6291 49.728 58.5171 50.056C58.4131 50.384 58.3331 50.64 58.2771 50.824C58.2211 51.008 58.1571 51.188 58.0851 51.364C57.9571 51.684 57.8091 51.844 57.6411 51.844C57.5051 51.844 57.3931 51.768 57.3051 51.616C57.2251 51.456 57.1851 51.304 57.1851 51.16C57.1851 51.008 57.2531 50.712 57.3891 50.272C57.7171 49.264 57.8811 48.284 57.8811 47.332ZM58.9737 53.452C59.3177 53.892 59.6017 54.112 59.8257 54.112C60.0497 54.112 60.2377 53.992 60.3897 53.752C60.5417 53.512 60.6897 53.132 60.8337 52.612C60.9777 52.1 61.1137 51.572 61.2417 51.028C61.3697 50.484 61.5337 49.764 61.7337 48.868C61.9417 47.972 62.1417 47.168 62.3337 46.456C62.4537 46.064 62.5697 45.868 62.6817 45.868C62.8177 45.868 62.9577 45.956 63.1017 46.132C63.2457 46.3 63.3177 46.484 63.3177 46.684C63.3177 46.868 63.1937 47.428 62.9457 48.364C62.6977 49.292 62.4777 50.128 62.2857 50.872C62.0937 51.616 61.9057 52.344 61.7217 53.056C61.3777 54.312 60.7537 54.94 59.8497 54.94C59.4497 54.94 59.0617 54.772 58.6857 54.436C58.3017 54.1 58.1097 53.812 58.1097 53.572C58.1097 53.468 58.1537 53.344 58.2417 53.2C58.3217 53.064 58.3977 52.996 58.4697 52.996C58.5577 52.996 58.6497 53.052 58.7457 53.164C58.8417 53.284 58.9177 53.38 58.9737 53.452ZM62.8257 44.164C62.8257 44.004 62.8897 43.852 63.0177 43.708C63.1457 43.564 63.2777 43.492 63.4137 43.492C63.5497 43.492 63.7057 43.656 63.8817 43.984C64.0657 44.304 64.1577 44.572 64.1577 44.788C64.1577 44.868 64.1217 44.94 64.0497 45.004C63.9777 45.068 63.9057 45.1 63.8337 45.1C63.6417 45.1 63.4257 44.984 63.1857 44.752C62.9457 44.52 62.8257 44.324 62.8257 44.164ZM68.9686 47.86C68.9686 48.284 68.7366 48.632 68.2726 48.904C67.8166 49.168 67.2966 49.3 66.7126 49.3C66.1366 49.3 65.6126 49.236 65.1406 49.108C65.0286 49.46 64.9726 49.776 64.9726 50.056C64.9726 50.328 65.0566 50.54 65.2246 50.692C65.4006 50.844 65.6846 50.92 66.0766 50.92C66.4766 50.92 66.8846 50.852 67.3006 50.716C67.7246 50.572 67.9566 50.5 67.9966 50.5C68.2046 50.5 68.3086 50.58 68.3086 50.74C68.3086 50.956 68.0646 51.192 67.5766 51.448C67.0886 51.696 66.6126 51.82 66.1486 51.82C65.5246 51.82 65.0166 51.636 64.6246 51.268C64.2326 50.892 64.0366 50.42 64.0366 49.852C64.0366 49.284 64.1886 48.692 64.4926 48.076C64.7966 47.452 65.1886 46.928 65.6686 46.504C66.1486 46.08 66.6246 45.868 67.0966 45.868C67.5686 45.868 67.9966 46.092 68.3806 46.54C68.7726 46.988 68.9686 47.428 68.9686 47.86ZM67.1566 46.816C66.8606 46.816 66.5526 46.972 66.2326 47.284C65.9126 47.588 65.6406 47.968 65.4166 48.424C65.7366 48.496 66.1006 48.532 66.5086 48.532C66.9166 48.532 67.2726 48.468 67.5766 48.34C67.8806 48.204 68.0326 48.028 68.0326 47.812C68.0326 47.596 67.9326 47.376 67.7326 47.152C67.5406 46.928 67.3486 46.816 67.1566 46.816ZM70.9269 50.62C70.9269 50.772 71.0149 50.848 71.1909 50.848C71.4949 50.848 71.8629 50.764 72.2949 50.596C72.7349 50.42 72.9789 50.332 73.0269 50.332C73.1709 50.332 73.2429 50.408 73.2429 50.56C73.2429 50.792 73.0029 51.06 72.5229 51.364C72.0509 51.668 71.6189 51.82 71.2269 51.82C70.8429 51.82 70.5229 51.716 70.2669 51.508C70.0109 51.292 69.8829 51.072 69.8829 50.848C69.8829 50.624 69.9309 50.34 70.0269 49.996C70.1229 49.644 70.2589 49.184 70.4349 48.616C70.6189 48.04 70.7629 47.564 70.8669 47.188C70.4909 47.276 70.2389 47.32 70.1109 47.32C69.9829 47.32 69.8549 47.256 69.7269 47.128C69.6069 46.992 69.5469 46.864 69.5469 46.744C69.5469 46.552 70.0669 46.368 71.1069 46.192C71.2509 45.528 71.3229 44.94 71.3229 44.428C71.3229 44.188 71.4029 44.068 71.5629 44.068C71.6989 44.068 71.8669 44.156 72.0669 44.332C72.2669 44.5 72.3669 44.692 72.3669 44.908C72.3669 45.124 72.2989 45.504 72.1629 46.048C72.6189 46.008 72.9829 45.988 73.2549 45.988C73.7349 45.988 73.9749 46.092 73.9749 46.3C73.9749 46.42 73.8429 46.52 73.5789 46.6C73.3229 46.68 72.7789 46.804 71.9469 46.972C71.7789 47.604 71.5669 48.328 71.3109 49.144C71.0549 49.952 70.9269 50.444 70.9269 50.62ZM75.3996 49.732C76.1676 48.428 76.7916 47.46 77.2716 46.828C77.7596 46.188 78.1556 45.868 78.4596 45.868C78.7716 45.868 79.0636 46.032 79.3356 46.36C79.6156 46.688 79.7556 47.036 79.7556 47.404C79.7556 47.98 79.6236 48.684 79.3596 49.516C78.8796 51.052 78.4476 51.82 78.0636 51.82C77.8876 51.82 77.7996 51.7 77.7996 51.46C77.7996 51.292 77.8836 50.952 78.0516 50.44C78.2276 49.92 78.3876 49.412 78.5316 48.916C78.6836 48.412 78.7596 48.036 78.7596 47.788C78.7596 47.532 78.7196 47.344 78.6396 47.224C78.5676 47.104 78.4916 47.044 78.4116 47.044C78.3396 47.044 78.2636 47.068 78.1836 47.116C78.1036 47.164 78.0116 47.244 77.9076 47.356C77.8116 47.468 77.7196 47.58 77.6316 47.692C77.5436 47.796 77.4316 47.948 77.2956 48.148C77.1676 48.348 77.0596 48.52 76.9716 48.664C76.8836 48.8 76.7556 49 76.5876 49.264C76.4196 49.528 76.2916 49.728 76.2036 49.864C76.1156 50 75.9996 50.184 75.8556 50.416C75.7116 50.648 75.5956 50.828 75.5076 50.956C75.4276 51.084 75.3356 51.224 75.2316 51.376C75.0316 51.672 74.8716 51.82 74.7516 51.82C74.6396 51.82 74.5076 51.732 74.3556 51.556C74.2036 51.372 74.1276 51.212 74.1276 51.076C74.1276 51.036 74.1556 50.928 74.2116 50.752C74.3636 50.288 74.5316 49.716 74.7156 49.036C74.8996 48.348 74.9996 47.568 75.0156 46.696C75.0396 46.112 75.1236 45.82 75.2676 45.82C75.4436 45.82 75.6196 45.912 75.7956 46.096C75.9716 46.28 76.0596 46.484 76.0596 46.708C76.0596 46.924 75.9916 47.348 75.8556 47.98C75.7276 48.604 75.5756 49.188 75.3996 49.732ZM84.246 47.908C84.246 47.636 84.202 47.38 84.114 47.14C84.026 46.892 83.898 46.712 83.73 46.6C83.178 46.752 82.702 47.18 82.302 47.884C81.91 48.58 81.714 49.236 81.714 49.852C81.714 50.468 81.866 50.852 82.17 51.004C82.746 50.892 83.234 50.5 83.634 49.828C84.042 49.148 84.246 48.508 84.246 47.908ZM81.09 48.016C81.37 47.392 81.734 46.88 82.182 46.48C82.638 46.072 83.102 45.868 83.574 45.868C84.054 45.868 84.454 46.072 84.774 46.48C85.094 46.88 85.254 47.372 85.254 47.956C85.254 48.532 85.114 49.124 84.834 49.732C84.554 50.332 84.166 50.832 83.67 51.232C83.182 51.624 82.662 51.82 82.11 51.82C81.702 51.82 81.362 51.632 81.09 51.256C80.818 50.88 80.682 50.404 80.682 49.828C80.682 49.244 80.818 48.64 81.09 48.016ZM94.3079 45.868C94.5799 45.868 94.8359 46.02 95.0759 46.324C95.3159 46.62 95.4359 46.88 95.4359 47.104C95.4359 47.24 95.3719 47.308 95.2439 47.308C95.1559 47.308 95.0199 47.24 94.8359 47.104C94.6519 46.96 94.4639 46.888 94.2719 46.888C94.0799 46.888 93.7759 47 93.3599 47.224C92.9519 47.448 92.7479 47.684 92.7479 47.932C92.7479 48.116 93.1159 48.432 93.8519 48.88C94.1319 49.056 94.3839 49.284 94.6079 49.564C94.8399 49.836 94.9559 50.132 94.9559 50.452C94.9559 50.764 94.7359 51.072 94.2959 51.376C93.8639 51.672 93.3559 51.82 92.7719 51.82C92.1959 51.82 91.6839 51.68 91.2359 51.4C90.7959 51.12 90.5759 50.856 90.5759 50.608C90.5759 50.504 90.5999 50.424 90.6479 50.368C90.7039 50.304 90.7719 50.272 90.8519 50.272C90.9319 50.272 91.0439 50.324 91.1879 50.428C91.6199 50.74 92.0679 50.896 92.5319 50.896C93.0039 50.896 93.3439 50.844 93.5519 50.74C93.7599 50.628 93.8639 50.484 93.8639 50.308C93.8639 50.124 93.7479 49.932 93.5159 49.732C93.2839 49.524 93.0279 49.34 92.7479 49.18C92.4759 49.02 92.2239 48.824 91.9919 48.592C91.7599 48.36 91.6439 48.124 91.6439 47.884C91.6439 47.46 91.9759 47.02 92.6399 46.564C93.3119 46.1 93.8679 45.868 94.3079 45.868ZM100.773 47.86C100.773 48.284 100.541 48.632 100.077 48.904C99.6213 49.168 99.1013 49.3 98.5173 49.3C97.9413 49.3 97.4173 49.236 96.9453 49.108C96.8333 49.46 96.7773 49.776 96.7773 50.056C96.7773 50.328 96.8613 50.54 97.0293 50.692C97.2053 50.844 97.4893 50.92 97.8813 50.92C98.2813 50.92 98.6893 50.852 99.1053 50.716C99.5293 50.572 99.7613 50.5 99.8013 50.5C100.009 50.5 100.113 50.58 100.113 50.74C100.113 50.956 99.8693 51.192 99.3813 51.448C98.8933 51.696 98.4173 51.82 97.9533 51.82C97.3293 51.82 96.8213 51.636 96.4293 51.268C96.0373 50.892 95.8413 50.42 95.8413 49.852C95.8413 49.284 95.9933 48.692 96.2973 48.076C96.6013 47.452 96.9933 46.928 97.4733 46.504C97.9533 46.08 98.4293 45.868 98.9013 45.868C99.3733 45.868 99.8013 46.092 100.185 46.54C100.577 46.988 100.773 47.428 100.773 47.86ZM98.9613 46.816C98.6653 46.816 98.3573 46.972 98.0373 47.284C97.7173 47.588 97.4453 47.968 97.2213 48.424C97.5413 48.496 97.9053 48.532 98.3133 48.532C98.7213 48.532 99.0773 48.468 99.3813 48.34C99.6853 48.204 99.8373 48.028 99.8373 47.812C99.8373 47.596 99.7373 47.376 99.5373 47.152C99.3453 46.928 99.1533 46.816 98.9613 46.816ZM109.636 45.868C109.908 45.868 110.164 46.02 110.404 46.324C110.644 46.62 110.764 46.88 110.764 47.104C110.764 47.24 110.7 47.308 110.572 47.308C110.484 47.308 110.348 47.24 110.164 47.104C109.98 46.96 109.792 46.888 109.6 46.888C109.408 46.888 109.104 47 108.688 47.224C108.28 47.448 108.076 47.684 108.076 47.932C108.076 48.116 108.444 48.432 109.18 48.88C109.46 49.056 109.712 49.284 109.936 49.564C110.168 49.836 110.284 50.132 110.284 50.452C110.284 50.764 110.064 51.072 109.624 51.376C109.192 51.672 108.684 51.82 108.1 51.82C107.524 51.82 107.012 51.68 106.564 51.4C106.124 51.12 105.904 50.856 105.904 50.608C105.904 50.504 105.928 50.424 105.976 50.368C106.032 50.304 106.1 50.272 106.18 50.272C106.26 50.272 106.372 50.324 106.516 50.428C106.948 50.74 107.396 50.896 107.86 50.896C108.332 50.896 108.672 50.844 108.88 50.74C109.088 50.628 109.192 50.484 109.192 50.308C109.192 50.124 109.076 49.932 108.844 49.732C108.612 49.524 108.356 49.34 108.076 49.18C107.804 49.02 107.552 48.824 107.32 48.592C107.088 48.36 106.972 48.124 106.972 47.884C106.972 47.46 107.304 47.02 107.968 46.564C108.64 46.1 109.196 45.868 109.636 45.868ZM115.237 45.832C115.581 45.832 115.877 46.052 116.125 46.492C116.381 46.932 116.509 47.388 116.509 47.86C116.509 48.324 116.373 48.792 116.101 49.264C115.829 49.728 115.493 50.144 115.093 50.512C114.693 50.88 114.249 51.188 113.761 51.436C113.281 51.676 112.837 51.796 112.429 51.796C112.269 51.796 112.117 51.776 111.973 51.736C111.941 51.872 111.885 52.116 111.805 52.468C111.725 52.82 111.657 53.112 111.601 53.344C111.545 53.576 111.481 53.824 111.409 54.088C111.265 54.632 111.137 54.904 111.025 54.904C110.913 54.904 110.797 54.816 110.677 54.64C110.549 54.472 110.485 54.32 110.485 54.184C110.485 54.048 110.613 53.464 110.869 52.432C111.637 49.32 112.021 47.224 112.021 46.144C112.021 45.904 112.109 45.784 112.285 45.784C112.429 45.784 112.601 45.892 112.801 46.108C113.009 46.316 113.113 46.548 113.113 46.804C113.113 46.932 113.097 47.072 113.065 47.224C113.777 46.296 114.501 45.832 115.237 45.832ZM112.309 50.86C112.733 50.86 113.189 50.716 113.677 50.428C114.173 50.14 114.593 49.76 114.937 49.288C115.289 48.808 115.465 48.332 115.465 47.86C115.465 47.196 115.309 46.864 114.997 46.864C114.685 46.864 114.261 47.132 113.725 47.668C113.197 48.204 112.777 48.9 112.465 49.756L112.189 50.86H112.309ZM117.764 47.332L117.728 46.432C117.728 46.056 117.816 45.868 117.992 45.868C118.144 45.868 118.288 45.968 118.424 46.168C118.568 46.36 118.64 46.592 118.64 46.864C118.64 47.128 118.632 47.328 118.616 47.464C119.312 46.408 119.972 45.88 120.596 45.88C120.988 45.88 121.184 45.976 121.184 46.168C121.184 46.264 121.14 46.352 121.052 46.432C120.964 46.512 120.824 46.604 120.632 46.708C120.208 46.892 119.848 47.176 119.552 47.56C119.264 47.936 119.028 48.364 118.844 48.844C118.66 49.324 118.512 49.728 118.4 50.056C118.296 50.384 118.216 50.64 118.16 50.824C118.104 51.008 118.04 51.188 117.968 51.364C117.84 51.684 117.692 51.844 117.524 51.844C117.388 51.844 117.276 51.768 117.188 51.616C117.108 51.456 117.068 51.304 117.068 51.16C117.068 51.008 117.136 50.712 117.272 50.272C117.6 49.264 117.764 48.284 117.764 47.332ZM124.209 45.868C124.569 45.868 124.901 46.052 125.205 46.42C125.509 46.78 125.661 47.108 125.661 47.404C125.661 47.692 125.561 47.988 125.361 48.292C125.457 48.412 125.505 48.516 125.505 48.604C125.505 48.828 125.453 49.212 125.349 49.756C125.253 50.3 125.193 50.656 125.169 50.824C125.153 50.992 125.137 51.128 125.121 51.232C125.105 51.328 125.085 51.424 125.061 51.52C125.029 51.72 124.957 51.82 124.845 51.82C124.701 51.82 124.581 51.696 124.485 51.448C124.397 51.192 124.345 50.864 124.329 50.464C123.617 51.368 122.957 51.82 122.349 51.82C121.981 51.82 121.617 51.664 121.257 51.352C120.905 51.032 120.729 50.704 120.729 50.368C120.729 49.888 120.905 49.296 121.257 48.592C121.609 47.88 122.065 47.248 122.625 46.696C123.185 46.144 123.713 45.868 124.209 45.868ZM124.761 47.98C124.761 47.236 124.613 46.864 124.317 46.864C124.005 46.864 123.641 47.088 123.225 47.536C122.809 47.976 122.457 48.476 122.169 49.036C121.881 49.596 121.737 50.04 121.737 50.368C121.737 50.504 121.793 50.616 121.905 50.704C122.017 50.784 122.149 50.824 122.301 50.824C122.677 50.824 123.101 50.572 123.573 50.068C124.045 49.556 124.373 48.936 124.557 48.208C124.581 48.088 124.649 48.016 124.761 47.992V47.98ZM130.074 45.868C130.346 45.868 130.602 46.02 130.842 46.324C131.082 46.62 131.202 46.88 131.202 47.104C131.202 47.24 131.138 47.308 131.01 47.308C130.922 47.308 130.786 47.24 130.602 47.104C130.418 46.96 130.23 46.888 130.038 46.888C129.846 46.888 129.542 47 129.126 47.224C128.718 47.448 128.514 47.684 128.514 47.932C128.514 48.116 128.882 48.432 129.618 48.88C129.898 49.056 130.15 49.284 130.374 49.564C130.606 49.836 130.722 50.132 130.722 50.452C130.722 50.764 130.502 51.072 130.062 51.376C129.63 51.672 129.122 51.82 128.538 51.82C127.962 51.82 127.45 51.68 127.002 51.4C126.562 51.12 126.342 50.856 126.342 50.608C126.342 50.504 126.366 50.424 126.414 50.368C126.47 50.304 126.538 50.272 126.618 50.272C126.698 50.272 126.81 50.324 126.954 50.428C127.386 50.74 127.834 50.896 128.298 50.896C128.77 50.896 129.11 50.844 129.318 50.74C129.526 50.628 129.63 50.484 129.63 50.308C129.63 50.124 129.514 49.932 129.282 49.732C129.05 49.524 128.794 49.34 128.514 49.18C128.242 49.02 127.99 48.824 127.758 48.592C127.526 48.36 127.41 48.124 127.41 47.884C127.41 47.46 127.742 47.02 128.406 46.564C129.078 46.1 129.634 45.868 130.074 45.868ZM131.214 43.336C131.446 43.336 131.562 43.44 131.562 43.648C131.562 43.76 131.514 43.864 131.418 43.96C131.33 44.048 131.17 44.164 130.938 44.308C130.706 44.452 130.542 44.56 130.446 44.632C130.35 44.704 130.222 44.812 130.062 44.956C129.902 45.092 129.774 45.196 129.678 45.268C129.582 45.332 129.494 45.364 129.414 45.364C129.254 45.364 128.914 45.108 128.394 44.596C127.874 44.076 127.614 43.668 127.614 43.372C127.614 43.244 127.65 43.14 127.722 43.06C127.794 42.972 127.886 42.928 127.998 42.928C128.118 42.928 128.234 42.996 128.346 43.132C128.458 43.268 128.614 43.468 128.814 43.732C129.014 43.988 129.242 44.216 129.498 44.416C129.898 44.048 130.25 43.776 130.554 43.6C130.866 43.424 131.086 43.336 131.214 43.336ZM135.999 46.204C136.031 46.076 136.063 45.988 136.095 45.94C136.127 45.892 136.195 45.868 136.299 45.868C136.411 45.868 136.543 45.972 136.695 46.18C136.855 46.388 136.935 46.588 136.935 46.78C136.935 46.884 136.759 47.5 136.407 48.628C136.055 49.756 135.783 50.652 135.591 51.316C135.495 51.652 135.359 51.82 135.183 51.82C135.079 51.82 134.991 51.776 134.919 51.688C134.847 51.6 134.811 51.44 134.811 51.208C134.811 50.976 134.903 50.556 135.087 49.948C134.751 50.492 134.387 50.94 133.995 51.292C133.603 51.644 133.243 51.82 132.915 51.82C132.595 51.82 132.291 51.668 132.003 51.364C131.715 51.06 131.571 50.748 131.571 50.428C131.571 49.668 131.791 48.72 132.231 47.584C132.679 46.44 133.051 45.868 133.347 45.868C133.491 45.868 133.615 45.936 133.719 46.072C133.831 46.2 133.887 46.348 133.887 46.516C133.887 46.588 133.779 46.848 133.563 47.296C133.347 47.736 133.131 48.256 132.915 48.856C132.699 49.448 132.591 49.968 132.591 50.416C132.591 50.544 132.631 50.652 132.711 50.74C132.791 50.82 132.887 50.86 132.999 50.86C133.303 50.86 133.663 50.592 134.079 50.056C134.503 49.52 134.887 48.896 135.231 48.184C135.575 47.472 135.831 46.812 135.999 46.204ZM135.368 53.452C135.712 53.892 135.996 54.112 136.22 54.112C136.444 54.112 136.632 53.992 136.784 53.752C136.936 53.512 137.084 53.132 137.228 52.612C137.372 52.1 137.508 51.572 137.636 51.028C137.764 50.484 137.928 49.764 138.128 48.868C138.336 47.972 138.536 47.168 138.728 46.456C138.848 46.064 138.964 45.868 139.076 45.868C139.212 45.868 139.352 45.956 139.496 46.132C139.64 46.3 139.712 46.484 139.712 46.684C139.712 46.868 139.588 47.428 139.34 48.364C139.092 49.292 138.872 50.128 138.68 50.872C138.488 51.616 138.3 52.344 138.116 53.056C137.772 54.312 137.148 54.94 136.244 54.94C135.844 54.94 135.456 54.772 135.08 54.436C134.696 54.1 134.504 53.812 134.504 53.572C134.504 53.468 134.548 53.344 134.636 53.2C134.716 53.064 134.792 52.996 134.864 52.996C134.952 52.996 135.044 53.052 135.14 53.164C135.236 53.284 135.312 53.38 135.368 53.452ZM139.22 44.164C139.22 44.004 139.284 43.852 139.412 43.708C139.54 43.564 139.672 43.492 139.808 43.492C139.944 43.492 140.1 43.656 140.276 43.984C140.46 44.304 140.552 44.572 140.552 44.788C140.552 44.868 140.516 44.94 140.444 45.004C140.372 45.068 140.3 45.1 140.228 45.1C140.036 45.1 139.82 44.984 139.58 44.752C139.34 44.52 139.22 44.324 139.22 44.164ZM145.363 47.86C145.363 48.284 145.131 48.632 144.667 48.904C144.211 49.168 143.691 49.3 143.107 49.3C142.531 49.3 142.007 49.236 141.535 49.108C141.423 49.46 141.367 49.776 141.367 50.056C141.367 50.328 141.451 50.54 141.619 50.692C141.795 50.844 142.079 50.92 142.471 50.92C142.871 50.92 143.279 50.852 143.695 50.716C144.119 50.572 144.351 50.5 144.391 50.5C144.599 50.5 144.703 50.58 144.703 50.74C144.703 50.956 144.459 51.192 143.971 51.448C143.483 51.696 143.007 51.82 142.543 51.82C141.919 51.82 141.411 51.636 141.019 51.268C140.627 50.892 140.431 50.42 140.431 49.852C140.431 49.284 140.583 48.692 140.887 48.076C141.191 47.452 141.583 46.928 142.063 46.504C142.543 46.08 143.019 45.868 143.491 45.868C143.963 45.868 144.391 46.092 144.775 46.54C145.167 46.988 145.363 47.428 145.363 47.86ZM143.551 46.816C143.255 46.816 142.947 46.972 142.627 47.284C142.307 47.588 142.035 47.968 141.811 48.424C142.131 48.496 142.495 48.532 142.903 48.532C143.311 48.532 143.667 48.468 143.971 48.34C144.275 48.204 144.427 48.028 144.427 47.812C144.427 47.596 144.327 47.376 144.127 47.152C143.935 46.928 143.743 46.816 143.551 46.816ZM149.409 45.868C149.681 45.868 149.937 46.02 150.177 46.324C150.417 46.62 150.537 46.88 150.537 47.104C150.537 47.24 150.473 47.308 150.345 47.308C150.257 47.308 150.121 47.24 149.937 47.104C149.753 46.96 149.565 46.888 149.373 46.888C149.181 46.888 148.877 47 148.461 47.224C148.053 47.448 147.849 47.684 147.849 47.932C147.849 48.116 148.217 48.432 148.953 48.88C149.233 49.056 149.485 49.284 149.709 49.564C149.941 49.836 150.057 50.132 150.057 50.452C150.057 50.764 149.837 51.072 149.397 51.376C148.965 51.672 148.457 51.82 147.873 51.82C147.297 51.82 146.785 51.68 146.337 51.4C145.897 51.12 145.677 50.856 145.677 50.608C145.677 50.504 145.701 50.424 145.749 50.368C145.805 50.304 145.873 50.272 145.953 50.272C146.033 50.272 146.145 50.324 146.289 50.428C146.721 50.74 147.169 50.896 147.633 50.896C148.105 50.896 148.445 50.844 148.653 50.74C148.861 50.628 148.965 50.484 148.965 50.308C148.965 50.124 148.849 49.932 148.617 49.732C148.385 49.524 148.129 49.34 147.849 49.18C147.577 49.02 147.325 48.824 147.093 48.592C146.861 48.36 146.745 48.124 146.745 47.884C146.745 47.46 147.077 47.02 147.741 46.564C148.413 46.1 148.969 45.868 149.409 45.868ZM150.549 43.336C150.781 43.336 150.897 43.44 150.897 43.648C150.897 43.76 150.849 43.864 150.753 43.96C150.665 44.048 150.505 44.164 150.273 44.308C150.041 44.452 149.877 44.56 149.781 44.632C149.685 44.704 149.557 44.812 149.397 44.956C149.237 45.092 149.109 45.196 149.013 45.268C148.917 45.332 148.829 45.364 148.749 45.364C148.589 45.364 148.249 45.108 147.729 44.596C147.209 44.076 146.949 43.668 146.949 43.372C146.949 43.244 146.985 43.14 147.057 43.06C147.129 42.972 147.221 42.928 147.333 42.928C147.453 42.928 147.569 42.996 147.681 43.132C147.793 43.268 147.949 43.468 148.149 43.732C148.349 43.988 148.577 44.216 148.833 44.416C149.233 44.048 149.585 43.776 149.889 43.6C150.201 43.424 150.421 43.336 150.549 43.336ZM50.676 65.516C50.676 65.588 50.32 65.964 49.608 66.644C49.344 66.9 49.1 67.204 48.876 67.556C48.66 67.9 48.552 68.216 48.552 68.504C48.552 68.792 48.636 69.06 48.804 69.308C48.98 69.548 49.168 69.732 49.368 69.86C49.576 69.98 49.764 70.1 49.932 70.22C50.108 70.34 50.196 70.44 50.196 70.52C50.196 70.72 50.036 70.82 49.716 70.82C49.404 70.82 49.028 70.644 48.588 70.292C48.156 69.932 47.888 69.532 47.784 69.092C47.744 69.012 47.712 68.936 47.688 68.864C47.144 69.6 46.748 70.112 46.5 70.4C46.26 70.68 46.08 70.82 45.96 70.82C45.84 70.82 45.708 70.728 45.564 70.544C45.42 70.352 45.348 70.196 45.348 70.076C45.348 69.948 45.476 69.432 45.732 68.528C45.996 67.616 46.256 66.524 46.512 65.252C46.776 63.98 46.908 62.844 46.908 61.844C46.908 61.716 46.924 61.628 46.956 61.58C46.996 61.532 47.076 61.508 47.196 61.508C47.316 61.508 47.464 61.628 47.64 61.868C47.816 62.1 47.904 62.328 47.904 62.552C47.904 63.264 47.76 64.26 47.472 65.54C47.184 66.82 46.84 68.036 46.44 69.188C47.344 67.9 48.124 66.86 48.78 66.068C49.444 65.268 49.852 64.868 50.004 64.868C50.164 64.868 50.316 64.944 50.46 65.096C50.604 65.248 50.676 65.388 50.676 65.516ZM54.189 64.868C54.549 64.868 54.881 65.052 55.185 65.42C55.489 65.78 55.641 66.108 55.641 66.404C55.641 66.692 55.541 66.988 55.341 67.292C55.437 67.412 55.485 67.516 55.485 67.604C55.485 67.828 55.433 68.212 55.329 68.756C55.233 69.3 55.173 69.656 55.149 69.824C55.133 69.992 55.117 70.128 55.101 70.232C55.085 70.328 55.065 70.424 55.041 70.52C55.009 70.72 54.937 70.82 54.825 70.82C54.681 70.82 54.561 70.696 54.465 70.448C54.377 70.192 54.325 69.864 54.309 69.464C53.597 70.368 52.937 70.82 52.329 70.82C51.961 70.82 51.597 70.664 51.237 70.352C50.885 70.032 50.709 69.704 50.709 69.368C50.709 68.888 50.885 68.296 51.237 67.592C51.589 66.88 52.045 66.248 52.605 65.696C53.165 65.144 53.693 64.868 54.189 64.868ZM54.741 66.98C54.741 66.236 54.593 65.864 54.297 65.864C53.985 65.864 53.621 66.088 53.205 66.536C52.789 66.976 52.437 67.476 52.149 68.036C51.861 68.596 51.717 69.04 51.717 69.368C51.717 69.504 51.773 69.616 51.885 69.704C51.997 69.784 52.129 69.824 52.281 69.824C52.657 69.824 53.081 69.572 53.553 69.068C54.025 68.556 54.353 67.936 54.537 67.208C54.561 67.088 54.629 67.016 54.741 66.992V66.98ZM61.926 65.516C61.926 65.588 61.57 65.964 60.858 66.644C60.594 66.9 60.35 67.204 60.126 67.556C59.91 67.9 59.802 68.216 59.802 68.504C59.802 68.792 59.886 69.06 60.054 69.308C60.23 69.548 60.418 69.732 60.618 69.86C60.826 69.98 61.014 70.1 61.182 70.22C61.358 70.34 61.446 70.44 61.446 70.52C61.446 70.72 61.286 70.82 60.966 70.82C60.654 70.82 60.278 70.644 59.838 70.292C59.406 69.932 59.138 69.532 59.034 69.092C58.994 69.012 58.962 68.936 58.938 68.864C58.394 69.6 57.998 70.112 57.75 70.4C57.51 70.68 57.33 70.82 57.21 70.82C57.09 70.82 56.958 70.728 56.814 70.544C56.67 70.352 56.598 70.196 56.598 70.076C56.598 69.948 56.726 69.432 56.982 68.528C57.246 67.616 57.506 66.524 57.762 65.252C58.026 63.98 58.158 62.844 58.158 61.844C58.158 61.716 58.174 61.628 58.206 61.58C58.246 61.532 58.326 61.508 58.446 61.508C58.566 61.508 58.714 61.628 58.89 61.868C59.066 62.1 59.154 62.328 59.154 62.552C59.154 63.264 59.01 64.26 58.722 65.54C58.434 66.82 58.09 68.036 57.69 69.188C58.594 67.9 59.374 66.86 60.03 66.068C60.694 65.268 61.102 64.868 61.254 64.868C61.414 64.868 61.566 64.944 61.71 65.096C61.854 65.248 61.926 65.388 61.926 65.516ZM65.871 66.908C65.871 66.636 65.827 66.38 65.739 66.14C65.651 65.892 65.523 65.712 65.355 65.6C64.803 65.752 64.327 66.18 63.927 66.884C63.535 67.58 63.339 68.236 63.339 68.852C63.339 69.468 63.491 69.852 63.795 70.004C64.371 69.892 64.859 69.5 65.259 68.828C65.667 68.148 65.871 67.508 65.871 66.908ZM62.715 67.016C62.995 66.392 63.359 65.88 63.807 65.48C64.263 65.072 64.727 64.868 65.199 64.868C65.679 64.868 66.079 65.072 66.399 65.48C66.719 65.88 66.879 66.372 66.879 66.956C66.879 67.532 66.739 68.124 66.459 68.732C66.179 69.332 65.791 69.832 65.295 70.232C64.807 70.624 64.287 70.82 63.735 70.82C63.327 70.82 62.987 70.632 62.715 70.256C62.443 69.88 62.307 69.404 62.307 68.828C62.307 68.244 62.443 67.64 62.715 67.016ZM75.9329 64.868C76.2049 64.868 76.4609 65.02 76.7009 65.324C76.9409 65.62 77.0609 65.88 77.0609 66.104C77.0609 66.24 76.9969 66.308 76.8689 66.308C76.7809 66.308 76.6449 66.24 76.4609 66.104C76.2769 65.96 76.0889 65.888 75.8969 65.888C75.7049 65.888 75.4009 66 74.9849 66.224C74.5769 66.448 74.3729 66.684 74.3729 66.932C74.3729 67.116 74.7409 67.432 75.4769 67.88C75.7569 68.056 76.0089 68.284 76.2329 68.564C76.4649 68.836 76.5809 69.132 76.5809 69.452C76.5809 69.764 76.3609 70.072 75.9209 70.376C75.4889 70.672 74.9809 70.82 74.3969 70.82C73.8209 70.82 73.3089 70.68 72.8609 70.4C72.4209 70.12 72.2009 69.856 72.2009 69.608C72.2009 69.504 72.2249 69.424 72.2729 69.368C72.3289 69.304 72.3969 69.272 72.4769 69.272C72.5569 69.272 72.6689 69.324 72.8129 69.428C73.2449 69.74 73.6929 69.896 74.1569 69.896C74.6289 69.896 74.9689 69.844 75.1769 69.74C75.3849 69.628 75.4889 69.484 75.4889 69.308C75.4889 69.124 75.3729 68.932 75.1409 68.732C74.9089 68.524 74.6529 68.34 74.3729 68.18C74.1009 68.02 73.8489 67.824 73.6169 67.592C73.3849 67.36 73.2689 67.124 73.2689 66.884C73.2689 66.46 73.6009 66.02 74.2649 65.564C74.9369 65.1 75.4929 64.868 75.9329 64.868ZM82.3983 66.86C82.3983 67.284 82.1663 67.632 81.7023 67.904C81.2463 68.168 80.7263 68.3 80.1423 68.3C79.5663 68.3 79.0423 68.236 78.5703 68.108C78.4583 68.46 78.4023 68.776 78.4023 69.056C78.4023 69.328 78.4863 69.54 78.6543 69.692C78.8303 69.844 79.1143 69.92 79.5063 69.92C79.9063 69.92 80.3143 69.852 80.7303 69.716C81.1543 69.572 81.3863 69.5 81.4263 69.5C81.6343 69.5 81.7383 69.58 81.7383 69.74C81.7383 69.956 81.4943 70.192 81.0063 70.448C80.5183 70.696 80.0423 70.82 79.5783 70.82C78.9543 70.82 78.4463 70.636 78.0543 70.268C77.6623 69.892 77.4663 69.42 77.4663 68.852C77.4663 68.284 77.6183 67.692 77.9223 67.076C78.2263 66.452 78.6183 65.928 79.0983 65.504C79.5783 65.08 80.0543 64.868 80.5263 64.868C80.9983 64.868 81.4263 65.092 81.8103 65.54C82.2023 65.988 82.3983 66.428 82.3983 66.86ZM80.5863 65.816C80.2903 65.816 79.9823 65.972 79.6623 66.284C79.3423 66.588 79.0703 66.968 78.8463 67.424C79.1663 67.496 79.5303 67.532 79.9383 67.532C80.3463 67.532 80.7023 67.468 81.0063 67.34C81.3103 67.204 81.4623 67.028 81.4623 66.812C81.4623 66.596 81.3623 66.376 81.1623 66.152C80.9703 65.928 80.7783 65.816 80.5863 65.816ZM90.7766 64.868C91.0166 64.868 91.2286 65.036 91.4126 65.372C91.6046 65.7 91.7006 66.076 91.7006 66.5C91.7006 66.916 91.6246 67.46 91.4726 68.132C91.3286 68.804 91.1326 69.42 90.8846 69.98C90.6366 70.54 90.3926 70.82 90.1526 70.82C89.9846 70.82 89.9006 70.712 89.9006 70.496C89.9006 70.272 90.0366 69.732 90.3086 68.876C90.5886 68.012 90.7286 67.328 90.7286 66.824C90.7286 66.312 90.6486 66.056 90.4886 66.056C90.2886 66.056 90.0566 66.232 89.7926 66.584C89.5366 66.936 89.2606 67.36 88.9646 67.856C88.6686 68.352 88.5086 68.62 88.4846 68.66C88.4606 68.692 88.4286 68.74 88.3886 68.804C88.3566 68.868 88.3166 68.936 88.2686 69.008C88.2286 69.08 88.1166 69.296 87.9326 69.656C87.7566 70.016 87.6006 70.3 87.4646 70.508C87.3286 70.708 87.2086 70.808 87.1046 70.808C87.0086 70.808 86.9006 70.744 86.7806 70.616C86.6606 70.488 86.6006 70.368 86.6006 70.256C86.6006 70.144 86.6726 69.912 86.8166 69.56C87.2326 68.52 87.4406 67.552 87.4406 66.656C87.4406 66.488 87.4046 66.348 87.3326 66.236C87.2606 66.116 87.1806 66.056 87.0926 66.056C87.0046 66.056 86.9126 66.096 86.8166 66.176C86.7206 66.248 86.6006 66.384 86.4566 66.584C86.3126 66.776 86.1846 66.96 86.0726 67.136C85.9606 67.312 85.7886 67.588 85.5566 67.964C85.3326 68.332 85.1606 68.608 85.0406 68.792C84.9286 68.968 84.7966 69.176 84.6446 69.416C84.4926 69.648 84.3726 69.828 84.2846 69.956C84.2046 70.084 84.1126 70.224 84.0086 70.376C83.7926 70.672 83.6326 70.82 83.5286 70.82C83.4326 70.82 83.3046 70.732 83.1446 70.556C82.9846 70.372 82.9046 70.236 82.9046 70.148C82.9046 70.052 82.9206 69.936 82.9526 69.8C82.9846 69.664 83.0166 69.532 83.0486 69.404C83.0886 69.276 83.1446 69.088 83.2166 68.84C83.2966 68.584 83.3846 68.288 83.4806 67.952C83.5846 67.608 83.6606 67.14 83.7086 66.548C83.7646 65.948 83.8046 65.512 83.8286 65.24C83.8526 64.96 83.9206 64.82 84.0326 64.82C84.2086 64.82 84.3806 64.912 84.5486 65.096C84.7246 65.28 84.8126 65.464 84.8126 65.648C84.8126 66.352 84.5486 67.512 84.0206 69.128C84.9166 67.448 85.4806 66.452 85.7126 66.14C85.9446 65.828 86.1446 65.576 86.3126 65.384C86.6246 65.04 86.9406 64.868 87.2606 64.868C87.4526 64.868 87.6806 65.036 87.9446 65.372C88.2166 65.7 88.3526 66.032 88.3526 66.368C88.3526 66.704 88.3046 67.12 88.2086 67.616C89.1526 65.784 90.0086 64.868 90.7766 64.868ZM100.812 64.868C101.084 64.868 101.34 65.02 101.58 65.324C101.82 65.62 101.94 65.88 101.94 66.104C101.94 66.24 101.876 66.308 101.748 66.308C101.66 66.308 101.524 66.24 101.34 66.104C101.156 65.96 100.968 65.888 100.776 65.888C100.584 65.888 100.28 66 99.8638 66.224C99.4558 66.448 99.2518 66.684 99.2518 66.932C99.2518 67.116 99.6198 67.432 100.356 67.88C100.636 68.056 100.888 68.284 101.112 68.564C101.344 68.836 101.46 69.132 101.46 69.452C101.46 69.764 101.24 70.072 100.8 70.376C100.368 70.672 99.8598 70.82 99.2758 70.82C98.6998 70.82 98.1878 70.68 97.7398 70.4C97.2998 70.12 97.0798 69.856 97.0798 69.608C97.0798 69.504 97.1038 69.424 97.1518 69.368C97.2078 69.304 97.2758 69.272 97.3558 69.272C97.4358 69.272 97.5478 69.324 97.6918 69.428C98.1238 69.74 98.5718 69.896 99.0358 69.896C99.5078 69.896 99.8478 69.844 100.056 69.74C100.264 69.628 100.368 69.484 100.368 69.308C100.368 69.124 100.252 68.932 100.02 68.732C99.7878 68.524 99.5318 68.34 99.2518 68.18C98.9798 68.02 98.7278 67.824 98.4958 67.592C98.2638 67.36 98.1478 67.124 98.1478 66.884C98.1478 66.46 98.4798 66.02 99.1438 65.564C99.8158 65.1 100.372 64.868 100.812 64.868ZM107.277 66.86C107.277 67.284 107.045 67.632 106.581 67.904C106.125 68.168 105.605 68.3 105.021 68.3C104.445 68.3 103.921 68.236 103.449 68.108C103.337 68.46 103.281 68.776 103.281 69.056C103.281 69.328 103.365 69.54 103.533 69.692C103.709 69.844 103.993 69.92 104.385 69.92C104.785 69.92 105.193 69.852 105.609 69.716C106.033 69.572 106.265 69.5 106.305 69.5C106.513 69.5 106.617 69.58 106.617 69.74C106.617 69.956 106.373 70.192 105.885 70.448C105.397 70.696 104.921 70.82 104.457 70.82C103.833 70.82 103.325 70.636 102.933 70.268C102.541 69.892 102.345 69.42 102.345 68.852C102.345 68.284 102.497 67.692 102.801 67.076C103.105 66.452 103.497 65.928 103.977 65.504C104.457 65.08 104.933 64.868 105.405 64.868C105.877 64.868 106.305 65.092 106.689 65.54C107.081 65.988 107.277 66.428 107.277 66.86ZM105.465 65.816C105.169 65.816 104.861 65.972 104.541 66.284C104.221 66.588 103.949 66.968 103.725 67.424C104.045 67.496 104.409 67.532 104.817 67.532C105.225 67.532 105.581 67.468 105.885 67.34C106.189 67.204 106.341 67.028 106.341 66.812C106.341 66.596 106.241 66.376 106.041 66.152C105.849 65.928 105.657 65.816 105.465 65.816ZM112.984 65.348C112.984 65.196 113.16 65.08 113.512 65C113.864 64.912 114.344 64.868 114.952 64.868C115.568 64.868 116.072 64.948 116.464 65.108C116.64 65.18 116.8 65.328 116.944 65.552C117.096 65.768 117.172 65.948 117.172 66.092C117.172 66.396 116.984 66.744 116.608 67.136C116.24 67.528 115.836 67.876 115.396 68.18C114.956 68.484 114.548 68.776 114.172 69.056C113.804 69.336 113.62 69.524 113.62 69.62C113.62 69.756 113.724 69.824 113.932 69.824C114.388 69.824 114.948 69.792 115.612 69.728C116.276 69.664 116.672 69.632 116.8 69.632C117.112 69.632 117.268 69.724 117.268 69.908C117.268 70.164 116.868 70.38 116.068 70.556C115.268 70.732 114.496 70.82 113.752 70.82C113.408 70.82 113.092 70.692 112.804 70.436C112.516 70.172 112.372 69.932 112.372 69.716C112.372 69.5 112.572 69.212 112.972 68.852C113.38 68.484 113.824 68.136 114.304 67.808C115.592 66.912 116.236 66.352 116.236 66.128C116.236 65.976 115.828 65.9 115.012 65.9C114.812 65.9 114.564 65.924 114.268 65.972C113.972 66.012 113.756 66.032 113.62 66.032C113.492 66.032 113.352 65.948 113.2 65.78C113.056 65.612 112.984 65.468 112.984 65.348ZM119.169 68.732C119.937 67.428 120.561 66.46 121.041 65.828C121.529 65.188 121.925 64.868 122.229 64.868C122.541 64.868 122.833 65.032 123.105 65.36C123.385 65.688 123.525 66.036 123.525 66.404C123.525 66.98 123.393 67.684 123.129 68.516C122.649 70.052 122.217 70.82 121.833 70.82C121.657 70.82 121.569 70.7 121.569 70.46C121.569 70.292 121.653 69.952 121.821 69.44C121.997 68.92 122.157 68.412 122.301 67.916C122.453 67.412 122.529 67.036 122.529 66.788C122.529 66.532 122.489 66.344 122.409 66.224C122.337 66.104 122.261 66.044 122.181 66.044C122.109 66.044 122.033 66.068 121.953 66.116C121.873 66.164 121.781 66.244 121.677 66.356C121.581 66.468 121.489 66.58 121.401 66.692C121.313 66.796 121.201 66.948 121.065 67.148C120.937 67.348 120.829 67.52 120.741 67.664C120.653 67.8 120.525 68 120.357 68.264C120.189 68.528 120.061 68.728 119.973 68.864C119.885 69 119.769 69.184 119.625 69.416C119.481 69.648 119.365 69.828 119.277 69.956C119.197 70.084 119.105 70.224 119.001 70.376C118.801 70.672 118.641 70.82 118.521 70.82C118.409 70.82 118.277 70.732 118.125 70.556C117.973 70.372 117.897 70.212 117.897 70.076C117.897 70.036 117.925 69.928 117.981 69.752C118.133 69.288 118.301 68.716 118.485 68.036C118.669 67.348 118.769 66.568 118.785 65.696C118.809 65.112 118.893 64.82 119.037 64.82C119.213 64.82 119.389 64.912 119.565 65.096C119.741 65.28 119.829 65.484 119.829 65.708C119.829 65.924 119.761 66.348 119.625 66.98C119.497 67.604 119.345 68.188 119.169 68.732ZM127.584 64.868C127.944 64.868 128.276 65.052 128.58 65.42C128.884 65.78 129.036 66.108 129.036 66.404C129.036 66.692 128.936 66.988 128.736 67.292C128.832 67.412 128.88 67.516 128.88 67.604C128.88 67.828 128.828 68.212 128.724 68.756C128.628 69.3 128.568 69.656 128.544 69.824C128.528 69.992 128.512 70.128 128.496 70.232C128.48 70.328 128.46 70.424 128.436 70.52C128.404 70.72 128.332 70.82 128.22 70.82C128.076 70.82 127.956 70.696 127.86 70.448C127.772 70.192 127.72 69.864 127.704 69.464C126.992 70.368 126.332 70.82 125.724 70.82C125.356 70.82 124.992 70.664 124.632 70.352C124.28 70.032 124.104 69.704 124.104 69.368C124.104 68.888 124.28 68.296 124.632 67.592C124.984 66.88 125.44 66.248 126 65.696C126.56 65.144 127.088 64.868 127.584 64.868ZM128.136 66.98C128.136 66.236 127.988 65.864 127.692 65.864C127.38 65.864 127.016 66.088 126.6 66.536C126.184 66.976 125.832 67.476 125.544 68.036C125.256 68.596 125.112 69.04 125.112 69.368C125.112 69.504 125.168 69.616 125.28 69.704C125.392 69.784 125.524 69.824 125.676 69.824C126.052 69.824 126.476 69.572 126.948 69.068C127.42 68.556 127.748 67.936 127.932 67.208C127.956 67.088 128.024 67.016 128.136 66.992V66.98ZM133.449 64.868C133.721 64.868 133.977 65.02 134.217 65.324C134.457 65.62 134.577 65.88 134.577 66.104C134.577 66.24 134.513 66.308 134.385 66.308C134.297 66.308 134.161 66.24 133.977 66.104C133.793 65.96 133.605 65.888 133.413 65.888C133.221 65.888 132.917 66 132.501 66.224C132.093 66.448 131.889 66.684 131.889 66.932C131.889 67.116 132.257 67.432 132.993 67.88C133.273 68.056 133.525 68.284 133.749 68.564C133.981 68.836 134.097 69.132 134.097 69.452C134.097 69.764 133.877 70.072 133.437 70.376C133.005 70.672 132.497 70.82 131.913 70.82C131.337 70.82 130.825 70.68 130.377 70.4C129.937 70.12 129.717 69.856 129.717 69.608C129.717 69.504 129.741 69.424 129.789 69.368C129.845 69.304 129.913 69.272 129.993 69.272C130.073 69.272 130.185 69.324 130.329 69.428C130.761 69.74 131.209 69.896 131.673 69.896C132.145 69.896 132.485 69.844 132.693 69.74C132.901 69.628 133.005 69.484 133.005 69.308C133.005 69.124 132.889 68.932 132.657 68.732C132.425 68.524 132.169 68.34 131.889 68.18C131.617 68.02 131.365 67.824 131.133 67.592C130.901 67.36 130.785 67.124 130.785 66.884C130.785 66.46 131.117 66.02 131.781 65.564C132.453 65.1 133.009 64.868 133.449 64.868ZM134.589 62.336C134.821 62.336 134.937 62.44 134.937 62.648C134.937 62.76 134.889 62.864 134.793 62.96C134.705 63.048 134.545 63.164 134.313 63.308C134.081 63.452 133.917 63.56 133.821 63.632C133.725 63.704 133.597 63.812 133.437 63.956C133.277 64.092 133.149 64.196 133.053 64.268C132.957 64.332 132.869 64.364 132.789 64.364C132.629 64.364 132.289 64.108 131.769 63.596C131.249 63.076 130.989 62.668 130.989 62.372C130.989 62.244 131.025 62.14 131.097 62.06C131.169 61.972 131.261 61.928 131.373 61.928C131.493 61.928 131.609 61.996 131.721 62.132C131.833 62.268 131.989 62.468 132.189 62.732C132.389 62.988 132.617 63.216 132.873 63.416C133.273 63.048 133.625 62.776 133.929 62.6C134.241 62.424 134.461 62.336 134.589 62.336ZM139.914 66.86C139.914 67.284 139.682 67.632 139.218 67.904C138.762 68.168 138.242 68.3 137.658 68.3C137.082 68.3 136.558 68.236 136.086 68.108C135.974 68.46 135.918 68.776 135.918 69.056C135.918 69.328 136.002 69.54 136.17 69.692C136.346 69.844 136.63 69.92 137.022 69.92C137.422 69.92 137.83 69.852 138.246 69.716C138.67 69.572 138.902 69.5 138.942 69.5C139.15 69.5 139.254 69.58 139.254 69.74C139.254 69.956 139.01 70.192 138.522 70.448C138.034 70.696 137.558 70.82 137.094 70.82C136.47 70.82 135.962 70.636 135.57 70.268C135.178 69.892 134.982 69.42 134.982 68.852C134.982 68.284 135.134 67.692 135.438 67.076C135.742 66.452 136.134 65.928 136.614 65.504C137.094 65.08 137.57 64.868 138.042 64.868C138.514 64.868 138.942 65.092 139.326 65.54C139.718 65.988 139.914 66.428 139.914 66.86ZM138.102 65.816C137.806 65.816 137.498 65.972 137.178 66.284C136.858 66.588 136.586 66.968 136.362 67.424C136.682 67.496 137.046 67.532 137.454 67.532C137.862 67.532 138.218 67.468 138.522 67.34C138.826 67.204 138.978 67.028 138.978 66.812C138.978 66.596 138.878 66.376 138.678 66.152C138.486 65.928 138.294 65.816 138.102 65.816ZM142.892 62.516C142.892 64.02 142.58 65.972 141.956 68.372C141.556 70.004 141.276 70.82 141.116 70.82C141.004 70.82 140.872 70.732 140.72 70.556C140.576 70.38 140.504 70.244 140.504 70.148C140.504 70.052 140.62 69.556 140.852 68.66C141.084 67.764 141.316 66.664 141.548 65.36C141.78 64.048 141.896 62.868 141.896 61.82C141.896 61.708 141.912 61.628 141.944 61.58C141.976 61.532 142.044 61.508 142.148 61.508C142.252 61.508 142.4 61.624 142.592 61.856C142.792 62.08 142.892 62.3 142.892 62.516ZM149.63 69.62C149.63 69.772 149.718 69.848 149.894 69.848C150.198 69.848 150.566 69.764 150.998 69.596C151.438 69.42 151.682 69.332 151.73 69.332C151.874 69.332 151.946 69.408 151.946 69.56C151.946 69.792 151.706 70.06 151.226 70.364C150.754 70.668 150.322 70.82 149.93 70.82C149.546 70.82 149.226 70.716 148.97 70.508C148.714 70.292 148.586 70.072 148.586 69.848C148.586 69.624 148.634 69.34 148.73 68.996C148.826 68.644 148.962 68.184 149.138 67.616C149.322 67.04 149.466 66.564 149.57 66.188C149.194 66.276 148.942 66.32 148.814 66.32C148.686 66.32 148.558 66.256 148.43 66.128C148.31 65.992 148.25 65.864 148.25 65.744C148.25 65.552 148.77 65.368 149.81 65.192C149.954 64.528 150.026 63.94 150.026 63.428C150.026 63.188 150.106 63.068 150.266 63.068C150.402 63.068 150.57 63.156 150.77 63.332C150.97 63.5 151.07 63.692 151.07 63.908C151.07 64.124 151.002 64.504 150.866 65.048C151.322 65.008 151.686 64.988 151.958 64.988C152.438 64.988 152.678 65.092 152.678 65.3C152.678 65.42 152.546 65.52 152.282 65.6C152.026 65.68 151.482 65.804 150.65 65.972C150.482 66.604 150.27 67.328 150.014 68.144C149.758 68.952 149.63 69.444 149.63 69.62ZM157.175 65.204C157.207 65.076 157.239 64.988 157.271 64.94C157.303 64.892 157.371 64.868 157.475 64.868C157.587 64.868 157.719 64.972 157.871 65.18C158.031 65.388 158.111 65.588 158.111 65.78C158.111 65.884 157.935 66.5 157.583 67.628C157.231 68.756 156.959 69.652 156.767 70.316C156.671 70.652 156.535 70.82 156.359 70.82C156.255 70.82 156.167 70.776 156.095 70.688C156.023 70.6 155.987 70.44 155.987 70.208C155.987 69.976 156.079 69.556 156.263 68.948C155.927 69.492 155.563 69.94 155.171 70.292C154.779 70.644 154.419 70.82 154.091 70.82C153.771 70.82 153.467 70.668 153.179 70.364C152.891 70.06 152.747 69.748 152.747 69.428C152.747 68.668 152.967 67.72 153.407 66.584C153.855 65.44 154.227 64.868 154.523 64.868C154.667 64.868 154.791 64.936 154.895 65.072C155.007 65.2 155.063 65.348 155.063 65.516C155.063 65.588 154.955 65.848 154.739 66.296C154.523 66.736 154.307 67.256 154.091 67.856C153.875 68.448 153.767 68.968 153.767 69.416C153.767 69.544 153.807 69.652 153.887 69.74C153.967 69.82 154.063 69.86 154.175 69.86C154.479 69.86 154.839 69.592 155.255 69.056C155.679 68.52 156.063 67.896 156.407 67.184C156.751 66.472 157.007 65.812 157.175 65.204ZM160.072 71.072C159.872 71.072 159.644 70.944 159.388 70.688C159.132 70.424 159.004 70.208 159.004 70.04C159.004 69.864 159.072 69.692 159.208 69.524C159.352 69.348 159.496 69.26 159.64 69.26C159.792 69.26 159.964 69.456 160.156 69.848C160.356 70.24 160.456 70.536 160.456 70.736C160.456 70.8 160.412 70.872 160.324 70.952C160.236 71.032 160.152 71.072 160.072 71.072Z" fill="#002B55"/>
<rect width="26.9488" height="7.09311" transform="matrix(0.801801 -0.597591 0.60657 0.79503 188.294 124.604)" fill="#80C565"/>
<rect x="207.265" y="42.25" width="41.7353" height="61.25" fill="#F3F3F3"/>
<rect x="212.324" y="82.25" width="25.2941" height="1.25" fill="#002B55"/>
<rect x="211.059" y="57.25" width="8.85294" height="1.25" fill="#002B55"/>
<rect x="230.029" y="57.25" width="8.85294" height="1.25" fill="#002B55"/>
<rect x="202.206" y="36" width="46.7941" height="10" fill="#002B55"/>
<rect x="212.324" y="61" width="10.1176" height="15" fill="white"/>
<rect x="214.853" y="61" width="7.58824" height="10" fill="#002B55"/>
<rect x="218.647" y="62.25" width="2.52941" height="2.5" fill="white"/>
<rect x="228.765" y="61" width="10.1176" height="15" fill="white"/>
<rect x="231.294" y="61" width="7.58824" height="10" fill="#002B55"/>
<rect x="235.088" y="62.25" width="2.52941" height="2.5" fill="white"/>
<path d="M216.608 85.5625L225.603 92.8563L234.598 85.5625H216.608Z" fill="white" stroke="#002B55"/>
<rect x="213.588" y="107.25" width="27.8235" height="38.75" fill="#80C565"/>
<path d="M224.971 111L230.447 106.312H219.494L224.971 111Z" fill="white"/>
<rect x="173.75" y="131.625" width="39.2059" height="3.75" fill="#002B55"/>
<path d="M163 112.25H192.721L204.103 131.625H173.75L163 112.25Z" fill="#002B55"/>
<rect width="26.9488" height="7.09311" transform="matrix(0.801801 -0.597591 0.60657 0.79503 197.147 138.354)" fill="#80C565"/>
</svg>
