<svg width="249" height="156" viewBox="0 0 249 156" fill="none" xmlns="http://www.w3.org/2000/svg">
<path d="M21 50C21 40.0589 29.0589 32 39 32H163.024C172.139 32 179.815 38.8129 180.897 47.863L183.434 69.0811C184.105 74.6968 187.377 79.6704 192.268 82.5104L200 87H39C29.0589 87 21 78.9411 21 69V50Z" fill="#80C565"/>
<path d="M12.2 24.048C11.704 24.048 11.28 23.88 10.928 23.544C10.576 23.208 10.4 22.792 10.4 22.296C10.4 21.816 10.576 21.408 10.928 21.072C11.28 20.736 11.704 20.568 12.2 20.568C12.696 20.568 13.12 20.736 13.472 21.072C13.824 21.408 14 21.816 14 22.296C14 22.792 13.824 23.208 13.472 23.544C13.12 23.88 12.696 24.048 12.2 24.048ZM26.5906 24.048C26.0946 24.048 25.6706 23.88 25.3186 23.544C24.9666 23.208 24.7906 22.792 24.7906 22.296C24.7906 21.816 24.9666 21.408 25.3186 21.072C25.6706 20.736 26.0946 20.568 26.5906 20.568C27.0866 20.568 27.5106 20.736 27.8626 21.072C28.2146 21.408 28.3906 21.816 28.3906 22.296C28.3906 22.792 28.2146 23.208 27.8626 23.544C27.5106 23.88 27.0866 24.048 26.5906 24.048ZM40.9813 24.048C40.4853 24.048 40.0613 23.88 39.7093 23.544C39.3573 23.208 39.1813 22.792 39.1813 22.296C39.1813 21.816 39.3573 21.408 39.7093 21.072C40.0613 20.736 40.4853 20.568 40.9813 20.568C41.4773 20.568 41.9013 20.736 42.2533 21.072C42.6053 21.408 42.7813 21.816 42.7813 22.296C42.7813 22.792 42.6053 23.208 42.2533 23.544C41.9013 23.88 41.4773 24.048 40.9813 24.048ZM64.2185 24V22.344L72.9065 9.024H64.3385V7.2H75.2345V8.856L66.5225 22.176H75.3305V24H64.2185ZM78.3391 24V22.978H80.5651V15.222H78.3391V14.2H83.9671V15.222H81.7411V22.978H83.9671V24H78.3391ZM86.5357 24V23.124H88.4437V16.476H86.5357V15.6H91.3597V16.476H89.4517V23.124H91.3597V24H86.5357ZM93.929 24V22.978H96.155V15.222H93.929V14.2H99.557V15.222H97.331V22.978H99.557V24H93.929ZM102.27 24V11.4H106.464C107.424 11.4 108.21 11.574 108.822 11.922C109.434 12.27 109.884 12.732 110.172 13.308C110.46 13.884 110.604 14.52 110.604 15.216C110.604 15.912 110.46 16.548 110.172 17.124C109.884 17.7 109.434 18.162 108.822 18.51C108.21 18.858 107.424 19.032 106.464 19.032H103.782V24H102.27ZM103.782 17.646H106.428C107.316 17.646 107.976 17.424 108.408 16.98C108.84 16.524 109.056 15.936 109.056 15.216C109.056 14.496 108.84 13.908 108.408 13.452C107.976 12.996 107.316 12.768 106.428 12.768H103.782V17.646Z" fill="#002B55"/>
<path d="M0.83 116.9L4.29 108.4H5.17L1.7 116.9H0.83ZM8.55609 114.99L8.76609 112.89L7.03609 114.06L6.63609 113.34L8.51609 112.5L6.63609 111.65L7.03609 110.94L8.76609 112.11L8.55609 110.01H9.43609L9.23609 112.11L10.9561 110.94L11.3561 111.65L9.47609 112.5L11.3561 113.34L10.9561 114.06L9.23609 112.89L9.43609 114.99H8.55609ZM12.3222 129L14.5122 122H15.4822L17.6622 129H16.7422L16.2322 127.26H13.7522L13.2422 129H12.3222ZM14.9722 123.18L13.9622 126.56H16.0222L15.0122 123.18H14.9722ZM18.8683 129V124.04H19.5683L19.6583 124.79H19.7083C19.8416 124.55 20.0516 124.347 20.3383 124.18C20.6249 124.007 20.9549 123.92 21.3283 123.92C21.9349 123.92 22.3883 124.1 22.6883 124.46C22.9949 124.82 23.1483 125.34 23.1483 126.02V129H22.3083V126.12C22.3083 125.68 22.2116 125.337 22.0183 125.09C21.8249 124.837 21.5249 124.71 21.1183 124.71C20.7249 124.71 20.3916 124.847 20.1183 125.12C19.8449 125.387 19.7083 125.773 19.7083 126.28V129H18.8683ZM24.8644 129V124.04H25.5644L25.6544 124.79H25.7044C25.8377 124.55 26.0477 124.347 26.3344 124.18C26.621 124.007 26.951 123.92 27.3244 123.92C27.931 123.92 28.3844 124.1 28.6844 124.46C28.991 124.82 29.1444 125.34 29.1444 126.02V129H28.3044V126.12C28.3044 125.68 28.2077 125.337 28.0144 125.09C27.821 124.837 27.521 124.71 27.1144 124.71C26.721 124.71 26.3877 124.847 26.1144 125.12C25.841 125.387 25.7044 125.773 25.7044 126.28V129H24.8644ZM32.9805 129.12C32.5138 129.12 32.1005 129.013 31.7405 128.8C31.3805 128.587 31.0971 128.287 30.8905 127.9C30.6838 127.507 30.5805 127.047 30.5805 126.52C30.5805 125.993 30.6838 125.537 30.8905 125.15C31.0971 124.757 31.3805 124.453 31.7405 124.24C32.1005 124.027 32.5138 123.92 32.9805 123.92C33.4471 123.92 33.8605 124.027 34.2205 124.24C34.5805 124.453 34.8638 124.757 35.0705 125.15C35.2771 125.537 35.3805 125.993 35.3805 126.52C35.3805 127.047 35.2771 127.507 35.0705 127.9C34.8638 128.287 34.5805 128.587 34.2205 128.8C33.8605 129.013 33.4471 129.12 32.9805 129.12ZM32.9805 128.32C33.2671 128.32 33.5271 128.257 33.7605 128.13C33.9938 128.003 34.1771 127.807 34.3105 127.54C34.4505 127.273 34.5205 126.933 34.5205 126.52C34.5205 126.107 34.4505 125.767 34.3105 125.5C34.1771 125.233 33.9938 125.037 33.7605 124.91C33.5271 124.783 33.2671 124.72 32.9805 124.72C32.7005 124.72 32.4438 124.783 32.2105 124.91C31.9771 125.037 31.7905 125.233 31.6505 125.5C31.5105 125.767 31.4405 126.107 31.4405 126.52C31.4405 127.14 31.5905 127.597 31.8905 127.89C32.1905 128.177 32.5538 128.32 32.9805 128.32ZM37.4666 131.2L38.6866 128.52H38.3966L36.4366 124.04H37.3466L38.9766 127.88L40.6966 124.04H41.5766L38.3466 131.2H37.4666ZM44.9127 123.16C44.7127 123.16 44.546 123.093 44.4127 122.96C44.2793 122.827 44.2127 122.667 44.2127 122.48C44.2127 122.287 44.2793 122.127 44.4127 122C44.546 121.867 44.7127 121.8 44.9127 121.8C45.106 121.8 45.2693 121.867 45.4027 122C45.5427 122.127 45.6127 122.287 45.6127 122.48C45.6127 122.667 45.5427 122.827 45.4027 122.96C45.2693 123.093 45.106 123.16 44.9127 123.16ZM42.9727 129V128.28H44.5527V125.01C44.5527 124.843 44.4693 124.76 44.3027 124.76H43.1427V124.04H44.5027C45.096 124.04 45.3927 124.337 45.3927 124.93V128.28H46.9727V129H42.9727ZM48.8488 129V124.04H49.5488L49.6388 124.79H49.6888C49.8221 124.55 50.0321 124.347 50.3188 124.18C50.6054 124.007 50.9354 123.92 51.3088 123.92C51.9154 123.92 52.3688 124.1 52.6688 124.46C52.9754 124.82 53.1288 125.34 53.1288 126.02V129H52.2888V126.12C52.2888 125.68 52.1921 125.337 51.9988 125.09C51.8054 124.837 51.5054 124.71 51.0988 124.71C50.7054 124.71 50.3721 124.847 50.0988 125.12C49.8254 125.387 49.6888 125.773 49.6888 126.28V129H48.8488ZM56.8748 127.54C56.5282 127.54 56.2182 127.477 55.9448 127.35L55.6048 127.76C55.5315 127.86 55.5115 127.96 55.5448 128.06C55.5848 128.153 55.6815 128.2 55.8348 128.2H57.1448C57.7382 128.2 58.2182 128.317 58.5848 128.55C58.9515 128.777 59.1348 129.14 59.1348 129.64C59.1348 129.94 59.0582 130.217 58.9048 130.47C58.7515 130.723 58.5082 130.927 58.1748 131.08C57.8482 131.24 57.4182 131.32 56.8848 131.32C56.1915 131.32 55.6348 131.19 55.2148 130.93C54.7948 130.67 54.5848 130.273 54.5848 129.74C54.5848 129.547 54.6315 129.367 54.7248 129.2C54.8248 129.04 54.9482 128.897 55.0948 128.77C54.9015 128.65 54.7815 128.47 54.7348 128.23C54.6948 127.99 54.7682 127.753 54.9548 127.52L55.4048 126.96C55.0848 126.627 54.9248 126.217 54.9248 125.73C54.9248 125.41 55.0015 125.113 55.1548 124.84C55.3082 124.56 55.5282 124.337 55.8148 124.17C56.1082 124.003 56.4615 123.92 56.8748 123.92C57.1415 123.92 57.3882 123.96 57.6148 124.04H59.4748V124.67L58.5448 124.7V124.77C58.7182 125.057 58.8048 125.377 58.8048 125.73C58.8048 126.05 58.7282 126.35 58.5748 126.63C58.4282 126.903 58.2082 127.123 57.9148 127.29C57.6282 127.457 57.2815 127.54 56.8748 127.54ZM56.8748 126.82C57.2015 126.82 57.4682 126.723 57.6748 126.53C57.8882 126.337 57.9948 126.07 57.9948 125.73C57.9948 125.39 57.8882 125.127 57.6748 124.94C57.4682 124.747 57.2015 124.65 56.8748 124.65C56.5415 124.65 56.2682 124.747 56.0548 124.94C55.8415 125.127 55.7348 125.39 55.7348 125.73C55.7348 126.07 55.8415 126.337 56.0548 126.53C56.2682 126.723 56.5415 126.82 56.8748 126.82ZM55.4148 129.71C55.4148 130.003 55.5515 130.223 55.8248 130.37C56.0982 130.517 56.4515 130.59 56.8848 130.59C57.3048 130.59 57.6448 130.507 57.9048 130.34C58.1715 130.173 58.3048 129.95 58.3048 129.67C58.3048 129.45 58.2115 129.263 58.0248 129.11C57.8382 128.963 57.4948 128.89 56.9948 128.89H55.8648C55.5648 129.11 55.4148 129.383 55.4148 129.71ZM60.7109 129V128.28H62.4009V122.77C62.4009 122.603 62.3176 122.52 62.1509 122.52H60.8909V121.8H62.3509C62.6376 121.8 62.8576 121.877 63.0109 122.03C63.1643 122.183 63.2409 122.403 63.2409 122.69V128.28H64.9309V129H60.7109ZM67.447 131.2L68.667 128.52H68.377L66.417 124.04H67.327L68.957 127.88L70.677 124.04H71.557L68.327 131.2H67.447ZM80.5992 129.12C79.9992 129.12 79.5459 128.94 79.2392 128.58C78.9326 128.22 78.7792 127.7 78.7792 127.02V124.04H79.6192V126.92C79.6192 127.36 79.7159 127.707 79.9092 127.96C80.1092 128.207 80.4092 128.33 80.8092 128.33C81.2092 128.33 81.5459 128.197 81.8192 127.93C82.0926 127.657 82.2292 127.267 82.2292 126.76V124.04H83.0692V129H82.3692L82.2792 128.25H82.2292C82.0959 128.49 81.8859 128.697 81.5992 128.87C81.3126 129.037 80.9792 129.12 80.5992 129.12ZM84.7253 131.2V124.04H85.4053L85.5053 124.86H85.5653C85.692 124.593 85.8953 124.37 86.1753 124.19C86.4553 124.01 86.7853 123.92 87.1653 123.92C87.5653 123.92 87.9253 124.02 88.2453 124.22C88.572 124.42 88.8286 124.717 89.0153 125.11C89.202 125.497 89.2953 125.97 89.2953 126.53C89.2953 127.083 89.1986 127.553 89.0053 127.94C88.8186 128.327 88.5586 128.62 88.2253 128.82C87.8986 129.02 87.522 129.12 87.0953 129.12C86.7153 129.12 86.392 129.04 86.1253 128.88C85.8653 128.713 85.6786 128.52 85.5653 128.3V131.2H84.7253ZM86.9953 128.32C87.4153 128.32 87.762 128.173 88.0353 127.88C88.3086 127.58 88.4453 127.127 88.4453 126.52C88.4453 125.913 88.3086 125.463 88.0353 125.17C87.762 124.87 87.4153 124.72 86.9953 124.72C86.5753 124.72 86.2286 124.87 85.9553 125.17C85.682 125.463 85.5453 125.913 85.5453 126.52C85.5453 127.127 85.682 127.58 85.9553 127.88C86.2286 128.173 86.5753 128.32 86.9953 128.32ZM90.6914 129V128.28H92.3814V122.77C92.3814 122.603 92.2981 122.52 92.1314 122.52H90.8714V121.8H92.3314C92.6181 121.8 92.8381 121.877 92.9914 122.03C93.1447 122.183 93.2214 122.403 93.2214 122.69V128.28H94.9114V129H90.6914ZM98.8775 123.16C98.6775 123.16 98.5108 123.093 98.3775 122.96C98.2442 122.827 98.1775 122.667 98.1775 122.48C98.1775 122.287 98.2442 122.127 98.3775 122C98.5108 121.867 98.6775 121.8 98.8775 121.8C99.0708 121.8 99.2342 121.867 99.3675 122C99.5075 122.127 99.5775 122.287 99.5775 122.48C99.5775 122.667 99.5075 122.827 99.3675 122.96C99.2342 123.093 99.0708 123.16 98.8775 123.16ZM96.9375 129V128.28H98.5175V125.01C98.5175 124.843 98.4342 124.76 98.2675 124.76H97.1075V124.04H98.4675C99.0608 124.04 99.3575 124.337 99.3575 124.93V128.28H100.938V129H96.9375ZM102.854 131.2V130.43H103.464C103.717 130.43 103.897 130.38 104.004 130.28C104.11 130.18 104.164 130.003 104.164 129.75V124.76H102.934V124.04H104.164V123.25C104.164 122.737 104.287 122.367 104.534 122.14C104.78 121.913 105.154 121.8 105.654 121.8H106.844V122.56H105.704C105.457 122.56 105.277 122.613 105.164 122.72C105.057 122.82 105.004 122.997 105.004 123.25V124.04H106.844V124.76H105.004V129.75C105.004 130.263 104.88 130.633 104.634 130.86C104.387 131.087 104.017 131.2 103.524 131.2H102.854ZM111.45 129C110.996 129 110.64 128.89 110.38 128.67C110.12 128.45 109.99 128.053 109.99 127.48V124.76H108.73V124.04H109.48C109.82 124.04 110.016 123.873 110.07 123.54L110.21 122.77H110.83V124.04H112.81V124.76H110.83V127.48C110.83 127.76 110.893 127.957 111.02 128.07C111.153 128.183 111.38 128.24 111.7 128.24H112.81V129H111.45ZM116.866 123.16C116.666 123.16 116.499 123.093 116.366 122.96C116.232 122.827 116.166 122.667 116.166 122.48C116.166 122.287 116.232 122.127 116.366 122C116.499 121.867 116.666 121.8 116.866 121.8C117.059 121.8 117.222 121.867 117.356 122C117.496 122.127 117.566 122.287 117.566 122.48C117.566 122.667 117.496 122.827 117.356 122.96C117.222 123.093 117.059 123.16 116.866 123.16ZM114.926 129V128.28H116.506V125.01C116.506 124.843 116.422 124.76 116.256 124.76H115.096V124.04H116.456C117.049 124.04 117.346 124.337 117.346 124.93V128.28H118.926V129H114.926ZM120.802 129V124.04H121.502L121.592 124.79H121.642C121.775 124.55 121.985 124.347 122.272 124.18C122.559 124.007 122.889 123.92 123.262 123.92C123.869 123.92 124.322 124.1 124.622 124.46C124.929 124.82 125.082 125.34 125.082 126.02V129H124.242V126.12C124.242 125.68 124.145 125.337 123.952 125.09C123.759 124.837 123.459 124.71 123.052 124.71C122.659 124.71 122.325 124.847 122.052 125.12C121.779 125.387 121.642 125.773 121.642 126.28V129H120.802ZM128.828 127.54C128.481 127.54 128.171 127.477 127.898 127.35L127.558 127.76C127.485 127.86 127.465 127.96 127.498 128.06C127.538 128.153 127.635 128.2 127.788 128.2H129.098C129.691 128.2 130.171 128.317 130.538 128.55C130.905 128.777 131.088 129.14 131.088 129.64C131.088 129.94 131.011 130.217 130.858 130.47C130.705 130.723 130.461 130.927 130.128 131.08C129.801 131.24 129.371 131.32 128.838 131.32C128.145 131.32 127.588 131.19 127.168 130.93C126.748 130.67 126.538 130.273 126.538 129.74C126.538 129.547 126.585 129.367 126.678 129.2C126.778 129.04 126.901 128.897 127.048 128.77C126.855 128.65 126.735 128.47 126.688 128.23C126.648 127.99 126.721 127.753 126.908 127.52L127.358 126.96C127.038 126.627 126.878 126.217 126.878 125.73C126.878 125.41 126.955 125.113 127.108 124.84C127.261 124.56 127.481 124.337 127.768 124.17C128.061 124.003 128.415 123.92 128.828 123.92C129.095 123.92 129.341 123.96 129.568 124.04H131.428V124.67L130.498 124.7V124.77C130.671 125.057 130.758 125.377 130.758 125.73C130.758 126.05 130.681 126.35 130.528 126.63C130.381 126.903 130.161 127.123 129.868 127.29C129.581 127.457 129.235 127.54 128.828 127.54ZM128.828 126.82C129.155 126.82 129.421 126.723 129.628 126.53C129.841 126.337 129.948 126.07 129.948 125.73C129.948 125.39 129.841 125.127 129.628 124.94C129.421 124.747 129.155 124.65 128.828 124.65C128.495 124.65 128.221 124.747 128.008 124.94C127.795 125.127 127.688 125.39 127.688 125.73C127.688 126.07 127.795 126.337 128.008 126.53C128.221 126.723 128.495 126.82 128.828 126.82ZM127.368 129.71C127.368 130.003 127.505 130.223 127.778 130.37C128.051 130.517 128.405 130.59 128.838 130.59C129.258 130.59 129.598 130.507 129.858 130.34C130.125 130.173 130.258 129.95 130.258 129.67C130.258 129.45 130.165 129.263 129.978 129.11C129.791 128.963 129.448 128.89 128.948 128.89H127.818C127.518 129.11 127.368 129.383 127.368 129.71ZM138.83 131.2V130.43H139.44C139.693 130.43 139.873 130.38 139.98 130.28C140.087 130.18 140.14 130.003 140.14 129.75V124.76H138.91V124.04H140.14V123.25C140.14 122.737 140.263 122.367 140.51 122.14C140.757 121.913 141.13 121.8 141.63 121.8H142.82V122.56H141.68C141.433 122.56 141.253 122.613 141.14 122.72C141.033 122.82 140.98 122.997 140.98 123.25V124.04H142.82V124.76H140.98V129.75C140.98 130.263 140.857 130.633 140.61 130.86C140.363 131.087 139.993 131.2 139.5 131.2H138.83ZM144.746 129V128.28H146.016V125.01C146.016 124.843 145.936 124.76 145.776 124.76H144.876V124.04H146.086C146.306 124.04 146.483 124.1 146.616 124.22C146.75 124.34 146.816 124.517 146.816 124.75V124.96H146.856C146.936 124.627 147.086 124.37 147.306 124.19C147.533 124.01 147.846 123.92 148.246 123.92H149.156V124.81H148.126C147.72 124.81 147.406 124.947 147.186 125.22C146.966 125.487 146.856 125.83 146.856 126.25V128.28H148.416V129H144.746ZM152.952 129.12C152.486 129.12 152.072 129.013 151.712 128.8C151.359 128.58 151.079 128.277 150.872 127.89C150.666 127.497 150.562 127.04 150.562 126.52C150.562 126 150.662 125.547 150.862 125.16C151.069 124.767 151.352 124.463 151.712 124.25C152.072 124.03 152.492 123.92 152.972 123.92C153.452 123.92 153.862 124.03 154.202 124.25C154.542 124.463 154.802 124.747 154.982 125.1C155.162 125.453 155.252 125.833 155.252 126.24C155.252 126.313 155.249 126.387 155.242 126.46C155.242 126.533 155.242 126.617 155.242 126.71H151.392C151.412 127.077 151.496 127.383 151.642 127.63C151.796 127.87 151.986 128.05 152.212 128.17C152.446 128.29 152.692 128.35 152.952 128.35C153.319 128.35 153.606 128.273 153.812 128.12C154.019 127.967 154.176 127.753 154.282 127.48H155.112C154.999 127.94 154.762 128.33 154.402 128.65C154.042 128.963 153.559 129.12 152.952 129.12ZM152.952 124.67C152.566 124.67 152.226 124.787 151.932 125.02C151.646 125.253 151.469 125.58 151.402 126H154.422C154.396 125.587 154.246 125.263 153.972 125.03C153.706 124.79 153.366 124.67 152.952 124.67ZM158.948 129.12C158.482 129.12 158.068 129.013 157.708 128.8C157.355 128.58 157.075 128.277 156.868 127.89C156.662 127.497 156.558 127.04 156.558 126.52C156.558 126 156.658 125.547 156.858 125.16C157.065 124.767 157.348 124.463 157.708 124.25C158.068 124.03 158.488 123.92 158.968 123.92C159.448 123.92 159.858 124.03 160.198 124.25C160.538 124.463 160.798 124.747 160.978 125.1C161.158 125.453 161.248 125.833 161.248 126.24C161.248 126.313 161.245 126.387 161.238 126.46C161.238 126.533 161.238 126.617 161.238 126.71H157.388C157.408 127.077 157.492 127.383 157.638 127.63C157.792 127.87 157.982 128.05 158.208 128.17C158.442 128.29 158.688 128.35 158.948 128.35C159.315 128.35 159.602 128.273 159.808 128.12C160.015 127.967 160.172 127.753 160.278 127.48H161.108C160.995 127.94 160.758 128.33 160.398 128.65C160.038 128.963 159.555 129.12 158.948 129.12ZM158.948 124.67C158.562 124.67 158.222 124.787 157.928 125.02C157.642 125.253 157.465 125.58 157.398 126H160.418C160.392 125.587 160.242 125.263 159.968 125.03C159.702 124.79 159.362 124.67 158.948 124.67ZM12.3622 142V137.04H13.0522L13.1422 137.62H13.1922C13.2789 137.42 13.4089 137.253 13.5822 137.12C13.7622 136.987 13.9789 136.92 14.2322 136.92C14.4855 136.92 14.6989 136.983 14.8722 137.11C15.0522 137.23 15.1822 137.4 15.2622 137.62H15.3022C15.3889 137.42 15.5289 137.253 15.7222 137.12C15.9155 136.987 16.1489 136.92 16.4222 136.92C16.8022 136.92 17.0855 137.05 17.2722 137.31C17.4655 137.563 17.5622 137.903 17.5622 138.33V142H16.7422V138.46C16.7422 138.22 16.6922 138.03 16.5922 137.89C16.4989 137.75 16.3455 137.68 16.1322 137.68C15.9122 137.68 15.7322 137.763 15.5922 137.93C15.4522 138.097 15.3822 138.333 15.3822 138.64V142H14.5522V138.46C14.5522 138.22 14.5055 138.03 14.4122 137.89C14.3189 137.75 14.1655 137.68 13.9522 137.68C13.7322 137.68 13.5489 137.763 13.4022 137.93C13.2622 138.097 13.1922 138.333 13.1922 138.64V142H12.3622ZM20.6383 142.12C20.0383 142.12 19.5849 141.94 19.2783 141.58C18.9716 141.22 18.8183 140.7 18.8183 140.02V137.04H19.6583V139.92C19.6583 140.36 19.7549 140.707 19.9483 140.96C20.1483 141.207 20.4483 141.33 20.8483 141.33C21.2483 141.33 21.5849 141.197 21.8583 140.93C22.1316 140.657 22.2683 140.267 22.2683 139.76V137.04H23.1083V142H22.4083L22.3183 141.25H22.2683C22.1349 141.49 21.9249 141.697 21.6383 141.87C21.3516 142.037 21.0183 142.12 20.6383 142.12ZM27.0344 142.12C26.401 142.12 25.8877 141.973 25.4944 141.68C25.1077 141.38 24.891 140.97 24.8444 140.45H25.7144C25.7544 140.723 25.8877 140.947 26.1144 141.12C26.3477 141.293 26.661 141.38 27.0544 141.38C27.4277 141.38 27.7044 141.3 27.8844 141.14C28.071 140.98 28.1644 140.797 28.1644 140.59C28.1644 140.31 28.0544 140.12 27.8344 140.02C27.6144 139.913 27.2844 139.833 26.8444 139.78C26.3177 139.72 25.881 139.577 25.5344 139.35C25.1877 139.123 25.0144 138.783 25.0144 138.33C25.0144 137.923 25.1844 137.587 25.5244 137.32C25.8644 137.053 26.3277 136.92 26.9144 136.92C27.4944 136.92 27.951 137.053 28.2844 137.32C28.6177 137.58 28.8077 137.953 28.8544 138.44H28.0244C28.0044 138.2 27.8877 138.01 27.6744 137.87C27.4677 137.723 27.2077 137.65 26.8944 137.65C26.5677 137.65 26.3144 137.713 26.1344 137.84C25.9544 137.96 25.8644 138.12 25.8644 138.32C25.8644 138.52 25.9644 138.687 26.1644 138.82C26.371 138.947 26.6944 139.03 27.1344 139.07C27.481 139.11 27.7977 139.177 28.0844 139.27C28.371 139.363 28.5977 139.51 28.7644 139.71C28.9377 139.91 29.0244 140.19 29.0244 140.55C29.031 140.85 28.9477 141.12 28.7744 141.36C28.6077 141.593 28.3744 141.78 28.0744 141.92C27.7744 142.053 27.4277 142.12 27.0344 142.12ZM32.9205 136.16C32.7205 136.16 32.5538 136.093 32.4205 135.96C32.2871 135.827 32.2205 135.667 32.2205 135.48C32.2205 135.287 32.2871 135.127 32.4205 135C32.5538 134.867 32.7205 134.8 32.9205 134.8C33.1138 134.8 33.2771 134.867 33.4105 135C33.5505 135.127 33.6205 135.287 33.6205 135.48C33.6205 135.667 33.5505 135.827 33.4105 135.96C33.2771 136.093 33.1138 136.16 32.9205 136.16ZM30.9805 142V141.28H32.5605V138.01C32.5605 137.843 32.4771 137.76 32.3105 137.76H31.1505V137.04H32.5105C33.1038 137.04 33.4005 137.337 33.4005 137.93V141.28H34.9805V142H30.9805ZM39.0566 142.12C38.6099 142.12 38.2099 142.017 37.8566 141.81C37.5099 141.603 37.2332 141.307 37.0266 140.92C36.8199 140.527 36.7166 140.06 36.7166 139.52C36.7166 138.98 36.8199 138.517 37.0266 138.13C37.2332 137.737 37.5132 137.437 37.8666 137.23C38.2266 137.023 38.6232 136.92 39.0566 136.92C39.6699 136.92 40.1599 137.073 40.5266 137.38C40.8932 137.687 41.1266 138.097 41.2266 138.61H40.3666C40.2866 138.337 40.1332 138.12 39.9066 137.96C39.6799 137.793 39.3932 137.71 39.0466 137.71C38.7932 137.71 38.5532 137.777 38.3266 137.91C38.0999 138.043 37.9166 138.243 37.7766 138.51C37.6366 138.777 37.5666 139.113 37.5666 139.52C37.5666 139.927 37.6366 140.267 37.7766 140.54C37.9166 140.807 38.0999 141.007 38.3266 141.14C38.5532 141.273 38.7932 141.34 39.0466 141.34C39.4132 141.34 39.7032 141.257 39.9166 141.09C40.1366 140.923 40.2866 140.703 40.3666 140.43H41.2266C41.0999 140.957 40.8499 141.37 40.4766 141.67C40.1099 141.97 39.6366 142.12 39.0566 142.12ZM48.8888 144.2V143.43H49.4988C49.7521 143.43 49.9321 143.38 50.0388 143.28C50.1454 143.18 50.1988 143.003 50.1988 142.75V137.76H48.9688V137.04H50.1988V136.25C50.1988 135.737 50.3221 135.367 50.5688 135.14C50.8154 134.913 51.1888 134.8 51.6888 134.8H52.8788V135.56H51.7388C51.4921 135.56 51.3121 135.613 51.1988 135.72C51.0921 135.82 51.0388 135.997 51.0388 136.25V137.04H52.8788V137.76H51.0388V142.75C51.0388 143.263 50.9154 143.633 50.6688 143.86C50.4221 144.087 50.0521 144.2 49.5588 144.2H48.8888ZM54.8048 142V141.28H56.0748V138.01C56.0748 137.843 55.9948 137.76 55.8348 137.76H54.9348V137.04H56.1448C56.3648 137.04 56.5415 137.1 56.6748 137.22C56.8082 137.34 56.8748 137.517 56.8748 137.75V137.96H56.9148C56.9948 137.627 57.1448 137.37 57.3648 137.19C57.5915 137.01 57.9048 136.92 58.3048 136.92H59.2148V137.81H58.1848C57.7782 137.81 57.4648 137.947 57.2448 138.22C57.0248 138.487 56.9148 138.83 56.9148 139.25V141.28H58.4748V142H54.8048ZM62.9609 142.12C62.4943 142.12 62.0809 142.013 61.7209 141.8C61.3609 141.587 61.0776 141.287 60.8709 140.9C60.6643 140.507 60.5609 140.047 60.5609 139.52C60.5609 138.993 60.6643 138.537 60.8709 138.15C61.0776 137.757 61.3609 137.453 61.7209 137.24C62.0809 137.027 62.4943 136.92 62.9609 136.92C63.4276 136.92 63.8409 137.027 64.2009 137.24C64.5609 137.453 64.8443 137.757 65.0509 138.15C65.2576 138.537 65.3609 138.993 65.3609 139.52C65.3609 140.047 65.2576 140.507 65.0509 140.9C64.8443 141.287 64.5609 141.587 64.2009 141.8C63.8409 142.013 63.4276 142.12 62.9609 142.12ZM62.9609 141.32C63.2476 141.32 63.5076 141.257 63.7409 141.13C63.9743 141.003 64.1576 140.807 64.2909 140.54C64.4309 140.273 64.5009 139.933 64.5009 139.52C64.5009 139.107 64.4309 138.767 64.2909 138.5C64.1576 138.233 63.9743 138.037 63.7409 137.91C63.5076 137.783 63.2476 137.72 62.9609 137.72C62.6809 137.72 62.4243 137.783 62.1909 137.91C61.9576 138.037 61.7709 138.233 61.6309 138.5C61.4909 138.767 61.4209 139.107 61.4209 139.52C61.4209 140.14 61.5709 140.597 61.8709 140.89C62.1709 141.177 62.5343 141.32 62.9609 141.32ZM66.327 142V137.04H67.017L67.107 137.62H67.157C67.2437 137.42 67.3737 137.253 67.547 137.12C67.727 136.987 67.9437 136.92 68.197 136.92C68.4504 136.92 68.6637 136.983 68.837 137.11C69.017 137.23 69.147 137.4 69.227 137.62H69.267C69.3537 137.42 69.4937 137.253 69.687 137.12C69.8804 136.987 70.1137 136.92 70.387 136.92C70.767 136.92 71.0504 137.05 71.237 137.31C71.4304 137.563 71.527 137.903 71.527 138.33V142H70.707V138.46C70.707 138.22 70.657 138.03 70.557 137.89C70.4637 137.75 70.3104 137.68 70.097 137.68C69.877 137.68 69.697 137.763 69.557 137.93C69.417 138.097 69.347 138.333 69.347 138.64V142H68.517V138.46C68.517 138.22 68.4704 138.03 68.377 137.89C68.2837 137.75 68.1304 137.68 67.917 137.68C67.697 137.68 67.5137 137.763 67.367 137.93C67.227 138.097 67.157 138.333 67.157 138.64V142H66.327ZM81.0192 142.12C80.5259 142.12 80.0959 142.027 79.7292 141.84C79.3692 141.653 79.0892 141.393 78.8892 141.06C78.6959 140.727 78.5959 140.337 78.5892 139.89H79.4692C79.4759 140.29 79.6092 140.637 79.8692 140.93C80.1359 141.217 80.5192 141.36 81.0192 141.36C81.4792 141.36 81.8326 141.25 82.0792 141.03C82.3326 140.803 82.4592 140.533 82.4592 140.22C82.4592 139.96 82.3992 139.743 82.2792 139.57C82.1592 139.39 81.9626 139.233 81.6892 139.1C81.4226 138.96 81.0626 138.817 80.6092 138.67C79.9692 138.477 79.5026 138.213 79.2092 137.88C78.9159 137.547 78.7692 137.133 78.7692 136.64C78.7692 136.307 78.8559 136.007 79.0292 135.74C79.2026 135.473 79.4526 135.263 79.7792 135.11C80.1059 134.957 80.5026 134.88 80.9692 134.88C81.4092 134.88 81.7926 134.963 82.1192 135.13C82.4526 135.29 82.7092 135.517 82.8892 135.81C83.0759 136.103 83.1692 136.44 83.1692 136.82H82.2892C82.2892 136.633 82.2392 136.45 82.1392 136.27C82.0392 136.09 81.8892 135.94 81.6892 135.82C81.4892 135.7 81.2359 135.64 80.9292 135.64C80.5626 135.64 80.2559 135.73 80.0092 135.91C79.7626 136.083 79.6392 136.323 79.6392 136.63C79.6392 136.863 79.6926 137.06 79.7992 137.22C79.9126 137.38 80.0959 137.527 80.3492 137.66C80.6026 137.787 80.9459 137.923 81.3792 138.07C81.7859 138.203 82.1326 138.36 82.4192 138.54C82.7126 138.713 82.9359 138.93 83.0892 139.19C83.2492 139.45 83.3292 139.773 83.3292 140.16C83.3292 140.54 83.2326 140.877 83.0392 141.17C82.8459 141.463 82.5759 141.697 82.2292 141.87C81.8826 142.037 81.4792 142.12 81.0192 142.12ZM86.9453 142.12C86.4786 142.12 86.0653 142.013 85.7053 141.8C85.3453 141.587 85.062 141.287 84.8553 140.9C84.6486 140.507 84.5453 140.047 84.5453 139.52C84.5453 138.993 84.6486 138.537 84.8553 138.15C85.062 137.757 85.3453 137.453 85.7053 137.24C86.0653 137.027 86.4786 136.92 86.9453 136.92C87.412 136.92 87.8253 137.027 88.1853 137.24C88.5453 137.453 88.8286 137.757 89.0353 138.15C89.242 138.537 89.3453 138.993 89.3453 139.52C89.3453 140.047 89.242 140.507 89.0353 140.9C88.8286 141.287 88.5453 141.587 88.1853 141.8C87.8253 142.013 87.412 142.12 86.9453 142.12ZM86.9453 141.32C87.232 141.32 87.492 141.257 87.7253 141.13C87.9586 141.003 88.142 140.807 88.2753 140.54C88.4153 140.273 88.4853 139.933 88.4853 139.52C88.4853 139.107 88.4153 138.767 88.2753 138.5C88.142 138.233 87.9586 138.037 87.7253 137.91C87.492 137.783 87.232 137.72 86.9453 137.72C86.6653 137.72 86.4086 137.783 86.1753 137.91C85.942 138.037 85.7553 138.233 85.6153 138.5C85.4753 138.767 85.4053 139.107 85.4053 139.52C85.4053 140.14 85.5553 140.597 85.8553 140.89C86.1553 141.177 86.5186 141.32 86.9453 141.32ZM92.5914 142.12C91.9914 142.12 91.5381 141.94 91.2314 141.58C90.9247 141.22 90.7714 140.7 90.7714 140.02V137.04H91.6114V139.92C91.6114 140.36 91.7081 140.707 91.9014 140.96C92.1014 141.207 92.4014 141.33 92.8014 141.33C93.2014 141.33 93.5381 141.197 93.8114 140.93C94.0847 140.657 94.2214 140.267 94.2214 139.76V137.04H95.0614V142H94.3614L94.2714 141.25H94.2214C94.0881 141.49 93.8781 141.697 93.5914 141.87C93.3047 142.037 92.9714 142.12 92.5914 142.12ZM96.8175 142V137.04H97.5175L97.6075 137.79H97.6575C97.7908 137.55 98.0008 137.347 98.2875 137.18C98.5742 137.007 98.9042 136.92 99.2775 136.92C99.8842 136.92 100.338 137.1 100.638 137.46C100.944 137.82 101.098 138.34 101.098 139.02V142H100.258V139.12C100.258 138.68 100.161 138.337 99.9675 138.09C99.7742 137.837 99.4742 137.71 99.0675 137.71C98.6742 137.71 98.3408 137.847 98.0675 138.12C97.7942 138.387 97.6575 138.773 97.6575 139.28V142H96.8175ZM104.764 142.12C104.344 142.12 103.967 142.02 103.634 141.82C103.307 141.62 103.05 141.327 102.864 140.94C102.677 140.547 102.584 140.07 102.584 139.51C102.584 138.957 102.677 138.487 102.864 138.1C103.05 137.713 103.307 137.42 103.634 137.22C103.967 137.02 104.344 136.92 104.764 136.92C105.157 136.92 105.48 136.997 105.734 137.15C105.994 137.303 106.187 137.503 106.314 137.75V134.8H107.154V142H106.464L106.374 141.23H106.314C106.18 141.503 105.984 141.72 105.724 141.88C105.464 142.04 105.144 142.12 104.764 142.12ZM104.874 141.32C105.294 141.32 105.64 141.173 105.914 140.88C106.187 140.58 106.324 140.127 106.324 139.52C106.324 138.913 106.187 138.463 105.914 138.17C105.64 137.87 105.294 137.72 104.874 137.72C104.454 137.72 104.107 137.87 103.834 138.17C103.567 138.463 103.434 138.913 103.434 139.52C103.434 140.127 103.567 140.58 103.834 140.88C104.107 141.173 104.454 141.32 104.874 141.32ZM110.98 142.12C110.413 142.12 109.923 141.97 109.51 141.67C109.103 141.37 108.79 140.95 108.57 140.41C108.356 139.87 108.25 139.233 108.25 138.5C108.25 137.773 108.356 137.14 108.57 136.6C108.79 136.053 109.103 135.63 109.51 135.33C109.923 135.03 110.413 134.88 110.98 134.88C111.7 134.88 112.28 135.08 112.72 135.48C113.16 135.873 113.416 136.4 113.49 137.06H112.56C112.493 136.667 112.326 136.337 112.06 136.07C111.793 135.803 111.433 135.67 110.98 135.67C110.4 135.67 109.943 135.923 109.61 136.43C109.276 136.93 109.11 137.62 109.11 138.5C109.11 139.387 109.276 140.08 109.61 140.58C109.943 141.08 110.4 141.33 110.98 141.33C111.453 141.33 111.816 141.203 112.07 140.95C112.33 140.697 112.493 140.37 112.56 139.97H113.49C113.383 140.637 113.116 141.163 112.69 141.55C112.27 141.93 111.7 142.12 110.98 142.12ZM114.676 142V141.28H116.366V135.77C116.366 135.603 116.282 135.52 116.116 135.52H114.856V134.8H116.316C116.602 134.8 116.822 134.877 116.976 135.03C117.129 135.183 117.206 135.403 117.206 135.69V141.28H118.896V142H114.676ZM122.922 142.12C122.455 142.12 122.042 142.013 121.682 141.8C121.322 141.587 121.039 141.287 120.832 140.9C120.625 140.507 120.522 140.047 120.522 139.52C120.522 138.993 120.625 138.537 120.832 138.15C121.039 137.757 121.322 137.453 121.682 137.24C122.042 137.027 122.455 136.92 122.922 136.92C123.389 136.92 123.802 137.027 124.162 137.24C124.522 137.453 124.805 137.757 125.012 138.15C125.219 138.537 125.322 138.993 125.322 139.52C125.322 140.047 125.219 140.507 125.012 140.9C124.805 141.287 124.522 141.587 124.162 141.8C123.802 142.013 123.389 142.12 122.922 142.12ZM122.922 141.32C123.209 141.32 123.469 141.257 123.702 141.13C123.935 141.003 124.119 140.807 124.252 140.54C124.392 140.273 124.462 139.933 124.462 139.52C124.462 139.107 124.392 138.767 124.252 138.5C124.119 138.233 123.935 138.037 123.702 137.91C123.469 137.783 123.209 137.72 122.922 137.72C122.642 137.72 122.385 137.783 122.152 137.91C121.919 138.037 121.732 138.233 121.592 138.5C121.452 138.767 121.382 139.107 121.382 139.52C121.382 140.14 121.532 140.597 121.832 140.89C122.132 141.177 122.495 141.32 122.922 141.32ZM128.568 142.12C127.968 142.12 127.515 141.94 127.208 141.58C126.901 141.22 126.748 140.7 126.748 140.02V137.04H127.588V139.92C127.588 140.36 127.685 140.707 127.878 140.96C128.078 141.207 128.378 141.33 128.778 141.33C129.178 141.33 129.515 141.197 129.788 140.93C130.061 140.657 130.198 140.267 130.198 139.76V137.04H131.038V142H130.338L130.248 141.25H130.198C130.065 141.49 129.855 141.697 129.568 141.87C129.281 142.037 128.948 142.12 128.568 142.12ZM134.744 142.12C134.324 142.12 133.947 142.02 133.614 141.82C133.287 141.62 133.031 141.327 132.844 140.94C132.657 140.547 132.564 140.07 132.564 139.51C132.564 138.957 132.657 138.487 132.844 138.1C133.031 137.713 133.287 137.42 133.614 137.22C133.947 137.02 134.324 136.92 134.744 136.92C135.137 136.92 135.461 136.997 135.714 137.15C135.974 137.303 136.167 137.503 136.294 137.75V134.8H137.134V142H136.444L136.354 141.23H136.294C136.161 141.503 135.964 141.72 135.704 141.88C135.444 142.04 135.124 142.12 134.744 142.12ZM134.854 141.32C135.274 141.32 135.621 141.173 135.894 140.88C136.167 140.58 136.304 140.127 136.304 139.52C136.304 138.913 136.167 138.463 135.894 138.17C135.621 137.87 135.274 137.72 134.854 137.72C134.434 137.72 134.087 137.87 133.814 138.17C133.547 138.463 133.414 138.913 133.414 139.52C133.414 140.127 133.547 140.58 133.814 140.88C134.087 141.173 134.434 141.32 134.854 141.32ZM146.956 142.12C146.323 142.12 145.81 141.973 145.416 141.68C145.03 141.38 144.813 140.97 144.766 140.45H145.636C145.676 140.723 145.81 140.947 146.036 141.12C146.27 141.293 146.583 141.38 146.976 141.38C147.35 141.38 147.626 141.3 147.806 141.14C147.993 140.98 148.086 140.797 148.086 140.59C148.086 140.31 147.976 140.12 147.756 140.02C147.536 139.913 147.206 139.833 146.766 139.78C146.24 139.72 145.803 139.577 145.456 139.35C145.11 139.123 144.936 138.783 144.936 138.33C144.936 137.923 145.106 137.587 145.446 137.32C145.786 137.053 146.25 136.92 146.836 136.92C147.416 136.92 147.873 137.053 148.206 137.32C148.54 137.58 148.73 137.953 148.776 138.44H147.946C147.926 138.2 147.81 138.01 147.596 137.87C147.39 137.723 147.13 137.65 146.816 137.65C146.49 137.65 146.236 137.713 146.056 137.84C145.876 137.96 145.786 138.12 145.786 138.32C145.786 138.52 145.886 138.687 146.086 138.82C146.293 138.947 146.616 139.03 147.056 139.07C147.403 139.11 147.72 139.177 148.006 139.27C148.293 139.363 148.52 139.51 148.686 139.71C148.86 139.91 148.946 140.19 148.946 140.55C148.953 140.85 148.87 141.12 148.696 141.36C148.53 141.593 148.296 141.78 147.996 141.92C147.696 142.053 147.35 142.12 146.956 142.12ZM153.422 142C152.969 142 152.612 141.89 152.352 141.67C152.092 141.45 151.962 141.053 151.962 140.48V137.76H150.702V137.04H151.452C151.792 137.04 151.989 136.873 152.042 136.54L152.182 135.77H152.802V137.04H154.782V137.76H152.802V140.48C152.802 140.76 152.866 140.957 152.992 141.07C153.126 141.183 153.352 141.24 153.672 141.24H154.782V142H153.422ZM158.478 142.12C158.085 142.12 157.758 142.05 157.498 141.91C157.238 141.77 157.045 141.587 156.918 141.36C156.792 141.127 156.728 140.873 156.728 140.6C156.728 140.093 156.912 139.71 157.278 139.45C157.652 139.183 158.148 139.05 158.768 139.05H160.128V138.95C160.128 138.083 159.732 137.65 158.938 137.65C158.618 137.65 158.348 137.72 158.128 137.86C157.915 138 157.778 138.22 157.718 138.52H156.858C156.892 138.187 157.002 137.9 157.188 137.66C157.382 137.42 157.628 137.237 157.928 137.11C158.228 136.983 158.565 136.92 158.938 136.92C159.645 136.92 160.158 137.107 160.478 137.48C160.805 137.847 160.968 138.337 160.968 138.95V142H160.248L160.178 141.23H160.108C159.962 141.47 159.765 141.68 159.518 141.86C159.278 142.033 158.932 142.12 158.478 142.12ZM158.628 141.38C158.948 141.38 159.218 141.303 159.438 141.15C159.665 140.997 159.835 140.793 159.948 140.54C160.068 140.287 160.128 140.01 160.128 139.71H158.838C158.385 139.71 158.065 139.787 157.878 139.94C157.698 140.093 157.608 140.297 157.608 140.55C157.608 140.81 157.695 141.013 157.868 141.16C158.042 141.307 158.295 141.38 158.628 141.38ZM162.735 142V141.28H164.005V138.01C164.005 137.843 163.925 137.76 163.765 137.76H162.865V137.04H164.075C164.295 137.04 164.471 137.1 164.605 137.22C164.738 137.34 164.805 137.517 164.805 137.75V137.96H164.845C164.925 137.627 165.075 137.37 165.295 137.19C165.521 137.01 165.835 136.92 166.235 136.92H167.145V137.81H166.115C165.708 137.81 165.395 137.947 165.175 138.22C164.955 138.487 164.845 138.83 164.845 139.25V141.28H166.405V142H162.735ZM171.411 142C170.957 142 170.601 141.89 170.341 141.67C170.081 141.45 169.951 141.053 169.951 140.48V137.76H168.691V137.04H169.441C169.781 137.04 169.977 136.873 170.031 136.54L170.171 135.77H170.791V137.04H172.771V137.76H170.791V140.48C170.791 140.76 170.854 140.957 170.981 141.07C171.114 141.183 171.341 141.24 171.661 141.24H172.771V142H171.411ZM176.937 142.12C176.303 142.12 175.79 141.973 175.397 141.68C175.01 141.38 174.793 140.97 174.747 140.45H175.617C175.657 140.723 175.79 140.947 176.017 141.12C176.25 141.293 176.563 141.38 176.957 141.38C177.33 141.38 177.607 141.3 177.787 141.14C177.973 140.98 178.067 140.797 178.067 140.59C178.067 140.31 177.957 140.12 177.737 140.02C177.517 139.913 177.187 139.833 176.747 139.78C176.22 139.72 175.783 139.577 175.437 139.35C175.09 139.123 174.917 138.783 174.917 138.33C174.917 137.923 175.087 137.587 175.427 137.32C175.767 137.053 176.23 136.92 176.817 136.92C177.397 136.92 177.853 137.053 178.187 137.32C178.52 137.58 178.71 137.953 178.757 138.44H177.927C177.907 138.2 177.79 138.01 177.577 137.87C177.37 137.723 177.11 137.65 176.797 137.65C176.47 137.65 176.217 137.713 176.037 137.84C175.857 137.96 175.767 138.12 175.767 138.32C175.767 138.52 175.867 138.687 176.067 138.82C176.273 138.947 176.597 139.03 177.037 139.07C177.383 139.11 177.7 139.177 177.987 139.27C178.273 139.363 178.5 139.51 178.667 139.71C178.84 139.91 178.927 140.19 178.927 140.55C178.933 140.85 178.85 141.12 178.677 141.36C178.51 141.593 178.277 141.78 177.977 141.92C177.677 142.053 177.33 142.12 176.937 142.12ZM182.883 142.02C182.676 142.02 182.499 141.95 182.353 141.81C182.206 141.67 182.133 141.497 182.133 141.29C182.133 141.09 182.206 140.92 182.353 140.78C182.499 140.64 182.676 140.57 182.883 140.57C183.089 140.57 183.266 140.64 183.413 140.78C183.559 140.92 183.633 141.09 183.633 141.29C183.633 141.497 183.559 141.67 183.413 141.81C183.266 141.95 183.089 142.02 182.883 142.02ZM2.56 153.99L2.77 151.89L1.04 153.06L0.64 152.34L2.52 151.5L0.64 150.65L1.04 149.94L2.77 151.11L2.56 149.01H3.44L3.24 151.11L4.96 149.94L5.36 150.65L3.48 151.5L5.36 152.34L4.96 153.06L3.24 151.89L3.44 153.99H2.56ZM6.82609 155.9L10.2861 147.4H11.1661L7.69609 155.9H6.82609Z" fill="#002B55"/>
<path d="M48.924 47.524C49.068 47.524 49.328 47.184 49.704 46.504C50.088 45.816 50.476 45.128 50.868 44.44C51.268 43.752 51.552 43.408 51.72 43.408C51.888 43.408 52.024 43.468 52.128 43.588C52.232 43.708 52.284 43.852 52.284 44.02C52.284 44.188 52.132 44.524 51.828 45.028C51.524 45.532 51.116 46.2 50.604 47.032C50.092 47.856 49.58 48.752 49.068 49.72C48.556 50.688 48.204 51.292 48.012 51.532C47.82 51.772 47.664 51.892 47.544 51.892C47.368 51.892 47.28 51.748 47.28 51.46C47.28 51.236 47.392 50.896 47.616 50.44C47.688 50.304 47.744 50.192 47.784 50.104C47.824 50.008 47.888 49.876 47.976 49.708C48.064 49.54 48.132 49.412 48.18 49.324C48.228 49.228 48.3 49.084 48.396 48.892C48.5 48.692 48.576 48.548 48.624 48.46C48.152 48.34 47.716 48.044 47.316 47.572C46.924 47.092 46.624 46.56 46.416 45.976C46.208 45.384 46.104 44.808 46.104 44.248C46.104 43.688 46.264 43.408 46.584 43.408C46.712 43.408 46.812 43.532 46.884 43.78C46.964 44.028 47.06 44.384 47.172 44.848C47.284 45.312 47.432 45.74 47.616 46.132C47.8 46.516 48.02 46.844 48.276 47.116C48.532 47.388 48.748 47.524 48.924 47.524ZM55.8983 47.908C55.8983 47.636 55.8543 47.38 55.7663 47.14C55.6783 46.892 55.5503 46.712 55.3823 46.6C54.8303 46.752 54.3543 47.18 53.9543 47.884C53.5623 48.58 53.3663 49.236 53.3663 49.852C53.3663 50.468 53.5183 50.852 53.8223 51.004C54.3983 50.892 54.8863 50.5 55.2863 49.828C55.6943 49.148 55.8983 48.508 55.8983 47.908ZM52.7423 48.016C53.0223 47.392 53.3863 46.88 53.8343 46.48C54.2903 46.072 54.7543 45.868 55.2263 45.868C55.7063 45.868 56.1063 46.072 56.4263 46.48C56.7463 46.88 56.9063 47.372 56.9063 47.956C56.9063 48.532 56.7663 49.124 56.4863 49.732C56.2063 50.332 55.8183 50.832 55.3223 51.232C54.8343 51.624 54.3143 51.82 53.7623 51.82C53.3543 51.82 53.0143 51.632 52.7423 51.256C52.4703 50.88 52.3343 50.404 52.3343 49.828C52.3343 49.244 52.4703 48.64 52.7423 48.016ZM61.9598 46.204C61.9918 46.076 62.0238 45.988 62.0558 45.94C62.0878 45.892 62.1558 45.868 62.2598 45.868C62.3718 45.868 62.5038 45.972 62.6558 46.18C62.8158 46.388 62.8958 46.588 62.8958 46.78C62.8958 46.884 62.7198 47.5 62.3678 48.628C62.0158 49.756 61.7438 50.652 61.5518 51.316C61.4558 51.652 61.3198 51.82 61.1438 51.82C61.0398 51.82 60.9518 51.776 60.8798 51.688C60.8078 51.6 60.7718 51.44 60.7718 51.208C60.7718 50.976 60.8638 50.556 61.0478 49.948C60.7118 50.492 60.3478 50.94 59.9558 51.292C59.5638 51.644 59.2038 51.82 58.8758 51.82C58.5558 51.82 58.2518 51.668 57.9638 51.364C57.6758 51.06 57.5318 50.748 57.5318 50.428C57.5318 49.668 57.7518 48.72 58.1918 47.584C58.6398 46.44 59.0118 45.868 59.3078 45.868C59.4518 45.868 59.5758 45.936 59.6798 46.072C59.7918 46.2 59.8478 46.348 59.8478 46.516C59.8478 46.588 59.7398 46.848 59.5238 47.296C59.3078 47.736 59.0918 48.256 58.8758 48.856C58.6598 49.448 58.5518 49.968 58.5518 50.416C58.5518 50.544 58.5918 50.652 58.6718 50.74C58.7518 50.82 58.8478 50.86 58.9598 50.86C59.2638 50.86 59.6238 50.592 60.0398 50.056C60.4638 49.52 60.8478 48.896 61.1918 48.184C61.5358 47.472 61.7918 46.812 61.9598 46.204ZM72.2296 45.832C72.5736 45.832 72.8696 46.052 73.1176 46.492C73.3736 46.932 73.5016 47.388 73.5016 47.86C73.5016 48.324 73.3656 48.792 73.0936 49.264C72.8216 49.728 72.4856 50.144 72.0856 50.512C71.6856 50.88 71.2416 51.188 70.7536 51.436C70.2736 51.676 69.8296 51.796 69.4216 51.796C69.2616 51.796 69.1096 51.776 68.9656 51.736C68.9336 51.872 68.8776 52.116 68.7976 52.468C68.7176 52.82 68.6496 53.112 68.5936 53.344C68.5376 53.576 68.4736 53.824 68.4016 54.088C68.2576 54.632 68.1296 54.904 68.0176 54.904C67.9056 54.904 67.7896 54.816 67.6696 54.64C67.5416 54.472 67.4776 54.32 67.4776 54.184C67.4776 54.048 67.6056 53.464 67.8616 52.432C68.6296 49.32 69.0136 47.224 69.0136 46.144C69.0136 45.904 69.1016 45.784 69.2776 45.784C69.4216 45.784 69.5936 45.892 69.7936 46.108C70.0016 46.316 70.1056 46.548 70.1056 46.804C70.1056 46.932 70.0896 47.072 70.0576 47.224C70.7696 46.296 71.4936 45.832 72.2296 45.832ZM69.3016 50.86C69.7256 50.86 70.1816 50.716 70.6696 50.428C71.1656 50.14 71.5856 49.76 71.9296 49.288C72.2816 48.808 72.4576 48.332 72.4576 47.86C72.4576 47.196 72.3016 46.864 71.9896 46.864C71.6776 46.864 71.2536 47.132 70.7176 47.668C70.1896 48.204 69.7696 48.9 69.4576 49.756L69.1816 50.86H69.3016ZM74.7561 47.332L74.7201 46.432C74.7201 46.056 74.8081 45.868 74.9841 45.868C75.1361 45.868 75.2801 45.968 75.4161 46.168C75.5601 46.36 75.6321 46.592 75.6321 46.864C75.6321 47.128 75.6241 47.328 75.6081 47.464C76.3041 46.408 76.9641 45.88 77.5881 45.88C77.9801 45.88 78.1761 45.976 78.1761 46.168C78.1761 46.264 78.1321 46.352 78.0441 46.432C77.9561 46.512 77.8161 46.604 77.6241 46.708C77.2001 46.892 76.8401 47.176 76.5441 47.56C76.2561 47.936 76.0201 48.364 75.8361 48.844C75.6521 49.324 75.5041 49.728 75.3921 50.056C75.2881 50.384 75.2081 50.64 75.1521 50.824C75.0961 51.008 75.0321 51.188 74.9601 51.364C74.8321 51.684 74.6841 51.844 74.5161 51.844C74.3801 51.844 74.2681 51.768 74.1801 51.616C74.1001 51.456 74.0601 51.304 74.0601 51.16C74.0601 51.008 74.1281 50.712 74.2641 50.272C74.5921 49.264 74.7561 48.284 74.7561 47.332ZM81.6327 47.908C81.6327 47.636 81.5887 47.38 81.5007 47.14C81.4127 46.892 81.2847 46.712 81.1167 46.6C80.5647 46.752 80.0887 47.18 79.6887 47.884C79.2967 48.58 79.1007 49.236 79.1007 49.852C79.1007 50.468 79.2527 50.852 79.5567 51.004C80.1327 50.892 80.6207 50.5 81.0207 49.828C81.4287 49.148 81.6327 48.508 81.6327 47.908ZM78.4767 48.016C78.7567 47.392 79.1207 46.88 79.5687 46.48C80.0247 46.072 80.4887 45.868 80.9607 45.868C81.4407 45.868 81.8407 46.072 82.1607 46.48C82.4807 46.88 82.6407 47.372 82.6407 47.956C82.6407 48.532 82.5007 49.124 82.2207 49.732C81.9407 50.332 81.5527 50.832 81.0567 51.232C80.5687 51.624 80.0487 51.82 79.4967 51.82C79.0887 51.82 78.7487 51.632 78.4767 51.256C78.2047 50.88 78.0687 50.404 78.0687 49.828C78.0687 49.244 78.2047 48.64 78.4767 48.016ZM83.9622 51.82C83.8502 51.82 83.7182 51.736 83.5662 51.568C83.4142 51.392 83.3382 51.228 83.3382 51.076C83.3382 50.924 83.4622 50.404 83.7102 49.516C83.9662 48.628 84.2182 47.56 84.4662 46.312C84.7222 45.056 84.8502 43.908 84.8502 42.868C84.8502 42.628 84.9382 42.508 85.1142 42.508C85.2422 42.508 85.3982 42.628 85.5822 42.868C85.7662 43.1 85.8582 43.328 85.8582 43.552C85.8582 44.536 85.6422 45.94 85.2102 47.764C86.1622 46.476 87.0262 45.832 87.8022 45.832C88.1782 45.832 88.4942 46.016 88.7502 46.384C89.0142 46.752 89.1462 47.192 89.1462 47.704C89.1462 48.208 88.9982 48.788 88.7022 49.444C88.4142 50.1 88.0222 50.664 87.5262 51.136C87.0302 51.6 86.5102 51.832 85.9662 51.832C85.4222 51.832 84.8862 51.556 84.3582 51.004L84.3462 51.016C84.1702 51.552 84.0422 51.82 83.9622 51.82ZM85.8702 50.896C86.3902 50.896 86.8982 50.544 87.3942 49.84C87.8982 49.128 88.1502 48.38 88.1502 47.596C88.1502 47.124 88.0062 46.888 87.7182 46.888C87.2542 46.888 86.7342 47.212 86.1582 47.86C85.5902 48.508 85.0982 49.28 84.6822 50.176C85.0582 50.656 85.4542 50.896 85.8702 50.896ZM92.9429 45.868C93.3029 45.868 93.6349 46.052 93.9389 46.42C94.2429 46.78 94.3949 47.108 94.3949 47.404C94.3949 47.692 94.2949 47.988 94.0949 48.292C94.1909 48.412 94.2389 48.516 94.2389 48.604C94.2389 48.828 94.1869 49.212 94.0829 49.756C93.9869 50.3 93.9269 50.656 93.9029 50.824C93.8869 50.992 93.8709 51.128 93.8549 51.232C93.8389 51.328 93.8189 51.424 93.7949 51.52C93.7629 51.72 93.6909 51.82 93.5789 51.82C93.4349 51.82 93.3149 51.696 93.2189 51.448C93.1309 51.192 93.0789 50.864 93.0629 50.464C92.3509 51.368 91.6909 51.82 91.0829 51.82C90.7149 51.82 90.3509 51.664 89.9909 51.352C89.6389 51.032 89.4629 50.704 89.4629 50.368C89.4629 49.888 89.6389 49.296 89.9909 48.592C90.3429 47.88 90.7989 47.248 91.3589 46.696C91.9189 46.144 92.4469 45.868 92.9429 45.868ZM93.4949 47.98C93.4949 47.236 93.3469 46.864 93.0509 46.864C92.7389 46.864 92.3749 47.088 91.9589 47.536C91.5429 47.976 91.1909 48.476 90.9029 49.036C90.6149 49.596 90.4709 50.04 90.4709 50.368C90.4709 50.504 90.5269 50.616 90.6389 50.704C90.7509 50.784 90.8829 50.824 91.0349 50.824C91.4109 50.824 91.8349 50.572 92.3069 50.068C92.7789 49.556 93.1069 48.936 93.2909 48.208C93.3149 48.088 93.3829 48.016 93.4949 47.992V47.98ZM95.8919 51.82C95.7799 51.82 95.6479 51.736 95.4959 51.568C95.3439 51.392 95.2679 51.228 95.2679 51.076C95.2679 50.924 95.3919 50.404 95.6399 49.516C95.8959 48.628 96.1479 47.56 96.3959 46.312C96.6519 45.056 96.7799 43.908 96.7799 42.868C96.7799 42.628 96.8679 42.508 97.0439 42.508C97.1719 42.508 97.3279 42.628 97.5119 42.868C97.6959 43.1 97.7879 43.328 97.7879 43.552C97.7879 44.536 97.5719 45.94 97.1399 47.764C98.0919 46.476 98.9559 45.832 99.7319 45.832C100.108 45.832 100.424 46.016 100.68 46.384C100.944 46.752 101.076 47.192 101.076 47.704C101.076 48.208 100.928 48.788 100.632 49.444C100.344 50.1 99.9519 50.664 99.4559 51.136C98.9599 51.6 98.4399 51.832 97.8959 51.832C97.3519 51.832 96.8159 51.556 96.2879 51.004L96.2759 51.016C96.0999 51.552 95.9719 51.82 95.8919 51.82ZM97.7999 50.896C98.3199 50.896 98.8279 50.544 99.3239 49.84C99.8279 49.128 100.08 48.38 100.08 47.596C100.08 47.124 99.9359 46.888 99.6479 46.888C99.1839 46.888 98.6639 47.212 98.0879 47.86C97.5199 48.508 97.0279 49.28 96.6119 50.176C96.9879 50.656 97.3839 50.896 97.7999 50.896ZM104.045 43.516C104.045 45.02 103.733 46.972 103.109 49.372C102.709 51.004 102.429 51.82 102.269 51.82C102.157 51.82 102.025 51.732 101.873 51.556C101.729 51.38 101.657 51.244 101.657 51.148C101.657 51.052 101.773 50.556 102.005 49.66C102.237 48.764 102.469 47.664 102.701 46.36C102.933 45.048 103.049 43.868 103.049 42.82C103.049 42.708 103.065 42.628 103.097 42.58C103.129 42.532 103.197 42.508 103.301 42.508C103.405 42.508 103.553 42.624 103.745 42.856C103.945 43.08 104.045 43.3 104.045 43.516ZM109.314 45.868C109.442 45.868 109.578 45.964 109.722 46.156C109.874 46.34 109.95 46.548 109.95 46.78C109.95 46.94 109.786 47.484 109.458 48.412C109.13 49.34 108.906 49.972 108.786 50.308C108.674 50.636 108.518 51.076 108.318 51.628C108.126 52.172 107.938 52.704 107.754 53.224C107.354 54.368 106.754 54.94 105.954 54.94C105.498 54.94 105.062 54.8 104.646 54.52C104.23 54.248 104.022 53.964 104.022 53.668C104.022 53.556 104.074 53.432 104.178 53.296C104.274 53.16 104.358 53.092 104.43 53.092C104.502 53.092 104.618 53.18 104.778 53.356C105.242 53.884 105.638 54.148 105.966 54.148C106.214 54.148 106.438 53.928 106.638 53.488C106.838 53.056 107.026 52.564 107.202 52.012C107.386 51.468 107.486 51.168 107.502 51.112C107.526 51.056 107.55 50.984 107.574 50.896C107.606 50.808 107.634 50.728 107.658 50.656C107.09 51.432 106.53 51.82 105.978 51.82C105.642 51.82 105.33 51.664 105.042 51.352C104.762 51.04 104.622 50.672 104.622 50.248C104.622 49.824 104.726 49.252 104.934 48.532C105.142 47.812 105.386 47.188 105.666 46.66C105.946 46.132 106.174 45.868 106.35 45.868C106.494 45.868 106.626 45.936 106.746 46.072C106.874 46.2 106.938 46.332 106.938 46.468C106.938 46.604 106.834 46.888 106.626 47.32C105.978 48.648 105.654 49.68 105.654 50.416C105.654 50.544 105.694 50.652 105.774 50.74C105.854 50.82 105.95 50.86 106.062 50.86C106.35 50.86 106.694 50.604 107.094 50.092C107.494 49.58 107.862 48.972 108.198 48.268C108.478 47.676 108.77 46.92 109.074 46C109.106 45.912 109.186 45.868 109.314 45.868ZM119.887 47.14L119.803 49.396C119.803 50.02 119.831 50.472 119.887 50.752C120.231 50.392 120.527 49.972 120.775 49.492C121.031 49.004 121.219 48.552 121.339 48.136C121.467 47.72 121.575 47.332 121.663 46.972C121.759 46.604 121.847 46.312 121.927 46.096C122.007 45.88 122.099 45.772 122.203 45.772C122.355 45.772 122.491 45.836 122.611 45.964C122.731 46.084 122.791 46.224 122.791 46.384C122.791 46.792 122.607 47.464 122.239 48.4C121.927 49.264 121.519 50.056 121.015 50.776C120.511 51.488 120.119 51.844 119.839 51.844C119.559 51.844 119.347 51.688 119.203 51.376C119.067 51.064 118.991 50.468 118.975 49.588C118.959 48.7 118.971 47.932 119.011 47.284C118.459 48.788 117.971 49.924 117.547 50.692C117.123 51.46 116.787 51.844 116.539 51.844C116.427 51.844 116.307 51.792 116.179 51.688C116.059 51.584 115.963 51.448 115.891 51.28C115.715 50.856 115.563 50.048 115.435 48.856C115.315 47.656 115.255 46.8 115.255 46.288C115.255 45.96 115.355 45.796 115.555 45.796C115.731 45.796 115.891 45.896 116.035 46.096C116.187 46.296 116.275 46.496 116.299 46.696C116.323 46.888 116.343 47.432 116.359 48.328C116.383 49.216 116.459 50.008 116.587 50.704C116.915 50.136 117.243 49.424 117.571 48.568C117.907 47.712 118.179 47.04 118.387 46.552C118.603 46.064 118.799 45.82 118.975 45.82C119.239 45.82 119.455 45.944 119.623 46.192C119.799 46.432 119.887 46.748 119.887 47.14ZM126.762 47.908C126.762 47.636 126.718 47.38 126.63 47.14C126.542 46.892 126.414 46.712 126.246 46.6C125.694 46.752 125.218 47.18 124.818 47.884C124.426 48.58 124.23 49.236 124.23 49.852C124.23 50.468 124.382 50.852 124.686 51.004C125.262 50.892 125.75 50.5 126.15 49.828C126.558 49.148 126.762 48.508 126.762 47.908ZM123.606 48.016C123.886 47.392 124.25 46.88 124.698 46.48C125.154 46.072 125.618 45.868 126.09 45.868C126.57 45.868 126.97 46.072 127.29 46.48C127.61 46.88 127.77 47.372 127.77 47.956C127.77 48.532 127.63 49.124 127.35 49.732C127.07 50.332 126.682 50.832 126.186 51.232C125.698 51.624 125.178 51.82 124.626 51.82C124.218 51.82 123.878 51.632 123.606 51.256C123.334 50.88 123.198 50.404 123.198 49.828C123.198 49.244 123.334 48.64 123.606 48.016ZM129.751 49.732C130.519 48.428 131.143 47.46 131.623 46.828C132.111 46.188 132.507 45.868 132.811 45.868C133.123 45.868 133.415 46.032 133.687 46.36C133.967 46.688 134.107 47.036 134.107 47.404C134.107 47.98 133.975 48.684 133.711 49.516C133.231 51.052 132.799 51.82 132.415 51.82C132.239 51.82 132.151 51.7 132.151 51.46C132.151 51.292 132.235 50.952 132.403 50.44C132.579 49.92 132.739 49.412 132.883 48.916C133.035 48.412 133.111 48.036 133.111 47.788C133.111 47.532 133.071 47.344 132.991 47.224C132.919 47.104 132.843 47.044 132.763 47.044C132.691 47.044 132.615 47.068 132.535 47.116C132.455 47.164 132.363 47.244 132.259 47.356C132.163 47.468 132.071 47.58 131.983 47.692C131.895 47.796 131.783 47.948 131.647 48.148C131.519 48.348 131.411 48.52 131.323 48.664C131.235 48.8 131.107 49 130.939 49.264C130.771 49.528 130.643 49.728 130.555 49.864C130.467 50 130.351 50.184 130.207 50.416C130.063 50.648 129.947 50.828 129.859 50.956C129.779 51.084 129.687 51.224 129.583 51.376C129.383 51.672 129.223 51.82 129.103 51.82C128.991 51.82 128.859 51.732 128.707 51.556C128.555 51.372 128.479 51.212 128.479 51.076C128.479 51.036 128.507 50.928 128.563 50.752C128.715 50.288 128.883 49.716 129.067 49.036C129.251 48.348 129.351 47.568 129.367 46.696C129.391 46.112 129.475 45.82 129.619 45.82C129.795 45.82 129.971 45.912 130.147 46.096C130.323 46.28 130.411 46.484 130.411 46.708C130.411 46.924 130.343 47.348 130.207 47.98C130.079 48.604 129.927 49.188 129.751 49.732ZM140.11 42.508C140.238 42.508 140.394 42.628 140.578 42.868C140.77 43.1 140.866 43.32 140.866 43.528C140.866 43.736 140.766 44.328 140.566 45.304C140.366 46.272 140.134 47.276 139.87 48.316C139.294 50.652 138.914 51.82 138.73 51.82C138.618 51.82 138.494 51.752 138.358 51.616C138.23 51.472 138.166 51.348 138.166 51.244C138.166 51.14 138.194 50.932 138.25 50.62C137.466 51.42 136.782 51.82 136.198 51.82C135.846 51.82 135.526 51.66 135.238 51.34C134.958 51.02 134.818 50.688 134.818 50.344C134.818 49.848 134.95 49.26 135.214 48.58C135.486 47.892 135.874 47.268 136.378 46.708C136.882 46.148 137.418 45.868 137.986 45.868C138.554 45.868 138.95 46.208 139.174 46.888C139.582 45.192 139.806 43.852 139.846 42.868C139.846 42.628 139.934 42.508 140.11 42.508ZM138.79 48.4C138.79 47.968 138.714 47.604 138.562 47.308C138.418 47.012 138.242 46.864 138.034 46.864C137.69 46.864 137.338 47.076 136.978 47.5C136.618 47.924 136.33 48.412 136.114 48.964C135.906 49.508 135.802 49.98 135.802 50.38C135.802 50.524 135.854 50.64 135.958 50.728C136.062 50.816 136.186 50.86 136.33 50.86C136.642 50.86 137.062 50.636 137.59 50.188C138.126 49.74 138.514 49.212 138.754 48.604L138.79 48.46V48.4ZM145.75 47.86C145.75 48.284 145.518 48.632 145.054 48.904C144.598 49.168 144.078 49.3 143.494 49.3C142.918 49.3 142.394 49.236 141.922 49.108C141.81 49.46 141.754 49.776 141.754 50.056C141.754 50.328 141.838 50.54 142.006 50.692C142.182 50.844 142.466 50.92 142.858 50.92C143.258 50.92 143.666 50.852 144.082 50.716C144.506 50.572 144.738 50.5 144.778 50.5C144.986 50.5 145.09 50.58 145.09 50.74C145.09 50.956 144.846 51.192 144.358 51.448C143.87 51.696 143.394 51.82 142.93 51.82C142.306 51.82 141.798 51.636 141.406 51.268C141.014 50.892 140.818 50.42 140.818 49.852C140.818 49.284 140.97 48.692 141.274 48.076C141.578 47.452 141.97 46.928 142.45 46.504C142.93 46.08 143.406 45.868 143.878 45.868C144.35 45.868 144.778 46.092 145.162 46.54C145.554 46.988 145.75 47.428 145.75 47.86ZM143.938 46.816C143.642 46.816 143.334 46.972 143.014 47.284C142.694 47.588 142.422 47.968 142.198 48.424C142.518 48.496 142.882 48.532 143.29 48.532C143.698 48.532 144.054 48.468 144.358 48.34C144.662 48.204 144.814 48.028 144.814 47.812C144.814 47.596 144.714 47.376 144.514 47.152C144.322 46.928 144.13 46.816 143.938 46.816ZM147.084 47.332L147.048 46.432C147.048 46.056 147.136 45.868 147.312 45.868C147.464 45.868 147.608 45.968 147.744 46.168C147.888 46.36 147.96 46.592 147.96 46.864C147.96 47.128 147.952 47.328 147.936 47.464C148.632 46.408 149.292 45.88 149.916 45.88C150.308 45.88 150.504 45.976 150.504 46.168C150.504 46.264 150.46 46.352 150.372 46.432C150.284 46.512 150.144 46.604 149.952 46.708C149.528 46.892 149.168 47.176 148.872 47.56C148.584 47.936 148.348 48.364 148.164 48.844C147.98 49.324 147.832 49.728 147.72 50.056C147.616 50.384 147.536 50.64 147.48 50.824C147.424 51.008 147.36 51.188 147.288 51.364C147.16 51.684 147.012 51.844 146.844 51.844C146.708 51.844 146.596 51.768 146.508 51.616C146.428 51.456 146.388 51.304 146.388 51.16C146.388 51.008 146.456 50.712 146.592 50.272C146.92 49.264 147.084 48.284 147.084 47.332ZM46.788 61.976C46.788 61.664 46.884 61.508 47.076 61.508C47.228 61.508 47.388 61.628 47.556 61.868C47.732 62.108 47.82 62.34 47.82 62.564C47.82 63.084 47.688 63.972 47.424 65.228C47.168 66.476 46.832 67.724 46.416 68.972C47.216 67.524 47.884 66.48 48.42 65.84C48.964 65.192 49.428 64.868 49.812 64.868C50.02 64.868 50.26 65.048 50.532 65.408C50.812 65.768 50.952 66.128 50.952 66.488C50.952 66.848 50.852 67.388 50.652 68.108C50.156 69.916 49.688 70.82 49.248 70.82C49.072 70.82 48.984 70.7 48.984 70.46C48.984 70.22 49.08 69.816 49.272 69.248C49.696 68.008 49.908 67.172 49.908 66.74C49.908 66.596 49.872 66.476 49.8 66.38C49.728 66.284 49.64 66.236 49.536 66.236C49.432 66.236 49.304 66.292 49.152 66.404C49 66.516 48.816 66.712 48.6 66.992C48.328 67.352 48.044 67.756 47.748 68.204C47.46 68.652 47.284 68.924 47.22 69.02C47.164 69.108 47.06 69.272 46.908 69.512C46.764 69.752 46.656 69.932 46.584 70.052C46.512 70.164 46.424 70.288 46.32 70.424C46.136 70.688 45.996 70.82 45.9 70.82C45.804 70.82 45.676 70.732 45.516 70.556C45.356 70.372 45.276 70.22 45.276 70.1C45.276 69.972 45.32 69.736 45.408 69.392C45.808 67.856 46.06 66.804 46.164 66.236C46.58 64.156 46.788 62.736 46.788 61.976ZM55.4296 66.908C55.4296 66.636 55.3856 66.38 55.2976 66.14C55.2096 65.892 55.0816 65.712 54.9136 65.6C54.3616 65.752 53.8856 66.18 53.4856 66.884C53.0936 67.58 52.8976 68.236 52.8976 68.852C52.8976 69.468 53.0496 69.852 53.3536 70.004C53.9296 69.892 54.4176 69.5 54.8176 68.828C55.2256 68.148 55.4296 67.508 55.4296 66.908ZM52.2736 67.016C52.5536 66.392 52.9176 65.88 53.3656 65.48C53.8216 65.072 54.2856 64.868 54.7576 64.868C55.2376 64.868 55.6376 65.072 55.9576 65.48C56.2776 65.88 56.4376 66.372 56.4376 66.956C56.4376 67.532 56.2976 68.124 56.0176 68.732C55.7376 69.332 55.3496 69.832 54.8536 70.232C54.3656 70.624 53.8456 70.82 53.2936 70.82C52.8856 70.82 52.5456 70.632 52.2736 70.256C52.0016 69.88 51.8656 69.404 51.8656 68.828C51.8656 68.244 52.0016 67.64 52.2736 67.016ZM62.0671 66.14L61.9831 68.396C61.9831 69.02 62.0111 69.472 62.0671 69.752C62.4111 69.392 62.7071 68.972 62.9551 68.492C63.2111 68.004 63.3991 67.552 63.5191 67.136C63.6471 66.72 63.7551 66.332 63.8431 65.972C63.9391 65.604 64.0271 65.312 64.1071 65.096C64.1871 64.88 64.2791 64.772 64.3831 64.772C64.5351 64.772 64.6711 64.836 64.7911 64.964C64.9111 65.084 64.9711 65.224 64.9711 65.384C64.9711 65.792 64.7871 66.464 64.4191 67.4C64.1071 68.264 63.6991 69.056 63.1951 69.776C62.6911 70.488 62.2991 70.844 62.0191 70.844C61.7391 70.844 61.5271 70.688 61.3831 70.376C61.2471 70.064 61.1711 69.468 61.1551 68.588C61.1391 67.7 61.1511 66.932 61.1911 66.284C60.6391 67.788 60.1511 68.924 59.7271 69.692C59.3031 70.46 58.9671 70.844 58.7191 70.844C58.6071 70.844 58.4871 70.792 58.3591 70.688C58.2391 70.584 58.1431 70.448 58.0711 70.28C57.8951 69.856 57.7431 69.048 57.6151 67.856C57.4951 66.656 57.4351 65.8 57.4351 65.288C57.4351 64.96 57.5351 64.796 57.7351 64.796C57.9111 64.796 58.0711 64.896 58.2151 65.096C58.3671 65.296 58.4551 65.496 58.4791 65.696C58.5031 65.888 58.5231 66.432 58.5391 67.328C58.5631 68.216 58.6391 69.008 58.7671 69.704C59.0951 69.136 59.4231 68.424 59.7511 67.568C60.0871 66.712 60.3591 66.04 60.5671 65.552C60.7831 65.064 60.9791 64.82 61.1551 64.82C61.4191 64.82 61.6351 64.944 61.8031 65.192C61.9791 65.432 62.0671 65.748 62.0671 66.14ZM71.1897 70.772C71.0937 70.772 70.9657 70.676 70.8057 70.484C70.6537 70.292 70.5777 70.116 70.5777 69.956C70.5777 69.796 70.8137 68.68 71.2857 66.608C71.7657 64.528 72.0097 63.24 72.0177 62.744C72.0177 62.608 72.0337 62.516 72.0657 62.468C72.1057 62.412 72.1817 62.384 72.2937 62.384C72.4137 62.384 72.5657 62.508 72.7497 62.756C72.9417 63.004 73.0377 63.272 73.0377 63.56C73.0377 63.84 72.7497 65.152 72.1737 67.496C72.1177 67.712 72.0417 68.024 71.9457 68.432C71.8497 68.832 71.7737 69.14 71.7177 69.356C71.6617 69.572 71.6017 69.808 71.5377 70.064C71.4017 70.536 71.2857 70.772 71.1897 70.772ZM83.417 67.58C83.417 67.9 83.277 68.264 82.997 68.672C82.781 69.16 82.549 69.864 82.301 70.784C82.053 71.696 81.845 72.348 81.677 72.74C81.341 73.556 80.825 73.964 80.129 73.964C79.561 73.964 79.081 73.808 78.689 73.496C78.305 73.192 78.113 72.888 78.113 72.584C78.113 72.456 78.153 72.328 78.233 72.2C78.305 72.072 78.381 72.008 78.461 72.008C78.549 72.008 78.645 72.068 78.749 72.188C78.853 72.308 78.949 72.436 79.037 72.572C79.133 72.716 79.273 72.848 79.457 72.968C79.649 73.088 79.833 73.148 80.009 73.148C80.185 73.148 80.317 73.12 80.405 73.064C80.493 73.016 80.577 72.932 80.657 72.812C80.737 72.7 80.805 72.584 80.861 72.464C80.917 72.352 80.977 72.188 81.041 71.972C81.113 71.764 81.169 71.584 81.209 71.432C81.249 71.28 81.305 71.068 81.377 70.796C81.449 70.516 81.509 70.292 81.557 70.124C80.933 70.588 80.425 70.82 80.033 70.82C79.641 70.82 79.301 70.664 79.013 70.352C78.725 70.032 78.581 69.664 78.581 69.248C78.581 68.824 78.737 68.264 79.049 67.568C79.369 66.872 79.797 66.248 80.333 65.696C80.869 65.144 81.393 64.868 81.905 64.868C82.233 64.868 82.509 64.992 82.733 65.24C83.101 65.648 83.285 66.228 83.285 66.98C83.285 67.076 83.281 67.144 83.273 67.184C83.369 67.32 83.417 67.452 83.417 67.58ZM79.553 69.368C79.553 69.504 79.597 69.616 79.685 69.704C79.773 69.784 79.885 69.824 80.021 69.824C80.421 69.824 80.893 69.588 81.437 69.116C81.981 68.636 82.365 68.08 82.589 67.448C82.557 67.344 82.529 67.184 82.505 66.968C82.481 66.752 82.457 66.58 82.433 66.452C82.409 66.324 82.357 66.196 82.277 66.068C82.197 65.932 82.093 65.864 81.965 65.864C81.653 65.864 81.301 66.088 80.909 66.536C80.517 66.984 80.193 67.484 79.937 68.036C79.681 68.588 79.553 69.032 79.553 69.368ZM87.9843 66.908C87.9843 66.636 87.9403 66.38 87.8523 66.14C87.7643 65.892 87.6363 65.712 87.4683 65.6C86.9163 65.752 86.4403 66.18 86.0403 66.884C85.6483 67.58 85.4523 68.236 85.4523 68.852C85.4523 69.468 85.6043 69.852 85.9083 70.004C86.4843 69.892 86.9723 69.5 87.3723 68.828C87.7803 68.148 87.9843 67.508 87.9843 66.908ZM84.8283 67.016C85.1083 66.392 85.4723 65.88 85.9203 65.48C86.3763 65.072 86.8403 64.868 87.3123 64.868C87.7923 64.868 88.1923 65.072 88.5123 65.48C88.8323 65.88 88.9923 66.372 88.9923 66.956C88.9923 67.532 88.8523 68.124 88.5723 68.732C88.2923 69.332 87.9043 69.832 87.4083 70.232C86.9203 70.624 86.4003 70.82 85.8483 70.82C85.4403 70.82 85.1003 70.632 84.8283 70.256C84.5563 69.88 84.4203 69.404 84.4203 68.828C84.4203 68.244 84.5563 67.64 84.8283 67.016ZM91.1418 69.62C91.1418 69.772 91.2298 69.848 91.4058 69.848C91.7098 69.848 92.0778 69.764 92.5098 69.596C92.9498 69.42 93.1938 69.332 93.2418 69.332C93.3858 69.332 93.4578 69.408 93.4578 69.56C93.4578 69.792 93.2178 70.06 92.7378 70.364C92.2658 70.668 91.8338 70.82 91.4418 70.82C91.0578 70.82 90.7378 70.716 90.4818 70.508C90.2258 70.292 90.0978 70.072 90.0978 69.848C90.0978 69.624 90.1458 69.34 90.2418 68.996C90.3378 68.644 90.4738 68.184 90.6498 67.616C90.8338 67.04 90.9778 66.564 91.0818 66.188C90.7058 66.276 90.4538 66.32 90.3258 66.32C90.1978 66.32 90.0698 66.256 89.9418 66.128C89.8218 65.992 89.7618 65.864 89.7618 65.744C89.7618 65.552 90.2818 65.368 91.3218 65.192C91.4658 64.528 91.5378 63.94 91.5378 63.428C91.5378 63.188 91.6178 63.068 91.7778 63.068C91.9138 63.068 92.0818 63.156 92.2818 63.332C92.4818 63.5 92.5818 63.692 92.5818 63.908C92.5818 64.124 92.5138 64.504 92.3778 65.048C92.8338 65.008 93.1978 64.988 93.4698 64.988C93.9498 64.988 94.1898 65.092 94.1898 65.3C94.1898 65.42 94.0578 65.52 93.7938 65.6C93.5378 65.68 92.9938 65.804 92.1618 65.972C91.9938 66.604 91.7818 67.328 91.5258 68.144C91.2698 68.952 91.1418 69.444 91.1418 69.62ZM100.671 61.976C100.671 61.664 100.767 61.508 100.959 61.508C101.111 61.508 101.271 61.628 101.439 61.868C101.615 62.108 101.703 62.34 101.703 62.564C101.703 63.084 101.571 63.972 101.307 65.228C101.051 66.476 100.715 67.724 100.299 68.972C101.099 67.524 101.767 66.48 102.303 65.84C102.847 65.192 103.311 64.868 103.695 64.868C103.903 64.868 104.143 65.048 104.415 65.408C104.695 65.768 104.835 66.128 104.835 66.488C104.835 66.848 104.735 67.388 104.535 68.108C104.039 69.916 103.571 70.82 103.131 70.82C102.955 70.82 102.867 70.7 102.867 70.46C102.867 70.22 102.963 69.816 103.155 69.248C103.579 68.008 103.791 67.172 103.791 66.74C103.791 66.596 103.755 66.476 103.683 66.38C103.611 66.284 103.523 66.236 103.419 66.236C103.315 66.236 103.187 66.292 103.035 66.404C102.883 66.516 102.699 66.712 102.483 66.992C102.211 67.352 101.927 67.756 101.631 68.204C101.343 68.652 101.167 68.924 101.103 69.02C101.047 69.108 100.943 69.272 100.791 69.512C100.647 69.752 100.539 69.932 100.467 70.052C100.395 70.164 100.307 70.288 100.203 70.424C100.019 70.688 99.8788 70.82 99.7828 70.82C99.6868 70.82 99.5588 70.732 99.3988 70.556C99.2388 70.372 99.1588 70.22 99.1588 70.1C99.1588 69.972 99.2028 69.736 99.2908 69.392C99.6908 67.856 99.9428 66.804 100.047 66.236C100.463 64.156 100.671 62.736 100.671 61.976ZM110.476 66.86C110.476 67.284 110.244 67.632 109.78 67.904C109.324 68.168 108.804 68.3 108.22 68.3C107.644 68.3 107.12 68.236 106.648 68.108C106.536 68.46 106.48 68.776 106.48 69.056C106.48 69.328 106.564 69.54 106.732 69.692C106.908 69.844 107.192 69.92 107.584 69.92C107.984 69.92 108.392 69.852 108.808 69.716C109.232 69.572 109.464 69.5 109.504 69.5C109.712 69.5 109.816 69.58 109.816 69.74C109.816 69.956 109.572 70.192 109.084 70.448C108.596 70.696 108.12 70.82 107.656 70.82C107.032 70.82 106.524 70.636 106.132 70.268C105.74 69.892 105.544 69.42 105.544 68.852C105.544 68.284 105.696 67.692 106 67.076C106.304 66.452 106.696 65.928 107.176 65.504C107.656 65.08 108.132 64.868 108.604 64.868C109.076 64.868 109.504 65.092 109.888 65.54C110.28 65.988 110.476 66.428 110.476 66.86ZM108.664 65.816C108.368 65.816 108.06 65.972 107.74 66.284C107.42 66.588 107.148 66.968 106.924 67.424C107.244 67.496 107.608 67.532 108.016 67.532C108.424 67.532 108.78 67.468 109.084 67.34C109.388 67.204 109.54 67.028 109.54 66.812C109.54 66.596 109.44 66.376 109.24 66.152C109.048 65.928 108.856 65.816 108.664 65.816ZM111.811 66.332L111.775 65.432C111.775 65.056 111.863 64.868 112.039 64.868C112.191 64.868 112.335 64.968 112.471 65.168C112.615 65.36 112.687 65.592 112.687 65.864C112.687 66.128 112.679 66.328 112.663 66.464C113.359 65.408 114.019 64.88 114.643 64.88C115.035 64.88 115.231 64.976 115.231 65.168C115.231 65.264 115.187 65.352 115.099 65.432C115.011 65.512 114.871 65.604 114.679 65.708C114.255 65.892 113.895 66.176 113.599 66.56C113.311 66.936 113.075 67.364 112.891 67.844C112.707 68.324 112.559 68.728 112.447 69.056C112.343 69.384 112.263 69.64 112.207 69.824C112.151 70.008 112.087 70.188 112.015 70.364C111.887 70.684 111.739 70.844 111.571 70.844C111.435 70.844 111.323 70.768 111.235 70.616C111.155 70.456 111.115 70.304 111.115 70.16C111.115 70.008 111.183 69.712 111.319 69.272C111.647 68.264 111.811 67.284 111.811 66.332ZM119.851 66.86C119.851 67.284 119.619 67.632 119.155 67.904C118.699 68.168 118.179 68.3 117.595 68.3C117.019 68.3 116.495 68.236 116.023 68.108C115.911 68.46 115.855 68.776 115.855 69.056C115.855 69.328 115.939 69.54 116.107 69.692C116.283 69.844 116.567 69.92 116.959 69.92C117.359 69.92 117.767 69.852 118.183 69.716C118.607 69.572 118.839 69.5 118.879 69.5C119.087 69.5 119.191 69.58 119.191 69.74C119.191 69.956 118.947 70.192 118.459 70.448C117.971 70.696 117.495 70.82 117.031 70.82C116.407 70.82 115.899 70.636 115.507 70.268C115.115 69.892 114.919 69.42 114.919 68.852C114.919 68.284 115.071 67.692 115.375 67.076C115.679 66.452 116.071 65.928 116.551 65.504C117.031 65.08 117.507 64.868 117.979 64.868C118.451 64.868 118.879 65.092 119.263 65.54C119.655 65.988 119.851 66.428 119.851 66.86ZM118.039 65.816C117.743 65.816 117.435 65.972 117.115 66.284C116.795 66.588 116.523 66.968 116.299 67.424C116.619 67.496 116.983 67.532 117.391 67.532C117.799 67.532 118.155 67.468 118.459 67.34C118.763 67.204 118.915 67.028 118.915 66.812C118.915 66.596 118.815 66.376 118.615 66.152C118.423 65.928 118.231 65.816 118.039 65.816ZM121.834 71.072C121.634 71.072 121.406 70.944 121.15 70.688C120.894 70.424 120.766 70.208 120.766 70.04C120.766 69.864 120.834 69.692 120.97 69.524C121.114 69.348 121.258 69.26 121.402 69.26C121.554 69.26 121.726 69.456 121.918 69.848C122.118 70.24 122.218 70.536 122.218 70.736C122.218 70.8 122.174 70.872 122.086 70.952C121.998 71.032 121.914 71.072 121.834 71.072Z" fill="#002B55"/>
<rect width="26.9488" height="7.09311" transform="matrix(0.801801 -0.597591 0.60657 0.79503 188.294 124.604)" fill="#80C565"/>
<rect x="207.265" y="42.25" width="41.7353" height="61.25" fill="#F3F3F3"/>
<rect x="212.323" y="82.25" width="25.2941" height="1.25" fill="#002B55"/>
<rect x="211.059" y="57.25" width="8.85294" height="1.25" fill="#002B55"/>
<rect x="230.029" y="57.25" width="8.85294" height="1.25" fill="#002B55"/>
<rect x="202.206" y="36" width="46.7941" height="10" fill="#002B55"/>
<rect x="212.323" y="61" width="10.1176" height="15" fill="white"/>
<rect x="214.853" y="61" width="7.58824" height="10" fill="#002B55"/>
<rect x="218.647" y="62.25" width="2.52941" height="2.5" fill="white"/>
<rect x="228.765" y="61" width="10.1176" height="15" fill="white"/>
<rect x="231.294" y="61" width="7.58824" height="10" fill="#002B55"/>
<rect x="235.088" y="62.25" width="2.52941" height="2.5" fill="white"/>
<path d="M216.608 85.5625L225.603 92.8563L234.598 85.5625H216.608Z" fill="white" stroke="#002B55"/>
<rect x="213.588" y="107.25" width="27.8235" height="38.75" fill="#80C565"/>
<path d="M224.971 111L230.447 106.312H219.494L224.971 111Z" fill="white"/>
<rect x="173.75" y="131.625" width="39.2059" height="3.75" fill="#002B55"/>
<path d="M163 112.25H192.721L204.103 131.625H173.75L163 112.25Z" fill="#002B55"/>
<rect width="26.9488" height="7.09311" transform="matrix(0.801801 -0.597591 0.60657 0.79503 197.147 138.354)" fill="#80C565"/>
</svg>
