<svg width="177" height="235" viewBox="0 0 177 235" fill="none" xmlns="http://www.w3.org/2000/svg">
<ellipse cx="95.5" cy="151.5" rx="81.5" ry="83.5" fill="#B8C9D9"/>
<rect width="174" height="118" rx="15" fill="#002B55"/>
<rect width="29.5286" height="7.79568" transform="matrix(0.798636 -0.601815 0.602351 0.798231 75.6452 172.773)" fill="#80C565"/>
<path d="M96.3498 81.8967H141.9V119.485C141.9 136.053 128.469 149.485 111.9 149.485H111.35C103.066 149.485 96.3498 142.769 96.3498 134.485V81.8967Z" fill="#F3F3F3"/>
<rect x="100.491" y="98.4488" width="9.66216" height="1.37934" fill="#002B55"/>
<rect x="121.195" y="98.4488" width="9.66216" height="1.37934" fill="#002B55"/>
<rect x="91.8" y="75.5" width="50.7" height="10.0348" fill="#002B55" stroke="#E5E5E5"/>
<rect x="100.427" y="102.587" width="12.487" height="19.8626" fill="white"/>
<rect x="103.548" y="102.587" width="9.36524" height="13.2417" fill="#002B55"/>
<rect x="108.231" y="104.242" width="3.12174" height="3.31043" fill="white"/>
<rect x="117.889" y="102.587" width="12.9685" height="19.8626" fill="white"/>
<rect x="121.131" y="102.587" width="9.72636" height="13.2417" fill="#002B55"/>
<rect x="125.994" y="104.242" width="3.24212" height="3.31043" fill="white"/>
<path d="M106.407 129.639L116.364 137.803L126.322 129.639H106.407Z" fill="white" stroke="#002B55"/>
<rect x="103.251" y="153.623" width="30.3668" height="42.7597" fill="#80C565"/>
<rect width="5.0434" height="15.3769" transform="matrix(0.897981 -0.440034 0.432266 0.901746 71.3606 164.333)" fill="#002B55"/>
<rect width="1.09388" height="12.1112" transform="matrix(0.890028 -0.455905 0.447995 0.894036 67.7525 152.616)" fill="white"/>
<path d="M66.0472 150.036L67.6843 149.485L70.193 152.603L67.2722 154.099L66.0472 150.036Z" fill="white"/>
<rect width="55.7062" height="24.2575" transform="matrix(0.962614 -0.270878 0.265405 0.964137 0 185.612)" fill="#80C565"/>
<ellipse cx="46.4019" cy="184.244" rx="8.18555" ry="8.8278" fill="#002B55"/>
<ellipse cx="46.4019" cy="184.244" rx="8.18555" ry="8.8278" fill="#002B55"/>
<ellipse cx="16.9339" cy="193.072" rx="8.18555" ry="8.8278" fill="#002B55"/>
<ellipse cx="16.9339" cy="193.072" rx="8.18555" ry="8.8278" fill="#002B55"/>
<rect x="0.623374" y="0.329094" width="18.6643" height="10.0243" rx="3.5" transform="matrix(0.954516 -0.298159 0.292232 0.956347 14.1376 173.755)" stroke="#80C565"/>
<path d="M9.04 19.12C8.38667 19.12 7.86667 18.9667 7.48 18.66C7.09333 18.3533 6.87333 17.9467 6.82 17.44H7.91C7.95 17.6733 8.06667 17.8633 8.26 18.01C8.46 18.1567 8.72333 18.23 9.05 18.23C9.36333 18.23 9.60333 18.1667 9.77 18.04C9.94333 17.9067 10.03 17.7533 10.03 17.58C10.03 17.3267 9.92667 17.1533 9.72 17.06C9.52 16.9667 9.22333 16.8967 8.83 16.85C8.49 16.81 8.18 16.7333 7.9 16.62C7.62667 16.5 7.41 16.34 7.25 16.14C7.09 15.9333 7.01 15.6767 7.01 15.37C7.01 14.9367 7.18 14.5867 7.52 14.32C7.86 14.0533 8.33333 13.92 8.94 13.92C9.54667 13.92 10.0167 14.0567 10.35 14.33C10.6833 14.6033 10.8767 14.9767 10.93 15.45H9.91C9.88333 15.25 9.78 15.0933 9.6 14.98C9.42 14.86 9.19667 14.8 8.93 14.8C8.65667 14.8 8.44 14.8533 8.28 14.96C8.12 15.06 8.04 15.1933 8.04 15.36C8.04 15.72 8.42667 15.94 9.2 16.02C9.56667 16.06 9.89333 16.13 10.18 16.23C10.4667 16.3233 10.6933 16.4733 10.86 16.68C11.0267 16.88 11.11 17.1633 11.11 17.53C11.1167 17.83 11.03 18.1 10.85 18.34C10.6767 18.58 10.4333 18.77 10.12 18.91C9.81333 19.05 9.45333 19.12 9.04 19.12ZM15.5361 19C15.0494 19 14.6628 18.8833 14.3761 18.65C14.0894 18.41 13.9461 17.9867 13.9461 17.38V14.94H12.6961V14.04H13.4361C13.7761 14.04 13.9761 13.8733 14.0361 13.54L14.1861 12.74H15.0061V14.04H16.9661V14.94H15.0061V17.36C15.0061 17.62 15.0628 17.8033 15.1761 17.91C15.2961 18.01 15.4994 18.06 15.7861 18.06H16.9461V19H15.5361ZM20.5522 19.12C19.9522 19.12 19.4955 18.9367 19.1822 18.57C18.8755 18.1967 18.7222 17.6567 18.7222 16.95V14.04H19.7822V16.82C19.7822 17.2267 19.8689 17.5467 20.0422 17.78C20.2222 18.0067 20.4955 18.12 20.8622 18.12C21.2289 18.12 21.5355 17.9967 21.7822 17.75C22.0289 17.5033 22.1522 17.1467 22.1522 16.68V14.04H23.2122V19H22.2922L22.2022 18.26H22.1522C22.0189 18.5 21.8122 18.7033 21.5322 18.87C21.2522 19.0367 20.9255 19.12 20.5522 19.12ZM24.6783 21.2V20.27H25.4883C25.7216 20.27 25.8883 20.22 25.9883 20.12C26.0949 20.0267 26.1483 19.8667 26.1483 19.64V14.94H24.8883V14.04H26.1483V13.35C26.1483 12.7967 26.2849 12.4 26.5583 12.16C26.8316 11.92 27.2216 11.8 27.7283 11.8H28.9383V12.73H27.8583C27.6249 12.73 27.4583 12.7767 27.3583 12.87C27.2583 12.9633 27.2083 13.1267 27.2083 13.36V14.04H28.9383V14.94H27.2083V19.65C27.2083 20.2033 27.0716 20.6 26.7983 20.84C26.5249 21.08 26.1316 21.2 25.6183 21.2H24.6783ZM30.6744 21.2V20.27H31.4844C31.7177 20.27 31.8844 20.22 31.9844 20.12C32.091 20.0267 32.1444 19.8667 32.1444 19.64V14.94H30.8844V14.04H32.1444V13.35C32.1444 12.7967 32.281 12.4 32.5544 12.16C32.8277 11.92 33.2177 11.8 33.7244 11.8H34.9344V12.73H33.8544C33.621 12.73 33.4544 12.7767 33.3544 12.87C33.2544 12.9633 33.2044 13.1267 33.2044 13.36V14.04H34.9344V14.94H33.2044V19.65C33.2044 20.2033 33.0677 20.6 32.7944 20.84C32.521 21.08 32.1277 21.2 31.6144 21.2H30.6744ZM36.2605 19L38.3505 12H39.6105L41.7005 19H40.5505L40.0805 17.32H37.8805L37.4105 19H36.2605ZM38.9505 13.5L38.1205 16.47H39.8405L39.0105 13.5H38.9505ZM45.5166 19C45.0299 19 44.6432 18.8833 44.3566 18.65C44.0699 18.41 43.9266 17.9867 43.9266 17.38V14.94H42.6766V14.04H43.4166C43.7566 14.04 43.9566 13.8733 44.0166 13.54L44.1666 12.74H44.9866V14.04H46.9466V14.94H44.9866V17.36C44.9866 17.62 45.0432 17.8033 45.1566 17.91C45.2766 18.01 45.4799 18.06 45.7666 18.06H46.9266V19H45.5166ZM48.3827 19V12H49.4427V14.9H52.5027V12H53.5627V19H52.5027V15.87H49.4427V19H48.3827ZM56.9688 19.12C56.4954 19.12 56.0721 19.0133 55.6988 18.8C55.3254 18.5867 55.0321 18.2867 54.8188 17.9C54.6054 17.5067 54.4988 17.0467 54.4988 16.52C54.4988 15.9933 54.6054 15.5367 54.8188 15.15C55.0321 14.7567 55.3254 14.4533 55.6988 14.24C56.0721 14.0267 56.4988 13.92 56.9788 13.92C57.4588 13.92 57.8821 14.0267 58.2488 14.24C58.6221 14.4533 58.9121 14.7567 59.1188 15.15C59.3321 15.5367 59.4388 15.9933 59.4388 16.52C59.4388 17.0467 59.3321 17.5067 59.1188 17.9C58.9054 18.2867 58.6121 18.5867 58.2388 18.8C57.8721 19.0133 57.4488 19.12 56.9688 19.12ZM56.9688 18.11C57.2221 18.11 57.4554 18.0533 57.6688 17.94C57.8821 17.8267 58.0521 17.6533 58.1788 17.42C58.3121 17.18 58.3788 16.88 58.3788 16.52C58.3788 16.1533 58.3121 15.8533 58.1788 15.62C58.0521 15.3867 57.8821 15.2133 57.6688 15.1C57.4621 14.9867 57.2321 14.93 56.9788 14.93C56.7254 14.93 56.4921 14.9867 56.2788 15.1C56.0654 15.2133 55.8921 15.3867 55.7588 15.62C55.6321 15.8533 55.5688 16.1533 55.5688 16.52C55.5688 17.0667 55.7054 17.47 55.9788 17.73C56.2588 17.9833 56.5888 18.11 56.9688 18.11ZM60.2148 19V14.04H61.0948L61.1848 14.62H61.2348C61.3215 14.4133 61.4548 14.2467 61.6348 14.12C61.8148 13.9867 62.0282 13.92 62.2748 13.92C62.5148 13.92 62.7248 13.98 62.9048 14.1C63.0848 14.22 63.2182 14.3933 63.3048 14.62H63.3448C63.4315 14.42 63.5682 14.2533 63.7548 14.12C63.9415 13.9867 64.1715 13.92 64.4448 13.92C64.8115 13.92 65.0882 14.04 65.2748 14.28C65.4682 14.52 65.5648 14.8567 65.5648 15.29V19H64.5448V15.5C64.5448 15.3 64.5015 15.1433 64.4148 15.03C64.3348 14.91 64.2048 14.85 64.0248 14.85C63.8448 14.85 63.6948 14.92 63.5748 15.06C63.4615 15.2 63.4048 15.3967 63.4048 15.65V19H62.3748V15.5C62.3748 15.3 62.3348 15.1433 62.2548 15.03C62.1748 14.91 62.0448 14.85 61.8648 14.85C61.6848 14.85 61.5348 14.92 61.4148 15.06C61.2948 15.2 61.2348 15.3967 61.2348 15.65V19H60.2148ZM69.0209 19.12C68.5409 19.12 68.1176 19.0133 67.7509 18.8C67.3843 18.58 67.0976 18.2767 66.8909 17.89C66.6843 17.5033 66.5809 17.0533 66.5809 16.54C66.5809 16.02 66.6809 15.5633 66.8809 15.17C67.0876 14.7767 67.3743 14.47 67.7409 14.25C68.1143 14.03 68.5443 13.92 69.0309 13.92C69.5109 13.92 69.9243 14.03 70.2709 14.25C70.6176 14.4633 70.8843 14.75 71.0709 15.11C71.2643 15.47 71.3609 15.8667 71.3609 16.3C71.3609 16.3667 71.3609 16.44 71.3609 16.52C71.3609 16.5933 71.3576 16.6767 71.3509 16.77H67.6209C67.6543 17.23 67.8043 17.58 68.0709 17.82C68.3376 18.0533 68.6509 18.17 69.0109 18.17C69.3243 18.17 69.5709 18.1067 69.7509 17.98C69.9376 17.8467 70.0743 17.6667 70.1609 17.44H71.2309C71.1109 17.9133 70.8609 18.3133 70.4809 18.64C70.1009 18.96 69.6143 19.12 69.0209 19.12ZM69.0209 14.84C68.6943 14.84 68.4043 14.94 68.1509 15.14C67.8976 15.3333 67.7343 15.6067 67.6609 15.96H70.3009C70.2743 15.6267 70.1443 15.3567 69.9109 15.15C69.6776 14.9433 69.3809 14.84 69.0209 14.84ZM74.957 19.06C74.7104 19.06 74.5004 18.98 74.327 18.82C74.1537 18.6533 74.067 18.4533 74.067 18.22C74.067 17.9867 74.1537 17.79 74.327 17.63C74.5004 17.47 74.7104 17.39 74.957 17.39C75.2104 17.39 75.4204 17.47 75.587 17.63C75.7604 17.79 75.847 17.9867 75.847 18.22C75.847 18.4533 75.7604 18.6533 75.587 18.82C75.4204 18.98 75.2104 19.06 74.957 19.06ZM80.6831 19.12C80.2698 19.12 79.8998 19.0233 79.5731 18.83C79.2465 18.63 78.9865 18.3367 78.7931 17.95C78.6065 17.5633 78.5131 17.0867 78.5131 16.52C78.5131 15.9533 78.6098 15.4767 78.8031 15.09C78.9965 14.7033 79.2565 14.4133 79.5831 14.22C79.9165 14.02 80.2865 13.92 80.6931 13.92C81.0731 13.92 81.3865 13.9933 81.6331 14.14C81.8798 14.28 82.0631 14.46 82.1831 14.68V11.8H83.2431V19H82.3331L82.2431 18.27H82.1831C82.0498 18.53 81.8598 18.7367 81.6131 18.89C81.3731 19.0433 81.0631 19.12 80.6831 19.12ZM80.9031 18.11C81.2831 18.11 81.5965 17.9767 81.8431 17.71C82.0965 17.4433 82.2231 17.0467 82.2231 16.52C82.2231 15.9867 82.0965 15.59 81.8431 15.33C81.5965 15.0633 81.2831 14.93 80.9031 14.93C80.5231 14.93 80.2065 15.0633 79.9531 15.33C79.7065 15.5967 79.5831 15.9967 79.5831 16.53C79.5831 17.0567 79.7065 17.4533 79.9531 17.72C80.2065 17.98 80.5231 18.11 80.9031 18.11ZM86.8492 13.28C86.6159 13.28 86.4192 13.2067 86.2592 13.06C86.1059 12.9067 86.0292 12.72 86.0292 12.5C86.0292 12.28 86.1059 12.0967 86.2592 11.95C86.4192 11.8033 86.6159 11.73 86.8492 11.73C87.0892 11.73 87.2859 11.8033 87.4392 11.95C87.5992 12.0967 87.6792 12.28 87.6792 12.5C87.6792 12.72 87.5992 12.9067 87.4392 13.06C87.2859 13.2067 87.0892 13.28 86.8492 13.28ZM84.8592 19V18.08H86.4192V15.29C86.4192 15.07 86.3126 14.96 86.0992 14.96H84.9992V14.04H86.2892C86.7026 14.04 87.0026 14.1367 87.1892 14.33C87.3826 14.5167 87.4792 14.8167 87.4792 15.23V18.08H89.0392V19H84.8592ZM92.9853 19.12C92.332 19.12 91.812 18.9667 91.4253 18.66C91.0386 18.3533 90.8186 17.9467 90.7653 17.44H91.8553C91.8953 17.6733 92.012 17.8633 92.2053 18.01C92.4053 18.1567 92.6686 18.23 92.9953 18.23C93.3086 18.23 93.5486 18.1667 93.7153 18.04C93.8886 17.9067 93.9753 17.7533 93.9753 17.58C93.9753 17.3267 93.872 17.1533 93.6653 17.06C93.4653 16.9667 93.1686 16.8967 92.7753 16.85C92.4353 16.81 92.1253 16.7333 91.8453 16.62C91.572 16.5 91.3553 16.34 91.1953 16.14C91.0353 15.9333 90.9553 15.6767 90.9553 15.37C90.9553 14.9367 91.1253 14.5867 91.4653 14.32C91.8053 14.0533 92.2786 13.92 92.8853 13.92C93.492 13.92 93.962 14.0567 94.2953 14.33C94.6286 14.6033 94.822 14.9767 94.8753 15.45H93.8553C93.8286 15.25 93.7253 15.0933 93.5453 14.98C93.3653 14.86 93.142 14.8 92.8753 14.8C92.602 14.8 92.3853 14.8533 92.2253 14.96C92.0653 15.06 91.9853 15.1933 91.9853 15.36C91.9853 15.72 92.372 15.94 93.1453 16.02C93.512 16.06 93.8386 16.13 94.1253 16.23C94.412 16.3233 94.6386 16.4733 94.8053 16.68C94.972 16.88 95.0553 17.1633 95.0553 17.53C95.062 17.83 94.9753 18.1 94.7953 18.34C94.622 18.58 94.3786 18.77 94.0653 18.91C93.7586 19.05 93.3986 19.12 92.9853 19.12ZM98.9814 19.12C98.3281 19.12 97.8081 18.9667 97.4214 18.66C97.0347 18.3533 96.8147 17.9467 96.7614 17.44H97.8514C97.8914 17.6733 98.0081 17.8633 98.2014 18.01C98.4014 18.1567 98.6647 18.23 98.9914 18.23C99.3047 18.23 99.5447 18.1667 99.7114 18.04C99.8847 17.9067 99.9714 17.7533 99.9714 17.58C99.9714 17.3267 99.8681 17.1533 99.6614 17.06C99.4614 16.9667 99.1647 16.8967 98.7714 16.85C98.4314 16.81 98.1214 16.7333 97.8414 16.62C97.5681 16.5 97.3514 16.34 97.1914 16.14C97.0314 15.9333 96.9514 15.6767 96.9514 15.37C96.9514 14.9367 97.1214 14.5867 97.4614 14.32C97.8014 14.0533 98.2747 13.92 98.8814 13.92C99.4881 13.92 99.9581 14.0567 100.291 14.33C100.625 14.6033 100.818 14.9767 100.871 15.45H99.8514C99.8247 15.25 99.7214 15.0933 99.5414 14.98C99.3614 14.86 99.1381 14.8 98.8714 14.8C98.5981 14.8 98.3814 14.8533 98.2214 14.96C98.0614 15.06 97.9814 15.1933 97.9814 15.36C97.9814 15.72 98.3681 15.94 99.1414 16.02C99.5081 16.06 99.8347 16.13 100.121 16.23C100.408 16.3233 100.635 16.4733 100.801 16.68C100.968 16.88 101.051 17.1633 101.051 17.53C101.058 17.83 100.971 18.1 100.791 18.34C100.618 18.58 100.375 18.77 100.061 18.91C99.7547 19.05 99.3947 19.12 98.9814 19.12ZM104.488 19.12C104.094 19.12 103.764 19.0533 103.498 18.92C103.231 18.78 103.031 18.5967 102.898 18.37C102.764 18.1367 102.698 17.8833 102.698 17.61C102.698 17.1233 102.874 16.7433 103.228 16.47C103.588 16.1967 104.094 16.06 104.748 16.06H106.028V15.95C106.028 15.2033 105.681 14.83 104.988 14.83C104.701 14.83 104.458 14.8933 104.258 15.02C104.064 15.14 103.934 15.3367 103.868 15.61H102.808C102.861 15.09 103.084 14.68 103.478 14.38C103.878 14.0733 104.381 13.92 104.988 13.92C105.721 13.92 106.254 14.1 106.588 14.46C106.921 14.82 107.088 15.3167 107.088 15.95V19H106.188L106.098 18.27H106.028C105.881 18.5033 105.698 18.7033 105.478 18.87C105.258 19.0367 104.928 19.12 104.488 19.12ZM104.688 18.23C105.121 18.23 105.444 18.1 105.658 17.84C105.878 17.5733 105.998 17.2367 106.018 16.83H104.858C104.478 16.83 104.208 16.8933 104.048 17.02C103.894 17.14 103.818 17.31 103.818 17.53C103.818 17.75 103.894 17.9233 104.048 18.05C104.208 18.17 104.421 18.23 104.688 18.23ZM110.974 19.12C110.32 19.12 109.8 18.9667 109.414 18.66C109.027 18.3533 108.807 17.9467 108.754 17.44H109.844C109.884 17.6733 110 17.8633 110.194 18.01C110.394 18.1567 110.657 18.23 110.984 18.23C111.297 18.23 111.537 18.1667 111.704 18.04C111.877 17.9067 111.964 17.7533 111.964 17.58C111.964 17.3267 111.86 17.1533 111.654 17.06C111.454 16.9667 111.157 16.8967 110.764 16.85C110.424 16.81 110.114 16.7333 109.834 16.62C109.56 16.5 109.344 16.34 109.184 16.14C109.024 15.9333 108.944 15.6767 108.944 15.37C108.944 14.9367 109.114 14.5867 109.454 14.32C109.794 14.0533 110.267 13.92 110.874 13.92C111.48 13.92 111.95 14.0567 112.284 14.33C112.617 14.6033 112.81 14.9767 112.864 15.45H111.844C111.817 15.25 111.714 15.0933 111.534 14.98C111.354 14.86 111.13 14.8 110.864 14.8C110.59 14.8 110.374 14.8533 110.214 14.96C110.054 15.06 109.974 15.1933 109.974 15.36C109.974 15.72 110.36 15.94 111.134 16.02C111.5 16.06 111.827 16.13 112.114 16.23C112.4 16.3233 112.627 16.4733 112.794 16.68C112.96 16.88 113.044 17.1633 113.044 17.53C113.05 17.83 112.964 18.1 112.784 18.34C112.61 18.58 112.367 18.77 112.054 18.91C111.747 19.05 111.387 19.12 110.974 19.12ZM116.97 19.12C116.316 19.12 115.796 18.9667 115.41 18.66C115.023 18.3533 114.803 17.9467 114.75 17.44H115.84C115.88 17.6733 115.996 17.8633 116.19 18.01C116.39 18.1567 116.653 18.23 116.98 18.23C117.293 18.23 117.533 18.1667 117.7 18.04C117.873 17.9067 117.96 17.7533 117.96 17.58C117.96 17.3267 117.856 17.1533 117.65 17.06C117.45 16.9667 117.153 16.8967 116.76 16.85C116.42 16.81 116.11 16.7333 115.83 16.62C115.556 16.5 115.34 16.34 115.18 16.14C115.02 15.9333 114.94 15.6767 114.94 15.37C114.94 14.9367 115.11 14.5867 115.45 14.32C115.79 14.0533 116.263 13.92 116.87 13.92C117.476 13.92 117.946 14.0567 118.28 14.33C118.613 14.6033 118.806 14.9767 118.86 15.45H117.84C117.813 15.25 117.71 15.0933 117.53 14.98C117.35 14.86 117.126 14.8 116.86 14.8C116.586 14.8 116.37 14.8533 116.21 14.96C116.05 15.06 115.97 15.1933 115.97 15.36C115.97 15.72 116.356 15.94 117.13 16.02C117.496 16.06 117.823 16.13 118.11 16.23C118.396 16.3233 118.623 16.4733 118.79 16.68C118.956 16.88 119.04 17.1633 119.04 17.53C119.046 17.83 118.96 18.1 118.78 18.34C118.606 18.58 118.363 18.77 118.05 18.91C117.743 19.05 117.383 19.12 116.97 19.12ZM122.986 19.12C122.506 19.12 122.082 19.0133 121.716 18.8C121.349 18.58 121.062 18.2767 120.856 17.89C120.649 17.5033 120.546 17.0533 120.546 16.54C120.546 16.02 120.646 15.5633 120.846 15.17C121.052 14.7767 121.339 14.47 121.706 14.25C122.079 14.03 122.509 13.92 122.996 13.92C123.476 13.92 123.889 14.03 124.236 14.25C124.582 14.4633 124.849 14.75 125.036 15.11C125.229 15.47 125.326 15.8667 125.326 16.3C125.326 16.3667 125.326 16.44 125.326 16.52C125.326 16.5933 125.322 16.6767 125.316 16.77H121.586C121.619 17.23 121.769 17.58 122.036 17.82C122.302 18.0533 122.616 18.17 122.976 18.17C123.289 18.17 123.536 18.1067 123.716 17.98C123.902 17.8467 124.039 17.6667 124.126 17.44H125.196C125.076 17.9133 124.826 18.3133 124.446 18.64C124.066 18.96 123.579 19.12 122.986 19.12ZM122.986 14.84C122.659 14.84 122.369 14.94 122.116 15.14C121.862 15.3333 121.699 15.6067 121.626 15.96H124.266C124.239 15.6267 124.109 15.3567 123.876 15.15C123.642 14.9433 123.346 14.84 122.986 14.84ZM126.172 19V14.04H127.052L127.142 14.62H127.192C127.279 14.4133 127.412 14.2467 127.592 14.12C127.772 13.9867 127.985 13.92 128.232 13.92C128.472 13.92 128.682 13.98 128.862 14.1C129.042 14.22 129.175 14.3933 129.262 14.62H129.302C129.389 14.42 129.525 14.2533 129.712 14.12C129.899 13.9867 130.129 13.92 130.402 13.92C130.769 13.92 131.045 14.04 131.232 14.28C131.425 14.52 131.522 14.8567 131.522 15.29V19H130.502V15.5C130.502 15.3 130.459 15.1433 130.372 15.03C130.292 14.91 130.162 14.85 129.982 14.85C129.802 14.85 129.652 14.92 129.532 15.06C129.419 15.2 129.362 15.3967 129.362 15.65V19H128.332V15.5C128.332 15.3 128.292 15.1433 128.212 15.03C128.132 14.91 128.002 14.85 127.822 14.85C127.642 14.85 127.492 14.92 127.372 15.06C127.252 15.2 127.192 15.3967 127.192 15.65V19H126.172ZM135.188 19.12C134.821 19.12 134.511 19.0467 134.258 18.9C134.011 18.7467 133.821 18.5367 133.688 18.27H133.628L133.538 19H132.628V11.8H133.688V14.68C133.808 14.48 133.998 14.3033 134.258 14.15C134.518 13.9967 134.828 13.92 135.188 13.92C135.601 13.92 135.971 14.02 136.298 14.22C136.625 14.4133 136.881 14.7033 137.068 15.09C137.261 15.4767 137.358 15.9533 137.358 16.52C137.358 17.0867 137.261 17.5633 137.068 17.95C136.881 18.3367 136.625 18.63 136.298 18.83C135.971 19.0233 135.601 19.12 135.188 19.12ZM134.968 18.11C135.348 18.11 135.661 17.98 135.908 17.72C136.161 17.4533 136.288 17.0567 136.288 16.53C136.288 15.9967 136.161 15.5967 135.908 15.33C135.661 15.0633 135.348 14.93 134.968 14.93C134.588 14.93 134.271 15.0633 134.018 15.33C133.771 15.59 133.648 15.9867 133.648 16.52C133.648 17.0467 133.771 17.4433 134.018 17.71C134.271 17.9767 134.588 18.11 134.968 18.11ZM138.594 19V18.08H140.254V13.05C140.254 12.83 140.147 12.72 139.934 12.72H138.734V11.8H140.124C140.511 11.8 140.804 11.9033 141.004 12.11C141.211 12.31 141.314 12.6033 141.314 12.99V18.08H142.984V19H138.594ZM146.97 19.12C146.49 19.12 146.067 19.0133 145.7 18.8C145.333 18.58 145.047 18.2767 144.84 17.89C144.633 17.5033 144.53 17.0533 144.53 16.54C144.53 16.02 144.63 15.5633 144.83 15.17C145.037 14.7767 145.323 14.47 145.69 14.25C146.063 14.03 146.493 13.92 146.98 13.92C147.46 13.92 147.873 14.03 148.22 14.25C148.567 14.4633 148.833 14.75 149.02 15.11C149.213 15.47 149.31 15.8667 149.31 16.3C149.31 16.3667 149.31 16.44 149.31 16.52C149.31 16.5933 149.307 16.6767 149.3 16.77H145.57C145.603 17.23 145.753 17.58 146.02 17.82C146.287 18.0533 146.6 18.17 146.96 18.17C147.273 18.17 147.52 18.1067 147.7 17.98C147.887 17.8467 148.023 17.6667 148.11 17.44H149.18C149.06 17.9133 148.81 18.3133 148.43 18.64C148.05 18.96 147.563 19.12 146.97 19.12ZM146.97 14.84C146.643 14.84 146.353 14.94 146.1 15.14C145.847 15.3333 145.683 15.6067 145.61 15.96H148.25C148.223 15.6267 148.093 15.3567 147.86 15.15C147.627 14.9433 147.33 14.84 146.97 14.84ZM159.252 20.85C158.899 20.45 158.576 20.01 158.282 19.53C157.996 19.0567 157.766 18.52 157.592 17.92C157.426 17.32 157.342 16.6367 157.342 15.87C157.342 15.0967 157.426 14.4133 157.592 13.82C157.766 13.22 157.996 12.6833 158.282 12.21C158.576 11.73 158.899 11.29 159.252 10.89H160.332V11.02C159.946 11.4667 159.609 11.93 159.322 12.41C159.036 12.8833 158.812 13.4033 158.652 13.97C158.492 14.53 158.412 15.1633 158.412 15.87C158.412 16.57 158.492 17.2033 158.652 17.77C158.812 18.3367 159.036 18.8567 159.322 19.33C159.609 19.81 159.946 20.2733 160.332 20.72V20.85H159.252ZM163.468 20.85V20.72C163.855 20.2733 164.192 19.81 164.478 19.33C164.765 18.8567 164.988 18.3367 165.148 17.77C165.308 17.2033 165.388 16.57 165.388 15.87C165.388 15.1633 165.308 14.53 165.148 13.97C164.988 13.4033 164.765 12.8833 164.478 12.41C164.192 11.93 163.855 11.4667 163.468 11.02V10.89H164.548C164.902 11.29 165.222 11.73 165.508 12.21C165.802 12.6833 166.032 13.22 166.198 13.82C166.372 14.4133 166.458 15.0967 166.458 15.87C166.458 16.6367 166.372 17.32 166.198 17.92C166.032 18.52 165.802 19.0567 165.508 19.53C165.222 20.01 164.902 20.45 164.548 20.85H163.468ZM9.04 32.12C8.38667 32.12 7.86667 31.9667 7.48 31.66C7.09333 31.3533 6.87333 30.9467 6.82 30.44H7.91C7.95 30.6733 8.06667 30.8633 8.26 31.01C8.46 31.1567 8.72333 31.23 9.05 31.23C9.36333 31.23 9.60333 31.1667 9.77 31.04C9.94333 30.9067 10.03 30.7533 10.03 30.58C10.03 30.3267 9.92667 30.1533 9.72 30.06C9.52 29.9667 9.22333 29.8967 8.83 29.85C8.49 29.81 8.18 29.7333 7.9 29.62C7.62667 29.5 7.41 29.34 7.25 29.14C7.09 28.9333 7.01 28.6767 7.01 28.37C7.01 27.9367 7.18 27.5867 7.52 27.32C7.86 27.0533 8.33333 26.92 8.94 26.92C9.54667 26.92 10.0167 27.0567 10.35 27.33C10.6833 27.6033 10.8767 27.9767 10.93 28.45H9.91C9.88333 28.25 9.78 28.0933 9.6 27.98C9.42 27.86 9.19667 27.8 8.93 27.8C8.65667 27.8 8.44 27.8533 8.28 27.96C8.12 28.06 8.04 28.1933 8.04 28.36C8.04 28.72 8.42667 28.94 9.2 29.02C9.56667 29.06 9.89333 29.13 10.18 29.23C10.4667 29.3233 10.6933 29.4733 10.86 29.68C11.0267 29.88 11.11 30.1633 11.11 30.53C11.1167 30.83 11.03 31.1 10.85 31.34C10.6767 31.58 10.4333 31.77 10.12 31.91C9.81333 32.05 9.45333 32.12 9.04 32.12ZM15.5361 32C15.0494 32 14.6628 31.8833 14.3761 31.65C14.0894 31.41 13.9461 30.9867 13.9461 30.38V27.94H12.6961V27.04H13.4361C13.7761 27.04 13.9761 26.8733 14.0361 26.54L14.1861 25.74H15.0061V27.04H16.9661V27.94H15.0061V30.36C15.0061 30.62 15.0628 30.8033 15.1761 30.91C15.2961 31.01 15.4994 31.06 15.7861 31.06H16.9461V32H15.5361ZM20.5522 32.12C19.9522 32.12 19.4955 31.9367 19.1822 31.57C18.8755 31.1967 18.7222 30.6567 18.7222 29.95V27.04H19.7822V29.82C19.7822 30.2267 19.8689 30.5467 20.0422 30.78C20.2222 31.0067 20.4955 31.12 20.8622 31.12C21.2289 31.12 21.5355 30.9967 21.7822 30.75C22.0289 30.5033 22.1522 30.1467 22.1522 29.68V27.04H23.2122V32H22.2922L22.2022 31.26H22.1522C22.0189 31.5 21.8122 31.7033 21.5322 31.87C21.2522 32.0367 20.9255 32.12 20.5522 32.12ZM24.6783 34.2V33.27H25.4883C25.7216 33.27 25.8883 33.22 25.9883 33.12C26.0949 33.0267 26.1483 32.8667 26.1483 32.64V27.94H24.8883V27.04H26.1483V26.35C26.1483 25.7967 26.2849 25.4 26.5583 25.16C26.8316 24.92 27.2216 24.8 27.7283 24.8H28.9383V25.73H27.8583C27.6249 25.73 27.4583 25.7767 27.3583 25.87C27.2583 25.9633 27.2083 26.1267 27.2083 26.36V27.04H28.9383V27.94H27.2083V32.65C27.2083 33.2033 27.0716 33.6 26.7983 33.84C26.5249 34.08 26.1316 34.2 25.6183 34.2H24.6783ZM30.6744 34.2V33.27H31.4844C31.7177 33.27 31.8844 33.22 31.9844 33.12C32.091 33.0267 32.1444 32.8667 32.1444 32.64V27.94H30.8844V27.04H32.1444V26.35C32.1444 25.7967 32.281 25.4 32.5544 25.16C32.8277 24.92 33.2177 24.8 33.7244 24.8H34.9344V25.73H33.8544C33.621 25.73 33.4544 25.7767 33.3544 25.87C33.2544 25.9633 33.2044 26.1267 33.2044 26.36V27.04H34.9344V27.94H33.2044V32.65C33.2044 33.2033 33.0677 33.6 32.7944 33.84C32.521 34.08 32.1277 34.2 31.6144 34.2H30.6744ZM36.2605 32L38.3505 25H39.6105L41.7005 32H40.5505L40.0805 30.32H37.8805L37.4105 32H36.2605ZM38.9505 26.5L38.1205 29.47H39.8405L39.0105 26.5H38.9505ZM45.5166 32C45.0299 32 44.6432 31.8833 44.3566 31.65C44.0699 31.41 43.9266 30.9867 43.9266 30.38V27.94H42.6766V27.04H43.4166C43.7566 27.04 43.9566 26.8733 44.0166 26.54L44.1666 25.74H44.9866V27.04H46.9466V27.94H44.9866V30.36C44.9866 30.62 45.0432 30.8033 45.1566 30.91C45.2766 31.01 45.4799 31.06 45.7666 31.06H46.9266V32H45.5166ZM48.3827 32V25H49.4427V27.9H52.5027V25H53.5627V32H52.5027V28.87H49.4427V32H48.3827ZM56.9688 32.12C56.4954 32.12 56.0721 32.0133 55.6988 31.8C55.3254 31.5867 55.0321 31.2867 54.8188 30.9C54.6054 30.5067 54.4988 30.0467 54.4988 29.52C54.4988 28.9933 54.6054 28.5367 54.8188 28.15C55.0321 27.7567 55.3254 27.4533 55.6988 27.24C56.0721 27.0267 56.4988 26.92 56.9788 26.92C57.4588 26.92 57.8821 27.0267 58.2488 27.24C58.6221 27.4533 58.9121 27.7567 59.1188 28.15C59.3321 28.5367 59.4388 28.9933 59.4388 29.52C59.4388 30.0467 59.3321 30.5067 59.1188 30.9C58.9054 31.2867 58.6121 31.5867 58.2388 31.8C57.8721 32.0133 57.4488 32.12 56.9688 32.12ZM56.9688 31.11C57.2221 31.11 57.4554 31.0533 57.6688 30.94C57.8821 30.8267 58.0521 30.6533 58.1788 30.42C58.3121 30.18 58.3788 29.88 58.3788 29.52C58.3788 29.1533 58.3121 28.8533 58.1788 28.62C58.0521 28.3867 57.8821 28.2133 57.6688 28.1C57.4621 27.9867 57.2321 27.93 56.9788 27.93C56.7254 27.93 56.4921 27.9867 56.2788 28.1C56.0654 28.2133 55.8921 28.3867 55.7588 28.62C55.6321 28.8533 55.5688 29.1533 55.5688 29.52C55.5688 30.0667 55.7054 30.47 55.9788 30.73C56.2588 30.9833 56.5888 31.11 56.9688 31.11ZM60.2148 32V27.04H61.0948L61.1848 27.62H61.2348C61.3215 27.4133 61.4548 27.2467 61.6348 27.12C61.8148 26.9867 62.0282 26.92 62.2748 26.92C62.5148 26.92 62.7248 26.98 62.9048 27.1C63.0848 27.22 63.2182 27.3933 63.3048 27.62H63.3448C63.4315 27.42 63.5682 27.2533 63.7548 27.12C63.9415 26.9867 64.1715 26.92 64.4448 26.92C64.8115 26.92 65.0882 27.04 65.2748 27.28C65.4682 27.52 65.5648 27.8567 65.5648 28.29V32H64.5448V28.5C64.5448 28.3 64.5015 28.1433 64.4148 28.03C64.3348 27.91 64.2048 27.85 64.0248 27.85C63.8448 27.85 63.6948 27.92 63.5748 28.06C63.4615 28.2 63.4048 28.3967 63.4048 28.65V32H62.3748V28.5C62.3748 28.3 62.3348 28.1433 62.2548 28.03C62.1748 27.91 62.0448 27.85 61.8648 27.85C61.6848 27.85 61.5348 27.92 61.4148 28.06C61.2948 28.2 61.2348 28.3967 61.2348 28.65V32H60.2148ZM69.0209 32.12C68.5409 32.12 68.1176 32.0133 67.7509 31.8C67.3843 31.58 67.0976 31.2767 66.8909 30.89C66.6843 30.5033 66.5809 30.0533 66.5809 29.54C66.5809 29.02 66.6809 28.5633 66.8809 28.17C67.0876 27.7767 67.3743 27.47 67.7409 27.25C68.1143 27.03 68.5443 26.92 69.0309 26.92C69.5109 26.92 69.9243 27.03 70.2709 27.25C70.6176 27.4633 70.8843 27.75 71.0709 28.11C71.2643 28.47 71.3609 28.8667 71.3609 29.3C71.3609 29.3667 71.3609 29.44 71.3609 29.52C71.3609 29.5933 71.3576 29.6767 71.3509 29.77H67.6209C67.6543 30.23 67.8043 30.58 68.0709 30.82C68.3376 31.0533 68.6509 31.17 69.0109 31.17C69.3243 31.17 69.5709 31.1067 69.7509 30.98C69.9376 30.8467 70.0743 30.6667 70.1609 30.44H71.2309C71.1109 30.9133 70.8609 31.3133 70.4809 31.64C70.1009 31.96 69.6143 32.12 69.0209 32.12ZM69.0209 27.84C68.6943 27.84 68.4043 27.94 68.1509 28.14C67.8976 28.3333 67.7343 28.6067 67.6609 28.96H70.3009C70.2743 28.6267 70.1443 28.3567 69.9109 28.15C69.6776 27.9433 69.3809 27.84 69.0209 27.84ZM74.957 32.06C74.7104 32.06 74.5004 31.98 74.327 31.82C74.1537 31.6533 74.067 31.4533 74.067 31.22C74.067 30.9867 74.1537 30.79 74.327 30.63C74.5004 30.47 74.7104 30.39 74.957 30.39C75.2104 30.39 75.4204 30.47 75.587 30.63C75.7604 30.79 75.847 30.9867 75.847 31.22C75.847 31.4533 75.7604 31.6533 75.587 31.82C75.4204 31.98 75.2104 32.06 74.957 32.06ZM78.6331 32V31.08H80.2931V26.05C80.2931 25.83 80.1865 25.72 79.9731 25.72H78.7731V24.8H80.1631C80.5498 24.8 80.8431 24.9033 81.0431 25.11C81.2498 25.31 81.3531 25.6033 81.3531 25.99V31.08H83.0231V32H78.6331ZM86.9492 32.12C86.4759 32.12 86.0526 32.0133 85.6792 31.8C85.3059 31.5867 85.0126 31.2867 84.7992 30.9C84.5859 30.5067 84.4792 30.0467 84.4792 29.52C84.4792 28.9933 84.5859 28.5367 84.7992 28.15C85.0126 27.7567 85.3059 27.4533 85.6792 27.24C86.0526 27.0267 86.4792 26.92 86.9592 26.92C87.4392 26.92 87.8626 27.0267 88.2292 27.24C88.6026 27.4533 88.8926 27.7567 89.0992 28.15C89.3126 28.5367 89.4192 28.9933 89.4192 29.52C89.4192 30.0467 89.3126 30.5067 89.0992 30.9C88.8859 31.2867 88.5926 31.5867 88.2192 31.8C87.8526 32.0133 87.4292 32.12 86.9492 32.12ZM86.9492 31.11C87.2026 31.11 87.4359 31.0533 87.6492 30.94C87.8626 30.8267 88.0326 30.6533 88.1592 30.42C88.2926 30.18 88.3592 29.88 88.3592 29.52C88.3592 29.1533 88.2926 28.8533 88.1592 28.62C88.0326 28.3867 87.8626 28.2133 87.6492 28.1C87.4426 27.9867 87.2126 27.93 86.9592 27.93C86.7059 27.93 86.4726 27.9867 86.2592 28.1C86.0459 28.2133 85.8726 28.3867 85.7392 28.62C85.6126 28.8533 85.5492 29.1533 85.5492 29.52C85.5492 30.0667 85.6859 30.47 85.9592 30.73C86.2392 30.9833 86.5692 31.11 86.9492 31.11ZM92.9453 32.12C92.472 32.12 92.0486 32.0133 91.6753 31.8C91.302 31.5867 91.0086 31.2867 90.7953 30.9C90.582 30.5067 90.4753 30.0467 90.4753 29.52C90.4753 28.9933 90.582 28.5367 90.7953 28.15C91.0086 27.7567 91.302 27.4533 91.6753 27.24C92.0486 27.0267 92.4753 26.92 92.9553 26.92C93.4353 26.92 93.8586 27.0267 94.2253 27.24C94.5986 27.4533 94.8886 27.7567 95.0953 28.15C95.3086 28.5367 95.4153 28.9933 95.4153 29.52C95.4153 30.0467 95.3086 30.5067 95.0953 30.9C94.882 31.2867 94.5886 31.5867 94.2153 31.8C93.8486 32.0133 93.4253 32.12 92.9453 32.12ZM92.9453 31.11C93.1986 31.11 93.432 31.0533 93.6453 30.94C93.8586 30.8267 94.0286 30.6533 94.1553 30.42C94.2886 30.18 94.3553 29.88 94.3553 29.52C94.3553 29.1533 94.2886 28.8533 94.1553 28.62C94.0286 28.3867 93.8586 28.2133 93.6453 28.1C93.4386 27.9867 93.2086 27.93 92.9553 27.93C92.702 27.93 92.4686 27.9867 92.2553 28.1C92.042 28.2133 91.8686 28.3867 91.7353 28.62C91.6086 28.8533 91.5453 29.1533 91.5453 29.52C91.5453 30.0667 91.682 30.47 91.9553 30.73C92.2353 30.9833 92.5653 31.11 92.9453 31.11ZM96.9214 32V24.8H97.9814V29.12L99.8814 27.04H101.211L99.1414 29.24V29.32L101.481 32H100.191L97.9814 29.45V32H96.9214ZM102.888 32V31.06H104.408V25.94H102.908V25H106.968V25.94H105.468V31.06H106.987V32H102.888ZM108.714 32V27.04H109.634L109.724 27.78H109.774C109.907 27.54 110.114 27.3367 110.394 27.17C110.674 27.0033 110.997 26.92 111.364 26.92C111.97 26.92 112.427 27.1033 112.734 27.47C113.04 27.8367 113.194 28.3767 113.194 29.09V32H112.134V29.22C112.134 28.8067 112.047 28.4867 111.874 28.26C111.7 28.0333 111.427 27.92 111.054 27.92C110.687 27.92 110.38 28.0433 110.134 28.29C109.894 28.5367 109.774 28.8933 109.774 29.36V32H108.714ZM116.97 32.12C116.316 32.12 115.796 31.9667 115.41 31.66C115.023 31.3533 114.803 30.9467 114.75 30.44H115.84C115.88 30.6733 115.996 30.8633 116.19 31.01C116.39 31.1567 116.653 31.23 116.98 31.23C117.293 31.23 117.533 31.1667 117.7 31.04C117.873 30.9067 117.96 30.7533 117.96 30.58C117.96 30.3267 117.856 30.1533 117.65 30.06C117.45 29.9667 117.153 29.8967 116.76 29.85C116.42 29.81 116.11 29.7333 115.83 29.62C115.556 29.5 115.34 29.34 115.18 29.14C115.02 28.9333 114.94 28.6767 114.94 28.37C114.94 27.9367 115.11 27.5867 115.45 27.32C115.79 27.0533 116.263 26.92 116.87 26.92C117.476 26.92 117.946 27.0567 118.28 27.33C118.613 27.6033 118.806 27.9767 118.86 28.45H117.84C117.813 28.25 117.71 28.0933 117.53 27.98C117.35 27.86 117.126 27.8 116.86 27.8C116.586 27.8 116.37 27.8533 116.21 27.96C116.05 28.06 115.97 28.1933 115.97 28.36C115.97 28.72 116.356 28.94 117.13 29.02C117.496 29.06 117.823 29.13 118.11 29.23C118.396 29.3233 118.623 29.4733 118.79 29.68C118.956 29.88 119.04 30.1633 119.04 30.53C119.046 30.83 118.96 31.1 118.78 31.34C118.606 31.58 118.363 31.77 118.05 31.91C117.743 32.05 117.383 32.12 116.97 32.12ZM122.826 26.28C122.592 26.28 122.396 26.2067 122.236 26.06C122.082 25.9067 122.006 25.72 122.006 25.5C122.006 25.28 122.082 25.0967 122.236 24.95C122.396 24.8033 122.592 24.73 122.826 24.73C123.066 24.73 123.262 24.8033 123.416 24.95C123.576 25.0967 123.656 25.28 123.656 25.5C123.656 25.72 123.576 25.9067 123.416 26.06C123.262 26.2067 123.066 26.28 122.826 26.28ZM120.836 32V31.08H122.396V28.29C122.396 28.07 122.289 27.96 122.076 27.96H120.976V27.04H122.266C122.679 27.04 122.979 27.1367 123.166 27.33C123.359 27.5167 123.456 27.8167 123.456 28.23V31.08H125.016V32H120.836ZM128.652 32.12C128.239 32.12 127.869 32.0233 127.542 31.83C127.215 31.63 126.955 31.3367 126.762 30.95C126.575 30.5633 126.482 30.0867 126.482 29.52C126.482 28.9533 126.579 28.4767 126.772 28.09C126.965 27.7033 127.225 27.4133 127.552 27.22C127.885 27.02 128.255 26.92 128.662 26.92C129.042 26.92 129.355 26.9933 129.602 27.14C129.849 27.28 130.032 27.46 130.152 27.68V24.8H131.212V32H130.302L130.212 31.27H130.152C130.019 31.53 129.829 31.7367 129.582 31.89C129.342 32.0433 129.032 32.12 128.652 32.12ZM128.872 31.11C129.252 31.11 129.565 30.9767 129.812 30.71C130.065 30.4433 130.192 30.0467 130.192 29.52C130.192 28.9867 130.065 28.59 129.812 28.33C129.565 28.0633 129.252 27.93 128.872 27.93C128.492 27.93 128.175 28.0633 127.922 28.33C127.675 28.5967 127.552 28.9967 127.552 29.53C127.552 30.0567 127.675 30.4533 127.922 30.72C128.175 30.98 128.492 31.11 128.872 31.11ZM134.978 32.12C134.498 32.12 134.075 32.0133 133.708 31.8C133.341 31.58 133.055 31.2767 132.848 30.89C132.641 30.5033 132.538 30.0533 132.538 29.54C132.538 29.02 132.638 28.5633 132.838 28.17C133.045 27.7767 133.331 27.47 133.698 27.25C134.071 27.03 134.501 26.92 134.988 26.92C135.468 26.92 135.881 27.03 136.228 27.25C136.575 27.4633 136.841 27.75 137.028 28.11C137.221 28.47 137.318 28.8667 137.318 29.3C137.318 29.3667 137.318 29.44 137.318 29.52C137.318 29.5933 137.315 29.6767 137.308 29.77H133.578C133.611 30.23 133.761 30.58 134.028 30.82C134.295 31.0533 134.608 31.17 134.968 31.17C135.281 31.17 135.528 31.1067 135.708 30.98C135.895 30.8467 136.031 30.6667 136.118 30.44H137.188C137.068 30.9133 136.818 31.3133 136.438 31.64C136.058 31.96 135.571 32.12 134.978 32.12ZM134.978 27.84C134.651 27.84 134.361 27.94 134.108 28.14C133.855 28.3333 133.691 28.6067 133.618 28.96H136.258C136.231 28.6267 136.101 28.3567 135.868 28.15C135.635 27.9433 135.338 27.84 134.978 27.84ZM147.26 33.85C146.907 33.45 146.583 33.01 146.29 32.53C146.003 32.0567 145.773 31.52 145.6 30.92C145.433 30.32 145.35 29.6367 145.35 28.87C145.35 28.0967 145.433 27.4133 145.6 26.82C145.773 26.22 146.003 25.6833 146.29 25.21C146.583 24.73 146.907 24.29 147.26 23.89H148.34V24.02C147.953 24.4667 147.617 24.93 147.33 25.41C147.043 25.8833 146.82 26.4033 146.66 26.97C146.5 27.53 146.42 28.1633 146.42 28.87C146.42 29.57 146.5 30.2033 146.66 30.77C146.82 31.3367 147.043 31.8567 147.33 32.33C147.617 32.81 147.953 33.2733 148.34 33.72V33.85H147.26ZM151.476 33.85V33.72C151.863 33.2733 152.2 32.81 152.486 32.33C152.773 31.8567 152.996 31.3367 153.156 30.77C153.316 30.2033 153.396 29.57 153.396 28.87C153.396 28.1633 153.316 27.53 153.156 26.97C152.996 26.4033 152.773 25.8833 152.486 25.41C152.2 24.93 151.863 24.4667 151.476 24.02V23.89H152.556C152.91 24.29 153.23 24.73 153.516 25.21C153.81 25.6833 154.04 26.22 154.206 26.82C154.38 27.4133 154.466 28.0967 154.466 28.87C154.466 29.6367 154.38 30.32 154.206 30.92C154.04 31.52 153.81 32.0567 153.516 32.53C153.23 33.01 152.91 33.45 152.556 33.85H151.476ZM9.54 45C9.05333 45 8.66667 44.8833 8.38 44.65C8.09333 44.41 7.95 43.9867 7.95 43.38V40.94H6.7V40.04H7.44C7.78 40.04 7.98 39.8733 8.04 39.54L8.19 38.74H9.01V40.04H10.97V40.94H9.01V43.36C9.01 43.62 9.06667 43.8033 9.18 43.91C9.3 44.01 9.50333 44.06 9.79 44.06H10.95V45H9.54ZM12.7661 45V44.08H13.9761V41.29C13.9761 41.07 13.8694 40.96 13.6561 40.96H12.8661V40.04H14.0561C14.3294 40.04 14.5528 40.12 14.7261 40.28C14.8994 40.4333 14.9861 40.65 14.9861 40.93V41.05H15.0361C15.1094 40.6767 15.2661 40.3967 15.5061 40.21C15.7528 40.0167 16.1094 39.92 16.5761 39.92H17.3461V41.04H16.2661C15.8728 41.04 15.5694 41.1767 15.3561 41.45C15.1428 41.7233 15.0361 42.05 15.0361 42.43V44.08H16.5761V45H12.7661ZM19.4222 47.2L20.6022 44.59H20.3122L18.3822 40.04H19.5322L21.0122 43.67L22.5822 40.04H23.6922L20.5422 47.2H19.4222ZM33.9144 46.85C33.4144 46.85 33.0144 46.72 32.7144 46.46C32.4144 46.2 32.2644 45.81 32.2644 45.29C32.2644 45.0367 32.281 44.81 32.3144 44.61C32.3544 44.41 32.391 44.2033 32.4244 43.99C32.4644 43.7767 32.4844 43.53 32.4844 43.25C32.4844 42.99 32.4077 42.7733 32.2544 42.6C32.1077 42.4267 31.8577 42.34 31.5044 42.34H31.0544V41.4H31.5044C31.8577 41.4 32.1077 41.3133 32.2544 41.14C32.4077 40.9667 32.4844 40.75 32.4844 40.49C32.4844 40.2033 32.4644 39.9567 32.4244 39.75C32.391 39.5367 32.3544 39.33 32.3144 39.13C32.281 38.9233 32.2644 38.6933 32.2644 38.44C32.2644 37.9267 32.4144 37.54 32.7144 37.28C33.0144 37.02 33.4144 36.89 33.9144 36.89H34.9344V37.82H34.0744C33.8144 37.82 33.6177 37.88 33.4844 38C33.3577 38.12 33.2944 38.3167 33.2944 38.59C33.2944 38.81 33.311 39.0133 33.3444 39.2C33.3777 39.3867 33.411 39.58 33.4444 39.78C33.4777 39.98 33.4944 40.2133 33.4944 40.48C33.4944 40.8333 33.4177 41.13 33.2644 41.37C33.1177 41.6033 32.9177 41.76 32.6644 41.84V41.9C32.9177 41.98 33.1177 42.14 33.2644 42.38C33.4177 42.6133 33.4944 42.9067 33.4944 43.26C33.4944 43.5267 33.4777 43.76 33.4444 43.96C33.411 44.16 33.3777 44.3533 33.3444 44.54C33.311 44.72 33.2944 44.9233 33.2944 45.15C33.2944 45.4167 33.3577 45.61 33.4844 45.73C33.6177 45.8567 33.8144 45.92 34.0744 45.92H34.9344V46.85H33.9144ZM21.0322 58.12C20.3789 58.12 19.8589 57.9667 19.4722 57.66C19.0855 57.3533 18.8655 56.9467 18.8122 56.44H19.9022C19.9422 56.6733 20.0589 56.8633 20.2522 57.01C20.4522 57.1567 20.7155 57.23 21.0422 57.23C21.3555 57.23 21.5955 57.1667 21.7622 57.04C21.9355 56.9067 22.0222 56.7533 22.0222 56.58C22.0222 56.3267 21.9189 56.1533 21.7122 56.06C21.5122 55.9667 21.2155 55.8967 20.8222 55.85C20.4822 55.81 20.1722 55.7333 19.8922 55.62C19.6189 55.5 19.4022 55.34 19.2422 55.14C19.0822 54.9333 19.0022 54.6767 19.0022 54.37C19.0022 53.9367 19.1722 53.5867 19.5122 53.32C19.8522 53.0533 20.3255 52.92 20.9322 52.92C21.5389 52.92 22.0089 53.0567 22.3422 53.33C22.6755 53.6033 22.8689 53.9767 22.9222 54.45H21.9022C21.8755 54.25 21.7722 54.0933 21.5922 53.98C21.4122 53.86 21.1889 53.8 20.9222 53.8C20.6489 53.8 20.4322 53.8533 20.2722 53.96C20.1122 54.06 20.0322 54.1933 20.0322 54.36C20.0322 54.72 20.4189 54.94 21.1922 55.02C21.5589 55.06 21.8855 55.13 22.1722 55.23C22.4589 55.3233 22.6855 55.4733 22.8522 55.68C23.0189 55.88 23.1022 56.1633 23.1022 56.53C23.1089 56.83 23.0222 57.1 22.8422 57.34C22.6689 57.58 22.4255 57.77 22.1122 57.91C21.8055 58.05 21.4455 58.12 21.0322 58.12ZM27.5283 58C27.0416 58 26.6549 57.8833 26.3683 57.65C26.0816 57.41 25.9383 56.9867 25.9383 56.38V53.94H24.6883V53.04H25.4283C25.7683 53.04 25.9683 52.8733 26.0283 52.54L26.1783 51.74H26.9983V53.04H28.9583V53.94H26.9983V56.36C26.9983 56.62 27.0549 56.8033 27.1683 56.91C27.2883 57.01 27.4916 57.06 27.7783 57.06H28.9383V58H27.5283ZM32.5444 58.12C31.9444 58.12 31.4877 57.9367 31.1744 57.57C30.8677 57.1967 30.7144 56.6567 30.7144 55.95V53.04H31.7744V55.82C31.7744 56.2267 31.861 56.5467 32.0344 56.78C32.2144 57.0067 32.4877 57.12 32.8544 57.12C33.221 57.12 33.5277 56.9967 33.7744 56.75C34.021 56.5033 34.1444 56.1467 34.1444 55.68V53.04H35.2044V58H34.2844L34.1944 57.26H34.1444C34.011 57.5 33.8044 57.7033 33.5244 57.87C33.2444 58.0367 32.9177 58.12 32.5444 58.12ZM36.6705 60.2V59.27H37.4805C37.7138 59.27 37.8805 59.22 37.9805 59.12C38.0871 59.0267 38.1405 58.8667 38.1405 58.64V53.94H36.8805V53.04H38.1405V52.35C38.1405 51.7967 38.2771 51.4 38.5505 51.16C38.8238 50.92 39.2138 50.8 39.7205 50.8H40.9305V51.73H39.8505C39.6171 51.73 39.4505 51.7767 39.3505 51.87C39.2505 51.9633 39.2005 52.1267 39.2005 52.36V53.04H40.9305V53.94H39.2005V58.65C39.2005 59.2033 39.0638 59.6 38.7905 59.84C38.5171 60.08 38.1238 60.2 37.6105 60.2H36.6705ZM42.6666 60.2V59.27H43.4766C43.7099 59.27 43.8766 59.22 43.9766 59.12C44.0832 59.0267 44.1366 58.8667 44.1366 58.64V53.94H42.8766V53.04H44.1366V52.35C44.1366 51.7967 44.2732 51.4 44.5466 51.16C44.8199 50.92 45.2099 50.8 45.7166 50.8H46.9266V51.73H45.8466C45.6132 51.73 45.4466 51.7767 45.3466 51.87C45.2466 51.9633 45.1966 52.1267 45.1966 52.36V53.04H46.9266V53.94H45.1966V58.65C45.1966 59.2033 45.0599 59.6 44.7866 59.84C44.5132 60.08 44.1199 60.2 43.6066 60.2H42.6666ZM48.2527 58L50.3427 51H51.6027L53.6927 58H52.5427L52.0727 56.32H49.8727L49.4027 58H48.2527ZM50.9427 52.5L50.1127 55.47H51.8327L51.0027 52.5H50.9427ZM57.5088 58C57.0221 58 56.6354 57.8833 56.3488 57.65C56.0621 57.41 55.9188 56.9867 55.9188 56.38V53.94H54.6688V53.04H55.4088C55.7488 53.04 55.9488 52.8733 56.0088 52.54L56.1588 51.74H56.9788V53.04H58.9388V53.94H56.9788V56.36C56.9788 56.62 57.0354 56.8033 57.1488 56.91C57.2688 57.01 57.4721 57.06 57.7588 57.06H58.9188V58H57.5088ZM60.3748 58V51H61.4348V53.9H64.4948V51H65.5548V58H64.4948V54.87H61.4348V58H60.3748ZM68.9609 58.12C68.4876 58.12 68.0643 58.0133 67.6909 57.8C67.3176 57.5867 67.0243 57.2867 66.8109 56.9C66.5976 56.5067 66.4909 56.0467 66.4909 55.52C66.4909 54.9933 66.5976 54.5367 66.8109 54.15C67.0243 53.7567 67.3176 53.4533 67.6909 53.24C68.0643 53.0267 68.4909 52.92 68.9709 52.92C69.4509 52.92 69.8743 53.0267 70.2409 53.24C70.6143 53.4533 70.9043 53.7567 71.1109 54.15C71.3243 54.5367 71.4309 54.9933 71.4309 55.52C71.4309 56.0467 71.3243 56.5067 71.1109 56.9C70.8976 57.2867 70.6043 57.5867 70.2309 57.8C69.8643 58.0133 69.4409 58.12 68.9609 58.12ZM68.9609 57.11C69.2143 57.11 69.4476 57.0533 69.6609 56.94C69.8743 56.8267 70.0443 56.6533 70.1709 56.42C70.3043 56.18 70.3709 55.88 70.3709 55.52C70.3709 55.1533 70.3043 54.8533 70.1709 54.62C70.0443 54.3867 69.8743 54.2133 69.6609 54.1C69.4543 53.9867 69.2243 53.93 68.9709 53.93C68.7176 53.93 68.4843 53.9867 68.2709 54.1C68.0576 54.2133 67.8843 54.3867 67.7509 54.62C67.6243 54.8533 67.5609 55.1533 67.5609 55.52C67.5609 56.0667 67.6976 56.47 67.9709 56.73C68.2509 56.9833 68.5809 57.11 68.9609 57.11ZM72.207 58V53.04H73.087L73.177 53.62H73.227C73.3137 53.4133 73.447 53.2467 73.627 53.12C73.807 52.9867 74.0204 52.92 74.267 52.92C74.507 52.92 74.717 52.98 74.897 53.1C75.077 53.22 75.2104 53.3933 75.297 53.62H75.337C75.4237 53.42 75.5604 53.2533 75.747 53.12C75.9337 52.9867 76.1637 52.92 76.437 52.92C76.8037 52.92 77.0804 53.04 77.267 53.28C77.4604 53.52 77.557 53.8567 77.557 54.29V58H76.537V54.5C76.537 54.3 76.4937 54.1433 76.407 54.03C76.327 53.91 76.197 53.85 76.017 53.85C75.837 53.85 75.687 53.92 75.567 54.06C75.4537 54.2 75.397 54.3967 75.397 54.65V58H74.367V54.5C74.367 54.3 74.327 54.1433 74.247 54.03C74.167 53.91 74.037 53.85 73.857 53.85C73.677 53.85 73.527 53.92 73.407 54.06C73.287 54.2 73.227 54.3967 73.227 54.65V58H72.207ZM81.0131 58.12C80.5331 58.12 80.1098 58.0133 79.7431 57.8C79.3765 57.58 79.0898 57.2767 78.8831 56.89C78.6765 56.5033 78.5731 56.0533 78.5731 55.54C78.5731 55.02 78.6731 54.5633 78.8731 54.17C79.0798 53.7767 79.3665 53.47 79.7331 53.25C80.1065 53.03 80.5365 52.92 81.0231 52.92C81.5031 52.92 81.9165 53.03 82.2631 53.25C82.6098 53.4633 82.8765 53.75 83.0631 54.11C83.2565 54.47 83.3531 54.8667 83.3531 55.3C83.3531 55.3667 83.3531 55.44 83.3531 55.52C83.3531 55.5933 83.3498 55.6767 83.3431 55.77H79.6131C79.6465 56.23 79.7965 56.58 80.0631 56.82C80.3298 57.0533 80.6431 57.17 81.0031 57.17C81.3165 57.17 81.5631 57.1067 81.7431 56.98C81.9298 56.8467 82.0665 56.6667 82.1531 56.44H83.2231C83.1031 56.9133 82.8531 57.3133 82.4731 57.64C82.0931 57.96 81.6065 58.12 81.0131 58.12ZM81.0131 53.84C80.6865 53.84 80.3965 53.94 80.1431 54.14C79.8898 54.3333 79.7265 54.6067 79.6531 54.96H82.2931C82.2665 54.6267 82.1365 54.3567 81.9031 54.15C81.6698 53.9433 81.3731 53.84 81.0131 53.84ZM86.9492 58.06C86.7026 58.06 86.4926 57.98 86.3192 57.82C86.1459 57.6533 86.0592 57.4533 86.0592 57.22C86.0592 56.9867 86.1459 56.79 86.3192 56.63C86.4926 56.47 86.7026 56.39 86.9492 56.39C87.2026 56.39 87.4126 56.47 87.5792 56.63C87.7526 56.79 87.8392 56.9867 87.8392 57.22C87.8392 57.4533 87.7526 57.6533 87.5792 57.82C87.4126 57.98 87.2026 58.06 86.9492 58.06ZM92.4953 58.12C92.102 58.12 91.772 58.0533 91.5053 57.92C91.2386 57.78 91.0386 57.5967 90.9053 57.37C90.772 57.1367 90.7053 56.8833 90.7053 56.61C90.7053 56.1233 90.882 55.7433 91.2353 55.47C91.5953 55.1967 92.102 55.06 92.7553 55.06H94.0353V54.95C94.0353 54.2033 93.6886 53.83 92.9953 53.83C92.7086 53.83 92.4653 53.8933 92.2653 54.02C92.072 54.14 91.942 54.3367 91.8753 54.61H90.8153C90.8686 54.09 91.092 53.68 91.4853 53.38C91.8853 53.0733 92.3886 52.92 92.9953 52.92C93.7286 52.92 94.262 53.1 94.5953 53.46C94.9286 53.82 95.0953 54.3167 95.0953 54.95V58H94.1953L94.1053 57.27H94.0353C93.8886 57.5033 93.7053 57.7033 93.4853 57.87C93.2653 58.0367 92.9353 58.12 92.4953 58.12ZM92.6953 57.23C93.1286 57.23 93.452 57.1 93.6653 56.84C93.8853 56.5733 94.0053 56.2367 94.0253 55.83H92.8653C92.4853 55.83 92.2153 55.8933 92.0553 56.02C91.902 56.14 91.8253 56.31 91.8253 56.53C91.8253 56.75 91.902 56.9233 92.0553 57.05C92.2153 57.17 92.4286 57.23 92.6953 57.23ZM98.9814 58.12C98.3281 58.12 97.8081 57.9667 97.4214 57.66C97.0347 57.3533 96.8147 56.9467 96.7614 56.44H97.8514C97.8914 56.6733 98.0081 56.8633 98.2014 57.01C98.4014 57.1567 98.6647 57.23 98.9914 57.23C99.3047 57.23 99.5447 57.1667 99.7114 57.04C99.8847 56.9067 99.9714 56.7533 99.9714 56.58C99.9714 56.3267 99.8681 56.1533 99.6614 56.06C99.4614 55.9667 99.1647 55.8967 98.7714 55.85C98.4314 55.81 98.1214 55.7333 97.8414 55.62C97.5681 55.5 97.3514 55.34 97.1914 55.14C97.0314 54.9333 96.9514 54.6767 96.9514 54.37C96.9514 53.9367 97.1214 53.5867 97.4614 53.32C97.8014 53.0533 98.2747 52.92 98.8814 52.92C99.4881 52.92 99.9581 53.0567 100.291 53.33C100.625 53.6033 100.818 53.9767 100.871 54.45H99.8514C99.8247 54.25 99.7214 54.0933 99.5414 53.98C99.3614 53.86 99.1381 53.8 98.8714 53.8C98.5981 53.8 98.3814 53.8533 98.2214 53.96C98.0614 54.06 97.9814 54.1933 97.9814 54.36C97.9814 54.72 98.3681 54.94 99.1414 55.02C99.5081 55.06 99.8347 55.13 100.121 55.23C100.408 55.3233 100.635 55.4733 100.801 55.68C100.968 55.88 101.051 56.1633 101.051 56.53C101.058 56.83 100.971 57.1 100.791 57.34C100.618 57.58 100.375 57.77 100.061 57.91C99.7547 58.05 99.3947 58.12 98.9814 58.12ZM104.978 58.12C104.324 58.12 103.804 57.9667 103.418 57.66C103.031 57.3533 102.811 56.9467 102.758 56.44H103.848C103.888 56.6733 104.004 56.8633 104.198 57.01C104.398 57.1567 104.661 57.23 104.988 57.23C105.301 57.23 105.541 57.1667 105.708 57.04C105.881 56.9067 105.968 56.7533 105.968 56.58C105.968 56.3267 105.864 56.1533 105.658 56.06C105.458 55.9667 105.161 55.8967 104.768 55.85C104.428 55.81 104.118 55.7333 103.838 55.62C103.564 55.5 103.348 55.34 103.188 55.14C103.028 54.9333 102.948 54.6767 102.948 54.37C102.948 53.9367 103.118 53.5867 103.458 53.32C103.798 53.0533 104.271 52.92 104.877 52.92C105.484 52.92 105.954 53.0567 106.288 53.33C106.621 53.6033 106.814 53.9767 106.868 54.45H105.848C105.821 54.25 105.718 54.0933 105.538 53.98C105.358 53.86 105.134 53.8 104.868 53.8C104.594 53.8 104.378 53.8533 104.218 53.96C104.058 54.06 103.978 54.1933 103.978 54.36C103.978 54.72 104.364 54.94 105.138 55.02C105.504 55.06 105.831 55.13 106.118 55.23C106.404 55.3233 106.631 55.4733 106.798 55.68C106.964 55.88 107.048 56.1633 107.048 56.53C107.054 56.83 106.968 57.1 106.788 57.34C106.614 57.58 106.371 57.77 106.058 57.91C105.751 58.05 105.391 58.12 104.978 58.12ZM110.994 58.12C110.514 58.12 110.09 58.0133 109.724 57.8C109.357 57.58 109.07 57.2767 108.864 56.89C108.657 56.5033 108.554 56.0533 108.554 55.54C108.554 55.02 108.654 54.5633 108.854 54.17C109.06 53.7767 109.347 53.47 109.714 53.25C110.087 53.03 110.517 52.92 111.004 52.92C111.484 52.92 111.897 53.03 112.244 53.25C112.59 53.4633 112.857 53.75 113.044 54.11C113.237 54.47 113.334 54.8667 113.334 55.3C113.334 55.3667 113.334 55.44 113.334 55.52C113.334 55.5933 113.33 55.6767 113.324 55.77H109.594C109.627 56.23 109.777 56.58 110.044 56.82C110.31 57.0533 110.624 57.17 110.984 57.17C111.297 57.17 111.544 57.1067 111.724 56.98C111.91 56.8467 112.047 56.6667 112.134 56.44H113.204C113.084 56.9133 112.834 57.3133 112.454 57.64C112.074 57.96 111.587 58.12 110.994 58.12ZM110.994 53.84C110.667 53.84 110.377 53.94 110.124 54.14C109.87 54.3333 109.707 54.6067 109.634 54.96H112.274C112.247 54.6267 112.117 54.3567 111.884 54.15C111.65 53.9433 111.354 53.84 110.994 53.84ZM114.18 58V53.04H115.06L115.15 53.62H115.2C115.286 53.4133 115.42 53.2467 115.6 53.12C115.78 52.9867 115.993 52.92 116.24 52.92C116.48 52.92 116.69 52.98 116.87 53.1C117.05 53.22 117.183 53.3933 117.27 53.62H117.31C117.396 53.42 117.533 53.2533 117.72 53.12C117.906 52.9867 118.136 52.92 118.41 52.92C118.776 52.92 119.053 53.04 119.24 53.28C119.433 53.52 119.53 53.8567 119.53 54.29V58H118.51V54.5C118.51 54.3 118.466 54.1433 118.38 54.03C118.3 53.91 118.17 53.85 117.99 53.85C117.81 53.85 117.66 53.92 117.54 54.06C117.426 54.2 117.37 54.3967 117.37 54.65V58H116.34V54.5C116.34 54.3 116.3 54.1433 116.22 54.03C116.14 53.91 116.01 53.85 115.83 53.85C115.65 53.85 115.5 53.92 115.38 54.06C115.26 54.2 115.2 54.3967 115.2 54.65V58H114.18ZM123.196 58.12C122.829 58.12 122.519 58.0467 122.266 57.9C122.019 57.7467 121.829 57.5367 121.696 57.27H121.636L121.546 58H120.636V50.8H121.696V53.68C121.816 53.48 122.006 53.3033 122.266 53.15C122.526 52.9967 122.836 52.92 123.196 52.92C123.609 52.92 123.979 53.02 124.306 53.22C124.632 53.4133 124.889 53.7033 125.076 54.09C125.269 54.4767 125.366 54.9533 125.366 55.52C125.366 56.0867 125.269 56.5633 125.076 56.95C124.889 57.3367 124.632 57.63 124.306 57.83C123.979 58.0233 123.609 58.12 123.196 58.12ZM122.976 57.11C123.356 57.11 123.669 56.98 123.916 56.72C124.169 56.4533 124.296 56.0567 124.296 55.53C124.296 54.9967 124.169 54.5967 123.916 54.33C123.669 54.0633 123.356 53.93 122.976 53.93C122.596 53.93 122.279 54.0633 122.026 54.33C121.779 54.59 121.656 54.9867 121.656 55.52C121.656 56.0467 121.779 56.4433 122.026 56.71C122.279 56.9767 122.596 57.11 122.976 57.11ZM126.602 58V57.08H128.262V52.05C128.262 51.83 128.155 51.72 127.942 51.72H126.742V50.8H128.132C128.519 50.8 128.812 50.9033 129.012 51.11C129.219 51.31 129.322 51.6033 129.322 51.99V57.08H130.992V58H126.602ZM134.978 58.12C134.498 58.12 134.075 58.0133 133.708 57.8C133.341 57.58 133.055 57.2767 132.848 56.89C132.641 56.5033 132.538 56.0533 132.538 55.54C132.538 55.02 132.638 54.5633 132.838 54.17C133.045 53.7767 133.331 53.47 133.698 53.25C134.071 53.03 134.501 52.92 134.988 52.92C135.468 52.92 135.881 53.03 136.228 53.25C136.575 53.4633 136.841 53.75 137.028 54.11C137.221 54.47 137.318 54.8667 137.318 55.3C137.318 55.3667 137.318 55.44 137.318 55.52C137.318 55.5933 137.315 55.6767 137.308 55.77H133.578C133.611 56.23 133.761 56.58 134.028 56.82C134.295 57.0533 134.608 57.17 134.968 57.17C135.281 57.17 135.528 57.1067 135.708 56.98C135.895 56.8467 136.031 56.6667 136.118 56.44H137.188C137.068 56.9133 136.818 57.3133 136.438 57.64C136.058 57.96 135.571 58.12 134.978 58.12ZM134.978 53.84C134.651 53.84 134.361 53.94 134.108 54.14C133.855 54.3333 133.691 54.6067 133.618 54.96H136.258C136.231 54.6267 136.101 54.3567 135.868 54.15C135.635 53.9433 135.338 53.84 134.978 53.84ZM141.264 59.85C140.911 59.45 140.587 59.01 140.294 58.53C140.007 58.0567 139.777 57.52 139.604 56.92C139.437 56.32 139.354 55.6367 139.354 54.87C139.354 54.0967 139.437 53.4133 139.604 52.82C139.777 52.22 140.007 51.6833 140.294 51.21C140.587 50.73 140.911 50.29 141.264 49.89H142.344V50.02C141.957 50.4667 141.621 50.93 141.334 51.41C141.047 51.8833 140.824 52.4033 140.664 52.97C140.504 53.53 140.424 54.1633 140.424 54.87C140.424 55.57 140.504 56.2033 140.664 56.77C140.824 57.3367 141.047 57.8567 141.334 58.33C141.621 58.81 141.957 59.2733 142.344 59.72V59.85H141.264ZM145.48 59.85V59.72C145.867 59.2733 146.203 58.81 146.49 58.33C146.777 57.8567 147 57.3367 147.16 56.77C147.32 56.2033 147.4 55.57 147.4 54.87C147.4 54.1633 147.32 53.53 147.16 52.97C147 52.4033 146.777 51.8833 146.49 51.41C146.203 50.93 145.867 50.4667 145.48 50.02V49.89H146.56C146.913 50.29 147.233 50.73 147.52 51.21C147.813 51.6833 148.043 52.22 148.21 52.82C148.383 53.4133 148.47 54.0967 148.47 54.87C148.47 55.6367 148.383 56.32 148.21 56.92C148.043 57.52 147.813 58.0567 147.52 58.53C147.233 59.01 146.913 59.45 146.56 59.85H145.48ZM7.05 72.85V71.92H7.91C8.17 71.92 8.36333 71.8567 8.49 71.73C8.62333 71.61 8.69 71.4167 8.69 71.15C8.69 70.9233 8.67333 70.72 8.64 70.54C8.60667 70.3533 8.57333 70.16 8.54 69.96C8.50667 69.76 8.49 69.5267 8.49 69.26C8.49 68.9067 8.56667 68.6133 8.72 68.38C8.87333 68.14 9.07333 67.98 9.32 67.9V67.84C9.07333 67.76 8.87333 67.6033 8.72 67.37C8.56667 67.13 8.49 66.8333 8.49 66.48C8.49 66.2133 8.50667 65.98 8.54 65.78C8.57333 65.58 8.60667 65.3867 8.64 65.2C8.67333 65.0133 8.69 64.81 8.69 64.59C8.69 64.3167 8.62333 64.12 8.49 64C8.36333 63.88 8.17 63.82 7.91 63.82H7.05V62.89H8.07C8.57 62.89 8.97 63.02 9.27 63.28C9.57 63.54 9.72 63.9267 9.72 64.44C9.72 64.6933 9.7 64.9233 9.66 65.13C9.62667 65.33 9.59 65.5367 9.55 65.75C9.51667 65.9567 9.5 66.2033 9.5 66.49C9.5 66.75 9.57333 66.9667 9.72 67.14C9.87333 67.3133 10.1267 67.4 10.48 67.4H10.93V68.34H10.48C10.1267 68.34 9.87333 68.4267 9.72 68.6C9.57333 68.7733 9.5 68.99 9.5 69.25C9.5 69.53 9.51667 69.7767 9.55 69.99C9.59 70.2033 9.62667 70.41 9.66 70.61C9.7 70.81 9.72 71.0367 9.72 71.29C9.72 71.81 9.57 72.2 9.27 72.46C8.97 72.72 8.57 72.85 8.07 72.85H7.05ZM21.0622 71.12C20.6022 71.12 20.1889 71.0133 19.8222 70.8C19.4622 70.5867 19.1789 70.2867 18.9722 69.9C18.7655 69.5067 18.6622 69.0467 18.6622 68.52C18.6622 67.9933 18.7655 67.5367 18.9722 67.15C19.1855 66.7633 19.4722 66.4633 19.8322 66.25C20.1922 66.03 20.6022 65.92 21.0622 65.92C21.6955 65.92 22.2055 66.08 22.5922 66.4C22.9855 66.7133 23.2355 67.1467 23.3422 67.7H22.2322C22.1655 67.46 22.0289 67.27 21.8222 67.13C21.6222 66.99 21.3655 66.92 21.0522 66.92C20.8255 66.92 20.6089 66.98 20.4022 67.1C20.2022 67.22 20.0389 67.4 19.9122 67.64C19.7922 67.8733 19.7322 68.1667 19.7322 68.52C19.7322 68.8667 19.7922 69.16 19.9122 69.4C20.0389 69.64 20.2022 69.8233 20.4022 69.95C20.6089 70.07 20.8255 70.13 21.0522 70.13C21.3722 70.13 21.6289 70.06 21.8222 69.92C22.0155 69.78 22.1522 69.5867 22.2322 69.34H23.3422C23.2089 69.8867 22.9489 70.32 22.5622 70.64C22.1755 70.96 21.6755 71.12 21.0622 71.12ZM26.5383 71.12C26.1449 71.12 25.8149 71.0533 25.5483 70.92C25.2816 70.78 25.0816 70.5967 24.9483 70.37C24.8149 70.1367 24.7483 69.8833 24.7483 69.61C24.7483 69.1233 24.9249 68.7433 25.2783 68.47C25.6383 68.1967 26.1449 68.06 26.7983 68.06H28.0783V67.95C28.0783 67.2033 27.7316 66.83 27.0383 66.83C26.7516 66.83 26.5083 66.8933 26.3083 67.02C26.1149 67.14 25.9849 67.3367 25.9183 67.61H24.8583C24.9116 67.09 25.1349 66.68 25.5283 66.38C25.9283 66.0733 26.4316 65.92 27.0383 65.92C27.7716 65.92 28.3049 66.1 28.6383 66.46C28.9716 66.82 29.1383 67.3167 29.1383 67.95V71H28.2383L28.1483 70.27H28.0783C27.9316 70.5033 27.7483 70.7033 27.5283 70.87C27.3083 71.0367 26.9783 71.12 26.5383 71.12ZM26.7383 70.23C27.1716 70.23 27.4949 70.1 27.7083 69.84C27.9283 69.5733 28.0483 69.2367 28.0683 68.83H26.9083C26.5283 68.83 26.2583 68.8933 26.0983 69.02C25.9449 69.14 25.8683 69.31 25.8683 69.53C25.8683 69.75 25.9449 69.9233 26.0983 70.05C26.2583 70.17 26.4716 70.23 26.7383 70.23ZM33.5244 71C33.0377 71 32.651 70.8833 32.3644 70.65C32.0777 70.41 31.9344 69.9867 31.9344 69.38V66.94H30.6844V66.04H31.4244C31.7644 66.04 31.9644 65.8733 32.0244 65.54L32.1744 64.74H32.9944V66.04H34.9544V66.94H32.9944V69.36C32.9944 69.62 33.051 69.8033 33.1644 69.91C33.2844 70.01 33.4877 70.06 33.7744 70.06H34.9344V71H33.5244ZM39.0505 71.12C38.5905 71.12 38.1771 71.0133 37.8105 70.8C37.4505 70.5867 37.1671 70.2867 36.9605 69.9C36.7538 69.5067 36.6505 69.0467 36.6505 68.52C36.6505 67.9933 36.7538 67.5367 36.9605 67.15C37.1738 66.7633 37.4605 66.4633 37.8205 66.25C38.1805 66.03 38.5905 65.92 39.0505 65.92C39.6838 65.92 40.1938 66.08 40.5805 66.4C40.9738 66.7133 41.2238 67.1467 41.3305 67.7H40.2205C40.1538 67.46 40.0171 67.27 39.8105 67.13C39.6105 66.99 39.3538 66.92 39.0405 66.92C38.8138 66.92 38.5971 66.98 38.3905 67.1C38.1905 67.22 38.0271 67.4 37.9005 67.64C37.7805 67.8733 37.7205 68.1667 37.7205 68.52C37.7205 68.8667 37.7805 69.16 37.9005 69.4C38.0271 69.64 38.1905 69.8233 38.3905 69.95C38.5971 70.07 38.8138 70.13 39.0405 70.13C39.3605 70.13 39.6171 70.06 39.8105 69.92C40.0038 69.78 40.1405 69.5867 40.2205 69.34H41.3305C41.1971 69.8867 40.9371 70.32 40.5505 70.64C40.1638 70.96 39.6638 71.12 39.0505 71.12ZM42.7066 71V63.8H43.7666V66.78C43.8999 66.5333 44.1132 66.33 44.4066 66.17C44.6999 66.0033 45.0299 65.92 45.3966 65.92C46.0099 65.92 46.4766 66.1067 46.7966 66.48C47.1166 66.8467 47.2766 67.3767 47.2766 68.07V71H46.2166V68.22C46.2166 67.8067 46.1166 67.4867 45.9166 67.26C45.7166 67.0333 45.4399 66.92 45.0866 66.92C44.7199 66.92 44.4066 67.0433 44.1466 67.29C43.8932 67.5367 43.7666 67.8933 43.7666 68.36V71H42.7066ZM57.3188 72.85C56.9654 72.45 56.6421 72.01 56.3488 71.53C56.0621 71.0567 55.8321 70.52 55.6588 69.92C55.4921 69.32 55.4088 68.6367 55.4088 67.87C55.4088 67.0967 55.4921 66.4133 55.6588 65.82C55.8321 65.22 56.0621 64.6833 56.3488 64.21C56.6421 63.73 56.9654 63.29 57.3188 62.89H58.3988V63.02C58.0121 63.4667 57.6754 63.93 57.3888 64.41C57.1021 64.8833 56.8788 65.4033 56.7188 65.97C56.5588 66.53 56.4788 67.1633 56.4788 67.87C56.4788 68.57 56.5588 69.2033 56.7188 69.77C56.8788 70.3367 57.1021 70.8567 57.3888 71.33C57.6754 71.81 58.0121 72.2733 58.3988 72.72V72.85H57.3188ZM63.0248 71.12C62.5448 71.12 62.1215 71.0133 61.7548 70.8C61.3882 70.58 61.1015 70.2767 60.8948 69.89C60.6882 69.5033 60.5848 69.0533 60.5848 68.54C60.5848 68.02 60.6848 67.5633 60.8848 67.17C61.0915 66.7767 61.3782 66.47 61.7448 66.25C62.1182 66.03 62.5482 65.92 63.0348 65.92C63.5148 65.92 63.9282 66.03 64.2748 66.25C64.6215 66.4633 64.8882 66.75 65.0748 67.11C65.2682 67.47 65.3648 67.8667 65.3648 68.3C65.3648 68.3667 65.3648 68.44 65.3648 68.52C65.3648 68.5933 65.3615 68.6767 65.3548 68.77H61.6248C61.6582 69.23 61.8082 69.58 62.0748 69.82C62.3415 70.0533 62.6548 70.17 63.0148 70.17C63.3282 70.17 63.5748 70.1067 63.7548 69.98C63.9415 69.8467 64.0782 69.6667 64.1648 69.44H65.2348C65.1148 69.9133 64.8648 70.3133 64.4848 70.64C64.1048 70.96 63.6182 71.12 63.0248 71.12ZM63.0248 66.84C62.6982 66.84 62.4082 66.94 62.1548 67.14C61.9015 67.3333 61.7382 67.6067 61.6648 67.96H64.3048C64.2782 67.6267 64.1482 67.3567 63.9148 67.15C63.6815 66.9433 63.3848 66.84 63.0248 66.84ZM66.7309 71V70.08H67.9409V67.29C67.9409 67.07 67.8343 66.96 67.6209 66.96H66.8309V66.04H68.0209C68.2943 66.04 68.5176 66.12 68.6909 66.28C68.8643 66.4333 68.9509 66.65 68.9509 66.93V67.05H69.0009C69.0743 66.6767 69.2309 66.3967 69.4709 66.21C69.7176 66.0167 70.0743 65.92 70.5409 65.92H71.3109V67.04H70.2309C69.8376 67.04 69.5343 67.1767 69.3209 67.45C69.1076 67.7233 69.0009 68.05 69.0009 68.43V70.08H70.5409V71H66.7309ZM72.727 71V70.08H73.937V67.29C73.937 67.07 73.8304 66.96 73.617 66.96H72.827V66.04H74.017C74.2904 66.04 74.5137 66.12 74.687 66.28C74.8604 66.4333 74.947 66.65 74.947 66.93V67.05H74.997C75.0704 66.6767 75.227 66.3967 75.467 66.21C75.7137 66.0167 76.0704 65.92 76.537 65.92H77.307V67.04H76.227C75.8337 67.04 75.5304 67.1767 75.317 67.45C75.1037 67.7233 74.997 68.05 74.997 68.43V70.08H76.537V71H72.727ZM79.5231 72.85V72.72C79.9098 72.2733 80.2465 71.81 80.5331 71.33C80.8198 70.8567 81.0431 70.3367 81.2031 69.77C81.3631 69.2033 81.4431 68.57 81.4431 67.87C81.4431 67.1633 81.3631 66.53 81.2031 65.97C81.0431 65.4033 80.8198 64.8833 80.5331 64.41C80.2465 63.93 79.9098 63.4667 79.5231 63.02V62.89H80.6031C80.9565 63.29 81.2765 63.73 81.5631 64.21C81.8565 64.6833 82.0865 65.22 82.2531 65.82C82.4265 66.4133 82.5131 67.0967 82.5131 67.87C82.5131 68.6367 82.4265 69.32 82.2531 69.92C82.0865 70.52 81.8565 71.0567 81.5631 71.53C81.2765 72.01 80.9565 72.45 80.6031 72.85H79.5231ZM93.8753 72.85C93.3753 72.85 92.9753 72.72 92.6753 72.46C92.3753 72.2 92.2253 71.81 92.2253 71.29C92.2253 71.0367 92.242 70.81 92.2753 70.61C92.3153 70.41 92.352 70.2033 92.3853 69.99C92.4253 69.7767 92.4453 69.53 92.4453 69.25C92.4453 68.99 92.3686 68.7733 92.2153 68.6C92.0686 68.4267 91.8186 68.34 91.4653 68.34H91.0153V67.4H91.4653C91.8186 67.4 92.0686 67.3133 92.2153 67.14C92.3686 66.9667 92.4453 66.75 92.4453 66.49C92.4453 66.2033 92.4253 65.9567 92.3853 65.75C92.352 65.5367 92.3153 65.33 92.2753 65.13C92.242 64.9233 92.2253 64.6933 92.2253 64.44C92.2253 63.9267 92.3753 63.54 92.6753 63.28C92.9753 63.02 93.3753 62.89 93.8753 62.89H94.8953V63.82H94.0353C93.7753 63.82 93.5786 63.88 93.4453 64C93.3186 64.12 93.2553 64.3167 93.2553 64.59C93.2553 64.81 93.272 65.0133 93.3053 65.2C93.3386 65.3867 93.372 65.58 93.4053 65.78C93.4386 65.98 93.4553 66.2133 93.4553 66.48C93.4553 66.8333 93.3786 67.13 93.2253 67.37C93.0786 67.6033 92.8786 67.76 92.6253 67.84V67.9C92.8786 67.98 93.0786 68.14 93.2253 68.38C93.3786 68.6133 93.4553 68.9067 93.4553 69.26C93.4553 69.5267 93.4386 69.76 93.4053 69.96C93.372 70.16 93.3386 70.3533 93.3053 70.54C93.272 70.72 93.2553 70.9233 93.2553 71.15C93.2553 71.4167 93.3186 71.61 93.4453 71.73C93.5786 71.8567 93.7753 71.92 94.0353 71.92H94.8953V72.85H93.8753ZM7.05 98.85V97.92H7.91C8.17 97.92 8.36333 97.8567 8.49 97.73C8.62333 97.61 8.69 97.4167 8.69 97.15C8.69 96.9233 8.67333 96.72 8.64 96.54C8.60667 96.3533 8.57333 96.16 8.54 95.96C8.50667 95.76 8.49 95.5267 8.49 95.26C8.49 94.9067 8.56667 94.6133 8.72 94.38C8.87333 94.14 9.07333 93.98 9.32 93.9V93.84C9.07333 93.76 8.87333 93.6033 8.72 93.37C8.56667 93.13 8.49 92.8333 8.49 92.48C8.49 92.2133 8.50667 91.98 8.54 91.78C8.57333 91.58 8.60667 91.3867 8.64 91.2C8.67333 91.0133 8.69 90.81 8.69 90.59C8.69 90.3167 8.62333 90.12 8.49 90C8.36333 89.88 8.17 89.82 7.91 89.82H7.05V88.89H8.07C8.57 88.89 8.97 89.02 9.27 89.28C9.57 89.54 9.72 89.9267 9.72 90.44C9.72 90.6933 9.7 90.9233 9.66 91.13C9.62667 91.33 9.59 91.5367 9.55 91.75C9.51667 91.9567 9.5 92.2033 9.5 92.49C9.5 92.75 9.57333 92.9667 9.72 93.14C9.87333 93.3133 10.1267 93.4 10.48 93.4H10.93V94.34H10.48C10.1267 94.34 9.87333 94.4267 9.72 94.6C9.57333 94.7733 9.5 94.99 9.5 95.25C9.5 95.53 9.51667 95.7767 9.55 95.99C9.59 96.2033 9.62667 96.41 9.66 96.61C9.7 96.81 9.72 97.0367 9.72 97.29C9.72 97.81 9.57 98.2 9.27 98.46C8.97 98.72 8.57 98.85 8.07 98.85H7.05Z" fill="white"/>
<path d="M18.7222 84.9L22.1822 76.4H23.2622L19.7922 84.9H18.7222ZM26.4583 82.99L26.7183 80.96L25.0583 82.13L24.5983 81.29L26.4383 80.5L24.5983 79.71L25.0583 78.87L26.7183 80.04L26.4583 78.01H27.5283L27.2683 80.04L28.9283 78.87L29.3883 79.71L27.5383 80.5L29.3883 81.29L28.9283 82.13L27.2683 80.96L27.5283 82.99H26.4583ZM38.4505 84V77.95H36.5705V77H41.3905V77.95H39.5105V84H38.4505ZM44.9766 84.12C44.4099 84.12 43.9199 83.9733 43.5066 83.68C43.0932 83.3867 42.7766 82.97 42.5566 82.43C42.3366 81.89 42.2266 81.2467 42.2266 80.5C42.2266 79.7533 42.3366 79.11 42.5566 78.57C42.7766 78.03 43.0932 77.6133 43.5066 77.32C43.9199 77.0267 44.4099 76.88 44.9766 76.88C45.5499 76.88 46.0399 77.0267 46.4466 77.32C46.8599 77.6133 47.1766 78.03 47.3966 78.57C47.6166 79.11 47.7266 79.7533 47.7266 80.5C47.7266 81.2467 47.6166 81.89 47.3966 82.43C47.1766 82.97 46.8599 83.3867 46.4466 83.68C46.0399 83.9733 45.5499 84.12 44.9766 84.12ZM44.9766 83.12C45.4766 83.12 45.8799 82.8967 46.1866 82.45C46.4932 81.9967 46.6466 81.3467 46.6466 80.5C46.6466 79.6533 46.4932 79.0067 46.1866 78.56C45.8799 78.1067 45.4766 77.88 44.9766 77.88C44.4699 77.88 44.0632 78.1067 43.7566 78.56C43.4566 79.0067 43.3066 79.6533 43.3066 80.5C43.3066 81.3467 43.4566 81.9967 43.7566 82.45C44.0632 82.8967 44.4699 83.12 44.9766 83.12ZM48.5427 84V77H50.2227C51.3493 77 52.186 77.3133 52.7327 77.94C53.2793 78.56 53.5527 79.4133 53.5527 80.5C53.5527 81.5867 53.2793 82.4433 52.7327 83.07C52.186 83.69 51.3493 84 50.2227 84H48.5427ZM49.6027 83.02H50.1827C50.996 83.02 51.5827 82.7933 51.9427 82.34C52.3027 81.88 52.4827 81.2667 52.4827 80.5C52.4827 79.7333 52.3027 79.1233 51.9427 78.67C51.5827 78.21 50.996 77.98 50.1827 77.98H49.6027V83.02ZM56.9688 84.12C56.4021 84.12 55.9121 83.9733 55.4988 83.68C55.0854 83.3867 54.7688 82.97 54.5488 82.43C54.3288 81.89 54.2188 81.2467 54.2188 80.5C54.2188 79.7533 54.3288 79.11 54.5488 78.57C54.7688 78.03 55.0854 77.6133 55.4988 77.32C55.9121 77.0267 56.4021 76.88 56.9688 76.88C57.5421 76.88 58.0321 77.0267 58.4388 77.32C58.8521 77.6133 59.1688 78.03 59.3888 78.57C59.6088 79.11 59.7188 79.7533 59.7188 80.5C59.7188 81.2467 59.6088 81.89 59.3888 82.43C59.1688 82.97 58.8521 83.3867 58.4388 83.68C58.0321 83.9733 57.5421 84.12 56.9688 84.12ZM56.9688 83.12C57.4688 83.12 57.8721 82.8967 58.1788 82.45C58.4854 81.9967 58.6388 81.3467 58.6388 80.5C58.6388 79.6533 58.4854 79.0067 58.1788 78.56C57.8721 78.1067 57.4688 77.88 56.9688 77.88C56.4621 77.88 56.0554 78.1067 55.7488 78.56C55.4488 79.0067 55.2988 79.6533 55.2988 80.5C55.2988 81.3467 55.4488 81.9967 55.7488 82.45C56.0554 82.8967 56.4621 83.12 56.9688 83.12ZM68.4309 82.99L68.6909 80.96L67.0309 82.13L66.5709 81.29L68.4109 80.5L66.5709 79.71L67.0309 78.87L68.6909 80.04L68.4309 78.01H69.5009L69.2409 80.04L70.9009 78.87L71.3609 79.71L69.5109 80.5L71.3609 81.29L70.9009 82.13L69.2409 80.96L69.5009 82.99H68.4309ZM72.687 84.9L76.147 76.4H77.227L73.757 84.9H72.687Z" fill="#80C565"/>
</svg>
