<svg width="180" height="169" viewBox="0 0 180 169" fill="none" xmlns="http://www.w3.org/2000/svg">
<ellipse cx="102.756" cy="93.1666" rx="77.2441" ry="72.9444" fill="#67B360"/>
<rect width="57.5308" height="10.2391" transform="matrix(0.979945 0.199269 -0.181281 0.983431 68.4702 99.6666)" fill="#ED3E3E"/>
<rect x="110.927" y="9.02783" width="59.1524" height="88.4722" fill="#F3F3F3"/>
<rect x="116.304" y="30.6945" width="12.5475" height="1.80556" fill="#004122"/>
<rect x="143.191" y="30.6945" width="12.5475" height="1.80556" fill="#004122"/>
<rect x="103.756" width="66.3224" height="14.4444" fill="#004122"/>
<rect x="118.097" y="36.1111" width="14.34" height="21.6667" fill="white"/>
<rect x="121.682" y="36.1111" width="10.755" height="14.4444" fill="#004122"/>
<rect x="127.059" y="37.9166" width="3.58499" height="3.61111" fill="white"/>
<rect x="141.399" y="36.1111" width="14.34" height="21.6667" fill="white"/>
<rect x="144.984" y="36.1111" width="10.755" height="14.4444" fill="#004122"/>
<rect x="150.361" y="37.9166" width="3.58499" height="3.61111" fill="white"/>
<path d="M123.56 71.368L136.918 82.4069L150.275 71.368H123.56Z" fill="white" stroke="#004122"/>
<rect x="119.889" y="102.917" width="39.4349" height="55.9722" fill="#ED3E3E"/>
<path d="M136.022 108.333L143.783 101.563H128.26L136.022 108.333Z" fill="white"/>
<rect width="38.4577" height="10.1752" transform="matrix(0.796326 -0.604868 0.599296 0.800528 96.5864 147.845)" fill="#ED3E3E"/>
<rect x="14.1733" y="79.4445" width="55.2756" height="17.3333" fill="#004122"/>
<path d="M21.2598 41.7778C21.2598 36.255 25.7369 31.7778 31.2598 31.7778H53.7794C59.3023 31.7778 63.7794 36.255 63.7794 41.7778V83.7778H21.2598V41.7778Z" fill="#004122"/>
<path d="M54.7756 58.4999C54.7756 65.0136 49.5969 70.2777 43.2284 70.2777C36.8599 70.2777 31.6812 65.0136 31.6812 58.4999C31.6812 51.9863 36.8599 46.7222 43.2284 46.7222C49.5969 46.7222 54.7756 51.9863 54.7756 58.4999Z" fill="#004122" stroke="white"/>
<rect x="36.8506" y="91" width="11.3386" height="24.5556" fill="#004122"/>
<path d="M9.92139 109.778H73.7009L58.819 169H25.5119L9.92139 109.778Z" fill="#004122"/>
<rect y="121.333" width="9.92126" height="44.7778" fill="#004122"/>
<rect x="73.7007" y="121.333" width="9.92126" height="44.7778" fill="#004122"/>
</svg>
