<svg width="164" height="198" viewBox="0 0 164 198" fill="none" xmlns="http://www.w3.org/2000/svg">
<ellipse cx="82.5" cy="104.5" rx="81.5" ry="83.5" fill="#B8C9D9"/>
<path d="M158 18C158 8.05888 149.941 0 140 0H79C69.0589 0 61 8.05888 61 18V52H140C149.941 52 158 43.9411 158 34V18Z" fill="#80C565"/>
<path d="M77.976 14.372C78.912 14.372 79.62 14.744 80.1 15.488C80.58 16.232 80.82 17.168 80.82 18.296C80.82 19.424 80.54 20.452 79.98 21.38C79.428 22.3 78.788 22.76 78.06 22.76C77.548 22.76 77.172 22.472 76.932 21.896C76.692 21.32 76.536 20.5 76.464 19.436C76.128 19.908 75.744 20.444 75.312 21.044C74.48 22.196 73.896 22.772 73.56 22.772C73.432 22.772 73.284 22.668 73.116 22.46C72.948 22.252 72.864 21.992 72.864 21.68C72.864 21.36 72.972 20.372 73.188 18.716C73.404 17.052 73.512 15.756 73.512 14.828C73.512 14.532 73.6 14.384 73.776 14.384C73.952 14.384 74.156 14.488 74.388 14.696C74.628 14.904 74.748 15.096 74.748 15.272C74.748 15.44 74.612 16.284 74.34 17.804C74.076 19.324 73.912 20.516 73.848 21.38C74.336 20.556 74.884 19.796 75.492 19.1C76.108 18.396 76.548 18.044 76.812 18.044C77.084 18.044 77.272 18.644 77.376 19.844C77.416 20.292 77.492 20.704 77.604 21.08C77.724 21.456 77.884 21.644 78.084 21.644C78.532 21.644 78.92 21.284 79.248 20.564C79.584 19.836 79.752 19.032 79.752 18.152C79.752 17.176 79.536 16.424 79.104 15.896C78.88 15.616 78.632 15.476 78.36 15.476C78.096 15.476 77.868 15.384 77.676 15.2C77.492 15.016 77.4 14.856 77.4 14.72C77.4 14.488 77.592 14.372 77.976 14.372ZM86.5467 18.86C86.5467 19.284 86.3147 19.632 85.8507 19.904C85.3947 20.168 84.8747 20.3 84.2907 20.3C83.7147 20.3 83.1907 20.236 82.7187 20.108C82.6067 20.46 82.5507 20.776 82.5507 21.056C82.5507 21.328 82.6347 21.54 82.8027 21.692C82.9787 21.844 83.2627 21.92 83.6547 21.92C84.0547 21.92 84.4627 21.852 84.8787 21.716C85.3027 21.572 85.5347 21.5 85.5747 21.5C85.7827 21.5 85.8867 21.58 85.8867 21.74C85.8867 21.956 85.6427 22.192 85.1547 22.448C84.6667 22.696 84.1907 22.82 83.7267 22.82C83.1027 22.82 82.5947 22.636 82.2027 22.268C81.8107 21.892 81.6147 21.42 81.6147 20.852C81.6147 20.284 81.7667 19.692 82.0707 19.076C82.3747 18.452 82.7667 17.928 83.2467 17.504C83.7267 17.08 84.2027 16.868 84.6747 16.868C85.1467 16.868 85.5747 17.092 85.9587 17.54C86.3507 17.988 86.5467 18.428 86.5467 18.86ZM84.7347 17.816C84.4387 17.816 84.1307 17.972 83.8107 18.284C83.4907 18.588 83.2187 18.968 82.9947 19.424C83.3147 19.496 83.6787 19.532 84.0867 19.532C84.4947 19.532 84.8507 19.468 85.1547 19.34C85.4587 19.204 85.6107 19.028 85.6107 18.812C85.6107 18.596 85.5107 18.376 85.3107 18.152C85.1187 17.928 84.9267 17.816 84.7347 17.816ZM89.5251 14.516C89.5251 16.02 89.2131 17.972 88.5891 20.372C88.1891 22.004 87.9091 22.82 87.7491 22.82C87.6371 22.82 87.5051 22.732 87.3531 22.556C87.2091 22.38 87.1371 22.244 87.1371 22.148C87.1371 22.052 87.2531 21.556 87.4851 20.66C87.7171 19.764 87.9491 18.664 88.1811 17.36C88.4131 16.048 88.5291 14.868 88.5291 13.82C88.5291 13.708 88.5451 13.628 88.5771 13.58C88.6091 13.532 88.6771 13.508 88.7811 13.508C88.8851 13.508 89.0331 13.624 89.2251 13.856C89.4251 14.08 89.5251 14.3 89.5251 14.516ZM92.0345 22.82C91.5705 22.82 91.1345 22.64 90.7265 22.28C90.3185 21.912 90.1145 21.48 90.1145 20.984C90.1145 20.48 90.2825 19.9 90.6185 19.244C90.9545 18.588 91.3865 18.028 91.9145 17.564C92.4505 17.1 92.9705 16.868 93.4745 16.868C93.8025 16.868 94.0905 17.016 94.3385 17.312C94.5865 17.608 94.7105 17.868 94.7105 18.092C94.7105 18.156 94.6905 18.212 94.6505 18.26C94.6105 18.3 94.5505 18.32 94.4705 18.32C94.3985 18.32 94.2665 18.248 94.0745 18.104C93.8825 17.96 93.7105 17.888 93.5585 17.888C93.1265 17.888 92.6225 18.268 92.0465 19.028C91.4705 19.788 91.1825 20.452 91.1825 21.02C91.1825 21.268 91.2585 21.464 91.4105 21.608C91.5705 21.752 91.8225 21.824 92.1665 21.824C92.5185 21.824 92.8385 21.784 93.1265 21.704C93.4225 21.616 93.6505 21.532 93.8105 21.452C93.9705 21.364 94.0945 21.32 94.1825 21.32C94.3345 21.32 94.4105 21.396 94.4105 21.548C94.4105 21.78 94.1305 22.052 93.5705 22.364C93.0185 22.668 92.5065 22.82 92.0345 22.82ZM99.0702 18.908C99.0702 18.636 99.0262 18.38 98.9382 18.14C98.8502 17.892 98.7222 17.712 98.5542 17.6C98.0022 17.752 97.5262 18.18 97.1262 18.884C96.7342 19.58 96.5382 20.236 96.5382 20.852C96.5382 21.468 96.6902 21.852 96.9942 22.004C97.5702 21.892 98.0582 21.5 98.4582 20.828C98.8662 20.148 99.0702 19.508 99.0702 18.908ZM95.9142 19.016C96.1942 18.392 96.5582 17.88 97.0062 17.48C97.4622 17.072 97.9262 16.868 98.3982 16.868C98.8782 16.868 99.2782 17.072 99.5982 17.48C99.9182 17.88 100.078 18.372 100.078 18.956C100.078 19.532 99.9382 20.124 99.6582 20.732C99.3782 21.332 98.9902 21.832 98.4942 22.232C98.0062 22.624 97.4862 22.82 96.9342 22.82C96.5262 22.82 96.1862 22.632 95.9142 22.256C95.6422 21.88 95.5062 21.404 95.5062 20.828C95.5062 20.244 95.6422 19.64 95.9142 19.016ZM108.648 16.868C108.888 16.868 109.1 17.036 109.284 17.372C109.476 17.7 109.572 18.076 109.572 18.5C109.572 18.916 109.496 19.46 109.344 20.132C109.2 20.804 109.004 21.42 108.756 21.98C108.508 22.54 108.264 22.82 108.024 22.82C107.856 22.82 107.772 22.712 107.772 22.496C107.772 22.272 107.908 21.732 108.18 20.876C108.46 20.012 108.6 19.328 108.6 18.824C108.6 18.312 108.52 18.056 108.36 18.056C108.16 18.056 107.928 18.232 107.664 18.584C107.408 18.936 107.132 19.36 106.836 19.856C106.54 20.352 106.38 20.62 106.356 20.66C106.332 20.692 106.3 20.74 106.26 20.804C106.228 20.868 106.188 20.936 106.14 21.008C106.1 21.08 105.988 21.296 105.804 21.656C105.628 22.016 105.472 22.3 105.336 22.508C105.2 22.708 105.08 22.808 104.976 22.808C104.88 22.808 104.772 22.744 104.652 22.616C104.532 22.488 104.472 22.368 104.472 22.256C104.472 22.144 104.544 21.912 104.688 21.56C105.104 20.52 105.312 19.552 105.312 18.656C105.312 18.488 105.276 18.348 105.204 18.236C105.132 18.116 105.052 18.056 104.964 18.056C104.876 18.056 104.784 18.096 104.688 18.176C104.592 18.248 104.472 18.384 104.328 18.584C104.184 18.776 104.056 18.96 103.944 19.136C103.832 19.312 103.66 19.588 103.428 19.964C103.204 20.332 103.032 20.608 102.912 20.792C102.8 20.968 102.668 21.176 102.516 21.416C102.364 21.648 102.244 21.828 102.156 21.956C102.076 22.084 101.984 22.224 101.88 22.376C101.664 22.672 101.504 22.82 101.4 22.82C101.304 22.82 101.176 22.732 101.016 22.556C100.856 22.372 100.776 22.236 100.776 22.148C100.776 22.052 100.792 21.936 100.824 21.8C100.856 21.664 100.888 21.532 100.92 21.404C100.96 21.276 101.016 21.088 101.088 20.84C101.168 20.584 101.256 20.288 101.352 19.952C101.456 19.608 101.532 19.14 101.58 18.548C101.636 17.948 101.676 17.512 101.7 17.24C101.724 16.96 101.792 16.82 101.904 16.82C102.08 16.82 102.252 16.912 102.42 17.096C102.596 17.28 102.684 17.464 102.684 17.648C102.684 18.352 102.42 19.512 101.892 21.128C102.788 19.448 103.352 18.452 103.584 18.14C103.816 17.828 104.016 17.576 104.184 17.384C104.496 17.04 104.812 16.868 105.132 16.868C105.324 16.868 105.552 17.036 105.816 17.372C106.088 17.7 106.224 18.032 106.224 18.368C106.224 18.704 106.176 19.12 106.08 19.616C107.024 17.784 107.88 16.868 108.648 16.868ZM115.223 18.86C115.223 19.284 114.991 19.632 114.527 19.904C114.071 20.168 113.551 20.3 112.967 20.3C112.391 20.3 111.867 20.236 111.395 20.108C111.283 20.46 111.227 20.776 111.227 21.056C111.227 21.328 111.311 21.54 111.479 21.692C111.655 21.844 111.939 21.92 112.331 21.92C112.731 21.92 113.139 21.852 113.555 21.716C113.979 21.572 114.211 21.5 114.251 21.5C114.459 21.5 114.563 21.58 114.563 21.74C114.563 21.956 114.319 22.192 113.831 22.448C113.343 22.696 112.867 22.82 112.403 22.82C111.779 22.82 111.271 22.636 110.879 22.268C110.487 21.892 110.291 21.42 110.291 20.852C110.291 20.284 110.443 19.692 110.747 19.076C111.051 18.452 111.443 17.928 111.923 17.504C112.403 17.08 112.879 16.868 113.351 16.868C113.823 16.868 114.251 17.092 114.635 17.54C115.027 17.988 115.223 18.428 115.223 18.86ZM113.411 17.816C113.115 17.816 112.807 17.972 112.487 18.284C112.167 18.588 111.895 18.968 111.671 19.424C111.991 19.496 112.355 19.532 112.763 19.532C113.171 19.532 113.527 19.468 113.831 19.34C114.135 19.204 114.287 19.028 114.287 18.812C114.287 18.596 114.187 18.376 113.987 18.152C113.795 17.928 113.603 17.816 113.411 17.816ZM121.997 21.62C121.997 21.772 122.085 21.848 122.261 21.848C122.565 21.848 122.933 21.764 123.365 21.596C123.805 21.42 124.049 21.332 124.097 21.332C124.241 21.332 124.313 21.408 124.313 21.56C124.313 21.792 124.073 22.06 123.593 22.364C123.121 22.668 122.689 22.82 122.297 22.82C121.913 22.82 121.593 22.716 121.337 22.508C121.081 22.292 120.953 22.072 120.953 21.848C120.953 21.624 121.001 21.34 121.097 20.996C121.193 20.644 121.329 20.184 121.505 19.616C121.689 19.04 121.833 18.564 121.937 18.188C121.561 18.276 121.309 18.32 121.181 18.32C121.053 18.32 120.925 18.256 120.797 18.128C120.677 17.992 120.617 17.864 120.617 17.744C120.617 17.552 121.137 17.368 122.177 17.192C122.321 16.528 122.393 15.94 122.393 15.428C122.393 15.188 122.473 15.068 122.633 15.068C122.769 15.068 122.937 15.156 123.137 15.332C123.337 15.5 123.437 15.692 123.437 15.908C123.437 16.124 123.369 16.504 123.233 17.048C123.689 17.008 124.053 16.988 124.325 16.988C124.805 16.988 125.045 17.092 125.045 17.3C125.045 17.42 124.913 17.52 124.649 17.6C124.393 17.68 123.849 17.804 123.017 17.972C122.849 18.604 122.637 19.328 122.381 20.144C122.125 20.952 121.997 21.444 121.997 21.62ZM128.918 18.908C128.918 18.636 128.874 18.38 128.786 18.14C128.698 17.892 128.57 17.712 128.402 17.6C127.85 17.752 127.374 18.18 126.974 18.884C126.582 19.58 126.386 20.236 126.386 20.852C126.386 21.468 126.538 21.852 126.842 22.004C127.418 21.892 127.906 21.5 128.306 20.828C128.714 20.148 128.918 19.508 128.918 18.908ZM125.762 19.016C126.042 18.392 126.406 17.88 126.854 17.48C127.31 17.072 127.774 16.868 128.246 16.868C128.726 16.868 129.126 17.072 129.446 17.48C129.766 17.88 129.926 18.372 129.926 18.956C129.926 19.532 129.786 20.124 129.506 20.732C129.226 21.332 128.838 21.832 128.342 22.232C127.854 22.624 127.334 22.82 126.782 22.82C126.374 22.82 126.034 22.632 125.762 22.256C125.49 21.88 125.354 21.404 125.354 20.828C125.354 20.244 125.49 19.64 125.762 19.016ZM136.892 21.62C136.892 21.772 136.98 21.848 137.156 21.848C137.46 21.848 137.828 21.764 138.26 21.596C138.7 21.42 138.944 21.332 138.992 21.332C139.136 21.332 139.208 21.408 139.208 21.56C139.208 21.792 138.968 22.06 138.488 22.364C138.016 22.668 137.584 22.82 137.192 22.82C136.808 22.82 136.488 22.716 136.232 22.508C135.976 22.292 135.848 22.072 135.848 21.848C135.848 21.624 135.896 21.34 135.992 20.996C136.088 20.644 136.224 20.184 136.4 19.616C136.584 19.04 136.728 18.564 136.832 18.188C136.456 18.276 136.204 18.32 136.076 18.32C135.948 18.32 135.82 18.256 135.692 18.128C135.572 17.992 135.512 17.864 135.512 17.744C135.512 17.552 136.032 17.368 137.072 17.192C137.216 16.528 137.288 15.94 137.288 15.428C137.288 15.188 137.368 15.068 137.528 15.068C137.664 15.068 137.832 15.156 138.032 15.332C138.232 15.5 138.332 15.692 138.332 15.908C138.332 16.124 138.264 16.504 138.128 17.048C138.584 17.008 138.948 16.988 139.22 16.988C139.7 16.988 139.94 17.092 139.94 17.3C139.94 17.42 139.808 17.52 139.544 17.6C139.288 17.68 138.744 17.804 137.912 17.972C137.744 18.604 137.532 19.328 137.276 20.144C137.02 20.952 136.892 21.444 136.892 21.62ZM141.604 13.976C141.604 13.664 141.7 13.508 141.892 13.508C142.044 13.508 142.204 13.628 142.372 13.868C142.548 14.108 142.636 14.34 142.636 14.564C142.636 15.084 142.504 15.972 142.24 17.228C141.984 18.476 141.648 19.724 141.232 20.972C142.032 19.524 142.7 18.48 143.236 17.84C143.78 17.192 144.244 16.868 144.628 16.868C144.836 16.868 145.076 17.048 145.348 17.408C145.628 17.768 145.768 18.128 145.768 18.488C145.768 18.848 145.668 19.388 145.468 20.108C144.972 21.916 144.504 22.82 144.064 22.82C143.888 22.82 143.8 22.7 143.8 22.46C143.8 22.22 143.896 21.816 144.088 21.248C144.512 20.008 144.724 19.172 144.724 18.74C144.724 18.596 144.688 18.476 144.616 18.38C144.544 18.284 144.456 18.236 144.352 18.236C144.248 18.236 144.12 18.292 143.968 18.404C143.816 18.516 143.632 18.712 143.416 18.992C143.144 19.352 142.86 19.756 142.564 20.204C142.276 20.652 142.1 20.924 142.036 21.02C141.98 21.108 141.876 21.272 141.724 21.512C141.58 21.752 141.472 21.932 141.4 22.052C141.328 22.164 141.24 22.288 141.136 22.424C140.952 22.688 140.812 22.82 140.716 22.82C140.62 22.82 140.492 22.732 140.332 22.556C140.172 22.372 140.092 22.22 140.092 22.1C140.092 21.972 140.136 21.736 140.224 21.392C140.624 19.856 140.876 18.804 140.98 18.236C141.396 16.156 141.604 14.736 141.604 13.976ZM151.41 18.86C151.41 19.284 151.178 19.632 150.714 19.904C150.258 20.168 149.738 20.3 149.154 20.3C148.578 20.3 148.054 20.236 147.582 20.108C147.47 20.46 147.414 20.776 147.414 21.056C147.414 21.328 147.498 21.54 147.666 21.692C147.842 21.844 148.126 21.92 148.518 21.92C148.918 21.92 149.326 21.852 149.742 21.716C150.166 21.572 150.398 21.5 150.438 21.5C150.646 21.5 150.75 21.58 150.75 21.74C150.75 21.956 150.506 22.192 150.018 22.448C149.53 22.696 149.054 22.82 148.59 22.82C147.966 22.82 147.458 22.636 147.066 22.268C146.674 21.892 146.478 21.42 146.478 20.852C146.478 20.284 146.63 19.692 146.934 19.076C147.238 18.452 147.63 17.928 148.11 17.504C148.59 17.08 149.066 16.868 149.538 16.868C150.01 16.868 150.438 17.092 150.822 17.54C151.214 17.988 151.41 18.428 151.41 18.86ZM149.598 17.816C149.302 17.816 148.994 17.972 148.674 18.284C148.354 18.588 148.082 18.968 147.858 19.424C148.178 19.496 148.542 19.532 148.95 19.532C149.358 19.532 149.714 19.468 150.018 19.34C150.322 19.204 150.474 19.028 150.474 18.812C150.474 18.596 150.374 18.376 150.174 18.152C149.982 17.928 149.79 17.816 149.598 17.816ZM70.212 43.452C70.556 43.892 70.84 44.112 71.064 44.112C71.288 44.112 71.476 43.992 71.628 43.752C71.78 43.512 71.928 43.132 72.072 42.612C72.216 42.1 72.352 41.572 72.48 41.028C72.608 40.484 72.772 39.764 72.972 38.868C73.18 37.972 73.38 37.168 73.572 36.456C73.692 36.064 73.808 35.868 73.92 35.868C74.056 35.868 74.196 35.956 74.34 36.132C74.484 36.3 74.556 36.484 74.556 36.684C74.556 36.868 74.432 37.428 74.184 38.364C73.936 39.292 73.716 40.128 73.524 40.872C73.332 41.616 73.144 42.344 72.96 43.056C72.616 44.312 71.992 44.94 71.088 44.94C70.688 44.94 70.3 44.772 69.924 44.436C69.54 44.1 69.348 43.812 69.348 43.572C69.348 43.468 69.392 43.344 69.48 43.2C69.56 43.064 69.636 42.996 69.708 42.996C69.796 42.996 69.888 43.052 69.984 43.164C70.08 43.284 70.156 43.38 70.212 43.452ZM74.064 34.164C74.064 34.004 74.128 33.852 74.256 33.708C74.384 33.564 74.516 33.492 74.652 33.492C74.788 33.492 74.944 33.656 75.12 33.984C75.304 34.304 75.396 34.572 75.396 34.788C75.396 34.868 75.36 34.94 75.288 35.004C75.216 35.068 75.144 35.1 75.072 35.1C74.88 35.1 74.664 34.984 74.424 34.752C74.184 34.52 74.064 34.324 74.064 34.164ZM79.6669 36.204C79.6989 36.076 79.7309 35.988 79.7629 35.94C79.7949 35.892 79.8629 35.868 79.9669 35.868C80.0789 35.868 80.2109 35.972 80.3629 36.18C80.5229 36.388 80.6029 36.588 80.6029 36.78C80.6029 36.884 80.4269 37.5 80.0749 38.628C79.7229 39.756 79.4509 40.652 79.2589 41.316C79.1629 41.652 79.0269 41.82 78.8509 41.82C78.7469 41.82 78.6589 41.776 78.5869 41.688C78.5149 41.6 78.4789 41.44 78.4789 41.208C78.4789 40.976 78.5709 40.556 78.7549 39.948C78.4189 40.492 78.0549 40.94 77.6629 41.292C77.2709 41.644 76.9109 41.82 76.5829 41.82C76.2629 41.82 75.9589 41.668 75.6709 41.364C75.3829 41.06 75.2389 40.748 75.2389 40.428C75.2389 39.668 75.4589 38.72 75.8989 37.584C76.3469 36.44 76.7189 35.868 77.0149 35.868C77.1589 35.868 77.2829 35.936 77.3869 36.072C77.4989 36.2 77.5549 36.348 77.5549 36.516C77.5549 36.588 77.4469 36.848 77.2309 37.296C77.0149 37.736 76.7989 38.256 76.5829 38.856C76.3669 39.448 76.2589 39.968 76.2589 40.416C76.2589 40.544 76.2989 40.652 76.3789 40.74C76.4589 40.82 76.5549 40.86 76.6669 40.86C76.9709 40.86 77.3309 40.592 77.7469 40.056C78.1709 39.52 78.5549 38.896 78.8989 38.184C79.2429 37.472 79.4989 36.812 79.6669 36.204ZM82.3722 39.732C83.1402 38.428 83.7642 37.46 84.2442 36.828C84.7322 36.188 85.1282 35.868 85.4322 35.868C85.7442 35.868 86.0362 36.032 86.3082 36.36C86.5882 36.688 86.7282 37.036 86.7282 37.404C86.7282 37.98 86.5962 38.684 86.3322 39.516C85.8522 41.052 85.4202 41.82 85.0362 41.82C84.8602 41.82 84.7722 41.7 84.7722 41.46C84.7722 41.292 84.8562 40.952 85.0242 40.44C85.2002 39.92 85.3602 39.412 85.5042 38.916C85.6562 38.412 85.7322 38.036 85.7322 37.788C85.7322 37.532 85.6922 37.344 85.6122 37.224C85.5402 37.104 85.4642 37.044 85.3842 37.044C85.3122 37.044 85.2362 37.068 85.1562 37.116C85.0762 37.164 84.9842 37.244 84.8802 37.356C84.7842 37.468 84.6922 37.58 84.6042 37.692C84.5162 37.796 84.4042 37.948 84.2682 38.148C84.1402 38.348 84.0322 38.52 83.9442 38.664C83.8562 38.8 83.7282 39 83.5602 39.264C83.3922 39.528 83.2642 39.728 83.1762 39.864C83.0882 40 82.9722 40.184 82.8282 40.416C82.6842 40.648 82.5682 40.828 82.4802 40.956C82.4002 41.084 82.3082 41.224 82.2042 41.376C82.0042 41.672 81.8442 41.82 81.7242 41.82C81.6122 41.82 81.4802 41.732 81.3282 41.556C81.1762 41.372 81.1002 41.212 81.1002 41.076C81.1002 41.036 81.1282 40.928 81.1842 40.752C81.3362 40.288 81.5042 39.716 81.6882 39.036C81.8722 38.348 81.9722 37.568 81.9882 36.696C82.0122 36.112 82.0962 35.82 82.2402 35.82C82.4162 35.82 82.5922 35.912 82.7682 36.096C82.9442 36.28 83.0322 36.484 83.0322 36.708C83.0322 36.924 82.9642 37.348 82.8282 37.98C82.7002 38.604 82.5482 39.188 82.3722 39.732ZM92.3467 38.58C92.3467 38.9 92.2067 39.264 91.9267 39.672C91.7107 40.16 91.4787 40.864 91.2307 41.784C90.9827 42.696 90.7747 43.348 90.6067 43.74C90.2707 44.556 89.7547 44.964 89.0587 44.964C88.4907 44.964 88.0107 44.808 87.6187 44.496C87.2347 44.192 87.0427 43.888 87.0427 43.584C87.0427 43.456 87.0827 43.328 87.1627 43.2C87.2347 43.072 87.3107 43.008 87.3907 43.008C87.4787 43.008 87.5747 43.068 87.6787 43.188C87.7827 43.308 87.8787 43.436 87.9667 43.572C88.0627 43.716 88.2027 43.848 88.3867 43.968C88.5787 44.088 88.7627 44.148 88.9387 44.148C89.1147 44.148 89.2467 44.12 89.3347 44.064C89.4227 44.016 89.5067 43.932 89.5867 43.812C89.6667 43.7 89.7347 43.584 89.7907 43.464C89.8467 43.352 89.9067 43.188 89.9707 42.972C90.0427 42.764 90.0987 42.584 90.1387 42.432C90.1787 42.28 90.2347 42.068 90.3067 41.796C90.3787 41.516 90.4387 41.292 90.4867 41.124C89.8627 41.588 89.3547 41.82 88.9627 41.82C88.5707 41.82 88.2307 41.664 87.9427 41.352C87.6547 41.032 87.5107 40.664 87.5107 40.248C87.5107 39.824 87.6667 39.264 87.9787 38.568C88.2987 37.872 88.7267 37.248 89.2627 36.696C89.7987 36.144 90.3227 35.868 90.8347 35.868C91.1627 35.868 91.4387 35.992 91.6627 36.24C92.0307 36.648 92.2147 37.228 92.2147 37.98C92.2147 38.076 92.2107 38.144 92.2027 38.184C92.2987 38.32 92.3467 38.452 92.3467 38.58ZM88.4827 40.368C88.4827 40.504 88.5267 40.616 88.6147 40.704C88.7027 40.784 88.8147 40.824 88.9507 40.824C89.3507 40.824 89.8227 40.588 90.3667 40.116C90.9107 39.636 91.2947 39.08 91.5187 38.448C91.4867 38.344 91.4587 38.184 91.4347 37.968C91.4107 37.752 91.3867 37.58 91.3627 37.452C91.3387 37.324 91.2867 37.196 91.2067 37.068C91.1267 36.932 91.0227 36.864 90.8947 36.864C90.5827 36.864 90.2307 37.088 89.8387 37.536C89.4467 37.984 89.1227 38.484 88.8667 39.036C88.6107 39.588 88.4827 40.032 88.4827 40.368ZM95.654 33.516C95.654 35.02 95.342 36.972 94.718 39.372C94.318 41.004 94.038 41.82 93.878 41.82C93.766 41.82 93.634 41.732 93.482 41.556C93.338 41.38 93.266 41.244 93.266 41.148C93.266 41.052 93.382 40.556 93.614 39.66C93.846 38.764 94.078 37.664 94.31 36.36C94.542 35.048 94.658 33.868 94.658 32.82C94.658 32.708 94.674 32.628 94.706 32.58C94.738 32.532 94.806 32.508 94.91 32.508C95.014 32.508 95.162 32.624 95.354 32.856C95.554 33.08 95.654 33.3 95.654 33.516ZM101.019 37.86C101.019 38.284 100.787 38.632 100.323 38.904C99.8674 39.168 99.3474 39.3 98.7634 39.3C98.1874 39.3 97.6634 39.236 97.1914 39.108C97.0794 39.46 97.0234 39.776 97.0234 40.056C97.0234 40.328 97.1074 40.54 97.2754 40.692C97.4514 40.844 97.7354 40.92 98.1274 40.92C98.5274 40.92 98.9354 40.852 99.3514 40.716C99.7754 40.572 100.007 40.5 100.047 40.5C100.255 40.5 100.359 40.58 100.359 40.74C100.359 40.956 100.115 41.192 99.6274 41.448C99.1394 41.696 98.6634 41.82 98.1994 41.82C97.5754 41.82 97.0674 41.636 96.6754 41.268C96.2834 40.892 96.0874 40.42 96.0874 39.852C96.0874 39.284 96.2394 38.692 96.5434 38.076C96.8474 37.452 97.2394 36.928 97.7194 36.504C98.1994 36.08 98.6754 35.868 99.1474 35.868C99.6194 35.868 100.047 36.092 100.431 36.54C100.823 36.988 101.019 37.428 101.019 37.86ZM99.2074 36.816C98.9114 36.816 98.6034 36.972 98.2834 37.284C97.9634 37.588 97.6914 37.968 97.4674 38.424C97.7874 38.496 98.1514 38.532 98.5594 38.532C98.9674 38.532 99.3234 38.468 99.6274 38.34C99.9314 38.204 100.083 38.028 100.083 37.812C100.083 37.596 99.9834 37.376 99.7834 37.152C99.5914 36.928 99.3994 36.816 99.2074 36.816ZM107.818 42.072C107.618 42.072 107.39 41.944 107.134 41.688C106.878 41.424 106.75 41.208 106.75 41.04C106.75 40.864 106.818 40.692 106.954 40.524C107.098 40.348 107.242 40.26 107.386 40.26C107.538 40.26 107.71 40.456 107.902 40.848C108.102 41.24 108.202 41.536 108.202 41.736C108.202 41.8 108.158 41.872 108.07 41.952C107.982 42.032 107.898 42.072 107.818 42.072ZM110.666 42.072C110.466 42.072 110.238 41.944 109.982 41.688C109.726 41.424 109.598 41.208 109.598 41.04C109.598 40.864 109.666 40.692 109.802 40.524C109.946 40.348 110.09 40.26 110.234 40.26C110.386 40.26 110.558 40.456 110.75 40.848C110.95 41.24 111.05 41.536 111.05 41.736C111.05 41.8 111.006 41.872 110.918 41.952C110.83 42.032 110.746 42.072 110.666 42.072ZM113.513 42.072C113.313 42.072 113.085 41.944 112.829 41.688C112.573 41.424 112.445 41.208 112.445 41.04C112.445 40.864 112.513 40.692 112.649 40.524C112.793 40.348 112.937 40.26 113.081 40.26C113.233 40.26 113.405 40.456 113.597 40.848C113.797 41.24 113.897 41.536 113.897 41.736C113.897 41.8 113.853 41.872 113.765 41.952C113.677 42.032 113.593 42.072 113.513 42.072Z" fill="#002B55"/>
<rect width="31.6497" height="8.40845" transform="matrix(-0.791942 -0.610597 -0.593552 0.804795 86.6587 166.325)" fill="#80C565"/>
<rect width="64.96" height="91.2" transform="matrix(-1 0 0 1 64.9599 60)" fill="#002B55"/>
<path d="M60.9999 83H15.9999V122C15.9999 133.046 24.9542 142 35.9999 142H50.9999C56.5228 142 60.9999 137.523 60.9999 132V83Z" fill="#F3F3F3"/>
<rect width="10.2694" height="1.5" transform="matrix(-1 0 0 1 60.2517 85.5)" fill="#002B55"/>
<rect width="10.2694" height="1.5" transform="matrix(-1 0 0 1 38.2459 85.5)" fill="#002B55"/>
<rect width="11.7365" height="18" transform="matrix(-1 0 0 1 58.7846 90)" fill="white"/>
<rect width="8.80235" height="12" transform="matrix(-1 0 0 1 55.8505 90)" fill="#002B55"/>
<rect width="2.93412" height="3" transform="matrix(-1 0 0 1 51.4493 91.5)" fill="white"/>
<rect width="11.7365" height="18" transform="matrix(-1 0 0 1 39.713 90)" fill="white"/>
<rect width="8.80235" height="12" transform="matrix(-1 0 0 1 36.7788 90)" fill="#002B55"/>
<rect width="2.93412" height="3" transform="matrix(-1 0 0 1 32.3776 91.5)" fill="white"/>
<path d="M54.0764 119.375L43.3805 128.347L32.6847 119.375H54.0764Z" fill="white" stroke="#002B55"/>
<rect width="32.2753" height="46.5" transform="matrix(-1 0 0 1 57.3176 145.5)" fill="#80C565"/>
<rect width="25" height="19" transform="matrix(-1 0 0 1 132 156)" fill="#002B55"/>
<rect x="82" y="162.722" width="4.72004" height="20" transform="rotate(-21.3942 82 162.722)" fill="#002B55"/>
<rect x="81" y="184" width="22" height="14" fill="#80C565"/>
<path d="M95.3766 189.579L90.4335 181.076L92.8324 180.078L95.3766 189.579Z" fill="#C4C4C4"/>
<rect x="86" y="189" width="4" height="2" fill="#002B55"/>
<rect x="91" y="194" width="4" height="2" fill="#002B55"/>
<rect x="97" y="187" width="3" height="2" fill="#F3F3F3"/>
<rect x="87" y="192" width="3" height="2" fill="#F3F3F3"/>
<path d="M87 101.5H99L105 149.5L93 138L79 149.5L87 101.5Z" fill="#002B55"/>
<path d="M86.5 41.5L93.5 49H99.5L95 61.5V105H90V61.5L86.5 41.5Z" fill="#002B55"/>
<rect x="89" y="106" width="8" height="3" fill="#C4C4C4"/>
<rect x="89" y="116" width="8" height="3" fill="#C4C4C4"/>
<rect x="88" y="121" width="10" height="5" fill="#C4C4C4"/>
<rect x="125" y="159" width="3" height="4" fill="#80C565"/>
<path d="M111.073 159.495L104.5 166L84.0733 152L84.0733 163.495" stroke="#002B55"/>
<path d="M59.5 193L71.5 187L94.8959 188.511" stroke="#C4C4C4"/>
<rect x="56" y="190" width="6" height="8" fill="#C4C4C4"/>
<rect width="31.6497" height="8.40845" transform="matrix(-0.791942 -0.610597 -0.593552 0.804795 76.3893 182.825)" fill="#80C565"/>
<rect x="55" y="190" width="8" height="1" fill="#002B55"/>
<rect x="55" y="190" width="8" height="1" fill="#002B55"/>
</svg>
