<svg width="172" height="143" viewBox="0 0 172 143" fill="none" xmlns="http://www.w3.org/2000/svg">
<ellipse cx="89.8222" cy="66.5261" rx="69.437" ry="62.7957" fill="#B8C9D9"/>
<rect x="88.4111" y="85.0565" width="83.0889" height="46.2522" fill="#002B55" stroke="#C4C4C4"/>
<rect width="51.5636" height="8.51828" transform="matrix(-0.982844 0.184437 0.195879 0.980628 91.3389 82.68)" fill="#80C565"/>
<rect width="53.1738" height="73.3935" transform="matrix(-1 0 0 1 53.1738 7.48914)" fill="#F3F3F3"/>
<rect width="11.2793" height="1.49783" transform="matrix(-1 0 0 1 48.3399 25.463)" fill="#002B55"/>
<rect width="11.2793" height="1.49783" transform="matrix(-1 0 0 1 24.1699 25.463)" fill="#002B55"/>
<rect width="59.6191" height="11.9826" transform="matrix(-1 0 0 1 59.6192 0)" fill="#002B55"/>
<rect width="12.8906" height="17.9739" transform="matrix(-1 0 0 1 46.7286 29.9565)" fill="white"/>
<rect width="9.66796" height="11.9826" transform="matrix(-1 0 0 1 43.5059 29.9565)" fill="#002B55"/>
<rect width="3.22265" height="2.99565" transform="matrix(-1 0 0 1 38.6719 31.4543)" fill="white"/>
<rect width="12.8906" height="17.9739" transform="matrix(-1 0 0 1 25.7812 29.9565)" fill="white"/>
<rect width="9.66796" height="11.9826" transform="matrix(-1 0 0 1 22.5586 29.9565)" fill="#002B55"/>
<rect width="3.22265" height="2.99565" transform="matrix(-1 0 0 1 17.7246 31.4543)" fill="white"/>
<path d="M41.5863 59.2897L29.8096 68.2712L18.033 59.2897H41.5863Z" fill="white" stroke="#002B55"/>
<rect width="35.4492" height="46.4326" transform="matrix(-1 0 0 1 45.1172 85.3761)" fill="#80C565"/>
<path d="M30.6153 89.8696L23.6381 84.2527H37.5926L30.6153 89.8696Z" fill="white"/>
<rect width="33.6193" height="8.70111" transform="matrix(-0.818861 -0.573991 -0.629995 0.7766 66.0645 122.647)" fill="#80C565"/>
<rect x="13.153" y="56.2674" width="32.2266" height="1.55435" fill="#002B55"/>
<rect x="56.0593" y="42.2783" width="68.8" height="43.5217" fill="#002B55"/>
<rect x="67.5259" y="28.6" width="31.8519" height="9.94783" fill="#002B55"/>
<path d="M140.148 55.9565L164.356 48.4957V83.3131L140.148 76.4739V55.9565Z" fill="#002B55"/>
<rect x="124.859" y="55.9565" width="31.8519" height="19.8957" fill="#002B55"/>
<path d="M87.2438 133.052H150.341L138.51 143H67.5259L87.2438 133.052Z" fill="#C4C4C4"/>
<rect x="71.8481" y="56.4565" width="30.8519" height="17.6522" stroke="white"/>
<path d="M92.6573 93.8099C92.5233 93.8099 92.4033 93.7789 92.2973 93.7169C92.1933 93.6549 92.1103 93.5659 92.0483 93.4499C91.9863 93.3319 91.9553 93.1919 91.9553 93.0299C91.9553 92.8679 91.9863 92.7289 92.0483 92.6129C92.1103 92.4949 92.1943 92.4049 92.3003 92.3429C92.4083 92.2809 92.5273 92.2499 92.6573 92.2499C92.8413 92.2499 92.9883 92.2959 93.0983 92.3879C93.2083 92.4799 93.2783 92.6029 93.3083 92.7569H93.0503C93.0263 92.6749 92.9803 92.6099 92.9123 92.5619C92.8443 92.5119 92.7583 92.4869 92.6543 92.4869C92.5783 92.4869 92.5063 92.5069 92.4383 92.5469C92.3703 92.5869 92.3153 92.6469 92.2733 92.7269C92.2313 92.8069 92.2103 92.9079 92.2103 93.0299C92.2103 93.1519 92.2313 93.2539 92.2733 93.3359C92.3153 93.4159 92.3703 93.4759 92.4383 93.5159C92.5063 93.5559 92.5783 93.5759 92.6543 93.5759C92.7643 93.5759 92.8513 93.5509 92.9153 93.5009C92.9813 93.4509 93.0263 93.3849 93.0503 93.3029H93.3083C93.2703 93.4609 93.1953 93.5849 93.0833 93.6749C92.9733 93.7649 92.8313 93.8099 92.6573 93.8099ZM94.4322 93.8099C94.2922 93.8099 94.1682 93.7779 94.0602 93.7139C93.9522 93.6499 93.8672 93.5599 93.8052 93.4439C93.7432 93.3259 93.7122 93.1879 93.7122 93.0299C93.7122 92.8719 93.7432 92.7349 93.8052 92.6189C93.8672 92.5009 93.9522 92.4099 94.0602 92.3459C94.1682 92.2819 94.2922 92.2499 94.4322 92.2499C94.5722 92.2499 94.6962 92.2819 94.8042 92.3459C94.9122 92.4099 94.9972 92.5009 95.0592 92.6189C95.1212 92.7349 95.1522 92.8719 95.1522 93.0299C95.1522 93.1879 95.1212 93.3259 95.0592 93.4439C94.9972 93.5599 94.9122 93.6499 94.8042 93.7139C94.6962 93.7779 94.5722 93.8099 94.4322 93.8099ZM94.4322 93.5699C94.5182 93.5699 94.5962 93.5509 94.6662 93.5129C94.7362 93.4749 94.7912 93.4159 94.8312 93.3359C94.8732 93.2559 94.8942 93.1539 94.8942 93.0299C94.8942 92.9059 94.8732 92.8039 94.8312 92.7239C94.7912 92.6439 94.7362 92.5849 94.6662 92.5469C94.5962 92.5089 94.5182 92.4899 94.4322 92.4899C94.3482 92.4899 94.2712 92.5089 94.2012 92.5469C94.1312 92.5849 94.0752 92.6439 94.0332 92.7239C93.9912 92.8039 93.9702 92.9059 93.9702 93.0299C93.9702 93.2159 94.0152 93.3529 94.1052 93.4409C94.1952 93.5269 94.3042 93.5699 94.4322 93.5699ZM95.595 93.7739V92.2859H95.805L95.832 92.5109H95.847C95.887 92.4389 95.95 92.3779 96.036 92.3279C96.122 92.2759 96.221 92.2499 96.333 92.2499C96.515 92.2499 96.651 92.3039 96.741 92.4119C96.833 92.5199 96.879 92.6759 96.879 92.8799V93.7739H96.627V92.9099C96.627 92.7779 96.598 92.6749 96.54 92.6009C96.482 92.5249 96.392 92.4869 96.27 92.4869C96.152 92.4869 96.052 92.5279 95.97 92.6099C95.888 92.6899 95.847 92.8059 95.847 92.9579V93.7739H95.595ZM98.0448 93.8099C97.8548 93.8099 97.7008 93.7659 97.5828 93.6779C97.4668 93.5879 97.4018 93.4649 97.3878 93.3089H97.6488C97.6608 93.3909 97.7008 93.4579 97.7688 93.5099C97.8388 93.5619 97.9328 93.5879 98.0508 93.5879C98.1628 93.5879 98.2458 93.5639 98.2998 93.5159C98.3558 93.4679 98.3838 93.4129 98.3838 93.3509C98.3838 93.2669 98.3508 93.2099 98.2848 93.1799C98.2188 93.1479 98.1198 93.1239 97.9878 93.1079C97.8298 93.0899 97.6988 93.0469 97.5948 92.9789C97.4908 92.9109 97.4388 92.8089 97.4388 92.6729C97.4388 92.5509 97.4898 92.4499 97.5918 92.3699C97.6938 92.2899 97.8328 92.2499 98.0088 92.2499C98.1828 92.2499 98.3198 92.2899 98.4198 92.3699C98.5198 92.4479 98.5768 92.5599 98.5908 92.7059H98.3418C98.3358 92.6339 98.3008 92.5769 98.2368 92.5349C98.1748 92.4909 98.0968 92.4689 98.0028 92.4689C97.9048 92.4689 97.8288 92.4879 97.7748 92.5259C97.7208 92.5619 97.6938 92.6099 97.6938 92.6699C97.6938 92.7299 97.7238 92.7799 97.7838 92.8199C97.8458 92.8579 97.9428 92.8829 98.0748 92.8949C98.1788 92.9069 98.2738 92.9269 98.3598 92.9549C98.4458 92.9829 98.5138 93.0269 98.5638 93.0869C98.6158 93.1469 98.6418 93.2309 98.6418 93.3389C98.6438 93.4289 98.6188 93.5099 98.5668 93.5819C98.5168 93.6519 98.4468 93.7079 98.3568 93.7499C98.2668 93.7899 98.1628 93.8099 98.0448 93.8099ZM99.9846 93.7739C99.8486 93.7739 99.7416 93.7409 99.6636 93.6749C99.5856 93.6089 99.5466 93.4899 99.5466 93.3179V92.5019H99.1686V92.2859H99.3936C99.4956 92.2859 99.5546 92.2359 99.5706 92.1359L99.6126 91.9049H99.7986V92.2859H100.393V92.5019H99.7986V93.3179C99.7986 93.4019 99.8176 93.4609 99.8556 93.4949C99.8956 93.5289 99.9636 93.5459 100.06 93.5459H100.393V93.7739H99.9846ZM103.279 93.7739L102.625 92.2859H102.913L103.426 93.4979L103.942 92.2859H104.227L103.57 93.7739H103.279ZM105.207 92.0219C105.147 92.0219 105.097 92.0019 105.057 91.9619C105.017 91.9219 104.997 91.8739 104.997 91.8179C104.997 91.7599 105.017 91.7119 105.057 91.6739C105.097 91.6339 105.147 91.6139 105.207 91.6139C105.265 91.6139 105.314 91.6339 105.354 91.6739C105.396 91.7119 105.417 91.7599 105.417 91.8179C105.417 91.8739 105.396 91.9219 105.354 91.9619C105.314 92.0019 105.265 92.0219 105.207 92.0219ZM104.625 93.7739V93.5579H105.099V92.5769C105.099 92.5269 105.074 92.5019 105.024 92.5019H104.676V92.2859H105.084C105.262 92.2859 105.351 92.3749 105.351 92.5529V93.5579H105.825V93.7739H104.625ZM106.376 93.7739V93.5579H106.757V92.5769C106.757 92.5269 106.733 92.5019 106.685 92.5019H106.415V92.2859H106.778C106.844 92.2859 106.897 92.3039 106.937 92.3399C106.977 92.3759 106.997 92.4289 106.997 92.4989V92.5619H107.009C107.033 92.4619 107.078 92.3849 107.144 92.3309C107.212 92.2769 107.306 92.2499 107.426 92.2499H107.699V92.5169H107.39C107.268 92.5169 107.174 92.5579 107.108 92.6399C107.042 92.7199 107.009 92.8229 107.009 92.9489V93.5579H107.477V93.7739H106.376ZM108.979 93.7739C108.843 93.7739 108.736 93.7409 108.658 93.6749C108.58 93.6089 108.541 93.4899 108.541 93.3179V92.5019H108.163V92.2859H108.388C108.49 92.2859 108.549 92.2359 108.565 92.1359L108.607 91.9049H108.793V92.2859H109.387V92.5019H108.793V93.3179C108.793 93.4019 108.812 93.4609 108.85 93.4949C108.89 93.5289 108.958 93.5459 109.054 93.5459H109.387V93.7739H108.979ZM110.517 93.8099C110.337 93.8099 110.201 93.7559 110.109 93.6479C110.017 93.5399 109.971 93.3839 109.971 93.1799V92.2859H110.223V93.1499C110.223 93.2819 110.252 93.3859 110.31 93.4619C110.37 93.5359 110.46 93.5729 110.58 93.5729C110.7 93.5729 110.801 93.5329 110.883 93.4529C110.965 93.3709 111.006 93.2539 111.006 93.1019V92.2859H111.258V93.7739H111.048L111.021 93.5489H111.006C110.966 93.6209 110.903 93.6829 110.817 93.7349C110.731 93.7849 110.631 93.8099 110.517 93.8099ZM112.294 93.8099C112.176 93.8099 112.078 93.7889 112 93.7469C111.922 93.7049 111.864 93.6499 111.826 93.5819C111.788 93.5119 111.769 93.4359 111.769 93.3539C111.769 93.2019 111.824 93.0869 111.934 93.0089C112.046 92.9289 112.195 92.8889 112.381 92.8889H112.789V92.8589C112.789 92.5989 112.67 92.4689 112.432 92.4689C112.336 92.4689 112.255 92.4899 112.189 92.5319C112.125 92.5739 112.084 92.6399 112.066 92.7299H111.808C111.818 92.6299 111.851 92.5439 111.907 92.4719C111.965 92.3999 112.039 92.3449 112.129 92.3069C112.219 92.2689 112.32 92.2499 112.432 92.2499C112.644 92.2499 112.798 92.3059 112.894 92.4179C112.992 92.5279 113.041 92.6749 113.041 92.8589V93.7739H112.825L112.804 93.5429H112.783C112.739 93.6149 112.68 93.6779 112.606 93.7319C112.534 93.7839 112.43 93.8099 112.294 93.8099ZM112.339 93.5879C112.435 93.5879 112.516 93.5649 112.582 93.5189C112.65 93.4729 112.701 93.4119 112.735 93.3359C112.771 93.2599 112.789 93.1769 112.789 93.0869H112.402C112.266 93.0869 112.17 93.1099 112.114 93.1559C112.06 93.2019 112.033 93.2629 112.033 93.3389C112.033 93.4169 112.059 93.4779 112.111 93.5219C112.163 93.5659 112.239 93.5879 112.339 93.5879ZM113.544 93.7739V93.5579H114.051V91.9049C114.051 91.8549 114.026 91.8299 113.976 91.8299H113.598V91.6139H114.036C114.122 91.6139 114.188 91.6369 114.234 91.6829C114.28 91.7289 114.303 91.7949 114.303 91.8809V93.5579H114.81V93.7739H113.544ZM115.34 93.7739V91.6739H116.039C116.199 91.6739 116.33 91.7029 116.432 91.7609C116.534 91.8189 116.609 91.8959 116.657 91.9919C116.705 92.0879 116.729 92.1939 116.729 92.3099C116.729 92.4259 116.705 92.5319 116.657 92.6279C116.609 92.7239 116.534 92.8009 116.432 92.8589C116.33 92.9169 116.199 92.9459 116.039 92.9459H115.592V93.7739H115.34ZM115.592 92.7149H116.033C116.181 92.7149 116.291 92.6779 116.363 92.6039C116.435 92.5279 116.471 92.4299 116.471 92.3099C116.471 92.1899 116.435 92.0919 116.363 92.0159C116.291 91.9399 116.181 91.9019 116.033 91.9019H115.592V92.7149ZM117.169 93.7739V93.5579H117.55V92.5769C117.55 92.5269 117.526 92.5019 117.478 92.5019H117.208V92.2859H117.571C117.637 92.2859 117.69 92.3039 117.73 92.3399C117.77 92.3759 117.79 92.4289 117.79 92.4989V92.5619H117.802C117.826 92.4619 117.871 92.3849 117.937 92.3309C118.005 92.2769 118.099 92.2499 118.219 92.2499H118.492V92.5169H118.183C118.061 92.5169 117.967 92.5579 117.901 92.6399C117.835 92.7199 117.802 92.8229 117.802 92.9489V93.5579H118.27V93.7739H117.169ZM119.616 93.8099C119.476 93.8099 119.352 93.7779 119.244 93.7139C119.136 93.6499 119.051 93.5599 118.989 93.4439C118.927 93.3259 118.896 93.1879 118.896 93.0299C118.896 92.8719 118.927 92.7349 118.989 92.6189C119.051 92.5009 119.136 92.4099 119.244 92.3459C119.352 92.2819 119.476 92.2499 119.616 92.2499C119.756 92.2499 119.88 92.2819 119.988 92.3459C120.096 92.4099 120.181 92.5009 120.243 92.6189C120.305 92.7349 120.336 92.8719 120.336 93.0299C120.336 93.1879 120.305 93.3259 120.243 93.4439C120.181 93.5599 120.096 93.6499 119.988 93.7139C119.88 93.7779 119.756 93.8099 119.616 93.8099ZM119.616 93.5699C119.702 93.5699 119.78 93.5509 119.85 93.5129C119.92 93.4749 119.975 93.4159 120.015 93.3359C120.057 93.2559 120.078 93.1539 120.078 93.0299C120.078 92.9059 120.057 92.8039 120.015 92.7239C119.975 92.6439 119.92 92.5849 119.85 92.5469C119.78 92.5089 119.702 92.4899 119.616 92.4899C119.532 92.4899 119.455 92.5089 119.385 92.5469C119.315 92.5849 119.259 92.6439 119.217 92.7239C119.175 92.8039 119.154 92.9059 119.154 93.0299C119.154 93.2159 119.199 93.3529 119.289 93.4409C119.379 93.5269 119.488 93.5699 119.616 93.5699ZM121.364 93.8099C121.238 93.8099 121.125 93.7799 121.025 93.7199C120.927 93.6599 120.85 93.5719 120.794 93.4559C120.738 93.3379 120.71 93.1949 120.71 93.0269C120.71 92.8609 120.738 92.7199 120.794 92.6039C120.85 92.4879 120.927 92.3999 121.025 92.3399C121.125 92.2799 121.238 92.2499 121.364 92.2499C121.482 92.2499 121.579 92.2729 121.655 92.3189C121.733 92.3649 121.791 92.4249 121.829 92.4989V91.6139H122.081V93.7739H121.874L121.847 93.5429H121.829C121.789 93.6249 121.73 93.6899 121.652 93.7379C121.574 93.7859 121.478 93.8099 121.364 93.8099ZM121.397 93.5699C121.523 93.5699 121.627 93.5259 121.709 93.4379C121.791 93.3479 121.832 93.2119 121.832 93.0299C121.832 92.8479 121.791 92.7129 121.709 92.6249C121.627 92.5349 121.523 92.4899 121.397 92.4899C121.271 92.4899 121.167 92.5349 121.085 92.6249C121.005 92.7129 120.965 92.8479 120.965 93.0299C120.965 93.2119 121.005 93.3479 121.085 93.4379C121.167 93.5259 121.271 93.5699 121.397 93.5699ZM123.108 93.8099C122.928 93.8099 122.792 93.7559 122.7 93.6479C122.608 93.5399 122.562 93.3839 122.562 93.1799V92.2859H122.814V93.1499C122.814 93.2819 122.843 93.3859 122.901 93.4619C122.961 93.5359 123.051 93.5729 123.171 93.5729C123.291 93.5729 123.392 93.5329 123.474 93.4529C123.556 93.3709 123.597 93.2539 123.597 93.1019V92.2859H123.849V93.7739H123.639L123.612 93.5489H123.597C123.557 93.6209 123.494 93.6829 123.408 93.7349C123.322 93.7849 123.222 93.8099 123.108 93.8099ZM125.036 93.8099C124.902 93.8099 124.782 93.7789 124.676 93.7169C124.572 93.6549 124.489 93.5659 124.427 93.4499C124.365 93.3319 124.334 93.1919 124.334 93.0299C124.334 92.8679 124.365 92.7289 124.427 92.6129C124.489 92.4949 124.573 92.4049 124.679 92.3429C124.787 92.2809 124.906 92.2499 125.036 92.2499C125.22 92.2499 125.367 92.2959 125.477 92.3879C125.587 92.4799 125.657 92.6029 125.687 92.7569H125.429C125.405 92.6749 125.359 92.6099 125.291 92.5619C125.223 92.5119 125.137 92.4869 125.033 92.4869C124.957 92.4869 124.885 92.5069 124.817 92.5469C124.749 92.5869 124.694 92.6469 124.652 92.7269C124.61 92.8069 124.589 92.9079 124.589 93.0299C124.589 93.1519 124.61 93.2539 124.652 93.3359C124.694 93.4159 124.749 93.4759 124.817 93.5159C124.885 93.5559 124.957 93.5759 125.033 93.5759C125.143 93.5759 125.23 93.5509 125.294 93.5009C125.36 93.4509 125.405 93.3849 125.429 93.3029H125.687C125.649 93.4609 125.574 93.5849 125.462 93.6749C125.352 93.7649 125.21 93.8099 125.036 93.8099ZM126.826 93.8099C126.686 93.8099 126.562 93.7779 126.454 93.7139C126.348 93.6479 126.264 93.5569 126.202 93.4409C126.14 93.3229 126.109 93.1859 126.109 93.0299C126.109 92.8739 126.139 92.7379 126.199 92.6219C126.261 92.5039 126.346 92.4129 126.454 92.3489C126.562 92.2829 126.688 92.2499 126.832 92.2499C126.976 92.2499 127.099 92.2829 127.201 92.3489C127.303 92.4129 127.381 92.4979 127.435 92.6039C127.489 92.7099 127.516 92.8239 127.516 92.9459C127.516 92.9679 127.515 92.9899 127.513 93.0119C127.513 93.0339 127.513 93.0589 127.513 93.0869H126.358C126.364 93.1969 126.389 93.2889 126.433 93.3629C126.479 93.4349 126.536 93.4889 126.604 93.5249C126.674 93.5609 126.748 93.5789 126.826 93.5789C126.936 93.5789 127.022 93.5559 127.084 93.5099C127.146 93.4639 127.193 93.3999 127.225 93.3179H127.474C127.44 93.4559 127.369 93.5729 127.261 93.6689C127.153 93.7629 127.008 93.8099 126.826 93.8099ZM126.826 92.4749C126.71 92.4749 126.608 92.5099 126.52 92.5799C126.434 92.6499 126.381 92.7479 126.361 92.8739H127.267C127.259 92.7499 127.214 92.6529 127.132 92.5829C127.052 92.5109 126.95 92.4749 126.826 92.4749ZM127.962 93.7739V93.5579H128.343V92.5769C128.343 92.5269 128.319 92.5019 128.271 92.5019H128.001V92.2859H128.364C128.43 92.2859 128.483 92.3039 128.523 92.3399C128.563 92.3759 128.583 92.4289 128.583 92.4989V92.5619H128.595C128.619 92.4619 128.664 92.3849 128.73 92.3309C128.798 92.2769 128.892 92.2499 129.012 92.2499H129.285V92.5169H128.976C128.854 92.5169 128.76 92.5579 128.694 92.6399C128.628 92.7199 128.595 92.8229 128.595 92.9489V93.5579H129.063V93.7739H127.962ZM131.533 92.4689V92.2409H132.883V92.4689H131.533ZM131.533 93.2069V92.9789H132.883V93.2069H131.533ZM135.949 94.3289C135.845 94.2129 135.748 94.0829 135.658 93.9389C135.57 93.7969 135.499 93.6359 135.445 93.4559C135.391 93.2739 135.364 93.0669 135.364 92.8349C135.364 92.6029 135.391 92.3969 135.445 92.2169C135.499 92.0349 135.57 91.8729 135.658 91.7309C135.748 91.5869 135.845 91.4569 135.949 91.3409H136.216V91.3679C136.096 91.4979 135.991 91.6369 135.901 91.7849C135.811 91.9309 135.741 92.0899 135.691 92.2619C135.641 92.4339 135.616 92.6249 135.616 92.8349C135.616 93.0449 135.641 93.2359 135.691 93.4079C135.741 93.5799 135.811 93.7389 135.901 93.8849C135.991 94.0329 136.096 94.1719 136.216 94.3019V94.3289H135.949ZM137.193 94.3289V94.3019C137.313 94.1719 137.418 94.0329 137.508 93.8849C137.598 93.7389 137.668 93.5799 137.718 93.4079C137.768 93.2359 137.793 93.0449 137.793 92.8349C137.793 92.6249 137.768 92.4339 137.718 92.2619C137.668 92.0899 137.598 91.9309 137.508 91.7849C137.418 91.6369 137.313 91.4979 137.193 91.3679V91.3409H137.46C137.564 91.4569 137.66 91.5869 137.748 91.7309C137.838 91.8729 137.91 92.0349 137.964 92.2169C138.018 92.3969 138.045 92.6029 138.045 92.8349C138.045 93.0669 138.018 93.2739 137.964 93.4559C137.91 93.6359 137.838 93.7969 137.748 93.9389C137.66 94.0829 137.564 94.2129 137.46 94.3289H137.193ZM140.527 92.4689V92.2409H141.877V92.4689H140.527ZM140.527 93.2069V92.9789H141.877V93.2069H140.527ZM142.446 93.5339L143.238 92.7329V92.7149L142.446 91.9199H142.785L143.583 92.7239L142.785 93.5339H142.446ZM146.874 94.3289C146.73 94.3289 146.615 94.2929 146.529 94.2209C146.445 94.1509 146.403 94.0379 146.403 93.8819C146.403 93.8059 146.408 93.7379 146.418 93.6779C146.43 93.6159 146.441 93.5499 146.451 93.4799C146.463 93.4099 146.469 93.3259 146.469 93.2279C146.469 93.1419 146.446 93.0739 146.4 93.0239C146.356 92.9719 146.283 92.9459 146.181 92.9459H146.04V92.7239H146.181C146.283 92.7239 146.356 92.6989 146.4 92.6489C146.446 92.5969 146.469 92.5279 146.469 92.4419C146.469 92.3419 146.463 92.2579 146.451 92.1899C146.441 92.1199 146.43 92.0549 146.418 91.9949C146.408 91.9329 146.403 91.8639 146.403 91.7879C146.403 91.6319 146.445 91.5189 146.529 91.4489C146.615 91.3769 146.73 91.3409 146.874 91.3409H147.162V91.5629H146.901C146.819 91.5629 146.756 91.5829 146.712 91.6229C146.668 91.6609 146.646 91.7249 146.646 91.8149C146.646 91.8949 146.651 91.9649 146.661 92.0249C146.673 92.0829 146.684 92.1429 146.694 92.2049C146.706 92.2649 146.712 92.3379 146.712 92.4239C146.712 92.5299 146.689 92.6179 146.643 92.6879C146.597 92.7559 146.537 92.8029 146.463 92.8289V92.8409C146.537 92.8669 146.597 92.9149 146.643 92.9849C146.689 93.0529 146.712 93.1399 146.712 93.2459C146.712 93.3319 146.706 93.4059 146.694 93.4679C146.684 93.5279 146.673 93.5879 146.661 93.6479C146.651 93.7059 146.646 93.7749 146.646 93.8549C146.646 93.9449 146.668 94.0089 146.712 94.0469C146.756 94.0869 146.819 94.1069 146.901 94.1069H147.162V94.3289H146.874ZM96.387 97.7739C96.251 97.7739 96.144 97.7409 96.066 97.6749C95.988 97.6089 95.949 97.4899 95.949 97.3179V96.5019H95.571V96.2859H95.796C95.898 96.2859 95.957 96.2359 95.973 96.1359L96.015 95.9049H96.201V96.2859H96.795V96.5019H96.201V97.3179C96.201 97.4019 96.22 97.4609 96.258 97.4949C96.298 97.5289 96.366 97.5459 96.462 97.5459H96.795V97.7739H96.387ZM97.3788 97.7739V95.6139H97.6308V96.5109C97.6708 96.4349 97.7368 96.3729 97.8288 96.3249C97.9208 96.2749 98.0218 96.2499 98.1318 96.2499C98.3138 96.2499 98.4518 96.3049 98.5458 96.4149C98.6418 96.5249 98.6898 96.6789 98.6898 96.8769V97.7739H98.4378V96.9099C98.4378 96.7759 98.4048 96.6719 98.3388 96.5979C98.2748 96.5239 98.1848 96.4869 98.0688 96.4869C97.9888 96.4869 97.9158 96.5049 97.8498 96.5409C97.7838 96.5769 97.7308 96.6299 97.6908 96.6999C97.6508 96.7699 97.6308 96.8559 97.6308 96.9579V97.7739H97.3788ZM99.8106 96.0219C99.7506 96.0219 99.7006 96.0019 99.6606 95.9619C99.6206 95.9219 99.6006 95.8739 99.6006 95.8179C99.6006 95.7599 99.6206 95.7119 99.6606 95.6739C99.7006 95.6339 99.7506 95.6139 99.8106 95.6139C99.8686 95.6139 99.9176 95.6339 99.9576 95.6739C99.9996 95.7119 100.021 95.7599 100.021 95.8179C100.021 95.8739 99.9996 95.9219 99.9576 95.9619C99.9176 96.0019 99.8686 96.0219 99.8106 96.0219ZM99.2286 97.7739V97.5579H99.7026V96.5769C99.7026 96.5269 99.6776 96.5019 99.6276 96.5019H99.2796V96.2859H99.6876C99.8656 96.2859 99.9546 96.3749 99.9546 96.5529V97.5579H100.429V97.7739H99.2286ZM100.991 97.7739V96.2859H101.201L101.228 96.5109H101.243C101.283 96.4389 101.346 96.3779 101.432 96.3279C101.518 96.2759 101.617 96.2499 101.729 96.2499C101.911 96.2499 102.047 96.3039 102.137 96.4119C102.229 96.5199 102.275 96.6759 102.275 96.8799V97.7739H102.023V96.9099C102.023 96.7779 101.994 96.6749 101.936 96.6009C101.878 96.5249 101.788 96.4869 101.666 96.4869C101.548 96.4869 101.448 96.5279 101.366 96.6099C101.284 96.6899 101.243 96.8059 101.243 96.9579V97.7739H100.991ZM103.399 97.3359C103.295 97.3359 103.202 97.3169 103.12 97.2789L103.018 97.4019C102.996 97.4319 102.99 97.4619 103 97.4919C103.012 97.5199 103.041 97.5339 103.087 97.5339H103.48C103.658 97.5339 103.802 97.5689 103.912 97.6389C104.022 97.7069 104.077 97.8159 104.077 97.9659C104.077 98.0559 104.054 98.1389 104.008 98.2149C103.962 98.2909 103.889 98.3519 103.789 98.3979C103.691 98.4459 103.562 98.4699 103.402 98.4699C103.194 98.4699 103.027 98.4309 102.901 98.3529C102.775 98.2749 102.712 98.1559 102.712 97.9959C102.712 97.9379 102.726 97.8839 102.754 97.8339C102.784 97.7859 102.821 97.7429 102.865 97.7049C102.807 97.6689 102.771 97.6149 102.757 97.5429C102.745 97.4709 102.767 97.3999 102.823 97.3299L102.958 97.1619C102.862 97.0619 102.814 96.9389 102.814 96.7929C102.814 96.6969 102.837 96.6079 102.883 96.5259C102.929 96.4419 102.995 96.3749 103.081 96.3249C103.169 96.2749 103.275 96.2499 103.399 96.2499C103.479 96.2499 103.553 96.2619 103.621 96.2859H104.179V96.4749L103.9 96.4839V96.5049C103.952 96.5909 103.978 96.6869 103.978 96.7929C103.978 96.8889 103.955 96.9789 103.909 97.0629C103.865 97.1449 103.799 97.2109 103.711 97.2609C103.625 97.3109 103.521 97.3359 103.399 97.3359ZM103.399 97.1199C103.497 97.1199 103.577 97.0909 103.639 97.0329C103.703 96.9749 103.735 96.8949 103.735 96.7929C103.735 96.6909 103.703 96.6119 103.639 96.5559C103.577 96.4979 103.497 96.4689 103.399 96.4689C103.299 96.4689 103.217 96.4979 103.153 96.5559C103.089 96.6119 103.057 96.6909 103.057 96.7929C103.057 96.8949 103.089 96.9749 103.153 97.0329C103.217 97.0909 103.299 97.1199 103.399 97.1199ZM102.961 97.9869C102.961 98.0749 103.002 98.1409 103.084 98.1849C103.166 98.2289 103.272 98.2509 103.402 98.2509C103.528 98.2509 103.63 98.2259 103.708 98.1759C103.788 98.1259 103.828 98.0589 103.828 97.9749C103.828 97.9089 103.8 97.8529 103.744 97.8069C103.688 97.7629 103.585 97.7409 103.435 97.7409H103.096C103.006 97.8069 102.961 97.8889 102.961 97.9869ZM105.24 97.8099C105.05 97.8099 104.896 97.7659 104.778 97.6779C104.662 97.5879 104.597 97.4649 104.583 97.3089H104.844C104.856 97.3909 104.896 97.4579 104.964 97.5099C105.034 97.5619 105.128 97.5879 105.246 97.5879C105.358 97.5879 105.441 97.5639 105.495 97.5159C105.551 97.4679 105.579 97.4129 105.579 97.3509C105.579 97.2669 105.546 97.2099 105.48 97.1799C105.414 97.1479 105.315 97.1239 105.183 97.1079C105.025 97.0899 104.894 97.0469 104.79 96.9789C104.686 96.9109 104.634 96.8089 104.634 96.6729C104.634 96.5509 104.685 96.4499 104.787 96.3699C104.889 96.2899 105.028 96.2499 105.204 96.2499C105.378 96.2499 105.515 96.2899 105.615 96.3699C105.715 96.4479 105.772 96.5599 105.786 96.7059H105.537C105.531 96.6339 105.496 96.5769 105.432 96.5349C105.37 96.4909 105.292 96.4689 105.198 96.4689C105.1 96.4689 105.024 96.4879 104.97 96.5259C104.916 96.5619 104.889 96.6099 104.889 96.6699C104.889 96.7299 104.919 96.7799 104.979 96.8199C105.041 96.8579 105.138 96.8829 105.27 96.8949C105.374 96.9069 105.469 96.9269 105.555 96.9549C105.641 96.9829 105.709 97.0269 105.759 97.0869C105.811 97.1469 105.837 97.2309 105.837 97.3389C105.839 97.4289 105.814 97.5099 105.762 97.5819C105.712 97.6519 105.642 97.7079 105.552 97.7499C105.462 97.7899 105.358 97.8099 105.24 97.8099ZM107.024 97.7799C106.962 97.7799 106.909 97.7589 106.865 97.7169C106.821 97.6749 106.799 97.6229 106.799 97.5609C106.799 97.5009 106.821 97.4499 106.865 97.4079C106.909 97.3659 106.962 97.3449 107.024 97.3449C107.086 97.3449 107.139 97.3659 107.183 97.4079C107.227 97.4499 107.249 97.5009 107.249 97.5609C107.249 97.6229 107.227 97.6749 107.183 97.7169C107.139 97.7589 107.086 97.7799 107.024 97.7799ZM108.157 98.4339V96.2859H108.361L108.391 96.5319H108.409C108.447 96.4519 108.508 96.3849 108.592 96.3309C108.676 96.2769 108.775 96.2499 108.889 96.2499C109.009 96.2499 109.117 96.2799 109.213 96.3399C109.311 96.3999 109.388 96.4889 109.444 96.6069C109.5 96.7229 109.528 96.8649 109.528 97.0329C109.528 97.1989 109.499 97.3399 109.441 97.4559C109.385 97.5719 109.307 97.6599 109.207 97.7199C109.109 97.7799 108.996 97.8099 108.868 97.8099C108.754 97.8099 108.657 97.7859 108.577 97.7379C108.499 97.6879 108.443 97.6299 108.409 97.5639V98.4339H108.157ZM108.838 97.5699C108.964 97.5699 109.068 97.5259 109.15 97.4379C109.232 97.3479 109.273 97.2119 109.273 97.0299C109.273 96.8479 109.232 96.7129 109.15 96.6249C109.068 96.5349 108.964 96.4899 108.838 96.4899C108.712 96.4899 108.608 96.5349 108.526 96.6249C108.444 96.7129 108.403 96.8479 108.403 97.0299C108.403 97.2119 108.444 97.3479 108.526 97.4379C108.608 97.5259 108.712 97.5699 108.838 97.5699ZM109.974 97.7739V97.5579H110.355V96.5769C110.355 96.5269 110.331 96.5019 110.283 96.5019H110.013V96.2859H110.376C110.442 96.2859 110.495 96.3039 110.535 96.3399C110.575 96.3759 110.595 96.4289 110.595 96.4989V96.5619H110.607C110.631 96.4619 110.676 96.3849 110.742 96.3309C110.81 96.2769 110.904 96.2499 111.024 96.2499H111.297V96.5169H110.988C110.866 96.5169 110.772 96.5579 110.706 96.6399C110.64 96.7199 110.607 96.8229 110.607 96.9489V97.5579H111.075V97.7739H109.974ZM112.42 97.8099C112.28 97.8099 112.156 97.7779 112.048 97.7139C111.94 97.6499 111.855 97.5599 111.793 97.4439C111.731 97.3259 111.7 97.1879 111.7 97.0299C111.7 96.8719 111.731 96.7349 111.793 96.6189C111.855 96.5009 111.94 96.4099 112.048 96.3459C112.156 96.2819 112.28 96.2499 112.42 96.2499C112.56 96.2499 112.684 96.2819 112.792 96.3459C112.9 96.4099 112.985 96.5009 113.047 96.6189C113.109 96.7349 113.14 96.8719 113.14 97.0299C113.14 97.1879 113.109 97.3259 113.047 97.4439C112.985 97.5599 112.9 97.6499 112.792 97.7139C112.684 97.7779 112.56 97.8099 112.42 97.8099ZM112.42 97.5699C112.506 97.5699 112.584 97.5509 112.654 97.5129C112.724 97.4749 112.779 97.4159 112.819 97.3359C112.861 97.2559 112.882 97.1539 112.882 97.0299C112.882 96.9059 112.861 96.8039 112.819 96.7239C112.779 96.6439 112.724 96.5849 112.654 96.5469C112.584 96.5089 112.506 96.4899 112.42 96.4899C112.336 96.4899 112.259 96.5089 112.189 96.5469C112.119 96.5849 112.063 96.6439 112.021 96.7239C111.979 96.8039 111.958 96.9059 111.958 97.0299C111.958 97.2159 112.003 97.3529 112.093 97.4409C112.183 97.5269 112.292 97.5699 112.42 97.5699ZM113.43 97.7739V96.2859H113.637L113.664 96.4599H113.679C113.705 96.3999 113.744 96.3499 113.796 96.3099C113.85 96.2699 113.915 96.2499 113.991 96.2499C114.067 96.2499 114.131 96.2689 114.183 96.3069C114.237 96.3429 114.276 96.3939 114.3 96.4599H114.312C114.338 96.3999 114.38 96.3499 114.438 96.3099C114.496 96.2699 114.566 96.2499 114.648 96.2499C114.762 96.2499 114.847 96.2889 114.903 96.3669C114.961 96.4429 114.99 96.5449 114.99 96.6729V97.7739H114.744V96.7119C114.744 96.6399 114.729 96.5829 114.699 96.5409C114.671 96.4989 114.625 96.4779 114.561 96.4779C114.495 96.4779 114.441 96.5029 114.399 96.5529C114.357 96.6029 114.336 96.6739 114.336 96.7659V97.7739H114.087V96.7119C114.087 96.6399 114.073 96.5829 114.045 96.5409C114.017 96.4989 113.971 96.4779 113.907 96.4779C113.841 96.4779 113.786 96.5029 113.742 96.5529C113.7 96.6029 113.679 96.6739 113.679 96.7659V97.7739H113.43ZM116 96.0219C115.94 96.0219 115.89 96.0019 115.85 95.9619C115.81 95.9219 115.79 95.8739 115.79 95.8179C115.79 95.7599 115.81 95.7119 115.85 95.6739C115.89 95.6339 115.94 95.6139 116 95.6139C116.058 95.6139 116.107 95.6339 116.147 95.6739C116.189 95.7119 116.21 95.7599 116.21 95.8179C116.21 95.8739 116.189 95.9219 116.147 95.9619C116.107 96.0019 116.058 96.0219 116 96.0219ZM115.418 97.7739V97.5579H115.892V96.5769C115.892 96.5269 115.867 96.5019 115.817 96.5019H115.469V96.2859H115.877C116.055 96.2859 116.144 96.3749 116.144 96.5529V97.5579H116.618V97.7739H115.418ZM117.832 97.8099C117.642 97.8099 117.488 97.7659 117.37 97.6779C117.254 97.5879 117.189 97.4649 117.175 97.3089H117.436C117.448 97.3909 117.488 97.4579 117.556 97.5099C117.626 97.5619 117.72 97.5879 117.838 97.5879C117.95 97.5879 118.033 97.5639 118.087 97.5159C118.143 97.4679 118.171 97.4129 118.171 97.3509C118.171 97.2669 118.138 97.2099 118.072 97.1799C118.006 97.1479 117.907 97.1239 117.775 97.1079C117.617 97.0899 117.486 97.0469 117.382 96.9789C117.278 96.9109 117.226 96.8089 117.226 96.6729C117.226 96.5509 117.277 96.4499 117.379 96.3699C117.481 96.2899 117.62 96.2499 117.796 96.2499C117.97 96.2499 118.107 96.2899 118.207 96.3699C118.307 96.4479 118.364 96.5599 118.378 96.7059H118.129C118.123 96.6339 118.088 96.5769 118.024 96.5349C117.962 96.4909 117.884 96.4689 117.79 96.4689C117.692 96.4689 117.616 96.4879 117.562 96.5259C117.508 96.5619 117.481 96.6099 117.481 96.6699C117.481 96.7299 117.511 96.7799 117.571 96.8199C117.633 96.8579 117.73 96.8829 117.862 96.8949C117.966 96.9069 118.061 96.9269 118.147 96.9549C118.233 96.9829 118.301 97.0269 118.351 97.0869C118.403 97.1469 118.429 97.2309 118.429 97.3389C118.431 97.4289 118.406 97.5099 118.354 97.5819C118.304 97.6519 118.234 97.7079 118.144 97.7499C118.054 97.7899 117.95 97.8099 117.832 97.8099ZM119.631 97.8099C119.491 97.8099 119.367 97.7779 119.259 97.7139C119.153 97.6479 119.069 97.5569 119.007 97.4409C118.945 97.3229 118.914 97.1859 118.914 97.0299C118.914 96.8739 118.944 96.7379 119.004 96.6219C119.066 96.5039 119.151 96.4129 119.259 96.3489C119.367 96.2829 119.493 96.2499 119.637 96.2499C119.781 96.2499 119.904 96.2829 120.006 96.3489C120.108 96.4129 120.186 96.4979 120.24 96.6039C120.294 96.7099 120.321 96.8239 120.321 96.9459C120.321 96.9679 120.32 96.9899 120.318 97.0119C120.318 97.0339 120.318 97.0589 120.318 97.0869H119.163C119.169 97.1969 119.194 97.2889 119.238 97.3629C119.284 97.4349 119.341 97.4889 119.409 97.5249C119.479 97.5609 119.553 97.5789 119.631 97.5789C119.741 97.5789 119.827 97.5559 119.889 97.5099C119.951 97.4639 119.998 97.3999 120.03 97.3179H120.279C120.245 97.4559 120.174 97.5729 120.066 97.6689C119.958 97.7629 119.813 97.8099 119.631 97.8099ZM119.631 96.4749C119.515 96.4749 119.413 96.5099 119.325 96.5799C119.239 96.6499 119.186 96.7479 119.166 96.8739H120.072C120.064 96.7499 120.019 96.6529 119.937 96.5829C119.857 96.5109 119.755 96.4749 119.631 96.4749ZM121.559 98.3289C121.455 98.2129 121.358 98.0829 121.268 97.9389C121.18 97.7969 121.109 97.6359 121.055 97.4559C121.001 97.2739 120.974 97.0669 120.974 96.8349C120.974 96.6029 121.001 96.3969 121.055 96.2169C121.109 96.0349 121.18 95.8729 121.268 95.7309C121.358 95.5869 121.455 95.4569 121.559 95.3409H121.826V95.3679C121.706 95.4979 121.601 95.6369 121.511 95.7849C121.421 95.9309 121.351 96.0899 121.301 96.2619C121.251 96.4339 121.226 96.6249 121.226 96.8349C121.226 97.0449 121.251 97.2359 121.301 97.4079C121.351 97.5799 121.421 97.7389 121.511 97.8849C121.601 98.0329 121.706 98.1719 121.826 98.3019V98.3289H121.559ZM122.802 98.3289V98.3019C122.922 98.1719 123.027 98.0329 123.117 97.8849C123.207 97.7389 123.277 97.5799 123.327 97.4079C123.377 97.2359 123.402 97.0449 123.402 96.8349C123.402 96.6249 123.377 96.4339 123.327 96.2619C123.277 96.0899 123.207 95.9309 123.117 95.7849C123.027 95.6369 122.922 95.4979 122.802 95.3679V95.3409H123.069C123.173 95.4569 123.269 95.5869 123.357 95.7309C123.447 95.8729 123.519 96.0349 123.573 96.2169C123.627 96.3969 123.654 96.6029 123.654 96.8349C123.654 97.0669 123.627 97.2739 123.573 97.4559C123.519 97.6359 123.447 97.7969 123.357 97.9389C123.269 98.0829 123.173 98.2129 123.069 98.3289H122.802ZM96.105 101.81C95.987 101.81 95.889 101.789 95.811 101.747C95.733 101.705 95.675 101.65 95.637 101.582C95.599 101.512 95.58 101.436 95.58 101.354C95.58 101.202 95.635 101.087 95.745 101.009C95.857 100.929 96.006 100.889 96.192 100.889H96.6V100.859C96.6 100.599 96.481 100.469 96.243 100.469C96.147 100.469 96.066 100.49 96 100.532C95.936 100.574 95.895 100.64 95.877 100.73H95.619C95.629 100.63 95.662 100.544 95.718 100.472C95.776 100.4 95.85 100.345 95.94 100.307C96.03 100.269 96.131 100.25 96.243 100.25C96.455 100.25 96.609 100.306 96.705 100.418C96.803 100.528 96.852 100.675 96.852 100.859V101.774H96.636L96.615 101.543H96.594C96.55 101.615 96.491 101.678 96.417 101.732C96.345 101.784 96.241 101.81 96.105 101.81ZM96.15 101.588C96.246 101.588 96.327 101.565 96.393 101.519C96.461 101.473 96.512 101.412 96.546 101.336C96.582 101.26 96.6 101.177 96.6 101.087H96.213C96.077 101.087 95.981 101.11 95.925 101.156C95.871 101.202 95.844 101.263 95.844 101.339C95.844 101.417 95.87 101.478 95.922 101.522C95.974 101.566 96.05 101.588 96.15 101.588ZM98.0448 101.81C97.8548 101.81 97.7008 101.766 97.5828 101.678C97.4668 101.588 97.4018 101.465 97.3878 101.309H97.6488C97.6608 101.391 97.7008 101.458 97.7688 101.51C97.8388 101.562 97.9328 101.588 98.0508 101.588C98.1628 101.588 98.2458 101.564 98.2998 101.516C98.3558 101.468 98.3838 101.413 98.3838 101.351C98.3838 101.267 98.3508 101.21 98.2848 101.18C98.2188 101.148 98.1198 101.124 97.9878 101.108C97.8298 101.09 97.6988 101.047 97.5948 100.979C97.4908 100.911 97.4388 100.809 97.4388 100.673C97.4388 100.551 97.4898 100.45 97.5918 100.37C97.6938 100.29 97.8328 100.25 98.0088 100.25C98.1828 100.25 98.3198 100.29 98.4198 100.37C98.5198 100.448 98.5768 100.56 98.5908 100.706H98.3418C98.3358 100.634 98.3008 100.577 98.2368 100.535C98.1748 100.491 98.0968 100.469 98.0028 100.469C97.9048 100.469 97.8288 100.488 97.7748 100.526C97.7208 100.562 97.6938 100.61 97.6938 100.67C97.6938 100.73 97.7238 100.78 97.7838 100.82C97.8458 100.858 97.9428 100.883 98.0748 100.895C98.1788 100.907 98.2738 100.927 98.3598 100.955C98.4458 100.983 98.5138 101.027 98.5638 101.087C98.6158 101.147 98.6418 101.231 98.6418 101.339C98.6438 101.429 98.6188 101.51 98.5668 101.582C98.5168 101.652 98.4468 101.708 98.3568 101.75C98.2668 101.79 98.1628 101.81 98.0448 101.81ZM99.2616 101.774V99.6139H99.5136V100.916L100.135 100.286H100.456L99.7926 100.949V100.967L100.537 101.774H100.225L99.5136 101V101.774H99.2616ZM101.024 101.774V101.555H101.501V99.8929H101.024V99.6739H102.23V99.8929H101.753V101.555H102.23V101.774H101.024ZM102.802 102.434V102.203H102.985C103.061 102.203 103.115 102.188 103.147 102.158C103.179 102.128 103.195 102.075 103.195 101.999V100.502H102.826V100.286H103.195V100.049C103.195 99.8949 103.232 99.7839 103.306 99.7159C103.38 99.6479 103.492 99.6139 103.642 99.6139H103.999V99.8419H103.657C103.583 99.8419 103.529 99.8579 103.495 99.8899C103.463 99.9199 103.447 99.9729 103.447 100.049V100.286H103.999V100.502H103.447V101.999C103.447 102.153 103.41 102.264 103.336 102.332C103.262 102.4 103.151 102.434 103.003 102.434H102.802ZM104.547 101.774V99.6739H105.246C105.406 99.6739 105.537 99.7029 105.639 99.7609C105.741 99.8189 105.816 99.8959 105.864 99.9919C105.912 100.088 105.936 100.194 105.936 100.31C105.936 100.426 105.912 100.532 105.864 100.628C105.816 100.724 105.741 100.801 105.639 100.859C105.537 100.917 105.406 100.946 105.246 100.946H104.799V101.774H104.547ZM104.799 100.715H105.24C105.388 100.715 105.498 100.678 105.57 100.604C105.642 100.528 105.678 100.43 105.678 100.31C105.678 100.19 105.642 100.092 105.57 100.016C105.498 99.9399 105.388 99.9019 105.24 99.9019H104.799V100.715ZM107.024 101.81C106.884 101.81 106.76 101.778 106.652 101.714C106.544 101.65 106.459 101.56 106.397 101.444C106.335 101.326 106.304 101.188 106.304 101.03C106.304 100.872 106.335 100.735 106.397 100.619C106.459 100.501 106.544 100.41 106.652 100.346C106.76 100.282 106.884 100.25 107.024 100.25C107.164 100.25 107.288 100.282 107.396 100.346C107.504 100.41 107.589 100.501 107.651 100.619C107.713 100.735 107.744 100.872 107.744 101.03C107.744 101.188 107.713 101.326 107.651 101.444C107.589 101.56 107.504 101.65 107.396 101.714C107.288 101.778 107.164 101.81 107.024 101.81ZM107.024 101.57C107.11 101.57 107.188 101.551 107.258 101.513C107.328 101.475 107.383 101.416 107.423 101.336C107.465 101.256 107.486 101.154 107.486 101.03C107.486 100.906 107.465 100.804 107.423 100.724C107.383 100.644 107.328 100.585 107.258 100.547C107.188 100.509 107.11 100.49 107.024 100.49C106.94 100.49 106.863 100.509 106.793 100.547C106.723 100.585 106.667 100.644 106.625 100.724C106.583 100.804 106.562 100.906 106.562 101.03C106.562 101.216 106.607 101.353 106.697 101.441C106.787 101.527 106.896 101.57 107.024 101.57ZM108.838 101.81C108.648 101.81 108.494 101.766 108.376 101.678C108.26 101.588 108.195 101.465 108.181 101.309H108.442C108.454 101.391 108.494 101.458 108.562 101.51C108.632 101.562 108.726 101.588 108.844 101.588C108.956 101.588 109.039 101.564 109.093 101.516C109.149 101.468 109.177 101.413 109.177 101.351C109.177 101.267 109.144 101.21 109.078 101.18C109.012 101.148 108.913 101.124 108.781 101.108C108.623 101.09 108.492 101.047 108.388 100.979C108.284 100.911 108.232 100.809 108.232 100.673C108.232 100.551 108.283 100.45 108.385 100.37C108.487 100.29 108.626 100.25 108.802 100.25C108.976 100.25 109.113 100.29 109.213 100.37C109.313 100.448 109.37 100.56 109.384 100.706H109.135C109.129 100.634 109.094 100.577 109.03 100.535C108.968 100.491 108.89 100.469 108.796 100.469C108.698 100.469 108.622 100.488 108.568 100.526C108.514 100.562 108.487 100.61 108.487 100.67C108.487 100.73 108.517 100.78 108.577 100.82C108.639 100.858 108.736 100.883 108.868 100.895C108.972 100.907 109.067 100.927 109.153 100.955C109.239 100.983 109.307 101.027 109.357 101.087C109.409 101.147 109.435 101.231 109.435 101.339C109.437 101.429 109.412 101.51 109.36 101.582C109.31 101.652 109.24 101.708 109.15 101.75C109.06 101.79 108.956 101.81 108.838 101.81ZM110.604 100.022C110.544 100.022 110.494 100.002 110.454 99.9619C110.414 99.9219 110.394 99.8739 110.394 99.8179C110.394 99.7599 110.414 99.7119 110.454 99.6739C110.494 99.6339 110.544 99.6139 110.604 99.6139C110.662 99.6139 110.711 99.6339 110.751 99.6739C110.793 99.7119 110.814 99.7599 110.814 99.8179C110.814 99.8739 110.793 99.9219 110.751 99.9619C110.711 100.002 110.662 100.022 110.604 100.022ZM110.022 101.774V101.558H110.496V100.577C110.496 100.527 110.471 100.502 110.421 100.502H110.073V100.286H110.481C110.659 100.286 110.748 100.375 110.748 100.553V101.558H111.222V101.774H110.022ZM112.471 101.81C112.357 101.81 112.26 101.787 112.18 101.741C112.102 101.693 112.044 101.628 112.006 101.546H111.988L111.961 101.774H111.754V99.6139H112.006V100.499C112.044 100.433 112.103 100.375 112.183 100.325C112.265 100.275 112.361 100.25 112.471 100.25C112.599 100.25 112.712 100.28 112.81 100.34C112.908 100.4 112.985 100.488 113.041 100.604C113.097 100.72 113.125 100.861 113.125 101.027C113.125 101.195 113.097 101.338 113.041 101.456C112.985 101.572 112.907 101.66 112.807 101.72C112.709 101.78 112.597 101.81 112.471 101.81ZM112.438 101.57C112.564 101.57 112.667 101.526 112.747 101.438C112.829 101.348 112.87 101.212 112.87 101.03C112.87 100.848 112.829 100.713 112.747 100.625C112.667 100.535 112.564 100.49 112.438 100.49C112.312 100.49 112.208 100.535 112.126 100.625C112.044 100.713 112.003 100.848 112.003 101.03C112.003 101.212 112.044 101.348 112.126 101.438C112.208 101.526 112.312 101.57 112.438 101.57ZM113.544 101.774V101.558H114.051V99.9049C114.051 99.8549 114.026 99.8299 113.976 99.8299H113.598V99.6139H114.036C114.122 99.6139 114.188 99.6369 114.234 99.6829C114.28 99.7289 114.303 99.7949 114.303 99.8809V101.558H114.81V101.774H113.544ZM116.033 101.81C115.893 101.81 115.769 101.778 115.661 101.714C115.555 101.648 115.471 101.557 115.409 101.441C115.347 101.323 115.316 101.186 115.316 101.03C115.316 100.874 115.346 100.738 115.406 100.622C115.468 100.504 115.553 100.413 115.661 100.349C115.769 100.283 115.895 100.25 116.039 100.25C116.183 100.25 116.306 100.283 116.408 100.349C116.51 100.413 116.588 100.498 116.642 100.604C116.696 100.71 116.723 100.824 116.723 100.946C116.723 100.968 116.722 100.99 116.72 101.012C116.72 101.034 116.72 101.059 116.72 101.087H115.565C115.571 101.197 115.596 101.289 115.64 101.363C115.686 101.435 115.743 101.489 115.811 101.525C115.881 101.561 115.955 101.579 116.033 101.579C116.143 101.579 116.229 101.556 116.291 101.51C116.353 101.464 116.4 101.4 116.432 101.318H116.681C116.647 101.456 116.576 101.573 116.468 101.669C116.36 101.763 116.215 101.81 116.033 101.81ZM116.033 100.475C115.917 100.475 115.815 100.51 115.727 100.58C115.641 100.65 115.588 100.748 115.568 100.874H116.474C116.466 100.75 116.421 100.653 116.339 100.583C116.259 100.511 116.157 100.475 116.033 100.475ZM117.961 102.329C117.857 102.213 117.76 102.083 117.67 101.939C117.582 101.797 117.511 101.636 117.457 101.456C117.403 101.274 117.376 101.067 117.376 100.835C117.376 100.603 117.403 100.397 117.457 100.217C117.511 100.035 117.582 99.8729 117.67 99.7309C117.76 99.5869 117.857 99.4569 117.961 99.3409H118.228V99.3679C118.108 99.4979 118.003 99.6369 117.913 99.7849C117.823 99.9309 117.753 100.09 117.703 100.262C117.653 100.434 117.628 100.625 117.628 100.835C117.628 101.045 117.653 101.236 117.703 101.408C117.753 101.58 117.823 101.739 117.913 101.885C118.003 102.033 118.108 102.172 118.228 102.302V102.329H117.961ZM119.772 101.774C119.636 101.774 119.529 101.741 119.451 101.675C119.373 101.609 119.334 101.49 119.334 101.318V100.502H118.956V100.286H119.181C119.283 100.286 119.342 100.236 119.358 100.136L119.4 99.9049H119.586V100.286H120.18V100.502H119.586V101.318C119.586 101.402 119.605 101.461 119.643 101.495C119.683 101.529 119.751 101.546 119.847 101.546H120.18V101.774H119.772ZM120.764 101.774V99.6139H121.016V100.511C121.056 100.435 121.122 100.373 121.214 100.325C121.306 100.275 121.407 100.25 121.517 100.25C121.699 100.25 121.837 100.305 121.931 100.415C122.027 100.525 122.075 100.679 122.075 100.877V101.774H121.823V100.91C121.823 100.776 121.79 100.672 121.724 100.598C121.66 100.524 121.57 100.487 121.454 100.487C121.374 100.487 121.301 100.505 121.235 100.541C121.169 100.577 121.116 100.63 121.076 100.7C121.036 100.77 121.016 100.856 121.016 100.958V101.774H120.764ZM123.195 100.022C123.135 100.022 123.085 100.002 123.045 99.9619C123.005 99.9219 122.985 99.8739 122.985 99.8179C122.985 99.7599 123.005 99.7119 123.045 99.6739C123.085 99.6339 123.135 99.6139 123.195 99.6139C123.253 99.6139 123.302 99.6339 123.342 99.6739C123.384 99.7119 123.405 99.7599 123.405 99.8179C123.405 99.8739 123.384 99.9219 123.342 99.9619C123.302 100.002 123.253 100.022 123.195 100.022ZM122.613 101.774V101.558H123.087V100.577C123.087 100.527 123.062 100.502 123.012 100.502H122.664V100.286H123.072C123.25 100.286 123.339 100.375 123.339 100.553V101.558H123.813V101.774H122.613ZM124.376 101.774V100.286H124.586L124.613 100.511H124.628C124.668 100.439 124.731 100.378 124.817 100.328C124.903 100.276 125.002 100.25 125.114 100.25C125.296 100.25 125.432 100.304 125.522 100.412C125.614 100.52 125.66 100.676 125.66 100.88V101.774H125.408V100.91C125.408 100.778 125.379 100.675 125.321 100.601C125.263 100.525 125.173 100.487 125.051 100.487C124.933 100.487 124.833 100.528 124.751 100.61C124.669 100.69 124.628 100.806 124.628 100.958V101.774H124.376ZM126.784 101.336C126.68 101.336 126.587 101.317 126.505 101.279L126.403 101.402C126.381 101.432 126.375 101.462 126.385 101.492C126.397 101.52 126.426 101.534 126.472 101.534H126.865C127.043 101.534 127.187 101.569 127.297 101.639C127.407 101.707 127.462 101.816 127.462 101.966C127.462 102.056 127.439 102.139 127.393 102.215C127.347 102.291 127.274 102.352 127.174 102.398C127.076 102.446 126.947 102.47 126.787 102.47C126.579 102.47 126.412 102.431 126.286 102.353C126.16 102.275 126.097 102.156 126.097 101.996C126.097 101.938 126.111 101.884 126.139 101.834C126.169 101.786 126.206 101.743 126.25 101.705C126.192 101.669 126.156 101.615 126.142 101.543C126.13 101.471 126.152 101.4 126.208 101.33L126.343 101.162C126.247 101.062 126.199 100.939 126.199 100.793C126.199 100.697 126.222 100.608 126.268 100.526C126.314 100.442 126.38 100.375 126.466 100.325C126.554 100.275 126.66 100.25 126.784 100.25C126.864 100.25 126.938 100.262 127.006 100.286H127.564V100.475L127.285 100.484V100.505C127.337 100.591 127.363 100.687 127.363 100.793C127.363 100.889 127.34 100.979 127.294 101.063C127.25 101.145 127.184 101.211 127.096 101.261C127.01 101.311 126.906 101.336 126.784 101.336ZM126.784 101.12C126.882 101.12 126.962 101.091 127.024 101.033C127.088 100.975 127.12 100.895 127.12 100.793C127.12 100.691 127.088 100.612 127.024 100.556C126.962 100.498 126.882 100.469 126.784 100.469C126.684 100.469 126.602 100.498 126.538 100.556C126.474 100.612 126.442 100.691 126.442 100.793C126.442 100.895 126.474 100.975 126.538 101.033C126.602 101.091 126.684 101.12 126.784 101.12ZM126.346 101.987C126.346 102.075 126.387 102.141 126.469 102.185C126.551 102.229 126.657 102.251 126.787 102.251C126.913 102.251 127.015 102.226 127.093 102.176C127.173 102.126 127.213 102.059 127.213 101.975C127.213 101.909 127.185 101.853 127.129 101.807C127.073 101.763 126.97 101.741 126.82 101.741H126.481C126.391 101.807 126.346 101.889 126.346 101.987ZM128.625 101.81C128.435 101.81 128.281 101.766 128.163 101.678C128.047 101.588 127.982 101.465 127.968 101.309H128.229C128.241 101.391 128.281 101.458 128.349 101.51C128.419 101.562 128.513 101.588 128.631 101.588C128.743 101.588 128.826 101.564 128.88 101.516C128.936 101.468 128.964 101.413 128.964 101.351C128.964 101.267 128.931 101.21 128.865 101.18C128.799 101.148 128.7 101.124 128.568 101.108C128.41 101.09 128.279 101.047 128.175 100.979C128.071 100.911 128.019 100.809 128.019 100.673C128.019 100.551 128.07 100.45 128.172 100.37C128.274 100.29 128.413 100.25 128.589 100.25C128.763 100.25 128.9 100.29 129 100.37C129.1 100.448 129.157 100.56 129.171 100.706H128.922C128.916 100.634 128.881 100.577 128.817 100.535C128.755 100.491 128.677 100.469 128.583 100.469C128.485 100.469 128.409 100.488 128.355 100.526C128.301 100.562 128.274 100.61 128.274 100.67C128.274 100.73 128.304 100.78 128.364 100.82C128.426 100.858 128.523 100.883 128.655 100.895C128.759 100.907 128.854 100.927 128.94 100.955C129.026 100.983 129.094 101.027 129.144 101.087C129.196 101.147 129.222 101.231 129.222 101.339C129.224 101.429 129.199 101.51 129.147 101.582C129.097 101.652 129.027 101.708 128.937 101.75C128.847 101.79 128.743 101.81 128.625 101.81ZM129.998 102.329V102.302C130.118 102.172 130.223 102.033 130.313 101.885C130.403 101.739 130.473 101.58 130.523 101.408C130.573 101.236 130.598 101.045 130.598 100.835C130.598 100.625 130.573 100.434 130.523 100.262C130.473 100.09 130.403 99.9309 130.313 99.7849C130.223 99.6369 130.118 99.4979 129.998 99.3679V99.3409H130.265C130.369 99.4569 130.465 99.5869 130.553 99.7309C130.643 99.8729 130.715 100.035 130.769 100.217C130.823 100.397 130.85 100.603 130.85 100.835C130.85 101.067 130.823 101.274 130.769 101.456C130.715 101.636 130.643 101.797 130.553 101.939C130.465 102.083 130.369 102.213 130.265 102.329H129.998ZM95.778 106.434L96.144 105.63H96.057L95.469 104.286H95.742L96.231 105.438L96.747 104.286H97.011L96.042 106.434H95.778ZM98.0448 105.81C97.9048 105.81 97.7808 105.778 97.6728 105.714C97.5668 105.648 97.4828 105.557 97.4208 105.441C97.3588 105.323 97.3278 105.186 97.3278 105.03C97.3278 104.874 97.3578 104.738 97.4178 104.622C97.4798 104.504 97.5648 104.413 97.6728 104.349C97.7808 104.283 97.9068 104.25 98.0508 104.25C98.1948 104.25 98.3178 104.283 98.4198 104.349C98.5218 104.413 98.5998 104.498 98.6538 104.604C98.7078 104.71 98.7348 104.824 98.7348 104.946C98.7348 104.968 98.7338 104.99 98.7318 105.012C98.7318 105.034 98.7318 105.059 98.7318 105.087H97.5768C97.5828 105.197 97.6078 105.289 97.6518 105.363C97.6978 105.435 97.7548 105.489 97.8228 105.525C97.8928 105.561 97.9668 105.579 98.0448 105.579C98.1548 105.579 98.2408 105.556 98.3028 105.51C98.3648 105.464 98.4118 105.4 98.4438 105.318H98.6928C98.6588 105.456 98.5878 105.573 98.4798 105.669C98.3718 105.763 98.2268 105.81 98.0448 105.81ZM98.0448 104.475C97.9288 104.475 97.8268 104.51 97.7388 104.58C97.6528 104.65 97.5998 104.748 97.5798 104.874H98.4858C98.4778 104.75 98.4328 104.653 98.3508 104.583C98.2708 104.511 98.1688 104.475 98.0448 104.475ZM99.1536 105.774V105.558H99.6606V103.905C99.6606 103.855 99.6356 103.83 99.5856 103.83H99.2076V103.614H99.6456C99.7316 103.614 99.7976 103.637 99.8436 103.683C99.8896 103.729 99.9126 103.795 99.9126 103.881V105.558H100.42V105.774H99.1536ZM100.952 105.774V105.558H101.459V103.905C101.459 103.855 101.434 103.83 101.384 103.83H101.006V103.614H101.444C101.53 103.614 101.596 103.637 101.642 103.683C101.688 103.729 101.711 103.795 101.711 103.881V105.558H102.218V105.774H100.952ZM103.57 106.329C103.466 106.213 103.369 106.083 103.279 105.939C103.191 105.797 103.12 105.636 103.066 105.456C103.012 105.274 102.985 105.067 102.985 104.835C102.985 104.603 103.012 104.397 103.066 104.217C103.12 104.035 103.191 103.873 103.279 103.731C103.369 103.587 103.466 103.457 103.57 103.341H103.837V103.368C103.717 103.498 103.612 103.637 103.522 103.785C103.432 103.931 103.362 104.09 103.312 104.262C103.262 104.434 103.237 104.625 103.237 104.835C103.237 105.045 103.262 105.236 103.312 105.408C103.362 105.58 103.432 105.739 103.522 105.885C103.612 106.033 103.717 106.172 103.837 106.302V106.329H103.57ZM104.814 106.329V106.302C104.934 106.172 105.039 106.033 105.129 105.885C105.219 105.739 105.289 105.58 105.339 105.408C105.389 105.236 105.414 105.045 105.414 104.835C105.414 104.625 105.389 104.434 105.339 104.262C105.289 104.09 105.219 103.931 105.129 103.785C105.039 103.637 104.934 103.498 104.814 103.368V103.341H105.081C105.185 103.457 105.281 103.587 105.369 103.731C105.459 103.873 105.531 104.035 105.585 104.217C105.639 104.397 105.666 104.603 105.666 104.835C105.666 105.067 105.639 105.274 105.585 105.456C105.531 105.636 105.459 105.797 105.369 105.939C105.281 106.083 105.185 106.213 105.081 106.329H104.814ZM92.0693 110.329V110.107H92.3303C92.4123 110.107 92.4753 110.087 92.5193 110.047C92.5633 110.009 92.5853 109.945 92.5853 109.855C92.5853 109.775 92.5793 109.706 92.5673 109.648C92.5573 109.588 92.5463 109.528 92.5343 109.468C92.5243 109.406 92.5193 109.332 92.5193 109.246C92.5193 109.14 92.5423 109.053 92.5883 108.985C92.6343 108.915 92.6943 108.867 92.7683 108.841V108.829C92.6943 108.803 92.6343 108.756 92.5883 108.688C92.5423 108.618 92.5193 108.53 92.5193 108.424C92.5193 108.338 92.5243 108.265 92.5343 108.205C92.5463 108.143 92.5573 108.083 92.5673 108.025C92.5793 107.965 92.5853 107.895 92.5853 107.815C92.5853 107.725 92.5633 107.661 92.5193 107.623C92.4753 107.583 92.4123 107.563 92.3303 107.563H92.0693V107.341H92.3573C92.5013 107.341 92.6153 107.377 92.6993 107.449C92.7853 107.519 92.8283 107.632 92.8283 107.788C92.8283 107.864 92.8223 107.933 92.8103 107.995C92.8003 108.055 92.7893 108.12 92.7773 108.19C92.7673 108.258 92.7623 108.342 92.7623 108.442C92.7623 108.528 92.7843 108.597 92.8283 108.649C92.8743 108.699 92.9483 108.724 93.0503 108.724H93.1913V108.946H93.0503C92.9483 108.946 92.8743 108.972 92.8283 109.024C92.7843 109.074 92.7623 109.142 92.7623 109.228C92.7623 109.326 92.7673 109.41 92.7773 109.48C92.7893 109.55 92.8003 109.616 92.8103 109.678C92.8223 109.738 92.8283 109.806 92.8283 109.882C92.8283 110.038 92.7853 110.151 92.6993 110.221C92.6153 110.293 92.5013 110.329 92.3573 110.329H92.0693Z" fill="#80C565"/>
</svg>
