<svg width="180" height="169" viewBox="0 0 180 169" fill="none" xmlns="http://www.w3.org/2000/svg">
<ellipse cx="102.756" cy="93.1667" rx="77.2441" ry="72.9444" fill="#B8C9D9"/>
<rect width="57.5308" height="10.2391" transform="matrix(0.979945 0.199269 -0.181281 0.983431 68.4702 99.6667)" fill="#80C565"/>
<rect x="110.926" y="9.02777" width="59.1524" height="88.4722" fill="#F3F3F3"/>
<rect x="116.304" y="30.6945" width="12.5475" height="1.80556" fill="#002B55"/>
<rect x="143.191" y="30.6945" width="12.5475" height="1.80556" fill="#002B55"/>
<rect x="103.756" width="66.3224" height="14.4444" fill="#002B55"/>
<rect x="118.096" y="36.1111" width="14.34" height="21.6667" fill="white"/>
<rect x="121.681" y="36.1111" width="10.755" height="14.4444" fill="#002B55"/>
<rect x="127.059" y="37.9167" width="3.58499" height="3.61111" fill="white"/>
<rect x="141.399" y="36.1111" width="14.34" height="21.6667" fill="white"/>
<rect x="144.984" y="36.1111" width="10.755" height="14.4444" fill="#002B55"/>
<rect x="150.361" y="37.9167" width="3.58499" height="3.61111" fill="white"/>
<path d="M123.56 71.368L136.918 82.4069L150.275 71.368H123.56Z" fill="white" stroke="#002B55"/>
<rect x="119.889" y="102.917" width="39.4349" height="55.9722" fill="#80C565"/>
<path d="M136.021 108.333L143.783 101.563H128.26L136.021 108.333Z" fill="white"/>
<rect width="38.4577" height="10.1752" transform="matrix(0.796326 -0.604868 0.599296 0.800528 96.5864 147.845)" fill="#80C565"/>
<rect x="14.1732" y="79.4445" width="55.2756" height="17.3333" fill="#002B55"/>
<path d="M21.2599 41.7778C21.2599 36.2549 25.737 31.7778 31.2599 31.7778H53.7796C59.3024 31.7778 63.7796 36.2549 63.7796 41.7778V83.7778H21.2599V41.7778Z" fill="#002B55"/>
<path d="M54.7756 58.5C54.7756 65.0137 49.5969 70.2778 43.2284 70.2778C36.8599 70.2778 31.6812 65.0137 31.6812 58.5C31.6812 51.9863 36.8599 46.7222 43.2284 46.7222C49.5969 46.7222 54.7756 51.9863 54.7756 58.5Z" fill="#002B55" stroke="white"/>
<rect x="36.8503" y="91" width="11.3386" height="24.5556" fill="#002B55"/>
<path d="M9.92126 109.778H73.7008L58.8189 169H25.5118L9.92126 109.778Z" fill="#002B55"/>
<rect y="121.333" width="9.92126" height="44.7778" fill="#002B55"/>
<rect x="73.7008" y="121.333" width="9.92126" height="44.7778" fill="#002B55"/>
</svg>
