<svg width="671" height="268" viewBox="0 0 471 268" fill="none" xmlns="http://www.w3.org/2000/svg">
<rect width="471" height="268" rx="4" fill="#002B55"/>
<path d="M86 63.0573L64.0371 86.0358L89.8086 125.01L67.7188 126.534L53.7539 96.9538L51.3418 99.3659L48.5488 125.518L37.123 126.534L31.1562 57.4714L55.9121 55.9479L52.6113 87.3054L76.7324 55.9479L86 63.0573ZM144.779 125.137L106.186 126.026L101.361 57.4714L126.117 55.9479L118.627 117.647L145.287 114.473L144.779 125.137ZM199.369 125.137L158.617 126.026L153.793 57.4714L199.75 56.0749L199.369 63.0573L177.406 65.5964L174.74 87.1784L196.83 86.9245L197.338 96.319L173.852 94.5417L171.059 117.774L199.75 114.473L199.369 125.137ZM286.967 126.661L272.113 71.4362H271.225L259.926 125.137L250.531 126.661L228.061 75.4987H227.426L225.648 125.137L215.365 125.645L220.189 57.4714L245.326 56.4557L255.863 106.094L268.051 55.9479L293.188 57.4714L296.361 125.137L286.967 126.661ZM359.711 125.137L318.959 126.026L314.135 57.4714L360.092 56.0749L359.711 63.0573L337.748 65.5964L335.082 87.1784L357.172 86.9245L357.68 96.319L334.193 94.5417L331.4 117.774L360.092 114.473L359.711 125.137ZM434.105 56.4557L429.535 125.137L420.268 126.661L386.498 70.9284H385.736L385.99 125.137L375.707 125.645L378.5 57.4714L403.637 55.9479L421.918 107.872H422.68L423.695 56.9636L434.105 56.4557Z" fill="white"/>
<path d="M107.635 184.321H102.607V164.159H95.0312V159.114H115.193V164.159H107.635V184.321ZM122.91 184.321H117.865V159.114H122.91V169.203H132.982V159.114H138.027V184.321H132.982V174.248H122.91V184.321ZM160 184.321H142.721V159.114H160V164.159H147.766V169.203H156.045V174.248H147.766V179.276H160V184.321ZM100.146 216.823C100.146 218.018 99.9883 219.172 99.6719 220.285C99.3672 221.387 98.9336 222.424 98.3711 223.397C97.8086 224.358 97.1289 225.237 96.332 226.034C95.5352 226.83 94.6562 227.516 93.6953 228.09C92.7344 228.653 91.6973 229.086 90.584 229.391C89.4707 229.707 88.3164 229.866 87.1211 229.866C85.9258 229.866 84.7715 229.707 83.6582 229.391C82.5566 229.086 81.5195 228.653 80.5469 228.09C79.5859 227.516 78.707 226.83 77.9102 226.034C77.1133 225.237 76.4277 224.358 75.8535 223.397C75.291 222.424 74.8516 221.387 74.5352 220.285C74.2305 219.172 74.0781 218.018 74.0781 216.823C74.0781 215.627 74.2305 214.473 74.5352 213.36C74.8516 212.246 75.291 211.209 75.8535 210.248C76.4277 209.287 77.1133 208.409 77.9102 207.612C78.707 206.815 79.5859 206.135 80.5469 205.573C81.5195 205.01 82.5566 204.576 83.6582 204.272C84.7715 203.955 85.9258 203.797 87.1211 203.797C88.3164 203.797 89.4707 203.955 90.584 204.272C91.6973 204.576 92.7344 205.01 93.6953 205.573C94.6562 206.135 95.5352 206.815 96.332 207.612C97.1289 208.409 97.8086 209.287 98.3711 210.248C98.9336 211.209 99.3672 212.246 99.6719 213.36C99.9883 214.473 100.146 215.627 100.146 216.823ZM95.1367 216.823C95.1367 215.721 94.9258 214.684 94.5039 213.711C94.082 212.727 93.5078 211.877 92.7812 211.162C92.0664 210.436 91.2168 209.862 90.2324 209.44C89.2598 209.018 88.2227 208.807 87.1211 208.807C86.0078 208.807 84.9648 209.018 83.9922 209.44C83.0195 209.862 82.1699 210.436 81.4434 211.162C80.7168 211.877 80.1426 212.727 79.7207 213.711C79.2988 214.684 79.0879 215.721 79.0879 216.823C79.0879 217.924 79.2988 218.961 79.7207 219.934C80.1426 220.895 80.7168 221.739 81.4434 222.465C82.1699 223.192 83.0195 223.766 83.9922 224.188C84.9648 224.61 86.0078 224.821 87.1211 224.821C88.2227 224.821 89.2598 224.61 90.2324 224.188C91.2168 223.766 92.0664 223.192 92.7812 222.465C93.5078 221.739 94.082 220.895 94.5039 219.934C94.9258 218.961 95.1367 217.924 95.1367 216.823ZM108.514 209.159V219.248H113.559C114.25 219.248 114.9 219.119 115.51 218.862C116.119 218.592 116.652 218.229 117.109 217.772C117.566 217.315 117.924 216.782 118.182 216.172C118.451 215.551 118.586 214.895 118.586 214.203C118.586 213.512 118.451 212.862 118.182 212.252C117.924 211.631 117.566 211.092 117.109 210.635C116.652 210.178 116.119 209.821 115.51 209.563C114.9 209.293 114.25 209.159 113.559 209.159H108.514ZM108.514 229.321H103.469V204.114H113.559C114.484 204.114 115.375 204.237 116.23 204.483C117.086 204.717 117.883 205.057 118.621 205.502C119.371 205.936 120.051 206.463 120.66 207.084C121.281 207.694 121.809 208.373 122.242 209.123C122.688 209.873 123.027 210.676 123.262 211.532C123.508 212.387 123.631 213.278 123.631 214.203C123.631 215.071 123.52 215.914 123.297 216.735C123.086 217.555 122.775 218.334 122.365 219.073C121.967 219.811 121.475 220.491 120.889 221.112C120.303 221.733 119.646 222.272 118.92 222.729L121.715 229.321H116.354L114.156 224.241L108.514 224.276V229.321ZM131.998 229.321H126.953V204.114H131.998V229.321ZM156.748 226.772C155.576 227.768 154.27 228.535 152.828 229.075C151.387 229.602 149.887 229.866 148.328 229.866C147.133 229.866 145.979 229.707 144.865 229.391C143.764 229.086 142.732 228.653 141.771 228.09C140.811 227.516 139.932 226.836 139.135 226.051C138.338 225.254 137.658 224.375 137.096 223.414C136.533 222.442 136.094 221.399 135.777 220.285C135.473 219.172 135.32 218.018 135.32 216.823C135.32 215.627 135.473 214.479 135.777 213.377C136.094 212.276 136.533 211.244 137.096 210.284C137.658 209.311 138.338 208.432 139.135 207.647C139.932 206.85 140.811 206.17 141.771 205.608C142.732 205.045 143.764 204.612 144.865 204.307C145.979 203.991 147.133 203.832 148.328 203.832C149.887 203.832 151.387 204.102 152.828 204.641C154.27 205.168 155.576 205.93 156.748 206.926L154.111 211.321C153.35 210.547 152.471 209.944 151.475 209.51C150.479 209.065 149.43 208.842 148.328 208.842C147.227 208.842 146.189 209.053 145.217 209.475C144.256 209.897 143.412 210.471 142.686 211.198C141.959 211.912 141.385 212.756 140.963 213.729C140.541 214.69 140.33 215.721 140.33 216.823C140.33 217.936 140.541 218.979 140.963 219.951C141.385 220.924 141.959 221.774 142.686 222.5C143.412 223.227 144.256 223.801 145.217 224.223C146.189 224.645 147.227 224.856 148.328 224.856C148.961 224.856 149.576 224.78 150.174 224.627C150.771 224.475 151.34 224.264 151.879 223.994V216.823H156.748V226.772ZM165.678 229.321H160.633V204.114H165.678V229.321ZM190.533 229.321H185.137L175.416 212.727V229.321H170.371V204.114H175.768L185.488 220.725V204.114H190.533V229.321Z" fill="#80C565"/>
<g class="slikca">
  <path d="M317.684 145.657L377.452 212.501L293.129 232.691L317.684 145.657Z" fill="#FF4545"/>
  <path class="wing2" d="M407.159 130L437 238L399.201 206.114L366.873 200.457L343 174.229L407.159 130Z" fill="white"/>
  <path class="wing1" d="M280.603 126L309 181.187L297.043 219L259.679 197.538H171L280.603 126Z" fill="white"/>
  <rect width="88.0775" height="5.11019" transform="matrix(0.979932 -0.199333 0.190836 0.981622 294 231.343)" fill="#80C565"/>
  <ellipse cx="316" cy="202.5" rx="2" ry="2.5" fill="#002B55"/>
  <ellipse cx="316" cy="202.5" rx="2" ry="2.5" fill="#002B55"/>
  <ellipse cx="316" cy="202.5" rx="2" ry="2.5" fill="#002B55"/>
  <circle cx="340" cy="195" r="2" fill="#002B55"/>
  <circle cx="340" cy="195" r="2" fill="#002B55"/>
  <circle cx="340" cy="195" r="2" fill="#002B55"/>
  <ellipse cx="330" cy="202.5" rx="2" ry="2.5" fill="#002B55"/>
  <ellipse cx="330" cy="202.5" rx="2" ry="2.5" fill="#002B55"/>
  <ellipse cx="330" cy="202.5" rx="2" ry="2.5" fill="#002B55"/>
  <circle cx="353" cy="205" r="2" fill="#002B55"/>
  <circle cx="353" cy="205" r="2" fill="#002B55"/>
  <circle cx="353" cy="205" r="2" fill="#002B55"/>
  <circle cx="320" cy="214" r="2" fill="#002B55"/>
  <circle cx="320" cy="214" r="2" fill="#002B55"/>
  <circle cx="320" cy="214" r="2" fill="#002B55"/>
  <circle cx="339" cy="205" r="2" fill="#002B55"/>
  <circle cx="339" cy="205" r="2" fill="#002B55"/>
  <circle cx="339" cy="205" r="2" fill="#002B55"/>
  <circle cx="312" cy="214" r="2" fill="#002B55"/>
  <circle cx="312" cy="214" r="2" fill="#002B55"/>
  <circle cx="312" cy="214" r="2" fill="#002B55"/>
</g>
</svg>
