<svg width="568" height="52" viewBox="0 0 568 52" fill="none" xmlns="http://www.w3.org/2000/svg">
<path d="M290.976 8.36967L310.524 33.8981L282.945 41.6089L290.976 8.36967Z" fill="#ED3E3E"/>
<path d="M320.24 2.39014L330 43.6363L317.637 31.4589L307.064 29.2984L299.256 19.2814L320.24 2.39014Z" fill="#ED3E3E"/>
<path d="M278.848 0.862549L288.135 21.9389L284.225 36.3801L272.004 28.1837H243L278.848 0.862549Z" fill="#ED3E3E"/>
<rect width="29.0146" height="1.94213" transform="matrix(0.972932 -0.231093 0.164231 0.986422 283.229 41.094)" fill="#ED3E3E"/>
<path d="M291.079 30.0786C291.079 30.6059 290.786 31.0333 290.425 31.0333C290.063 31.0333 289.771 30.6059 289.771 30.0786C289.771 29.5512 290.063 29.1238 290.425 29.1238C290.786 29.1238 291.079 29.5512 291.079 30.0786Z" fill="white"/>
<ellipse cx="298.274" cy="27.2143" rx="0.654135" ry="0.763818" fill="white"/>
<ellipse cx="295.004" cy="30.0786" rx="0.654135" ry="0.954773" fill="white"/>
<ellipse cx="302.526" cy="31.0333" rx="0.654135" ry="0.763818" fill="white"/>
<ellipse cx="291.733" cy="34.4706" rx="0.654135" ry="0.763818" fill="white"/>
<ellipse cx="297.948" cy="31.0333" rx="0.654135" ry="0.763818" fill="white"/>
<ellipse cx="289.117" cy="34.4706" rx="0.654135" ry="0.763818" fill="white"/>
<line x1="333" y1="24.5" x2="568" y2="24.5" stroke="#ED3E3E" stroke-width="3"/>
<line y1="24.5" x2="235" y2="24.5" stroke="#ED3E3E" stroke-width="3"/>
</svg>
