<svg width="120" height="120" viewBox="0 0 120 120" fill="none" xmlns="http://www.w3.org/2000/svg">
<circle cx="60" cy="60" r="60" fill="white"/>
<path d="M23.224 50.248L17.068 50.536C16.684 50.536 16.288 50.284 15.88 49.78C15.472 49.276 15.268 48.784 15.268 48.304C15.268 47.872 15.952 47.596 17.32 47.476C18.712 47.356 21.748 47.296 26.428 47.296C28.852 47.296 30.844 47.56 32.404 48.088C33.988 48.616 34.78 49.204 34.78 49.852C34.78 50.308 34.384 50.536 33.592 50.536C32.8 50.536 31.696 50.488 30.28 50.392C28.864 50.296 27.508 50.236 26.212 50.212C26.284 50.452 26.32 50.716 26.32 51.004C26.32 51.892 25.384 56.02 23.512 63.388C23.32 64.156 23.032 65.356 22.648 66.988C22.264 68.62 21.976 69.76 21.784 70.408C21.448 71.68 21.148 72.316 20.884 72.316C20.524 72.316 20.116 72.052 19.66 71.524C19.228 70.972 19.012 70.42 19.012 69.868C19.012 69.316 19.66 66.484 20.956 61.372C22.252 56.236 23.008 52.528 23.224 50.248ZM39.4296 47.98C39.4296 47.596 39.4776 47.32 39.5736 47.152C39.6936 46.984 39.9216 46.9 40.2576 46.9C40.6176 46.9 41.0616 47.2 41.5896 47.8C42.1176 48.4 42.3816 49.036 42.3816 49.708C42.3816 51.388 41.3496 55.636 39.2856 62.452C38.2536 65.764 37.7376 67.744 37.7376 68.392C37.7376 69.04 38.0496 69.364 38.6736 69.364C41.3856 69.364 44.3616 68.92 47.6016 68.032C48.6336 67.744 49.2456 67.6 49.4376 67.6C49.6536 67.6 49.7976 67.648 49.8696 67.744C49.9416 67.816 49.9776 67.972 49.9776 68.212C49.9776 69.22 48.7416 70.168 46.2696 71.056C43.8216 71.944 41.3256 72.388 38.7816 72.388C37.6296 72.388 36.6216 72.052 35.7576 71.38C34.9176 70.708 34.4976 69.916 34.4976 69.004C34.4976 68.068 35.3136 64.744 36.9456 59.032C38.6016 53.32 39.4296 49.636 39.4296 47.98ZM58.074 72.712C58.074 74.224 57.426 75.82 56.13 77.5C54.834 79.18 53.718 80.02 52.782 80.02C52.302 80.02 52.062 79.84 52.062 79.48C52.062 79.24 52.314 78.82 52.818 78.22C54.33 76.42 55.086 74.908 55.086 73.684C55.086 73.3 54.93 72.988 54.618 72.748C54.306 72.484 53.994 72.256 53.682 72.064C53.394 71.848 53.25 71.584 53.25 71.272C53.25 70.936 53.454 70.516 53.862 70.012C54.27 69.508 54.702 69.256 55.158 69.256C55.926 69.256 56.598 69.616 57.174 70.336C57.774 71.032 58.074 71.824 58.074 72.712ZM59.586 60.904C59.034 60.904 58.374 60.412 57.606 59.428C56.862 58.444 56.49 57.676 56.49 57.124C56.49 56.548 56.658 55.984 56.994 55.432C57.354 54.856 57.702 54.568 58.038 54.568C58.614 54.568 59.19 55.252 59.766 56.62C60.342 57.988 60.63 58.936 60.63 59.464C60.63 59.992 60.522 60.364 60.306 60.58C60.114 60.796 59.874 60.904 59.586 60.904ZM68.3579 47.044C70.6139 47.044 73.0139 47.632 75.5579 48.808C78.1259 49.984 80.3339 51.616 82.1819 53.704C84.0299 55.768 84.9539 57.916 84.9539 60.148C84.9539 61.612 83.9339 63.34 81.8939 65.332C79.8779 67.3 77.5379 68.992 74.8739 70.408C72.2099 71.8 70.0019 72.496 68.2499 72.496C67.7939 72.496 67.2659 72.112 66.6659 71.344C66.0899 70.552 65.8019 69.76 65.8019 68.968C65.8019 68.152 66.4979 65.248 67.8899 60.256C69.2819 55.264 70.0379 51.976 70.1579 50.392C69.3899 50.08 68.7779 49.672 68.3219 49.168C67.8659 48.664 67.6379 48.184 67.6379 47.728C67.6379 47.272 67.8779 47.044 68.3579 47.044ZM81.6419 59.752C81.6419 58.264 80.7539 56.656 78.9779 54.928C77.2019 53.176 75.1379 51.916 72.7859 51.148C72.9059 51.58 72.9659 52.096 72.9659 52.696C72.9659 53.272 72.7499 54.364 72.3179 55.972C71.9099 57.58 71.1539 60.268 70.0499 64.036C69.5939 65.62 69.2219 67.36 68.9339 69.256C70.5899 69.04 72.4379 68.32 74.4779 67.096C76.5419 65.848 78.2459 64.516 79.5899 63.1C80.9579 61.684 81.6419 60.568 81.6419 59.752ZM89.725 72.424C89.365 72.424 88.957 72.16 88.501 71.632C88.045 71.104 87.817 70.576 87.817 70.048C87.817 69.496 88.477 66.892 89.797 62.236C91.117 57.58 91.873 54.04 92.065 51.616C91.753 51.424 91.477 51.124 91.237 50.716C90.997 50.308 90.877 49.948 90.877 49.636C90.877 49.084 91.693 48.52 93.325 47.944C94.957 47.344 96.757 47.044 98.725 47.044C100.717 47.044 102.433 47.524 103.873 48.484C105.337 49.42 106.069 50.752 106.069 52.48C106.069 53.656 105.733 54.76 105.061 55.792C104.413 56.8 103.609 57.628 102.649 58.276C101.713 58.924 100.777 59.5 99.841 60.004C98.905 60.508 98.101 60.928 97.429 61.264C96.781 61.576 96.457 61.804 96.457 61.948C96.457 62.476 96.865 63.16 97.681 64C98.521 64.84 99.109 65.416 99.445 65.728C99.781 66.04 100.225 66.46 100.777 66.988C101.329 67.492 101.845 67.948 102.325 68.356C102.829 68.764 103.225 69.1 103.513 69.364C103.825 69.628 104.137 69.904 104.449 70.192C105.049 70.744 105.349 71.188 105.349 71.524C105.349 72.1 104.953 72.388 104.161 72.388C102.721 72.388 100.669 71.14 98.005 68.644C95.341 66.124 93.709 63.988 93.109 62.236C91.981 65.98 91.333 68.152 91.165 68.752C90.997 69.328 90.805 69.928 90.589 70.552C90.205 71.8 89.917 72.424 89.725 72.424ZM95.161 52.588C95.161 54.148 94.657 56.728 93.649 60.328C94.057 60.016 94.837 59.56 95.989 58.96C97.141 58.336 98.173 57.772 99.085 57.268C100.021 56.74 100.873 56.044 101.641 55.18C102.409 54.316 102.793 53.416 102.793 52.48C102.793 50.992 101.497 50.248 98.905 50.248C97.729 50.248 96.361 50.548 94.801 51.148C95.041 51.676 95.161 52.156 95.161 52.588Z" fill="#80C565"/>
</svg>
